<svg width="42" height="43" viewBox="0 0 42 43" fill="none" xmlns="http://www.w3.org/2000/svg">
<g clip-path="url(#clip0_2422_6463)">
<circle cx="21" cy="21.5195" r="21" fill="#82BE80"/>
<path d="M26.9609 19.6699H31.9194V28.4263H26.9609V19.6699Z" fill="white"/>
<path d="M18.5215 19.6699H23.4799V28.4263H18.5215V19.6699Z" fill="white"/>
<path d="M32.8685 30.0078C32.072 30.0078 10.0954 30.0078 9.13131 30.0078C8.25873 30.0078 7.54883 30.7177 7.54883 31.5903V33.4365C7.54883 34.3091 8.25873 35.019 9.13131 35.019H32.8685C33.7411 35.019 34.451 34.3091 34.451 33.4365V31.5903C34.451 30.7177 33.7411 30.0078 32.8685 30.0078Z" fill="white"/>
<path d="M33.4593 12.9874C21.2703 8.00351 21.5965 8.13681 21.5877 8.13327C21.2116 7.98278 20.7935 7.97972 20.4066 8.13549L8.54052 12.9874C7.93796 13.2299 7.54883 13.8058 7.54883 14.4555V16.5046C7.54883 17.3771 8.25873 18.087 9.13131 18.087H32.8685C33.7411 18.087 34.451 17.3771 34.451 16.5046V14.4555C34.451 13.8058 34.0619 13.2299 33.4593 12.9874Z" fill="white"/>
<path d="M10.082 19.6699H15.0405V28.4263H10.082V19.6699Z" fill="white"/>
</g>
<defs>
<clipPath id="clip0_2422_6463">
<rect width="42" height="42" fill="white" transform="translate(0 0.519531)"/>
</clipPath>
</defs>
</svg>
