<svg width="42" height="43" viewBox="0 0 42 43" fill="none" xmlns="http://www.w3.org/2000/svg">
<g clip-path="url(#clip0_2422_6462)">
<circle cx="21" cy="21.5195" r="21" fill="#B63A30"/>
<path d="M22.4363 8.25185C23.1226 10.5811 25.9338 11.4948 27.8582 10.0138C28.9407 9.18063 30.4436 10.2714 29.9841 11.5582C29.1699 13.8455 30.9075 16.2372 33.3348 16.1699C34.7007 16.1323 35.2734 17.8972 34.1465 18.6689C32.1436 20.0411 32.1436 22.9972 34.1465 24.3699C35.2734 25.1416 34.7002 26.9065 33.3348 26.8684C30.9075 26.8016 29.1699 29.1928 29.9841 31.4806C30.4417 32.7675 28.9407 33.8582 27.8582 33.025C25.9338 31.544 23.1226 32.4577 22.4363 34.787C22.0504 36.0967 20.1948 36.0967 19.809 34.787C19.1226 32.4577 16.3114 31.544 14.387 33.025C13.3046 33.8582 11.8017 32.7675 12.2617 31.4806C13.0753 29.1928 11.3377 26.8016 8.91043 26.8684C7.54458 26.9065 6.9719 25.1416 8.09872 24.3699C10.1017 22.9972 10.1017 20.0411 8.09872 18.6689C6.9719 17.8972 7.54555 16.1323 8.91043 16.1699C11.3377 16.2372 13.0753 13.8455 12.2617 11.5582C11.8036 10.2714 13.3051 9.18063 14.387 10.0138C16.3114 11.4948 19.1226 10.5811 19.809 8.25185C20.1948 6.94209 22.0504 6.94209 22.4363 8.25185Z" fill="white"/>
</g>
<defs>
<clipPath id="clip0_2422_6462">
<rect width="42" height="42" fill="white" transform="translate(0 0.519531)"/>
</clipPath>
</defs>
</svg>
