<svg width="42" height="43" viewBox="0 0 42 43" fill="none" xmlns="http://www.w3.org/2000/svg">
<g clip-path="url(#clip0_2422_6459)">
<circle cx="21" cy="21.5195" r="21" fill="#5B91F9"/>
<path d="M30.616 12.3734L21.2021 9.5492C21.0703 9.50964 20.9298 9.50964 20.798 9.5492L11.3839 12.3734C11.0865 12.4626 10.8828 12.7364 10.8828 13.0469V23.4023C10.8828 24.7492 11.4281 26.128 12.5035 27.5004C13.3248 28.5485 14.4611 29.601 15.8807 30.6286C18.2655 32.3549 20.6139 33.4139 20.7127 33.4581C20.8041 33.499 20.9021 33.5195 21 33.5195C21.098 33.5195 21.196 33.4991 21.2873 33.4581C21.3861 33.4139 23.7344 32.3549 26.1193 30.6286C27.5389 29.601 28.6752 28.5485 29.4965 27.5004C30.5719 26.128 31.1171 24.7493 31.1171 23.4023V13.0469C31.1171 12.7364 30.9135 12.4626 30.616 12.3734Z" fill="white"/>
</g>
<defs>
<clipPath id="clip0_2422_6459">
<rect width="42" height="42" fill="white" transform="translate(0 0.519531)"/>
</clipPath>
</defs>
</svg>
