<svg width="42" height="43" viewBox="0 0 42 43" fill="none" xmlns="http://www.w3.org/2000/svg">
<g clip-path="url(#clip0_2422_6460)">
<circle cx="21" cy="21.5195" r="21" fill="#D4D5D2"/>
<path d="M34.0421 18.6596L28.2024 24.3521L29.5814 32.3921C29.6414 32.7437 29.4971 33.099 29.2083 33.309C29.0452 33.428 28.8511 33.488 28.6571 33.488C28.508 33.488 28.358 33.4524 28.2211 33.3802L21.0005 29.5843L13.7808 33.3793C13.4658 33.5462 13.0824 33.519 12.7936 33.308C12.5049 33.098 12.3605 32.7427 12.4205 32.3912L13.7996 24.3512L7.95895 18.6596C7.70395 18.4102 7.61114 18.0371 7.72176 17.6987C7.83239 17.3602 8.12583 17.1118 8.47926 17.0602L16.5502 15.8884L20.1596 8.57398C20.4755 7.93367 21.5255 7.93367 21.8414 8.57398L25.4508 15.8884L33.5218 17.0602C33.8752 17.1118 34.1686 17.3593 34.2793 17.6987C34.3899 18.038 34.2971 18.4093 34.0421 18.6596Z" fill="white"/>
</g>
<defs>
<clipPath id="clip0_2422_6460">
<rect width="42" height="42" fill="white" transform="translate(0 0.519531)"/>
</clipPath>
</defs>
</svg>
