<svg width="285" height="252" viewBox="0 0 285 252" fill="none" xmlns="http://www.w3.org/2000/svg">
<path d="M0 24C0 10.7452 10.7452 0 24 0H261C274.255 0 285 10.7452 285 24V228C285 241.255 274.255 252 261 252H24C10.7452 252 0 241.255 0 228V24Z" fill="#5D71DE"/>
<path fill-rule="evenodd" clip-rule="evenodd" d="M158.352 36.6698L162.958 45.4882L162.962 45.4953L159.648 47.1455L155.037 38.3273L158.352 36.6698ZM164.3 48.1802L159.669 50.4865C158.937 50.8506 158.049 50.5627 157.671 49.8388L151.671 38.3638C151.484 38.0071 151.449 37.5904 151.573 37.2073C151.697 36.8243 151.969 36.5071 152.329 36.3271L157.012 33.9855C157.712 33.6309 158.524 33.5663 159.271 33.8059C160.019 34.046 160.643 34.5721 161.005 35.2696C161.006 35.2703 161.006 35.271 161.006 35.2717L165.613 44.0923C165.614 44.0936 165.615 44.095 165.616 44.0964C165.801 44.4488 165.915 44.8348 165.95 45.2317C165.985 45.6301 165.94 46.0316 165.818 46.4124C165.696 46.7933 165.498 47.1458 165.238 47.4494C164.977 47.7529 164.658 48.0017 164.3 48.1802Z" fill="white"/>
<path fill-rule="evenodd" clip-rule="evenodd" d="M126.655 36.4672L122.046 45.2928L125.353 46.9531L129.964 38.1214L126.655 36.4672ZM125.715 33.6184C126.457 33.3733 127.266 33.4277 127.969 33.7701L127.983 33.7769L132.671 36.1207C133.03 36.3007 133.303 36.6177 133.427 37.0005C133.551 37.3833 133.516 37.7998 133.329 38.1565L127.329 49.6503C126.95 50.3764 126.059 50.6642 125.327 50.2967L120.701 47.9744C120.345 47.7987 120.028 47.5538 119.768 47.2539C119.506 46.9519 119.307 46.6003 119.184 46.2201C119.061 45.8399 119.016 45.4388 119.05 45.0406C119.085 44.6445 119.199 44.2593 119.385 43.9078L123.994 35.0826C123.994 35.0821 123.995 35.0816 123.995 35.0811C124.356 34.3882 124.973 33.8634 125.715 33.6184Z" fill="white"/>
<path fill-rule="evenodd" clip-rule="evenodd" d="M124.818 48.0331C125.327 47.3801 126.27 47.264 126.923 47.7737L137.179 55.78L137.202 55.7979L148.001 58.4977C148.013 58.499 148.025 58.4981 148.036 58.4949C148.048 58.4917 148.059 58.4865 148.068 58.4793L154.897 51.6506L157.858 48.1714C158.395 47.5406 159.341 47.4644 159.972 48.0013C160.603 48.5382 160.679 49.4849 160.142 50.1158L157.142 53.6408C157.116 53.6714 157.089 53.7009 157.061 53.7293L150.161 60.6293C150.154 60.6357 150.148 60.6421 150.141 60.6485C150.136 60.6538 150.13 60.659 150.125 60.6642C149.76 61.0056 149.317 61.2534 148.835 61.3865C148.354 61.5197 147.847 61.5341 147.358 61.4286C147.343 61.4252 147.327 61.4215 147.311 61.4176L136.436 58.6988C136.423 58.6956 136.41 58.6921 136.397 58.6885C136.006 58.5794 135.64 58.3917 135.324 58.1371L125.077 50.1385C124.424 49.6288 124.308 48.6861 124.818 48.0331Z" fill="white"/>
<path fill-rule="evenodd" clip-rule="evenodd" d="M145.371 39.1687L138.042 46.4795C138.041 46.481 138.04 46.4827 138.039 46.4845C138.038 46.487 138.038 46.4897 138.038 46.4923C138.038 46.495 138.039 46.4976 138.04 46.4999C138.042 46.5022 138.043 46.5043 138.045 46.5059L139.052 47.27C139.832 47.8505 140.778 48.164 141.75 48.164C142.724 48.164 143.671 47.8496 144.452 47.2677C144.452 47.2673 144.452 47.267 144.453 47.2666L146.85 45.4687C147.377 45.0736 148.1 45.0683 148.632 45.4556L156.882 51.4556C157.552 51.9429 157.701 52.881 157.213 53.551C156.726 54.2209 155.788 54.3691 155.118 53.8818L147.764 48.5334L146.247 49.6708C144.948 50.6403 143.371 51.164 141.75 51.164C140.129 51.164 138.552 50.6403 137.253 49.6708L137.243 49.6634L136.231 48.8946C135.89 48.6359 135.608 48.3073 135.404 47.9316C135.2 47.5559 135.078 47.1412 135.046 46.7149C135.015 46.2885 135.074 45.8603 135.22 45.4586C135.366 45.0569 135.596 44.6908 135.894 44.3846L135.91 44.3692L143.261 37.0367C143.539 36.7602 143.868 36.5412 144.231 36.3922C144.593 36.2437 144.98 36.1677 145.371 36.1687C145.372 36.1687 145.373 36.1687 145.374 36.1687L145.369 37.6687V36.1687H145.371H153C153.829 36.1687 154.5 36.8403 154.5 37.6687C154.5 38.4971 153.829 39.1687 153 39.1687H145.371Z" fill="white"/>
<path fill-rule="evenodd" clip-rule="evenodd" d="M142.145 36.0918L148.63 39.0346C149.385 39.3769 150.274 39.0429 150.616 38.2885C150.958 37.5341 150.624 36.645 149.87 36.3027L143.382 33.359L143.38 33.358C142.732 33.0652 142.001 33.012 141.318 33.208L131.691 36.0227C130.896 36.2552 130.44 37.0883 130.673 37.8834C130.905 38.6785 131.738 39.1346 132.533 38.9021L142.145 36.0918Z" fill="white"/>
<path fill-rule="evenodd" clip-rule="evenodd" d="M127.867 57.5171C128.41 56.8913 129.357 56.8239 129.983 57.3667L134.215 61.0372C134.218 61.0379 134.221 61.0386 134.223 61.0393L139.867 62.4643C140.67 62.6671 141.157 63.4826 140.954 64.2859C140.752 65.0891 139.936 65.5758 139.133 65.373L133.504 63.9518C133.038 63.8427 132.606 63.6195 132.248 63.3022L128.017 59.6331C127.391 59.0903 127.324 58.143 127.867 57.5171Z" fill="white"/>
<path d="M47.0142 118.24C45.6142 118.24 44.3476 117.907 43.2142 117.24C42.0809 116.573 41.1876 115.653 40.5342 114.48C39.8942 113.307 39.5742 111.993 39.5742 110.54C39.5742 109.087 39.8942 107.773 40.5342 106.6C41.1876 105.427 42.0742 104.513 43.1942 103.86C44.3276 103.193 45.6009 102.86 47.0142 102.86C48.0409 102.86 48.9809 103.04 49.8342 103.4C50.6876 103.747 51.4076 104.22 51.9942 104.82C52.5942 105.407 53.0276 106.06 53.2942 106.78L50.8542 107.92C50.5609 107.147 50.0742 106.527 49.3942 106.06C48.7142 105.58 47.9209 105.34 47.0142 105.34C46.0942 105.34 45.2742 105.56 44.5542 106C43.8342 106.427 43.2742 107.033 42.8742 107.82C42.4876 108.607 42.2942 109.513 42.2942 110.54C42.2942 111.567 42.4876 112.48 42.8742 113.28C43.2742 114.067 43.8342 114.68 44.5542 115.12C45.2742 115.547 46.0942 115.76 47.0142 115.76C47.9209 115.76 48.7142 115.527 49.3942 115.06C50.0742 114.58 50.5609 113.953 50.8542 113.18L53.2942 114.32C53.0276 115.04 52.5942 115.7 51.9942 116.3C51.4076 116.887 50.6876 117.36 49.8342 117.72C48.9809 118.067 48.0409 118.24 47.0142 118.24ZM60.4072 118.24C59.3539 118.24 58.3872 117.993 57.5072 117.5C56.6272 117.007 55.9272 116.327 55.4072 115.46C54.9005 114.593 54.6472 113.627 54.6472 112.56C54.6472 111.493 54.9005 110.527 55.4072 109.66C55.9139 108.793 56.6072 108.113 57.4872 107.62C58.3672 107.127 59.3405 106.88 60.4072 106.88C61.4605 106.88 62.4205 107.127 63.2872 107.62C64.1672 108.113 64.8605 108.793 65.3672 109.66C65.8872 110.527 66.1472 111.493 66.1472 112.56C66.1472 113.64 65.8872 114.613 65.3672 115.48C64.8605 116.347 64.1672 117.027 63.2872 117.52C62.4072 118 61.4472 118.24 60.4072 118.24ZM57.3672 112.56C57.3672 113.507 57.6472 114.293 58.2072 114.92C58.7805 115.533 59.5139 115.84 60.4072 115.84C60.9805 115.84 61.4939 115.7 61.9472 115.42C62.4005 115.14 62.7539 114.753 63.0072 114.26C63.2739 113.753 63.4072 113.187 63.4072 112.56C63.4072 111.947 63.2739 111.393 63.0072 110.9C62.7539 110.393 62.4005 110 61.9472 109.72C61.4939 109.427 60.9805 109.28 60.4072 109.28C59.8205 109.28 59.2939 109.427 58.8272 109.72C58.3739 110 58.0139 110.387 57.7472 110.88C57.4939 111.373 57.3672 111.933 57.3672 112.56ZM68.1341 102.86H70.7541V118H68.1341V102.86ZM73.1731 102.86H75.7931V118H73.1731V102.86ZM81.5122 118.24C80.3655 118.24 79.4522 117.96 78.7722 117.4C78.1055 116.84 77.7722 116.08 77.7722 115.12C77.7722 114.2 78.0855 113.44 78.7122 112.84C79.3389 112.24 80.2789 111.84 81.5322 111.64L84.7722 111.12V110.76C84.7722 110.28 84.5855 109.887 84.2122 109.58C83.8522 109.273 83.3722 109.12 82.7722 109.12C82.2122 109.12 81.7122 109.273 81.2722 109.58C80.8455 109.873 80.5322 110.267 80.3322 110.76L78.1922 109.72C78.5122 108.867 79.0989 108.18 79.9522 107.66C80.8055 107.14 81.7789 106.88 82.8722 106.88C83.7522 106.88 84.5322 107.047 85.2122 107.38C85.9055 107.7 86.4389 108.16 86.8122 108.76C87.1989 109.347 87.3922 110.013 87.3922 110.76V118H84.9122V116.84C84.0589 117.773 82.9255 118.24 81.5122 118.24ZM80.4922 115.02C80.4922 115.393 80.6322 115.693 80.9122 115.92C81.1922 116.133 81.5522 116.24 81.9922 116.24C82.8055 116.24 83.4722 115.987 83.9922 115.48C84.5122 114.96 84.7722 114.32 84.7722 113.56V113.12L82.0322 113.58C81.5122 113.687 81.1255 113.86 80.8722 114.1C80.6189 114.327 80.4922 114.633 80.4922 115.02ZM95.7538 118.24C95.0471 118.24 94.3871 118.113 93.7738 117.86C93.1738 117.607 92.6738 117.247 92.2738 116.78V118H89.8138V102.86H92.4338V108.22C92.8204 107.793 93.3004 107.467 93.8737 107.24C94.4471 107 95.0804 106.88 95.7738 106.88C96.7871 106.88 97.7138 107.133 98.5538 107.64C99.3938 108.133 100.054 108.813 100.534 109.68C101.014 110.547 101.254 111.507 101.254 112.56C101.254 113.613 101.014 114.573 100.534 115.44C100.054 116.307 99.3938 116.993 98.5538 117.5C97.7271 117.993 96.7938 118.24 95.7538 118.24ZM92.4338 112.56C92.4338 113.187 92.5604 113.753 92.8138 114.26C93.0804 114.753 93.4404 115.14 93.8938 115.42C94.3604 115.7 94.8804 115.84 95.4538 115.84C96.3471 115.84 97.0804 115.533 97.6538 114.92C98.2404 114.293 98.5338 113.507 98.5338 112.56C98.5338 111.947 98.4004 111.393 98.1338 110.9C97.8671 110.393 97.5004 110 97.0338 109.72C96.5671 109.427 96.0404 109.28 95.4538 109.28C94.8804 109.28 94.3604 109.42 93.8938 109.7C93.4404 109.98 93.0804 110.373 92.8138 110.88C92.5604 111.373 92.4338 111.933 92.4338 112.56ZM108.571 118.24C107.518 118.24 106.551 117.993 105.671 117.5C104.791 117.007 104.091 116.327 103.571 115.46C103.065 114.593 102.811 113.627 102.811 112.56C102.811 111.493 103.065 110.527 103.571 109.66C104.078 108.793 104.771 108.113 105.651 107.62C106.531 107.127 107.505 106.88 108.571 106.88C109.625 106.88 110.585 107.127 111.451 107.62C112.331 108.113 113.025 108.793 113.531 109.66C114.051 110.527 114.311 111.493 114.311 112.56C114.311 113.64 114.051 114.613 113.531 115.48C113.025 116.347 112.331 117.027 111.451 117.52C110.571 118 109.611 118.24 108.571 118.24ZM105.531 112.56C105.531 113.507 105.811 114.293 106.371 114.92C106.945 115.533 107.678 115.84 108.571 115.84C109.145 115.84 109.658 115.7 110.111 115.42C110.565 115.14 110.918 114.753 111.171 114.26C111.438 113.753 111.571 113.187 111.571 112.56C111.571 111.947 111.438 111.393 111.171 110.9C110.918 110.393 110.565 110 110.111 109.72C109.658 109.427 109.145 109.28 108.571 109.28C107.985 109.28 107.458 109.427 106.991 109.72C106.538 110 106.178 110.387 105.911 110.88C105.658 111.373 105.531 111.933 105.531 112.56ZM116.298 107.12H118.758V108.64C119.025 108.053 119.405 107.633 119.898 107.38C120.391 107.127 120.991 107 121.698 107H122.338V109.32H121.398C120.651 109.32 120.051 109.553 119.598 110.02C119.145 110.487 118.918 111.127 118.918 111.94V118H116.298V107.12ZM127.079 118.24C125.932 118.24 125.019 117.96 124.339 117.4C123.672 116.84 123.339 116.08 123.339 115.12C123.339 114.2 123.652 113.44 124.279 112.84C124.905 112.24 125.845 111.84 127.099 111.64L130.339 111.12V110.76C130.339 110.28 130.152 109.887 129.779 109.58C129.419 109.273 128.939 109.12 128.339 109.12C127.779 109.12 127.279 109.273 126.839 109.58C126.412 109.873 126.099 110.267 125.899 110.76L123.759 109.72C124.079 108.867 124.665 108.18 125.519 107.66C126.372 107.14 127.345 106.88 128.439 106.88C129.319 106.88 130.099 107.047 130.779 107.38C131.472 107.7 132.005 108.16 132.379 108.76C132.765 109.347 132.959 110.013 132.959 110.76V118H130.479V116.84C129.625 117.773 128.492 118.24 127.079 118.24ZM126.059 115.02C126.059 115.393 126.199 115.693 126.479 115.92C126.759 116.133 127.119 116.24 127.559 116.24C128.372 116.24 129.039 115.987 129.559 115.48C130.079 114.96 130.339 114.32 130.339 113.56V113.12L127.599 113.58C127.079 113.687 126.692 113.86 126.439 114.1C126.185 114.327 126.059 114.633 126.059 115.02ZM140.145 118.12C138.918 118.12 137.965 117.787 137.285 117.12C136.618 116.44 136.285 115.487 136.285 114.26V109.46H134.405V107.12H134.605C135.138 107.12 135.552 106.98 135.845 106.7C136.138 106.42 136.285 106.013 136.285 105.48V104.64H138.905V107.12H141.405V109.46H138.905V114.12C138.905 115.253 139.518 115.82 140.745 115.82C140.958 115.82 141.192 115.8 141.445 115.76V118.02C141.018 118.087 140.585 118.12 140.145 118.12ZM143.447 107.12H146.067V118H143.447V107.12ZM143.247 104.12C143.247 103.64 143.38 103.267 143.647 103C143.913 102.733 144.28 102.6 144.747 102.6C145.227 102.6 145.6 102.733 145.867 103C146.133 103.267 146.267 103.64 146.267 104.12C146.267 104.587 146.133 104.953 145.867 105.22C145.613 105.487 145.24 105.62 144.747 105.62C144.28 105.62 143.913 105.487 143.647 105.22C143.38 104.953 143.247 104.587 143.247 104.12ZM147.486 107.12H150.346L152.926 114.22L155.506 107.12H158.366L154.086 118H151.766L147.486 107.12ZM164.778 118.24C163.685 118.24 162.712 117.987 161.858 117.48C161.018 116.973 160.358 116.287 159.878 115.42C159.412 114.553 159.178 113.593 159.178 112.54C159.178 111.473 159.412 110.513 159.878 109.66C160.358 108.793 161.005 108.113 161.818 107.62C162.645 107.127 163.565 106.88 164.578 106.88C165.672 106.88 166.618 107.12 167.418 107.6C168.218 108.067 168.825 108.707 169.238 109.52C169.665 110.333 169.878 111.227 169.878 112.2C169.878 112.653 169.832 113.02 169.738 113.3H161.898C161.978 114.1 162.285 114.74 162.818 115.22C163.352 115.7 164.012 115.94 164.798 115.94C165.385 115.94 165.885 115.82 166.298 115.58C166.725 115.327 167.065 114.98 167.318 114.54L169.438 115.58C169.105 116.38 168.518 117.027 167.678 117.52C166.838 118 165.872 118.24 164.778 118.24ZM167.078 111.3C167.012 110.633 166.752 110.093 166.298 109.68C165.845 109.253 165.272 109.04 164.578 109.04C163.912 109.04 163.345 109.24 162.878 109.64C162.412 110.027 162.105 110.58 161.958 111.3H167.078ZM182.639 118.24C181.239 118.24 179.973 117.907 178.839 117.24C177.706 116.573 176.813 115.653 176.159 114.48C175.519 113.307 175.199 111.993 175.199 110.54C175.199 109.087 175.519 107.773 176.159 106.6C176.813 105.427 177.699 104.513 178.819 103.86C179.953 103.193 181.226 102.86 182.639 102.86C183.666 102.86 184.606 103.04 185.459 103.4C186.313 103.747 187.033 104.22 187.619 104.82C188.219 105.407 188.653 106.06 188.919 106.78L186.479 107.92C186.186 107.147 185.699 106.527 185.019 106.06C184.339 105.58 183.546 105.34 182.639 105.34C181.719 105.34 180.899 105.56 180.179 106C179.459 106.427 178.899 107.033 178.499 107.82C178.113 108.607 177.919 109.513 177.919 110.54C177.919 111.567 178.113 112.48 178.499 113.28C178.899 114.067 179.459 114.68 180.179 115.12C180.899 115.547 181.719 115.76 182.639 115.76C183.546 115.76 184.339 115.527 185.019 115.06C185.699 114.58 186.186 113.953 186.479 113.18L188.919 114.32C188.653 115.04 188.219 115.7 187.619 116.3C187.033 116.887 186.313 117.36 185.459 117.72C184.606 118.067 183.666 118.24 182.639 118.24ZM194.788 118.24C193.521 118.24 192.521 117.833 191.788 117.02C191.054 116.207 190.688 115.127 190.688 113.78V107.12H193.308V113.56C193.308 114.24 193.508 114.793 193.908 115.22C194.321 115.633 194.854 115.84 195.508 115.84C196.161 115.84 196.688 115.627 197.088 115.2C197.501 114.773 197.708 114.207 197.708 113.5V107.12H200.328V118H197.848V116.7C197.554 117.207 197.141 117.593 196.608 117.86C196.088 118.113 195.481 118.24 194.788 118.24ZM202.763 102.86H205.383V118H202.763V102.86ZM212.762 118.12C211.535 118.12 210.582 117.787 209.902 117.12C209.235 116.44 208.902 115.487 208.902 114.26V109.46H207.022V107.12H207.222C207.755 107.12 208.169 106.98 208.462 106.7C208.755 106.42 208.902 106.013 208.902 105.48V104.64H211.522V107.12H214.022V109.46H211.522V114.12C211.522 115.253 212.135 115.82 213.362 115.82C213.575 115.82 213.809 115.8 214.062 115.76V118.02C213.635 118.087 213.202 118.12 212.762 118.12ZM219.944 118.24C218.677 118.24 217.677 117.833 216.944 117.02C216.21 116.207 215.844 115.127 215.844 113.78V107.12H218.464V113.56C218.464 114.24 218.664 114.793 219.064 115.22C219.477 115.633 220.01 115.84 220.664 115.84C221.317 115.84 221.844 115.627 222.244 115.2C222.657 114.773 222.864 114.207 222.864 113.5V107.12H225.484V118H223.004V116.7C222.71 117.207 222.297 117.593 221.764 117.86C221.244 118.113 220.637 118.24 219.944 118.24ZM227.919 107.12H230.379V108.64C230.646 108.053 231.026 107.633 231.519 107.38C232.013 107.127 232.613 107 233.319 107H233.959V109.32H233.019C232.273 109.32 231.673 109.553 231.219 110.02C230.766 110.487 230.539 111.127 230.539 111.94V118H227.919V107.12ZM240.56 118.24C239.466 118.24 238.493 117.987 237.64 117.48C236.8 116.973 236.14 116.287 235.66 115.42C235.193 114.553 234.96 113.593 234.96 112.54C234.96 111.473 235.193 110.513 235.66 109.66C236.14 108.793 236.786 108.113 237.6 107.62C238.426 107.127 239.346 106.88 240.36 106.88C241.453 106.88 242.4 107.12 243.2 107.6C244 108.067 244.606 108.707 245.02 109.52C245.446 110.333 245.66 111.227 245.66 112.2C245.66 112.653 245.613 113.02 245.52 113.3H237.68C237.76 114.1 238.066 114.74 238.6 115.22C239.133 115.7 239.793 115.94 240.58 115.94C241.166 115.94 241.666 115.82 242.08 115.58C242.506 115.327 242.846 114.98 243.1 114.54L245.22 115.58C244.886 116.38 244.3 117.027 243.46 117.52C242.62 118 241.653 118.24 240.56 118.24ZM242.86 111.3C242.793 110.633 242.533 110.093 242.08 109.68C241.626 109.253 241.053 109.04 240.36 109.04C239.693 109.04 239.126 109.24 238.66 109.64C238.193 110.027 237.886 110.58 237.74 111.3H242.86Z" fill="white"/>
<path opacity="0.75" d="M41.7968 139.08H43.3648V145.176L48.6768 139.08H50.6448L46.3248 144.072L50.8848 151H49.0128L45.2368 145.336L43.3648 147.48V151H41.7968V139.08ZM54.5863 151.192C53.7329 151.192 53.0396 150.968 52.5063 150.52C51.9729 150.061 51.7063 149.469 51.7063 148.744C51.7063 148.04 51.9356 147.453 52.3943 146.984C52.8636 146.504 53.5729 146.184 54.5223 146.024L57.4663 145.544V145.144C57.4663 144.675 57.2903 144.296 56.9383 144.008C56.5863 143.709 56.1329 143.56 55.5783 143.56C55.0876 143.56 54.6503 143.688 54.2663 143.944C53.8929 144.189 53.6156 144.52 53.4343 144.936L52.1383 144.264C52.3836 143.667 52.8316 143.171 53.4823 142.776C54.1329 142.381 54.8423 142.184 55.6102 142.184C56.2609 142.184 56.8369 142.312 57.3383 142.568C57.8503 142.813 58.2449 143.16 58.5223 143.608C58.8103 144.056 58.9543 144.568 58.9543 145.144V151H57.4983V149.88C57.1889 150.285 56.7783 150.605 56.2663 150.84C55.7649 151.075 55.2049 151.192 54.5863 151.192ZM53.2743 148.696C53.2743 149.048 53.4129 149.341 53.6903 149.576C53.9783 149.811 54.3356 149.928 54.7623 149.928C55.2849 149.928 55.7489 149.816 56.1543 149.592C56.5703 149.357 56.8903 149.043 57.1143 148.648C57.3489 148.253 57.4663 147.816 57.4663 147.336V146.792L54.8583 147.224C53.8023 147.405 53.2743 147.896 53.2743 148.696ZM61.2614 138.888H62.7494V151H61.2614V138.888ZM65.0583 138.888H66.5463V151H65.0583V138.888ZM68.8551 142.376H70.3431V151H68.8551V142.376ZM68.6791 140.072C68.6791 139.795 68.7645 139.571 68.9351 139.4C69.1058 139.229 69.3298 139.144 69.6071 139.144C69.8845 139.144 70.1085 139.229 70.2791 139.4C70.4498 139.571 70.5351 139.795 70.5351 140.072C70.5351 140.349 70.4498 140.573 70.2791 140.744C70.1085 140.915 69.8845 141 69.6071 141C69.3298 141 69.1058 140.915 68.9351 140.744C68.7645 140.573 68.6791 140.349 68.6791 140.072ZM75.74 151.192C74.908 151.192 74.172 150.989 73.532 150.584C72.892 150.168 72.4333 149.608 72.156 148.904L73.356 148.296C73.6013 148.797 73.9373 149.192 74.364 149.48C74.7907 149.768 75.2547 149.912 75.756 149.912C76.236 149.912 76.6307 149.8 76.94 149.576C77.2493 149.352 77.404 149.059 77.404 148.696C77.404 148.344 77.2653 148.061 76.988 147.848C76.7107 147.624 76.412 147.491 76.092 147.448L74.796 147.272C74.028 147.08 73.452 146.76 73.068 146.312C72.684 145.864 72.492 145.336 72.492 144.728C72.492 144.227 72.62 143.784 72.876 143.4C73.1427 143.016 73.5053 142.717 73.964 142.504C74.4333 142.291 74.9507 142.184 75.516 142.184C76.2627 142.184 76.9293 142.371 77.516 142.744C78.1133 143.117 78.54 143.635 78.796 144.296L77.612 144.904C77.3987 144.467 77.1 144.12 76.716 143.864C76.3427 143.608 75.9267 143.48 75.468 143.48C75.0307 143.48 74.6787 143.587 74.412 143.8C74.1453 144.013 74.012 144.291 74.012 144.632C74.012 144.984 74.1347 145.267 74.38 145.48C74.636 145.683 74.9133 145.811 75.212 145.864L76.636 146.056C77.3507 146.248 77.9053 146.579 78.3 147.048C78.7053 147.507 78.908 148.04 78.908 148.648C78.908 149.139 78.7747 149.576 78.508 149.96C78.2413 150.344 77.868 150.648 77.388 150.872C76.908 151.085 76.3587 151.192 75.74 151.192ZM84.3279 151.096C83.4852 151.096 82.8345 150.861 82.3759 150.392C81.9279 149.912 81.7039 149.229 81.7039 148.344V143.8H80.1359V142.376H80.4559C80.8399 142.376 81.1439 142.264 81.3679 142.04C81.5919 141.805 81.7039 141.491 81.7039 141.096V140.392H83.1919V142.376H85.1279V143.8H83.1919V148.296C83.1919 149.256 83.6719 149.736 84.6319 149.736C84.8345 149.736 85.0319 149.72 85.2239 149.688V151.016C84.9999 151.069 84.7012 151.096 84.3279 151.096ZM91.0293 151.192C90.2079 151.192 89.4559 151 88.7733 150.616C88.1013 150.221 87.5679 149.683 87.1733 149C86.7786 148.307 86.5813 147.533 86.5813 146.68C86.5813 145.837 86.7733 145.075 87.1573 144.392C87.5519 143.699 88.0853 143.16 88.7573 142.776C89.4399 142.381 90.1973 142.184 91.0293 142.184C91.8506 142.184 92.5973 142.381 93.2693 142.776C93.9519 143.16 94.4853 143.693 94.8693 144.376C95.2639 145.059 95.4613 145.827 95.4613 146.68C95.4613 147.544 95.2639 148.317 94.8693 149C94.4746 149.683 93.9359 150.221 93.2533 150.616C92.5813 151 91.8399 151.192 91.0293 151.192ZM88.1493 146.68C88.1493 147.256 88.2719 147.779 88.5173 148.248C88.7733 148.717 89.1199 149.085 89.5573 149.352C90.0053 149.619 90.4959 149.752 91.0293 149.752C91.5519 149.752 92.0319 149.619 92.4693 149.352C92.9066 149.085 93.2479 148.717 93.4933 148.248C93.7493 147.779 93.8773 147.256 93.8773 146.68C93.8773 146.104 93.7493 145.587 93.4933 145.128C93.2479 144.659 92.9066 144.291 92.4693 144.024C92.0319 143.757 91.5519 143.624 91.0293 143.624C90.4959 143.624 90.0053 143.757 89.5573 144.024C89.1199 144.291 88.7733 144.659 88.5173 145.128C88.2719 145.587 88.1493 146.104 88.1493 146.68ZM97.642 139.08H99.114L98.906 142.92H97.866L97.642 139.08ZM104.756 151.192C103.924 151.192 103.188 150.989 102.548 150.584C101.908 150.168 101.449 149.608 101.172 148.904L102.372 148.296C102.617 148.797 102.953 149.192 103.38 149.48C103.806 149.768 104.27 149.912 104.772 149.912C105.252 149.912 105.646 149.8 105.956 149.576C106.265 149.352 106.42 149.059 106.42 148.696C106.42 148.344 106.281 148.061 106.004 147.848C105.726 147.624 105.428 147.491 105.108 147.448L103.812 147.272C103.044 147.08 102.468 146.76 102.084 146.312C101.7 145.864 101.508 145.336 101.508 144.728C101.508 144.227 101.636 143.784 101.892 143.4C102.158 143.016 102.521 142.717 102.98 142.504C103.449 142.291 103.966 142.184 104.532 142.184C105.278 142.184 105.945 142.371 106.532 142.744C107.129 143.117 107.556 143.635 107.812 144.296L106.628 144.904C106.414 144.467 106.116 144.12 105.732 143.864C105.358 143.608 104.942 143.48 104.484 143.48C104.046 143.48 103.694 143.587 103.428 143.8C103.161 144.013 103.028 144.291 103.028 144.632C103.028 144.984 103.15 145.267 103.396 145.48C103.652 145.683 103.929 145.811 104.228 145.864L105.652 146.056C106.366 146.248 106.921 146.579 107.316 147.048C107.721 147.507 107.924 148.04 107.924 148.648C107.924 149.139 107.79 149.576 107.524 149.96C107.257 150.344 106.884 150.648 106.404 150.872C105.924 151.085 105.374 151.192 104.756 151.192ZM115.661 151.192C115.042 151.192 114.488 151.048 113.997 150.76C113.506 150.472 113.122 150.072 112.845 149.56C112.568 149.037 112.429 148.44 112.429 147.768V142.376H113.917V147.608C113.917 148.248 114.109 148.765 114.493 149.16C114.877 149.555 115.378 149.752 115.997 149.752C116.616 149.752 117.117 149.549 117.501 149.144C117.885 148.728 118.077 148.173 118.077 147.48V142.376H119.581V151H118.125V149.944C117.869 150.349 117.528 150.659 117.101 150.872C116.674 151.085 116.194 151.192 115.661 151.192ZM124.974 151.192C124.142 151.192 123.406 150.989 122.766 150.584C122.126 150.168 121.668 149.608 121.39 148.904L122.59 148.296C122.836 148.797 123.172 149.192 123.598 149.48C124.025 149.768 124.489 149.912 124.99 149.912C125.47 149.912 125.865 149.8 126.174 149.576C126.484 149.352 126.638 149.059 126.638 148.696C126.638 148.344 126.5 148.061 126.222 147.848C125.945 147.624 125.646 147.491 125.326 147.448L124.03 147.272C123.262 147.08 122.686 146.76 122.302 146.312C121.918 145.864 121.726 145.336 121.726 144.728C121.726 144.227 121.854 143.784 122.11 143.4C122.377 143.016 122.74 142.717 123.198 142.504C123.668 142.291 124.185 142.184 124.75 142.184C125.497 142.184 126.164 142.371 126.75 142.744C127.348 143.117 127.774 143.635 128.03 144.296L126.846 144.904C126.633 144.467 126.334 144.12 125.95 143.864C125.577 143.608 125.161 143.48 124.702 143.48C124.265 143.48 123.913 143.587 123.646 143.8C123.38 144.013 123.246 144.291 123.246 144.632C123.246 144.984 123.369 145.267 123.614 145.48C123.87 145.683 124.148 145.811 124.446 145.864L125.87 146.056C126.585 146.248 127.14 146.579 127.534 147.048C127.94 147.507 128.142 148.04 128.142 148.648C128.142 149.139 128.009 149.576 127.742 149.96C127.476 150.344 127.102 150.648 126.622 150.872C126.142 151.085 125.593 151.192 124.974 151.192ZM134.026 151.192C133.216 151.192 132.48 150.995 131.818 150.6C131.157 150.205 130.64 149.667 130.266 148.984C129.893 148.291 129.706 147.517 129.706 146.664C129.706 145.811 129.888 145.043 130.25 144.36C130.624 143.677 131.125 143.144 131.754 142.76C132.394 142.376 133.109 142.184 133.898 142.184C134.72 142.184 135.434 142.376 136.042 142.76C136.661 143.144 137.13 143.656 137.45 144.296C137.781 144.925 137.946 145.603 137.946 146.328C137.946 146.573 137.92 146.84 137.866 147.128H131.274C131.296 147.672 131.434 148.147 131.69 148.552C131.946 148.957 132.277 149.272 132.682 149.496C133.098 149.72 133.552 149.832 134.042 149.832C135.088 149.832 135.893 149.357 136.458 148.408L137.706 149.048C137.429 149.667 136.96 150.179 136.298 150.584C135.637 150.989 134.88 151.192 134.026 151.192ZM136.33 145.848C136.309 145.176 136.064 144.621 135.594 144.184C135.136 143.736 134.57 143.512 133.898 143.512C133.237 143.512 132.666 143.725 132.186 144.152C131.706 144.568 131.413 145.133 131.306 145.848H136.33ZM139.886 142.376H141.342V143.4C141.79 142.653 142.553 142.28 143.63 142.28H144.158V143.688H143.406C142.788 143.688 142.292 143.88 141.918 144.264C141.556 144.648 141.374 145.181 141.374 145.864V151H139.886V142.376ZM145.592 146.008H151.592V147.368H145.592V146.008ZM154.908 143.864H153.26V142.44H154.908V141.832C154.908 141.213 155.041 140.68 155.308 140.232C155.574 139.784 155.932 139.443 156.38 139.208C156.838 138.963 157.35 138.84 157.916 138.84C158.204 138.84 158.454 138.867 158.668 138.92V140.248C158.508 140.216 158.316 140.2 158.092 140.2C157.569 140.2 157.158 140.333 156.86 140.6C156.561 140.856 156.412 141.267 156.412 141.832V142.44H158.46V143.864H156.412V151H154.908V143.864ZM160.23 142.376H161.686V143.4C162.134 142.653 162.897 142.28 163.974 142.28H164.502V143.688H163.75C163.131 143.688 162.635 143.88 162.262 144.264C161.899 144.648 161.718 145.181 161.718 145.864V151H160.23V142.376ZM165.824 142.376H167.312V151H165.824V142.376ZM165.648 140.072C165.648 139.795 165.733 139.571 165.904 139.4C166.075 139.229 166.299 139.144 166.576 139.144C166.853 139.144 167.077 139.229 167.248 139.4C167.419 139.571 167.504 139.795 167.504 140.072C167.504 140.349 167.419 140.573 167.248 140.744C167.077 140.915 166.853 141 166.576 141C166.299 141 166.075 140.915 165.904 140.744C165.733 140.573 165.648 140.349 165.648 140.072ZM173.589 151.192C172.778 151.192 172.042 150.995 171.381 150.6C170.719 150.205 170.202 149.667 169.829 148.984C169.455 148.291 169.269 147.517 169.269 146.664C169.269 145.811 169.45 145.043 169.813 144.36C170.186 143.677 170.687 143.144 171.317 142.76C171.957 142.376 172.671 142.184 173.461 142.184C174.282 142.184 174.997 142.376 175.605 142.76C176.223 143.144 176.693 143.656 177.013 144.296C177.343 144.925 177.509 145.603 177.509 146.328C177.509 146.573 177.482 146.84 177.429 147.128H170.837C170.858 147.672 170.997 148.147 171.253 148.552C171.509 148.957 171.839 149.272 172.245 149.496C172.661 149.72 173.114 149.832 173.605 149.832C174.65 149.832 175.455 149.357 176.021 148.408L177.269 149.048C176.991 149.667 176.522 150.179 175.861 150.584C175.199 150.989 174.442 151.192 173.589 151.192ZM175.893 145.848C175.871 145.176 175.626 144.621 175.157 144.184C174.698 143.736 174.133 143.512 173.461 143.512C172.799 143.512 172.229 143.725 171.749 144.152C171.269 144.568 170.975 145.133 170.869 145.848H175.893ZM179.449 142.376H180.905V143.432C181.161 143.027 181.502 142.717 181.929 142.504C182.356 142.291 182.836 142.184 183.369 142.184C183.977 142.184 184.526 142.328 185.017 142.616C185.508 142.893 185.892 143.277 186.169 143.768C186.457 144.259 186.601 144.808 186.601 145.416V151H185.097V145.896C185.097 145.192 184.905 144.637 184.521 144.232C184.148 143.827 183.652 143.624 183.033 143.624C182.414 143.624 181.908 143.832 181.513 144.248C181.129 144.653 180.937 145.203 180.937 145.896V151H179.449V142.376ZM192.65 151.192C191.85 151.192 191.125 150.995 190.474 150.6C189.823 150.205 189.311 149.667 188.938 148.984C188.565 148.301 188.378 147.539 188.378 146.696C188.378 145.853 188.565 145.091 188.938 144.408C189.311 143.715 189.823 143.171 190.474 142.776C191.125 142.381 191.85 142.184 192.65 142.184C193.279 142.184 193.845 142.301 194.346 142.536C194.858 142.771 195.285 143.101 195.626 143.528V138.888H197.13V151H195.674V149.736C195.354 150.195 194.927 150.552 194.394 150.808C193.871 151.064 193.29 151.192 192.65 151.192ZM189.946 146.696C189.946 147.272 190.069 147.795 190.314 148.264C190.559 148.723 190.895 149.085 191.322 149.352C191.759 149.619 192.245 149.752 192.778 149.752C193.311 149.752 193.791 149.619 194.218 149.352C194.655 149.085 194.997 148.723 195.242 148.264C195.498 147.795 195.626 147.272 195.626 146.696C195.626 146.12 195.498 145.597 195.242 145.128C194.997 144.659 194.655 144.291 194.218 144.024C193.791 143.757 193.311 143.624 192.778 143.624C192.245 143.624 191.759 143.757 191.322 144.024C190.895 144.291 190.559 144.659 190.314 145.128C190.069 145.597 189.946 146.12 189.946 146.696ZM199.433 138.888H200.921V151H199.433V138.888ZM205.678 150.984L202.254 142.376H203.87L206.494 149.112L209.102 142.376H210.75L205.982 154.2H204.334L205.678 150.984ZM218.344 151.096C217.501 151.096 216.85 150.861 216.392 150.392C215.944 149.912 215.72 149.229 215.72 148.344V143.8H214.152V142.376H214.472C214.856 142.376 215.16 142.264 215.384 142.04C215.608 141.805 215.72 141.491 215.72 141.096V140.392H217.208V142.376H219.144V143.8H217.208V148.296C217.208 149.256 217.688 149.736 218.648 149.736C218.85 149.736 219.048 149.72 219.24 149.688V151.016C219.016 151.069 218.717 151.096 218.344 151.096ZM225.045 151.192C224.224 151.192 223.472 151 222.789 150.616C222.117 150.221 221.584 149.683 221.189 149C220.794 148.307 220.597 147.533 220.597 146.68C220.597 145.837 220.789 145.075 221.173 144.392C221.568 143.699 222.101 143.16 222.773 142.776C223.456 142.381 224.213 142.184 225.045 142.184C225.866 142.184 226.613 142.381 227.285 142.776C227.968 143.16 228.501 143.693 228.885 144.376C229.28 145.059 229.477 145.827 229.477 146.68C229.477 147.544 229.28 148.317 228.885 149C228.49 149.683 227.952 150.221 227.269 150.616C226.597 151 225.856 151.192 225.045 151.192ZM222.165 146.68C222.165 147.256 222.288 147.779 222.533 148.248C222.789 148.717 223.136 149.085 223.573 149.352C224.021 149.619 224.512 149.752 225.045 149.752C225.568 149.752 226.048 149.619 226.485 149.352C226.922 149.085 227.264 148.717 227.509 148.248C227.765 147.779 227.893 147.256 227.893 146.68C227.893 146.104 227.765 145.587 227.509 145.128C227.264 144.659 226.922 144.291 226.485 144.024C226.048 143.757 225.568 143.624 225.045 143.624C224.512 143.624 224.021 143.757 223.573 144.024C223.136 144.291 222.789 144.659 222.533 145.128C222.288 145.587 222.165 146.104 222.165 146.68ZM235.514 151.192C234.692 151.192 233.94 151 233.258 150.616C232.586 150.221 232.052 149.683 231.658 149C231.263 148.307 231.066 147.533 231.066 146.68C231.066 145.837 231.258 145.075 231.642 144.392C232.036 143.699 232.57 143.16 233.242 142.776C233.924 142.381 234.682 142.184 235.514 142.184C236.335 142.184 237.082 142.381 237.754 142.776C238.436 143.16 238.97 143.693 239.354 144.376C239.748 145.059 239.946 145.827 239.946 146.68C239.946 147.544 239.748 148.317 239.354 149C238.959 149.683 238.42 150.221 237.738 150.616C237.066 151 236.324 151.192 235.514 151.192ZM232.634 146.68C232.634 147.256 232.756 147.779 233.002 148.248C233.258 148.717 233.604 149.085 234.042 149.352C234.49 149.619 234.98 149.752 235.514 149.752C236.036 149.752 236.516 149.619 236.954 149.352C237.391 149.085 237.732 148.717 237.978 148.248C238.234 147.779 238.362 147.256 238.362 146.68C238.362 146.104 238.234 145.587 237.978 145.128C237.732 144.659 237.391 144.291 236.954 144.024C236.516 143.757 236.036 143.624 235.514 143.624C234.98 143.624 234.49 143.757 234.042 144.024C233.604 144.291 233.258 144.659 233.002 145.128C232.756 145.587 232.634 146.104 232.634 146.68ZM241.886 138.888H243.374V151H241.886V138.888ZM37.7186 163.08H45.4786V164.52H39.2866V168.296H45.1586V169.736H39.2866V173.56H45.4786V175H37.7186V163.08ZM49.2938 170.68L46.2858 166.376H48.0778L50.1898 169.448L52.2858 166.376H54.0938L51.0858 170.68L54.0778 175H52.2858L50.1898 171.912L48.0938 175H46.2698L49.2938 170.68ZM55.4176 166.376H56.8736V167.576C57.215 167.139 57.6416 166.797 58.1536 166.552C58.6763 166.307 59.2576 166.184 59.8976 166.184C60.6976 166.184 61.423 166.381 62.0736 166.776C62.7243 167.171 63.2363 167.715 63.6096 168.408C63.983 169.091 64.1696 169.853 64.1696 170.696C64.1696 171.539 63.983 172.301 63.6096 172.984C63.2363 173.667 62.7243 174.205 62.0736 174.6C61.423 174.995 60.6923 175.192 59.8816 175.192C59.263 175.192 58.6923 175.075 58.1696 174.84C57.6576 174.595 57.2363 174.248 56.9056 173.8V178.2H55.4176V166.376ZM56.9056 170.696C56.9056 171.272 57.0283 171.795 57.2736 172.264C57.5296 172.723 57.8763 173.085 58.3136 173.352C58.751 173.619 59.2363 173.752 59.7696 173.752C60.303 173.752 60.783 173.619 61.2096 173.352C61.647 173.085 61.983 172.723 62.2176 172.264C62.463 171.795 62.5856 171.272 62.5856 170.696C62.5856 170.12 62.463 169.597 62.2176 169.128C61.9723 168.659 61.6363 168.291 61.2096 168.024C60.783 167.757 60.303 167.624 59.7696 167.624C59.2363 167.624 58.751 167.757 58.3136 168.024C57.8763 168.291 57.5296 168.659 57.2736 169.128C57.0283 169.597 56.9056 170.12 56.9056 170.696ZM70.0888 175.192C69.2781 175.192 68.5421 174.995 67.8808 174.6C67.2194 174.205 66.7021 173.667 66.3288 172.984C65.9554 172.291 65.7688 171.517 65.7688 170.664C65.7688 169.811 65.9501 169.043 66.3128 168.36C66.6861 167.677 67.1874 167.144 67.8168 166.76C68.4568 166.376 69.1714 166.184 69.9608 166.184C70.7821 166.184 71.4968 166.376 72.1048 166.76C72.7234 167.144 73.1928 167.656 73.5128 168.296C73.8434 168.925 74.0087 169.603 74.0087 170.328C74.0087 170.573 73.9821 170.84 73.9288 171.128H67.3368C67.3581 171.672 67.4968 172.147 67.7528 172.552C68.0088 172.957 68.3394 173.272 68.7448 173.496C69.1608 173.72 69.6141 173.832 70.1048 173.832C71.1501 173.832 71.9554 173.357 72.5208 172.408L73.7688 173.048C73.4914 173.667 73.0221 174.179 72.3608 174.584C71.6994 174.989 70.9421 175.192 70.0888 175.192ZM72.3928 169.848C72.3714 169.176 72.1261 168.621 71.6568 168.184C71.1981 167.736 70.6328 167.512 69.9608 167.512C69.2994 167.512 68.7288 167.725 68.2488 168.152C67.7688 168.568 67.4754 169.133 67.3688 169.848H72.3928ZM75.9489 166.376H77.4049V167.4C77.8529 166.653 78.6155 166.28 79.6929 166.28H80.2209V167.688H79.4689C78.8502 167.688 78.3542 167.88 77.9809 168.264C77.6182 168.648 77.4369 169.181 77.4369 169.864V175H75.9489V166.376ZM81.5426 166.376H83.0306V175H81.5426V166.376ZM81.3666 164.072C81.3666 163.795 81.452 163.571 81.6226 163.4C81.7933 163.229 82.0173 163.144 82.2946 163.144C82.572 163.144 82.796 163.229 82.9666 163.4C83.1373 163.571 83.2226 163.795 83.2226 164.072C83.2226 164.349 83.1373 164.573 82.9666 164.744C82.796 164.915 82.572 165 82.2946 165C82.0173 165 81.7933 164.915 81.6226 164.744C81.452 164.573 81.3666 164.349 81.3666 164.072ZM89.3075 175.192C88.4968 175.192 87.7608 174.995 87.0995 174.6C86.4382 174.205 85.9208 173.667 85.5475 172.984C85.1742 172.291 84.9875 171.517 84.9875 170.664C84.9875 169.811 85.1688 169.043 85.5315 168.36C85.9048 167.677 86.4062 167.144 87.0355 166.76C87.6755 166.376 88.3902 166.184 89.1795 166.184C90.0008 166.184 90.7155 166.376 91.3235 166.76C91.9422 167.144 92.4115 167.656 92.7315 168.296C93.0622 168.925 93.2275 169.603 93.2275 170.328C93.2275 170.573 93.2008 170.84 93.1475 171.128H86.5555C86.5768 171.672 86.7155 172.147 86.9715 172.552C87.2275 172.957 87.5582 173.272 87.9635 173.496C88.3795 173.72 88.8328 173.832 89.3235 173.832C90.3688 173.832 91.1742 173.357 91.7395 172.408L92.9875 173.048C92.7102 173.667 92.2408 174.179 91.5795 174.584C90.9182 174.989 90.1608 175.192 89.3075 175.192ZM91.6115 169.848C91.5902 169.176 91.3448 168.621 90.8755 168.184C90.4168 167.736 89.8515 167.512 89.1795 167.512C88.5182 167.512 87.9475 167.725 87.4675 168.152C86.9875 168.568 86.6942 169.133 86.5875 169.848H91.6115ZM95.1676 166.376H96.6236V167.432C96.8796 167.027 97.221 166.717 97.6476 166.504C98.0743 166.291 98.5543 166.184 99.0876 166.184C99.6956 166.184 100.245 166.328 100.736 166.616C101.226 166.893 101.61 167.277 101.888 167.768C102.176 168.259 102.32 168.808 102.32 169.416V175H100.816V169.896C100.816 169.192 100.624 168.637 100.24 168.232C99.8663 167.827 99.3703 167.624 98.7516 167.624C98.133 167.624 97.6263 167.832 97.2316 168.248C96.8476 168.653 96.6556 169.203 96.6556 169.896V175H95.1676V166.376ZM108.449 175.192C107.606 175.192 106.849 174.995 106.177 174.6C105.505 174.205 104.982 173.667 104.609 172.984C104.236 172.291 104.049 171.523 104.049 170.68C104.049 169.827 104.236 169.059 104.609 168.376C104.982 167.693 105.5 167.16 106.161 166.776C106.833 166.381 107.596 166.184 108.449 166.184C109.281 166.184 110.038 166.403 110.721 166.84C111.414 167.267 111.905 167.821 112.193 168.504L110.849 169.144C110.646 168.685 110.326 168.317 109.889 168.04C109.462 167.763 108.982 167.624 108.449 167.624C107.926 167.624 107.446 167.757 107.009 168.024C106.582 168.291 106.246 168.659 106.001 169.128C105.756 169.587 105.633 170.109 105.633 170.696C105.633 171.272 105.756 171.795 106.001 172.264C106.257 172.723 106.598 173.085 107.025 173.352C107.452 173.619 107.926 173.752 108.449 173.752C108.993 173.752 109.478 173.613 109.905 173.336C110.332 173.059 110.646 172.68 110.849 172.2L112.193 172.872C111.916 173.544 111.43 174.099 110.737 174.536C110.044 174.973 109.281 175.192 108.449 175.192ZM118.058 175.192C117.247 175.192 116.511 174.995 115.85 174.6C115.188 174.205 114.671 173.667 114.298 172.984C113.924 172.291 113.738 171.517 113.738 170.664C113.738 169.811 113.919 169.043 114.282 168.36C114.655 167.677 115.156 167.144 115.786 166.76C116.426 166.376 117.14 166.184 117.93 166.184C118.751 166.184 119.466 166.376 120.074 166.76C120.692 167.144 121.162 167.656 121.482 168.296C121.812 168.925 121.977 169.603 121.977 170.328C121.977 170.573 121.951 170.84 121.898 171.128H115.306C115.327 171.672 115.466 172.147 115.722 172.552C115.978 172.957 116.308 173.272 116.714 173.496C117.13 173.72 117.583 173.832 118.074 173.832C119.119 173.832 119.924 173.357 120.49 172.408L121.738 173.048C121.46 173.667 120.991 174.179 120.33 174.584C119.668 174.989 118.911 175.192 118.058 175.192ZM120.362 169.848C120.34 169.176 120.095 168.621 119.626 168.184C119.167 167.736 118.602 167.512 117.93 167.512C117.268 167.512 116.698 167.725 116.218 168.152C115.738 168.568 115.444 169.133 115.338 169.848H120.362ZM132.347 175.192C131.238 175.192 130.235 174.931 129.339 174.408C128.454 173.875 127.761 173.144 127.259 172.216C126.758 171.277 126.507 170.221 126.507 169.048C126.507 167.875 126.758 166.819 127.259 165.88C127.761 164.941 128.454 164.211 129.339 163.688C130.235 163.155 131.238 162.888 132.347 162.888C133.137 162.888 133.862 163.032 134.523 163.32C135.185 163.597 135.745 163.965 136.203 164.424C136.662 164.883 136.993 165.379 137.195 165.912L135.755 166.568C135.467 165.885 135.025 165.347 134.427 164.952C133.841 164.547 133.147 164.344 132.347 164.344C131.515 164.344 130.774 164.541 130.123 164.936C129.483 165.331 128.982 165.885 128.619 166.6C128.257 167.315 128.075 168.131 128.075 169.048C128.075 169.965 128.257 170.781 128.619 171.496C128.982 172.2 129.483 172.749 130.123 173.144C130.774 173.539 131.515 173.736 132.347 173.736C133.147 173.736 133.841 173.539 134.427 173.144C135.025 172.739 135.467 172.195 135.755 171.512L137.195 172.168C136.993 172.712 136.662 173.213 136.203 173.672C135.745 174.131 135.185 174.499 134.523 174.776C133.862 175.053 133.137 175.192 132.347 175.192ZM139.152 166.376H140.64V175H139.152V166.376ZM138.976 164.072C138.976 163.795 139.061 163.571 139.232 163.4C139.403 163.229 139.627 163.144 139.904 163.144C140.181 163.144 140.405 163.229 140.576 163.4C140.747 163.571 140.832 163.795 140.832 164.072C140.832 164.349 140.747 164.573 140.576 164.744C140.405 164.915 140.181 165 139.904 165C139.627 165 139.403 164.915 139.232 164.744C139.061 164.573 138.976 164.349 138.976 164.072ZM146.453 175.096C145.61 175.096 144.96 174.861 144.501 174.392C144.053 173.912 143.829 173.229 143.829 172.344V167.8H142.261V166.376H142.581C142.965 166.376 143.269 166.264 143.493 166.04C143.717 165.805 143.829 165.491 143.829 165.096V164.392H145.317V166.376H147.253V167.8H145.317V172.296C145.317 173.256 145.797 173.736 146.757 173.736C146.96 173.736 147.157 173.72 147.349 173.688V175.016C147.125 175.069 146.826 175.096 146.453 175.096ZM151.741 174.984L148.317 166.376H149.933L152.557 173.112L155.165 166.376H156.813L152.045 178.2H150.397L151.741 174.984ZM164.902 175.192C164.059 175.192 163.302 174.995 162.63 174.6C161.958 174.205 161.435 173.667 161.062 172.984C160.689 172.291 160.502 171.523 160.502 170.68C160.502 169.827 160.689 169.059 161.062 168.376C161.435 167.693 161.953 167.16 162.614 166.776C163.286 166.381 164.049 166.184 164.902 166.184C165.734 166.184 166.491 166.403 167.174 166.84C167.867 167.267 168.358 167.821 168.646 168.504L167.302 169.144C167.099 168.685 166.779 168.317 166.342 168.04C165.915 167.763 165.435 167.624 164.902 167.624C164.379 167.624 163.899 167.757 163.462 168.024C163.035 168.291 162.699 168.659 162.454 169.128C162.209 169.587 162.086 170.109 162.086 170.696C162.086 171.272 162.209 171.795 162.454 172.264C162.71 172.723 163.051 173.085 163.478 173.352C163.905 173.619 164.379 173.752 164.902 173.752C165.446 173.752 165.931 173.613 166.358 173.336C166.785 173.059 167.099 172.68 167.302 172.2L168.646 172.872C168.369 173.544 167.883 174.099 167.19 174.536C166.497 174.973 165.734 175.192 164.902 175.192ZM172.946 175.192C172.092 175.192 171.399 174.968 170.866 174.52C170.332 174.061 170.066 173.469 170.066 172.744C170.066 172.04 170.295 171.453 170.754 170.984C171.223 170.504 171.932 170.184 172.882 170.024L175.826 169.544V169.144C175.826 168.675 175.65 168.296 175.298 168.008C174.946 167.709 174.492 167.56 173.938 167.56C173.447 167.56 173.01 167.688 172.626 167.944C172.252 168.189 171.975 168.52 171.794 168.936L170.498 168.264C170.743 167.667 171.191 167.171 171.842 166.776C172.492 166.381 173.202 166.184 173.97 166.184C174.62 166.184 175.196 166.312 175.698 166.568C176.21 166.813 176.604 167.16 176.882 167.608C177.17 168.056 177.314 168.568 177.314 169.144V175H175.858V173.88C175.548 174.285 175.138 174.605 174.626 174.84C174.124 175.075 173.564 175.192 172.946 175.192ZM171.634 172.696C171.634 173.048 171.772 173.341 172.05 173.576C172.338 173.811 172.695 173.928 173.122 173.928C173.644 173.928 174.108 173.816 174.514 173.592C174.93 173.357 175.25 173.043 175.474 172.648C175.708 172.253 175.826 171.816 175.826 171.336V170.792L173.218 171.224C172.162 171.405 171.634 171.896 171.634 172.696ZM179.621 166.376H181.077V167.432C181.333 167.027 181.674 166.717 182.101 166.504C182.527 166.291 183.007 166.184 183.541 166.184C184.149 166.184 184.698 166.328 185.189 166.616C185.679 166.893 186.063 167.277 186.341 167.768C186.629 168.259 186.773 168.808 186.773 169.416V175H185.269V169.896C185.269 169.192 185.077 168.637 184.693 168.232C184.319 167.827 183.823 167.624 183.205 167.624C182.586 167.624 182.079 167.832 181.685 168.248C181.301 168.653 181.109 169.203 181.109 169.896V175H179.621V166.376ZM192.58 167.864H190.932V166.44H192.58V165.832C192.58 165.213 192.713 164.68 192.98 164.232C193.246 163.784 193.604 163.443 194.052 163.208C194.51 162.963 195.022 162.84 195.588 162.84C195.876 162.84 196.126 162.867 196.34 162.92V164.248C196.18 164.216 195.988 164.2 195.764 164.2C195.241 164.2 194.83 164.333 194.532 164.6C194.233 164.856 194.084 165.267 194.084 165.832V166.44H196.132V167.864H194.084V175H192.58V167.864ZM201.717 175.192C200.895 175.192 200.143 175 199.461 174.616C198.789 174.221 198.255 173.683 197.861 173C197.466 172.307 197.269 171.533 197.269 170.68C197.269 169.837 197.461 169.075 197.845 168.392C198.239 167.699 198.773 167.16 199.445 166.776C200.127 166.381 200.885 166.184 201.717 166.184C202.538 166.184 203.285 166.381 203.957 166.776C204.639 167.16 205.173 167.693 205.557 168.376C205.951 169.059 206.149 169.827 206.149 170.68C206.149 171.544 205.951 172.317 205.557 173C205.162 173.683 204.623 174.221 203.941 174.616C203.269 175 202.527 175.192 201.717 175.192ZM198.837 170.68C198.837 171.256 198.959 171.779 199.205 172.248C199.461 172.717 199.807 173.085 200.245 173.352C200.693 173.619 201.183 173.752 201.717 173.752C202.239 173.752 202.719 173.619 203.157 173.352C203.594 173.085 203.935 172.717 204.181 172.248C204.437 171.779 204.565 171.256 204.565 170.68C204.565 170.104 204.437 169.587 204.181 169.128C203.935 168.659 203.594 168.291 203.157 168.024C202.719 167.757 202.239 167.624 201.717 167.624C201.183 167.624 200.693 167.757 200.245 168.024C199.807 168.291 199.461 168.659 199.205 169.128C198.959 169.587 198.837 170.104 198.837 170.68ZM211.178 175.192C210.346 175.192 209.61 174.989 208.97 174.584C208.33 174.168 207.871 173.608 207.594 172.904L208.794 172.296C209.039 172.797 209.375 173.192 209.802 173.48C210.228 173.768 210.692 173.912 211.194 173.912C211.674 173.912 212.068 173.8 212.378 173.576C212.687 173.352 212.842 173.059 212.842 172.696C212.842 172.344 212.703 172.061 212.426 171.848C212.148 171.624 211.85 171.491 211.53 171.448L210.234 171.272C209.466 171.08 208.89 170.76 208.506 170.312C208.122 169.864 207.93 169.336 207.93 168.728C207.93 168.227 208.058 167.784 208.314 167.4C208.58 167.016 208.943 166.717 209.402 166.504C209.871 166.291 210.388 166.184 210.954 166.184C211.7 166.184 212.367 166.371 212.954 166.744C213.551 167.117 213.978 167.635 214.234 168.296L213.05 168.904C212.836 168.467 212.538 168.12 212.154 167.864C211.78 167.608 211.364 167.48 210.906 167.48C210.468 167.48 210.116 167.587 209.85 167.8C209.583 168.013 209.45 168.291 209.45 168.632C209.45 168.984 209.572 169.267 209.818 169.48C210.074 169.683 210.351 169.811 210.65 169.864L212.074 170.056C212.788 170.248 213.343 170.579 213.738 171.048C214.143 171.507 214.346 172.04 214.346 172.648C214.346 173.139 214.212 173.576 213.946 173.96C213.679 174.344 213.306 174.648 212.826 174.872C212.346 175.085 211.796 175.192 211.178 175.192ZM219.765 175.096C218.923 175.096 218.272 174.861 217.813 174.392C217.365 173.912 217.141 173.229 217.141 172.344V167.8H215.573V166.376H215.893C216.277 166.376 216.581 166.264 216.805 166.04C217.029 165.805 217.141 165.491 217.141 165.096V164.392H218.629V166.376H220.565V167.8H218.629V172.296C218.629 173.256 219.109 173.736 220.069 173.736C220.272 173.736 220.469 173.72 220.661 173.688V175.016C220.437 175.069 220.139 175.096 219.765 175.096ZM226.339 175.192C225.528 175.192 224.792 174.995 224.131 174.6C223.469 174.205 222.952 173.667 222.579 172.984C222.205 172.291 222.019 171.517 222.019 170.664C222.019 169.811 222.2 169.043 222.563 168.36C222.936 167.677 223.437 167.144 224.067 166.76C224.707 166.376 225.421 166.184 226.211 166.184C227.032 166.184 227.747 166.376 228.355 166.76C228.973 167.144 229.443 167.656 229.763 168.296C230.093 168.925 230.259 169.603 230.259 170.328C230.259 170.573 230.232 170.84 230.179 171.128H223.587C223.608 171.672 223.747 172.147 224.003 172.552C224.259 172.957 224.589 173.272 224.995 173.496C225.411 173.72 225.864 173.832 226.355 173.832C227.4 173.832 228.205 173.357 228.771 172.408L230.019 173.048C229.741 173.667 229.272 174.179 228.611 174.584C227.949 174.989 227.192 175.192 226.339 175.192ZM228.643 169.848C228.621 169.176 228.376 168.621 227.907 168.184C227.448 167.736 226.883 167.512 226.211 167.512C225.549 167.512 224.979 167.725 224.499 168.152C224.019 168.568 223.725 169.133 223.619 169.848H228.643ZM232.199 166.376H233.655V167.4C234.103 166.653 234.866 166.28 235.943 166.28H236.471V167.688H235.719C235.1 167.688 234.604 167.88 234.231 168.264C233.868 168.648 233.687 169.181 233.687 169.864V175H232.199V166.376ZM243.086 175.192C242.233 175.192 241.54 174.968 241.006 174.52C240.473 174.061 240.206 173.469 240.206 172.744C240.206 172.04 240.436 171.453 240.894 170.984C241.364 170.504 242.073 170.184 243.022 170.024L245.966 169.544V169.144C245.966 168.675 245.79 168.296 245.438 168.008C245.086 167.709 244.633 167.56 244.078 167.56C243.588 167.56 243.15 167.688 242.766 167.944C242.393 168.189 242.116 168.52 241.934 168.936L240.638 168.264C240.884 167.667 241.332 167.171 241.982 166.776C242.633 166.381 243.342 166.184 244.11 166.184C244.761 166.184 245.337 166.312 245.838 166.568C246.35 166.813 246.745 167.16 247.022 167.608C247.31 168.056 247.454 168.568 247.454 169.144V175H245.998V173.88C245.689 174.285 245.278 174.605 244.766 174.84C244.265 175.075 243.705 175.192 243.086 175.192ZM241.774 172.696C241.774 173.048 241.913 173.341 242.19 173.576C242.478 173.811 242.836 173.928 243.262 173.928C243.785 173.928 244.249 173.816 244.654 173.592C245.07 173.357 245.39 173.043 245.614 172.648C245.849 172.253 245.966 171.816 245.966 171.336V170.792L243.358 171.224C242.302 171.405 241.774 171.896 241.774 172.696ZM44.6129 199.192C43.7703 199.192 43.0129 198.995 42.3409 198.6C41.6689 198.205 41.1463 197.667 40.7729 196.984C40.3996 196.291 40.2129 195.523 40.2129 194.68C40.2129 193.827 40.3996 193.059 40.7729 192.376C41.1463 191.693 41.6636 191.16 42.3249 190.776C42.9969 190.381 43.7596 190.184 44.6129 190.184C45.4449 190.184 46.2023 190.403 46.8849 190.84C47.5783 191.267 48.0689 191.821 48.3569 192.504L47.0129 193.144C46.8103 192.685 46.4903 192.317 46.0529 192.04C45.6263 191.763 45.1463 191.624 44.6129 191.624C44.0903 191.624 43.6103 191.757 43.1729 192.024C42.7463 192.291 42.4103 192.659 42.1649 193.128C41.9196 193.587 41.7969 194.109 41.7969 194.696C41.7969 195.272 41.9196 195.795 42.1649 196.264C42.4209 196.723 42.7623 197.085 43.1889 197.352C43.6156 197.619 44.0903 197.752 44.6129 197.752C45.1569 197.752 45.6423 197.613 46.0689 197.336C46.4956 197.059 46.8103 196.68 47.0129 196.2L48.3569 196.872C48.0796 197.544 47.5943 198.099 46.9009 198.536C46.2076 198.973 45.4449 199.192 44.6129 199.192ZM54.3496 199.192C53.5282 199.192 52.7762 199 52.0936 198.616C51.4216 198.221 50.8882 197.683 50.4936 197C50.0989 196.307 49.9016 195.533 49.9016 194.68C49.9016 193.837 50.0936 193.075 50.4776 192.392C50.8722 191.699 51.4056 191.16 52.0776 190.776C52.7602 190.381 53.5176 190.184 54.3496 190.184C55.1709 190.184 55.9176 190.381 56.5896 190.776C57.2722 191.16 57.8056 191.693 58.1896 192.376C58.5842 193.059 58.7816 193.827 58.7816 194.68C58.7816 195.544 58.5842 196.317 58.1896 197C57.7949 197.683 57.2562 198.221 56.5736 198.616C55.9016 199 55.1602 199.192 54.3496 199.192ZM51.4696 194.68C51.4696 195.256 51.5922 195.779 51.8376 196.248C52.0936 196.717 52.4402 197.085 52.8776 197.352C53.3256 197.619 53.8162 197.752 54.3496 197.752C54.8722 197.752 55.3522 197.619 55.7896 197.352C56.2269 197.085 56.5682 196.717 56.8136 196.248C57.0696 195.779 57.1976 195.256 57.1976 194.68C57.1976 194.104 57.0696 193.587 56.8136 193.128C56.5682 192.659 56.2269 192.291 55.7896 192.024C55.3522 191.757 54.8722 191.624 54.3496 191.624C53.8162 191.624 53.3256 191.757 52.8776 192.024C52.4402 192.291 52.0936 192.659 51.8376 193.128C51.5922 193.587 51.4696 194.104 51.4696 194.68ZM60.7223 186.888H62.2103V199H60.7223V186.888ZM64.5192 186.888H66.0072V199H64.5192V186.888ZM70.8441 199.192C69.9907 199.192 69.2974 198.968 68.7641 198.52C68.2307 198.061 67.9641 197.469 67.9641 196.744C67.9641 196.04 68.1934 195.453 68.6521 194.984C69.1214 194.504 69.8307 194.184 70.7801 194.024L73.7241 193.544V193.144C73.7241 192.675 73.5481 192.296 73.1961 192.008C72.8441 191.709 72.3907 191.56 71.8361 191.56C71.3454 191.56 70.9081 191.688 70.5241 191.944C70.1507 192.189 69.8734 192.52 69.6921 192.936L68.3961 192.264C68.6414 191.667 69.0894 191.171 69.7401 190.776C70.3907 190.381 71.1001 190.184 71.8681 190.184C72.5187 190.184 73.0947 190.312 73.5961 190.568C74.1081 190.813 74.5027 191.16 74.7801 191.608C75.0681 192.056 75.2121 192.568 75.2121 193.144V199H73.7561V197.88C73.4467 198.285 73.0361 198.605 72.5241 198.84C72.0227 199.075 71.4627 199.192 70.8441 199.192ZM69.5321 196.696C69.5321 197.048 69.6707 197.341 69.9481 197.576C70.2361 197.811 70.5934 197.928 71.0201 197.928C71.5427 197.928 72.0067 197.816 72.4121 197.592C72.8281 197.357 73.1481 197.043 73.3721 196.648C73.6067 196.253 73.7241 195.816 73.7241 195.336V194.792L71.1161 195.224C70.0601 195.405 69.5321 195.896 69.5321 196.696ZM81.9832 199.192C81.3539 199.192 80.7779 199.069 80.2552 198.824C79.7325 198.568 79.3059 198.211 78.9752 197.752V199H77.5192V186.888H79.0072V191.544C79.3485 191.117 79.7752 190.787 80.2872 190.552C80.8099 190.307 81.3805 190.184 81.9992 190.184C82.7992 190.184 83.5245 190.381 84.1752 190.776C84.8259 191.171 85.3379 191.715 85.7112 192.408C86.0845 193.091 86.2712 193.853 86.2712 194.696C86.2712 195.539 86.0845 196.301 85.7112 196.984C85.3379 197.667 84.8259 198.205 84.1752 198.6C83.5245 198.995 82.7939 199.192 81.9832 199.192ZM79.0072 194.696C79.0072 195.272 79.1299 195.795 79.3752 196.264C79.6312 196.723 79.9779 197.085 80.4152 197.352C80.8525 197.619 81.3379 197.752 81.8712 197.752C82.4045 197.752 82.8845 197.619 83.3112 197.352C83.7485 197.085 84.0845 196.723 84.3192 196.264C84.5645 195.795 84.6872 195.272 84.6872 194.696C84.6872 194.12 84.5645 193.597 84.3192 193.128C84.0739 192.659 83.7379 192.291 83.3112 192.024C82.8845 191.757 82.4045 191.624 81.8712 191.624C81.3379 191.624 80.8525 191.757 80.4152 192.024C79.9779 192.291 79.6312 192.659 79.3752 193.128C79.1299 193.597 79.0072 194.12 79.0072 194.696ZM92.3183 199.192C91.497 199.192 90.745 199 90.0623 198.616C89.3903 198.221 88.857 197.683 88.4623 197C88.0676 196.307 87.8703 195.533 87.8703 194.68C87.8703 193.837 88.0623 193.075 88.4463 192.392C88.841 191.699 89.3743 191.16 90.0463 190.776C90.729 190.381 91.4863 190.184 92.3183 190.184C93.1396 190.184 93.8863 190.381 94.5583 190.776C95.241 191.16 95.7743 191.693 96.1583 192.376C96.553 193.059 96.7503 193.827 96.7503 194.68C96.7503 195.544 96.553 196.317 96.1583 197C95.7636 197.683 95.225 198.221 94.5423 198.616C93.8703 199 93.129 199.192 92.3183 199.192ZM89.4383 194.68C89.4383 195.256 89.561 195.779 89.8063 196.248C90.0623 196.717 90.409 197.085 90.8463 197.352C91.2943 197.619 91.785 197.752 92.3183 197.752C92.841 197.752 93.321 197.619 93.7583 197.352C94.1956 197.085 94.537 196.717 94.7823 196.248C95.0383 195.779 95.1663 195.256 95.1663 194.68C95.1663 194.104 95.0383 193.587 94.7823 193.128C94.537 192.659 94.1956 192.291 93.7583 192.024C93.321 191.757 92.841 191.624 92.3183 191.624C91.785 191.624 91.2943 191.757 90.8463 192.024C90.409 192.291 90.0623 192.659 89.8063 193.128C89.561 193.587 89.4383 194.104 89.4383 194.68ZM98.6911 190.376H100.147V191.4C100.595 190.653 101.358 190.28 102.435 190.28H102.963V191.688H102.211C101.592 191.688 101.096 191.88 100.723 192.264C100.36 192.648 100.179 193.181 100.179 193.864V199H98.6911V190.376ZM106.813 199.192C105.959 199.192 105.266 198.968 104.733 198.52C104.199 198.061 103.933 197.469 103.933 196.744C103.933 196.04 104.162 195.453 104.621 194.984C105.09 194.504 105.799 194.184 106.749 194.024L109.693 193.544V193.144C109.693 192.675 109.517 192.296 109.165 192.008C108.813 191.709 108.359 191.56 107.805 191.56C107.314 191.56 106.877 191.688 106.493 191.944C106.119 192.189 105.842 192.52 105.661 192.936L104.365 192.264C104.61 191.667 105.058 191.171 105.709 190.776C106.359 190.381 107.069 190.184 107.837 190.184C108.487 190.184 109.063 190.312 109.565 190.568C110.077 190.813 110.471 191.16 110.749 191.608C111.037 192.056 111.181 192.568 111.181 193.144V199H109.725V197.88C109.415 198.285 109.005 198.605 108.493 198.84C107.991 199.075 107.431 199.192 106.813 199.192ZM105.501 196.696C105.501 197.048 105.639 197.341 105.917 197.576C106.205 197.811 106.562 197.928 106.989 197.928C107.511 197.928 107.975 197.816 108.381 197.592C108.797 197.357 109.117 197.043 109.341 196.648C109.575 196.253 109.693 195.816 109.693 195.336V194.792L107.085 195.224C106.029 195.405 105.501 195.896 105.501 196.696ZM116.836 199.096C115.993 199.096 115.342 198.861 114.884 198.392C114.436 197.912 114.212 197.229 114.212 196.344V191.8H112.644V190.376H112.964C113.348 190.376 113.652 190.264 113.876 190.04C114.1 189.805 114.212 189.491 114.212 189.096V188.392H115.7V190.376H117.636V191.8H115.7V196.296C115.7 197.256 116.18 197.736 117.14 197.736C117.342 197.736 117.54 197.72 117.732 197.688V199.016C117.508 199.069 117.209 199.096 116.836 199.096ZM119.675 190.376H121.163V199H119.675V190.376ZM119.499 188.072C119.499 187.795 119.585 187.571 119.755 187.4C119.926 187.229 120.15 187.144 120.427 187.144C120.705 187.144 120.929 187.229 121.099 187.4C121.27 187.571 121.355 187.795 121.355 188.072C121.355 188.349 121.27 188.573 121.099 188.744C120.929 188.915 120.705 189 120.427 189C120.15 189 119.926 188.915 119.755 188.744C119.585 188.573 119.499 188.349 119.499 188.072ZM122.496 190.376H124.16L126.576 196.904L129.008 190.376H130.672L127.28 199H125.872L122.496 190.376ZM135.815 199.192C135.005 199.192 134.269 198.995 133.607 198.6C132.946 198.205 132.429 197.667 132.055 196.984C131.682 196.291 131.495 195.517 131.495 194.664C131.495 193.811 131.677 193.043 132.039 192.36C132.413 191.677 132.914 191.144 133.543 190.76C134.183 190.376 134.898 190.184 135.687 190.184C136.509 190.184 137.223 190.376 137.831 190.76C138.45 191.144 138.919 191.656 139.239 192.296C139.57 192.925 139.735 193.603 139.735 194.328C139.735 194.573 139.709 194.84 139.655 195.128H133.063C133.085 195.672 133.223 196.147 133.479 196.552C133.735 196.957 134.066 197.272 134.471 197.496C134.887 197.72 135.341 197.832 135.831 197.832C136.877 197.832 137.682 197.357 138.247 196.408L139.495 197.048C139.218 197.667 138.749 198.179 138.087 198.584C137.426 198.989 136.669 199.192 135.815 199.192ZM138.119 193.848C138.098 193.176 137.853 192.621 137.383 192.184C136.925 191.736 136.359 191.512 135.687 191.512C135.026 191.512 134.455 191.725 133.975 192.152C133.495 192.568 133.202 193.133 133.095 193.848H138.119ZM148.441 199.192C147.598 199.192 146.841 198.995 146.169 198.6C145.497 198.205 144.974 197.667 144.601 196.984C144.228 196.291 144.041 195.523 144.041 194.68C144.041 193.827 144.228 193.059 144.601 192.376C144.974 191.693 145.492 191.16 146.153 190.776C146.825 190.381 147.588 190.184 148.441 190.184C149.273 190.184 150.03 190.403 150.713 190.84C151.406 191.267 151.897 191.821 152.185 192.504L150.841 193.144C150.638 192.685 150.318 192.317 149.881 192.04C149.454 191.763 148.974 191.624 148.441 191.624C147.918 191.624 147.438 191.757 147.001 192.024C146.574 192.291 146.238 192.659 145.993 193.128C145.748 193.587 145.625 194.109 145.625 194.696C145.625 195.272 145.748 195.795 145.993 196.264C146.249 196.723 146.59 197.085 147.017 197.352C147.444 197.619 147.918 197.752 148.441 197.752C148.985 197.752 149.47 197.613 149.897 197.336C150.324 197.059 150.638 196.68 150.841 196.2L152.185 196.872C151.908 197.544 151.422 198.099 150.729 198.536C150.036 198.973 149.273 199.192 148.441 199.192ZM157.138 199.192C156.519 199.192 155.964 199.048 155.474 198.76C154.983 198.472 154.599 198.072 154.322 197.56C154.044 197.037 153.906 196.44 153.906 195.768V190.376H155.394V195.608C155.394 196.248 155.586 196.765 155.97 197.16C156.354 197.555 156.855 197.752 157.474 197.752C158.092 197.752 158.594 197.549 158.978 197.144C159.362 196.728 159.554 196.173 159.554 195.48V190.376H161.058V199H159.602V197.944C159.346 198.349 159.004 198.659 158.578 198.872C158.151 199.085 157.671 199.192 157.138 199.192ZM163.363 186.888H164.851V199H163.363V186.888ZM170.664 199.096C169.821 199.096 169.17 198.861 168.712 198.392C168.264 197.912 168.04 197.229 168.04 196.344V191.8H166.472V190.376H166.792C167.176 190.376 167.48 190.264 167.704 190.04C167.928 189.805 168.04 189.491 168.04 189.096V188.392H169.528V190.376H171.464V191.8H169.528V196.296C169.528 197.256 170.008 197.736 170.968 197.736C171.17 197.736 171.368 197.72 171.56 197.688V199.016C171.336 199.069 171.037 199.096 170.664 199.096ZM176.56 199.192C175.941 199.192 175.386 199.048 174.896 198.76C174.405 198.472 174.021 198.072 173.744 197.56C173.466 197.037 173.328 196.44 173.328 195.768V190.376H174.816V195.608C174.816 196.248 175.008 196.765 175.392 197.16C175.776 197.555 176.277 197.752 176.896 197.752C177.514 197.752 178.016 197.549 178.4 197.144C178.784 196.728 178.976 196.173 178.976 195.48V190.376H180.48V199H179.024V197.944C178.768 198.349 178.426 198.659 178 198.872C177.573 199.085 177.093 199.192 176.56 199.192ZM182.785 190.376H184.241V191.4C184.689 190.653 185.451 190.28 186.529 190.28H187.057V191.688H186.305C185.686 191.688 185.19 191.88 184.817 192.264C184.454 192.648 184.273 193.181 184.273 193.864V199H182.785V190.376ZM192.347 199.192C191.536 199.192 190.8 198.995 190.139 198.6C189.477 198.205 188.96 197.667 188.587 196.984C188.213 196.291 188.027 195.517 188.027 194.664C188.027 193.811 188.208 193.043 188.571 192.36C188.944 191.677 189.445 191.144 190.075 190.76C190.715 190.376 191.429 190.184 192.219 190.184C193.04 190.184 193.755 190.376 194.363 190.76C194.981 191.144 195.451 191.656 195.771 192.296C196.101 192.925 196.267 193.603 196.267 194.328C196.267 194.573 196.24 194.84 196.187 195.128H189.595C189.616 195.672 189.755 196.147 190.011 196.552C190.267 196.957 190.597 197.272 191.003 197.496C191.419 197.72 191.872 197.832 192.363 197.832C193.408 197.832 194.213 197.357 194.779 196.408L196.027 197.048C195.749 197.667 195.28 198.179 194.619 198.584C193.957 198.989 193.2 199.192 192.347 199.192ZM194.651 193.848C194.629 193.176 194.384 192.621 193.915 192.184C193.456 191.736 192.891 191.512 192.219 191.512C191.557 191.512 190.987 191.725 190.507 192.152C190.027 192.568 189.733 193.133 189.627 193.848H194.651ZM199.996 190.376H201.644L203.708 196.696L205.724 190.376H207.132L209.148 196.696L211.228 190.376H212.86L209.9 199H208.476L206.428 192.504L204.38 199H202.956L199.996 190.376ZM214.191 190.376H215.679V199H214.191V190.376ZM214.015 188.072C214.015 187.795 214.1 187.571 214.271 187.4C214.442 187.229 214.666 187.144 214.943 187.144C215.22 187.144 215.444 187.229 215.615 187.4C215.786 187.571 215.871 187.795 215.871 188.072C215.871 188.349 215.786 188.573 215.615 188.744C215.444 188.915 215.22 189 214.943 189C214.666 189 214.442 188.915 214.271 188.744C214.1 188.573 214.015 188.349 214.015 188.072ZM221.492 199.096C220.649 199.096 219.999 198.861 219.54 198.392C219.092 197.912 218.868 197.229 218.868 196.344V191.8H217.3V190.376H217.62C218.004 190.376 218.308 190.264 218.532 190.04C218.756 189.805 218.868 189.491 218.868 189.096V188.392H220.356V190.376H222.292V191.8H220.356V196.296C220.356 197.256 220.836 197.736 221.796 197.736C221.999 197.736 222.196 197.72 222.388 197.688V199.016C222.164 199.069 221.865 199.096 221.492 199.096ZM224.332 186.888H225.82V191.384C226.076 191 226.412 190.707 226.828 190.504C227.254 190.291 227.729 190.184 228.252 190.184C228.86 190.184 229.409 190.328 229.9 190.616C230.39 190.893 230.774 191.277 231.052 191.768C231.34 192.259 231.484 192.808 231.484 193.416V199H229.98V193.896C229.98 193.192 229.788 192.637 229.404 192.232C229.02 191.827 228.524 191.624 227.916 191.624C227.308 191.624 226.806 191.832 226.412 192.248C226.017 192.653 225.82 193.203 225.82 193.896V199H224.332V186.888ZM233.613 190.376H235.101V199H233.613V190.376ZM233.437 188.072C233.437 187.795 233.522 187.571 233.693 187.4C233.864 187.229 234.088 187.144 234.365 187.144C234.642 187.144 234.866 187.229 235.037 187.4C235.208 187.571 235.293 187.795 235.293 188.072C235.293 188.349 235.208 188.573 235.037 188.744C234.866 188.915 234.642 189 234.365 189C234.088 189 233.864 188.915 233.693 188.744C233.522 188.573 233.437 188.349 233.437 188.072ZM237.41 190.376H238.866V191.432C239.122 191.027 239.463 190.717 239.89 190.504C240.316 190.291 240.796 190.184 241.33 190.184C241.938 190.184 242.487 190.328 242.978 190.616C243.468 190.893 243.852 191.277 244.13 191.768C244.418 192.259 244.562 192.808 244.562 193.416V199H243.058V193.896C243.058 193.192 242.866 192.637 242.482 192.232C242.108 191.827 241.612 191.624 240.994 191.624C240.375 191.624 239.868 191.832 239.474 192.248C239.09 192.653 238.898 193.203 238.898 193.896V199H237.41V190.376ZM77.5688 222.984L74.1448 214.376H75.7608L78.3848 221.112L80.9928 214.376H82.6408L77.8728 226.2H76.2248L77.5688 222.984ZM87.9043 223.192C87.0829 223.192 86.3309 223 85.6483 222.616C84.9763 222.221 84.4429 221.683 84.0483 221C83.6536 220.307 83.4563 219.533 83.4563 218.68C83.4563 217.837 83.6483 217.075 84.0323 216.392C84.4269 215.699 84.9603 215.16 85.6323 214.776C86.3149 214.381 87.0723 214.184 87.9043 214.184C88.7256 214.184 89.4723 214.381 90.1443 214.776C90.8269 215.16 91.3603 215.693 91.7443 216.376C92.1389 217.059 92.3363 217.827 92.3363 218.68C92.3363 219.544 92.1389 220.317 91.7443 221C91.3496 221.683 90.8109 222.221 90.1283 222.616C89.4563 223 88.7149 223.192 87.9043 223.192ZM85.0243 218.68C85.0243 219.256 85.1469 219.779 85.3923 220.248C85.6483 220.717 85.9949 221.085 86.4323 221.352C86.8803 221.619 87.3709 221.752 87.9043 221.752C88.4269 221.752 88.9069 221.619 89.3443 221.352C89.7816 221.085 90.1229 220.717 90.3683 220.248C90.6243 219.779 90.7523 219.256 90.7523 218.68C90.7523 218.104 90.6243 217.587 90.3683 217.128C90.1229 216.659 89.7816 216.291 89.3443 216.024C88.9069 215.757 88.4269 215.624 87.9043 215.624C87.3709 215.624 86.8803 215.757 86.4323 216.024C85.9949 216.291 85.6483 216.659 85.3923 217.128C85.1469 217.587 85.0243 218.104 85.0243 218.68ZM97.333 223.192C96.7143 223.192 96.1597 223.048 95.669 222.76C95.1783 222.472 94.7943 222.072 94.517 221.56C94.2397 221.037 94.101 220.44 94.101 219.768V214.376H95.589V219.608C95.589 220.248 95.781 220.765 96.165 221.16C96.549 221.555 97.0503 221.752 97.669 221.752C98.2877 221.752 98.789 221.549 99.173 221.144C99.557 220.728 99.749 220.173 99.749 219.48V214.376H101.253V223H99.797V221.944C99.541 222.349 99.1997 222.659 98.773 222.872C98.3463 223.085 97.8663 223.192 97.333 223.192ZM103.558 214.376H105.014V215.4C105.462 214.653 106.225 214.28 107.302 214.28H107.83V215.688H107.078C106.46 215.688 105.964 215.88 105.59 216.264C105.228 216.648 105.046 217.181 105.046 217.864V223H103.558V214.376ZM116.014 223.192C115.192 223.192 114.44 223 113.758 222.616C113.086 222.221 112.552 221.683 112.158 221C111.763 220.307 111.566 219.533 111.566 218.68C111.566 217.837 111.758 217.075 112.142 216.392C112.536 215.699 113.07 215.16 113.742 214.776C114.424 214.381 115.182 214.184 116.014 214.184C116.835 214.184 117.582 214.381 118.254 214.776C118.936 215.16 119.47 215.693 119.854 216.376C120.248 217.059 120.446 217.827 120.446 218.68C120.446 219.544 120.248 220.317 119.854 221C119.459 221.683 118.92 222.221 118.238 222.616C117.566 223 116.824 223.192 116.014 223.192ZM113.134 218.68C113.134 219.256 113.256 219.779 113.502 220.248C113.758 220.717 114.104 221.085 114.542 221.352C114.99 221.619 115.48 221.752 116.014 221.752C116.536 221.752 117.016 221.619 117.454 221.352C117.891 221.085 118.232 220.717 118.478 220.248C118.734 219.779 118.862 219.256 118.862 218.68C118.862 218.104 118.734 217.587 118.478 217.128C118.232 216.659 117.891 216.291 117.454 216.024C117.016 215.757 116.536 215.624 116.014 215.624C115.48 215.624 114.99 215.757 114.542 216.024C114.104 216.291 113.758 216.659 113.502 217.128C113.256 217.587 113.134 218.104 113.134 218.68ZM122.386 214.376H123.842V215.4C124.29 214.653 125.053 214.28 126.13 214.28H126.658V215.688H125.906C125.288 215.688 124.792 215.88 124.418 216.264C124.056 216.648 123.874 217.181 123.874 217.864V223H122.386V214.376ZM132.092 226.52C131.185 226.52 130.385 226.312 129.692 225.896C129.009 225.491 128.524 224.947 128.236 224.264L129.628 223.624C129.788 224.051 130.081 224.397 130.508 224.664C130.935 224.941 131.457 225.08 132.076 225.08C132.833 225.08 133.463 224.861 133.964 224.424C134.465 223.997 134.716 223.4 134.716 222.632V221.432C134.396 221.869 133.985 222.205 133.484 222.44C132.983 222.675 132.439 222.792 131.852 222.792C131.052 222.792 130.332 222.605 129.692 222.232C129.052 221.848 128.545 221.331 128.172 220.68C127.809 220.019 127.628 219.288 127.628 218.488C127.628 217.688 127.809 216.963 128.172 216.312C128.535 215.651 129.036 215.133 129.676 214.76C130.316 214.376 131.036 214.184 131.836 214.184C132.433 214.184 132.983 214.307 133.484 214.552C133.985 214.787 134.412 215.128 134.764 215.576V214.376H136.22V222.632C136.22 223.379 136.044 224.045 135.692 224.632C135.34 225.219 134.849 225.677 134.22 226.008C133.591 226.349 132.881 226.52 132.092 226.52ZM129.196 218.488C129.196 219.011 129.313 219.491 129.548 219.928C129.793 220.365 130.129 220.712 130.556 220.968C130.983 221.224 131.457 221.352 131.98 221.352C132.481 221.352 132.94 221.224 133.356 220.968C133.783 220.712 134.113 220.365 134.348 219.928C134.593 219.491 134.716 219.011 134.716 218.488C134.716 217.965 134.593 217.485 134.348 217.048C134.113 216.611 133.783 216.264 133.356 216.008C132.94 215.752 132.481 215.624 131.98 215.624C131.457 215.624 130.983 215.752 130.556 216.008C130.14 216.264 129.809 216.611 129.564 217.048C129.319 217.485 129.196 217.965 129.196 218.488ZM141.055 223.192C140.202 223.192 139.508 222.968 138.975 222.52C138.442 222.061 138.175 221.469 138.175 220.744C138.175 220.04 138.404 219.453 138.863 218.984C139.332 218.504 140.042 218.184 140.991 218.024L143.935 217.544V217.144C143.935 216.675 143.759 216.296 143.407 216.008C143.055 215.709 142.602 215.56 142.047 215.56C141.556 215.56 141.119 215.688 140.735 215.944C140.362 216.189 140.084 216.52 139.903 216.936L138.607 216.264C138.852 215.667 139.3 215.171 139.951 214.776C140.602 214.381 141.311 214.184 142.079 214.184C142.73 214.184 143.306 214.312 143.807 214.568C144.319 214.813 144.714 215.16 144.991 215.608C145.279 216.056 145.423 216.568 145.423 217.144V223H143.967V221.88C143.658 222.285 143.247 222.605 142.735 222.84C142.234 223.075 141.674 223.192 141.055 223.192ZM139.743 220.696C139.743 221.048 139.882 221.341 140.159 221.576C140.447 221.811 140.804 221.928 141.231 221.928C141.754 221.928 142.218 221.816 142.623 221.592C143.039 221.357 143.359 221.043 143.583 220.648C143.818 220.253 143.935 219.816 143.935 219.336V218.792L141.327 219.224C140.271 219.405 139.743 219.896 139.743 220.696ZM147.73 214.376H149.186V215.432C149.442 215.027 149.783 214.717 150.21 214.504C150.637 214.291 151.117 214.184 151.65 214.184C152.258 214.184 152.807 214.328 153.298 214.616C153.789 214.893 154.173 215.277 154.45 215.768C154.738 216.259 154.882 216.808 154.882 217.416V223H153.378V217.896C153.378 217.192 153.186 216.637 152.802 216.232C152.429 215.827 151.933 215.624 151.314 215.624C150.695 215.624 150.189 215.832 149.794 216.248C149.41 216.653 149.218 217.203 149.218 217.896V223H147.73V214.376ZM157.011 214.376H158.499V223H157.011V214.376ZM156.835 212.072C156.835 211.795 156.921 211.571 157.091 211.4C157.262 211.229 157.486 211.144 157.763 211.144C158.041 211.144 158.265 211.229 158.435 211.4C158.606 211.571 158.691 211.795 158.691 212.072C158.691 212.349 158.606 212.573 158.435 212.744C158.265 212.915 158.041 213 157.763 213C157.486 213 157.262 212.915 157.091 212.744C156.921 212.573 156.835 212.349 156.835 212.072ZM159.96 221.736L164.664 215.8H160.216V214.376H166.68V215.64L162.024 221.576H166.712V223H159.96V221.736ZM170.696 223.192C169.842 223.192 169.149 222.968 168.616 222.52C168.082 222.061 167.816 221.469 167.816 220.744C167.816 220.04 168.045 219.453 168.504 218.984C168.973 218.504 169.682 218.184 170.632 218.024L173.576 217.544V217.144C173.576 216.675 173.4 216.296 173.048 216.008C172.696 215.709 172.242 215.56 171.688 215.56C171.197 215.56 170.76 215.688 170.376 215.944C170.002 216.189 169.725 216.52 169.544 216.936L168.248 216.264C168.493 215.667 168.941 215.171 169.592 214.776C170.242 214.381 170.952 214.184 171.72 214.184C172.37 214.184 172.946 214.312 173.448 214.568C173.96 214.813 174.354 215.16 174.632 215.608C174.92 216.056 175.064 216.568 175.064 217.144V223H173.608V221.88C173.298 222.285 172.888 222.605 172.376 222.84C171.874 223.075 171.314 223.192 170.696 223.192ZM169.384 220.696C169.384 221.048 169.522 221.341 169.8 221.576C170.088 221.811 170.445 221.928 170.872 221.928C171.394 221.928 171.858 221.816 172.264 221.592C172.68 221.357 173 221.043 173.224 220.648C173.458 220.253 173.576 219.816 173.576 219.336V218.792L170.968 219.224C169.912 219.405 169.384 219.896 169.384 220.696ZM180.719 223.096C179.876 223.096 179.225 222.861 178.767 222.392C178.319 221.912 178.095 221.229 178.095 220.344V215.8H176.527V214.376H176.847C177.231 214.376 177.535 214.264 177.759 214.04C177.983 213.805 178.095 213.491 178.095 213.096V212.392H179.583V214.376H181.519V215.8H179.583V220.296C179.583 221.256 180.063 221.736 181.023 221.736C181.225 221.736 181.423 221.72 181.615 221.688V223.016C181.391 223.069 181.092 223.096 180.719 223.096ZM183.558 214.376H185.046V223H183.558V214.376ZM183.382 212.072C183.382 211.795 183.468 211.571 183.638 211.4C183.809 211.229 184.033 211.144 184.31 211.144C184.588 211.144 184.812 211.229 184.982 211.4C185.153 211.571 185.238 211.795 185.238 212.072C185.238 212.349 185.153 212.573 184.982 212.744C184.812 212.915 184.588 213 184.31 213C184.033 213 183.809 212.915 183.638 212.744C183.468 212.573 183.382 212.349 183.382 212.072ZM191.451 223.192C190.63 223.192 189.878 223 189.195 222.616C188.523 222.221 187.99 221.683 187.595 221C187.2 220.307 187.003 219.533 187.003 218.68C187.003 217.837 187.195 217.075 187.579 216.392C187.974 215.699 188.507 215.16 189.179 214.776C189.862 214.381 190.619 214.184 191.451 214.184C192.272 214.184 193.019 214.381 193.691 214.776C194.374 215.16 194.907 215.693 195.291 216.376C195.686 217.059 195.883 217.827 195.883 218.68C195.883 219.544 195.686 220.317 195.291 221C194.896 221.683 194.358 222.221 193.675 222.616C193.003 223 192.262 223.192 191.451 223.192ZM188.571 218.68C188.571 219.256 188.694 219.779 188.939 220.248C189.195 220.717 189.542 221.085 189.979 221.352C190.427 221.619 190.918 221.752 191.451 221.752C191.974 221.752 192.454 221.619 192.891 221.352C193.328 221.085 193.67 220.717 193.915 220.248C194.171 219.779 194.299 219.256 194.299 218.68C194.299 218.104 194.171 217.587 193.915 217.128C193.67 216.659 193.328 216.291 192.891 216.024C192.454 215.757 191.974 215.624 191.451 215.624C190.918 215.624 190.427 215.757 189.979 216.024C189.542 216.291 189.195 216.659 188.939 217.128C188.694 217.587 188.571 218.104 188.571 218.68ZM197.824 214.376H199.28V215.432C199.536 215.027 199.877 214.717 200.304 214.504C200.731 214.291 201.211 214.184 201.744 214.184C202.352 214.184 202.901 214.328 203.392 214.616C203.883 214.893 204.267 215.277 204.544 215.768C204.832 216.259 204.976 216.808 204.976 217.416V223H203.472V217.896C203.472 217.192 203.28 216.637 202.896 216.232C202.523 215.827 202.027 215.624 201.408 215.624C200.789 215.624 200.283 215.832 199.888 216.248C199.504 216.653 199.312 217.203 199.312 217.896V223H197.824V214.376ZM208.497 223C208.241 223 208.022 222.915 207.841 222.744C207.67 222.563 207.585 222.339 207.585 222.072C207.585 221.805 207.67 221.587 207.841 221.416C208.022 221.235 208.241 221.144 208.497 221.144C208.753 221.144 208.966 221.235 209.137 221.416C209.308 221.587 209.393 221.805 209.393 222.072C209.393 222.339 209.308 222.563 209.137 222.744C208.977 222.915 208.764 223 208.497 223Z" fill="white"/>
</svg>
