<svg width="285" height="277" viewBox="0 0 285 277" fill="none" xmlns="http://www.w3.org/2000/svg">
<path d="M0 24.5195C0 11.2647 10.7452 0.519531 24 0.519531H261C274.255 0.519531 285 11.2647 285 24.5195V252.52C285 265.774 274.255 276.52 261 276.52H24C10.7452 276.52 0 265.774 0 252.52V24.5195Z" fill="#5D71DE"/>
<path fill-rule="evenodd" clip-rule="evenodd" d="M160.538 32.7134C161.366 32.7134 162.038 33.385 162.038 34.2134V43.2134C162.038 44.0419 161.366 44.7134 160.538 44.7134H151.538C150.709 44.7134 150.038 44.0419 150.038 43.2134C150.038 42.385 150.709 41.7134 151.538 41.7134H159.038V34.2134C159.038 33.385 159.709 32.7134 160.538 32.7134Z" fill="white"/>
<path fill-rule="evenodd" clip-rule="evenodd" d="M142.5 33.5215C140.531 33.5215 138.581 33.9097 136.762 34.664C134.943 35.4182 133.291 36.5237 131.899 37.9171C131.314 38.5033 130.364 38.504 129.778 37.9187C129.192 37.3333 129.191 36.3836 129.776 35.7973C131.447 34.1249 133.43 32.798 135.613 31.8927C137.796 30.9875 140.137 30.5215 142.5 30.5215C144.864 30.5215 147.204 30.9875 149.388 31.8927C151.57 32.7978 153.553 34.1243 155.223 35.7963L161.597 42.1513C162.184 42.7362 162.185 43.6859 161.6 44.2726C161.015 44.8592 160.065 44.8606 159.479 44.2757L153.101 37.9171C151.71 36.5237 150.058 35.4182 148.239 34.664C146.419 33.9097 144.47 33.5215 142.5 33.5215Z" fill="white"/>
<path fill-rule="evenodd" clip-rule="evenodd" d="M122.963 53.8259C122.963 52.9974 123.634 52.3259 124.463 52.3259H133.463C134.291 52.3259 134.963 52.9974 134.963 53.8259C134.963 54.6543 134.291 55.3259 133.463 55.3259H125.963V62.8259C125.963 63.6543 125.291 64.3259 124.463 64.3259C123.634 64.3259 122.963 63.6543 122.963 62.8259V53.8259Z" fill="white"/>
<path fill-rule="evenodd" clip-rule="evenodd" d="M123.401 52.7668C123.986 52.1801 124.935 52.1787 125.522 52.7636L131.899 59.1222C133.291 60.5157 134.943 61.6211 136.762 62.3754C138.581 63.1296 140.531 63.5179 142.5 63.5179C144.47 63.5179 146.419 63.1296 148.239 62.3754C150.058 61.6211 151.71 60.5157 153.101 59.1222C153.687 58.536 154.637 58.5353 155.223 59.1207C155.809 59.706 155.81 60.6558 155.224 61.242C153.554 62.9145 151.571 64.2413 149.388 65.1466C147.204 66.0519 144.864 66.5179 142.5 66.5179C140.137 66.5179 137.796 66.0519 135.613 65.1466C133.43 64.2416 131.448 62.9152 129.778 61.2433L129.776 61.242L123.404 54.8881C122.817 54.3032 122.816 53.3534 123.401 52.7668Z" fill="white"/>
<path d="M87.8523 118.76C86.3989 118.76 85.0789 118.426 83.8923 117.76C82.7056 117.08 81.7723 116.153 81.0923 114.98C80.4123 113.806 80.0723 112.5 80.0723 111.06C80.0723 109.62 80.4123 108.313 81.0923 107.14C81.7723 105.966 82.7056 105.046 83.8923 104.38C85.0789 103.713 86.3989 103.38 87.8523 103.38C89.3056 103.38 90.6256 103.713 91.8123 104.38C92.9989 105.046 93.9323 105.966 94.6123 107.14C95.3056 108.313 95.6523 109.62 95.6523 111.06C95.6523 112.5 95.3056 113.806 94.6123 114.98C93.9323 116.153 92.9989 117.08 91.8123 117.76C90.6256 118.426 89.3056 118.76 87.8523 118.76ZM82.7923 111.06C82.7923 112.046 83.0123 112.94 83.4523 113.74C83.8923 114.54 84.4923 115.166 85.2523 115.62C86.0256 116.06 86.8923 116.28 87.8523 116.28C88.8123 116.28 89.6723 116.06 90.4323 115.62C91.2056 115.166 91.8123 114.54 92.2523 113.74C92.6923 112.94 92.9123 112.046 92.9123 111.06C92.9123 110.073 92.6923 109.186 92.2523 108.4C91.8123 107.6 91.2056 106.98 90.4323 106.54C89.6723 106.086 88.8123 105.86 87.8523 105.86C86.8923 105.86 86.0256 106.086 85.2523 106.54C84.4923 106.98 83.8923 107.6 83.4523 108.4C83.0123 109.186 82.7923 110.073 82.7923 111.06ZM97.8509 107.64H100.311V108.92C100.711 108.44 101.204 108.066 101.791 107.8C102.391 107.533 103.064 107.4 103.811 107.4C104.824 107.4 105.751 107.653 106.591 108.16C107.431 108.653 108.091 109.333 108.571 110.2C109.051 111.066 109.291 112.026 109.291 113.08C109.291 114.133 109.051 115.093 108.571 115.96C108.091 116.826 107.431 117.513 106.591 118.02C105.764 118.513 104.831 118.76 103.791 118.76C103.124 118.76 102.504 118.653 101.931 118.44C101.358 118.213 100.871 117.893 100.471 117.48V122.52H97.8509V107.64ZM100.471 113.08C100.471 113.706 100.598 114.273 100.851 114.78C101.118 115.273 101.478 115.66 101.931 115.94C102.398 116.22 102.918 116.36 103.491 116.36C104.384 116.36 105.118 116.053 105.691 115.44C106.278 114.813 106.571 114.026 106.571 113.08C106.571 112.466 106.438 111.913 106.171 111.42C105.904 110.913 105.538 110.52 105.071 110.24C104.604 109.946 104.078 109.8 103.491 109.8C102.918 109.8 102.398 109.94 101.931 110.22C101.478 110.5 101.118 110.893 100.851 111.4C100.598 111.893 100.471 112.453 100.471 113.08ZM116.053 118.64C114.826 118.64 113.873 118.306 113.193 117.64C112.526 116.96 112.193 116.006 112.193 114.78V109.98H110.313V107.64H110.513C111.046 107.64 111.46 107.5 111.753 107.22C112.046 106.94 112.193 106.533 112.193 106V105.16H114.813V107.64H117.313V109.98H114.813V114.64C114.813 115.773 115.426 116.34 116.653 116.34C116.866 116.34 117.1 116.32 117.353 116.28V118.54C116.926 118.606 116.493 118.64 116.053 118.64ZM119.355 107.64H121.975V118.52H119.355V107.64ZM119.155 104.64C119.155 104.16 119.288 103.786 119.555 103.52C119.821 103.253 120.188 103.12 120.655 103.12C121.135 103.12 121.508 103.253 121.775 103.52C122.041 103.786 122.175 104.16 122.175 104.64C122.175 105.106 122.041 105.473 121.775 105.74C121.521 106.006 121.148 106.14 120.655 106.14C120.188 106.14 119.821 106.006 119.555 105.74C119.288 105.473 119.155 105.106 119.155 104.64ZM124.394 107.64H126.854V109C127.134 108.48 127.534 108.086 128.054 107.82C128.587 107.54 129.2 107.4 129.894 107.4C130.614 107.4 131.274 107.56 131.874 107.88C132.474 108.186 132.934 108.613 133.254 109.16C133.614 108.573 134.08 108.133 134.654 107.84C135.24 107.546 135.9 107.4 136.634 107.4C137.394 107.4 138.08 107.573 138.694 107.92C139.307 108.266 139.787 108.753 140.134 109.38C140.48 110.006 140.654 110.72 140.654 111.52V118.52H138.034V112.14C138.034 111.42 137.84 110.853 137.454 110.44C137.08 110.013 136.574 109.8 135.934 109.8C135.307 109.8 134.8 110.013 134.414 110.44C134.027 110.866 133.834 111.433 133.834 112.14V118.52H131.214V112.14C131.214 111.42 131.02 110.853 130.634 110.44C130.26 110.013 129.754 109.8 129.114 109.8C128.487 109.8 127.98 110.013 127.594 110.44C127.207 110.866 127.014 111.433 127.014 112.14V118.52H124.394V107.64ZM142.87 107.64H145.49V118.52H142.87V107.64ZM142.67 104.64C142.67 104.16 142.804 103.786 143.07 103.52C143.337 103.253 143.704 103.12 144.17 103.12C144.65 103.12 145.024 103.253 145.29 103.52C145.557 103.786 145.69 104.16 145.69 104.64C145.69 105.106 145.557 105.473 145.29 105.74C145.037 106.006 144.664 106.14 144.17 106.14C143.704 106.14 143.337 106.006 143.07 105.74C142.804 105.473 142.67 105.106 142.67 104.64ZM146.969 116.4L152.509 109.98H147.249V107.64H156.009V109.78L150.569 116.2H156.049V118.52H146.969V116.4ZM160.838 118.76C159.692 118.76 158.778 118.48 158.098 117.92C157.432 117.36 157.098 116.6 157.098 115.64C157.098 114.72 157.412 113.96 158.038 113.36C158.665 112.76 159.605 112.36 160.858 112.16L164.098 111.64V111.28C164.098 110.8 163.912 110.406 163.538 110.1C163.178 109.793 162.698 109.64 162.098 109.64C161.538 109.64 161.038 109.793 160.598 110.1C160.172 110.393 159.858 110.786 159.658 111.28L157.518 110.24C157.838 109.386 158.425 108.7 159.278 108.18C160.132 107.66 161.105 107.4 162.198 107.4C163.078 107.4 163.858 107.566 164.538 107.9C165.232 108.22 165.765 108.68 166.138 109.28C166.525 109.866 166.718 110.533 166.718 111.28V118.52H164.238V117.36C163.385 118.293 162.252 118.76 160.838 118.76ZM159.818 115.54C159.818 115.913 159.958 116.213 160.238 116.44C160.518 116.653 160.878 116.76 161.318 116.76C162.132 116.76 162.798 116.506 163.318 116C163.838 115.48 164.098 114.84 164.098 114.08V113.64L161.358 114.1C160.838 114.206 160.452 114.38 160.198 114.62C159.945 114.846 159.818 115.153 159.818 115.54ZM173.905 118.64C172.678 118.64 171.725 118.306 171.045 117.64C170.378 116.96 170.045 116.006 170.045 114.78V109.98H168.165V107.64H168.365C168.898 107.64 169.311 107.5 169.605 107.22C169.898 106.94 170.045 106.533 170.045 106V105.16H172.665V107.64H175.165V109.98H172.665V114.64C172.665 115.773 173.278 116.34 174.505 116.34C174.718 116.34 174.951 116.32 175.205 116.28V118.54C174.778 118.606 174.345 118.64 173.905 118.64ZM177.206 107.64H179.826V118.52H177.206V107.64ZM177.006 104.64C177.006 104.16 177.14 103.786 177.406 103.52C177.673 103.253 178.04 103.12 178.506 103.12C178.986 103.12 179.36 103.253 179.626 103.52C179.893 103.786 180.026 104.16 180.026 104.64C180.026 105.106 179.893 105.473 179.626 105.74C179.373 106.006 179 106.14 178.506 106.14C178.04 106.14 177.673 106.006 177.406 105.74C177.14 105.473 177.006 105.106 177.006 104.64ZM187.565 118.76C186.512 118.76 185.545 118.513 184.665 118.02C183.785 117.526 183.085 116.846 182.565 115.98C182.059 115.113 181.805 114.146 181.805 113.08C181.805 112.013 182.059 111.046 182.565 110.18C183.072 109.313 183.765 108.633 184.645 108.14C185.525 107.646 186.499 107.4 187.565 107.4C188.619 107.4 189.579 107.646 190.445 108.14C191.325 108.633 192.019 109.313 192.525 110.18C193.045 111.046 193.305 112.013 193.305 113.08C193.305 114.16 193.045 115.133 192.525 116C192.019 116.866 191.325 117.546 190.445 118.04C189.565 118.52 188.605 118.76 187.565 118.76ZM184.525 113.08C184.525 114.026 184.805 114.813 185.365 115.44C185.939 116.053 186.672 116.36 187.565 116.36C188.139 116.36 188.652 116.22 189.105 115.94C189.559 115.66 189.912 115.273 190.165 114.78C190.432 114.273 190.565 113.706 190.565 113.08C190.565 112.466 190.432 111.913 190.165 111.42C189.912 110.913 189.559 110.52 189.105 110.24C188.652 109.946 188.139 109.8 187.565 109.8C186.979 109.8 186.452 109.946 185.985 110.24C185.532 110.52 185.172 110.906 184.905 111.4C184.652 111.893 184.525 112.453 184.525 113.08ZM195.292 107.64H197.752V108.98C198.032 108.473 198.439 108.086 198.972 107.82C199.519 107.54 200.139 107.4 200.832 107.4C201.619 107.4 202.326 107.573 202.952 107.92C203.579 108.266 204.066 108.753 204.412 109.38C204.759 110.006 204.932 110.72 204.932 111.52V118.52H202.312V112.14C202.312 111.433 202.106 110.866 201.692 110.44C201.292 110.013 200.766 109.8 200.112 109.8C199.459 109.8 198.926 110.013 198.512 110.44C198.112 110.866 197.912 111.433 197.912 112.14V118.52H195.292V107.64Z" fill="white"/>
<path opacity="0.75" d="M26.2108 139.6H27.7788V145.696L33.0908 139.6H35.0588L30.7388 144.592L35.2988 151.52H33.4268L29.6508 145.856L27.7788 148V151.52H26.2108V139.6ZM39.0003 151.712C38.147 151.712 37.4536 151.488 36.9203 151.04C36.387 150.581 36.1203 149.989 36.1203 149.264C36.1203 148.56 36.3496 147.973 36.8083 147.504C37.2776 147.024 37.987 146.704 38.9363 146.544L41.8803 146.064V145.664C41.8803 145.194 41.7043 144.816 41.3523 144.528C41.0003 144.229 40.547 144.08 39.9923 144.08C39.5016 144.08 39.0643 144.208 38.6803 144.464C38.307 144.709 38.0296 145.04 37.8483 145.456L36.5523 144.784C36.7976 144.186 37.2456 143.69 37.8963 143.296C38.547 142.901 39.2563 142.704 40.0243 142.704C40.675 142.704 41.251 142.832 41.7523 143.088C42.2643 143.333 42.659 143.68 42.9363 144.128C43.2243 144.576 43.3683 145.088 43.3683 145.664V151.52H41.9123V150.4C41.603 150.805 41.1923 151.125 40.6803 151.36C40.179 151.594 39.619 151.712 39.0003 151.712ZM37.6883 149.216C37.6883 149.568 37.827 149.861 38.1043 150.096C38.3923 150.33 38.7496 150.448 39.1763 150.448C39.699 150.448 40.163 150.336 40.5683 150.112C40.9843 149.877 41.3043 149.562 41.5283 149.168C41.763 148.773 41.8803 148.336 41.8803 147.856V147.312L39.2723 147.744C38.2163 147.925 37.6883 148.416 37.6883 149.216ZM45.6754 139.408H47.1634V151.52H45.6754V139.408ZM49.4723 139.408H50.9603V151.52H49.4723V139.408ZM53.2692 142.896H54.7572V151.52H53.2692V142.896ZM53.0932 140.592C53.0932 140.314 53.1785 140.09 53.3492 139.92C53.5199 139.749 53.7439 139.664 54.0212 139.664C54.2985 139.664 54.5225 139.749 54.6932 139.92C54.8639 140.09 54.9492 140.314 54.9492 140.592C54.9492 140.869 54.8639 141.093 54.6932 141.264C54.5225 141.434 54.2985 141.52 54.0212 141.52C53.7439 141.52 53.5199 141.434 53.3492 141.264C53.1785 141.093 53.0932 140.869 53.0932 140.592ZM60.1541 151.712C59.3221 151.712 58.5861 151.509 57.9461 151.104C57.3061 150.688 56.8474 150.128 56.5701 149.424L57.7701 148.816C58.0154 149.317 58.3514 149.712 58.7781 150C59.2047 150.288 59.6687 150.432 60.1701 150.432C60.6501 150.432 61.0447 150.32 61.3541 150.096C61.6634 149.872 61.8181 149.578 61.8181 149.216C61.8181 148.864 61.6794 148.581 61.4021 148.368C61.1247 148.144 60.8261 148.01 60.5061 147.968L59.2101 147.792C58.4421 147.6 57.8661 147.28 57.4821 146.832C57.0981 146.384 56.9061 145.856 56.9061 145.248C56.9061 144.746 57.0341 144.304 57.2901 143.92C57.5567 143.536 57.9194 143.237 58.3781 143.024C58.8474 142.81 59.3647 142.704 59.9301 142.704C60.6767 142.704 61.3434 142.89 61.9301 143.264C62.5274 143.637 62.9541 144.154 63.2101 144.816L62.0261 145.424C61.8127 144.986 61.5141 144.64 61.1301 144.384C60.7567 144.128 60.3407 144 59.8821 144C59.4447 144 59.0927 144.106 58.8261 144.32C58.5594 144.533 58.4261 144.81 58.4261 145.152C58.4261 145.504 58.5487 145.786 58.7941 146C59.0501 146.202 59.3274 146.33 59.6261 146.384L61.0501 146.576C61.7647 146.768 62.3194 147.098 62.7141 147.568C63.1194 148.026 63.3221 148.56 63.3221 149.168C63.3221 149.658 63.1887 150.096 62.9221 150.48C62.6554 150.864 62.2821 151.168 61.8021 151.392C61.3221 151.605 60.7727 151.712 60.1541 151.712ZM68.7419 151.616C67.8993 151.616 67.2486 151.381 66.7899 150.912C66.3419 150.432 66.1179 149.749 66.1179 148.864V144.32H64.5499V142.896H64.8699C65.2539 142.896 65.5579 142.784 65.7819 142.56C66.0059 142.325 66.1179 142.01 66.1179 141.616V140.912H67.6059V142.896H69.5419V144.32H67.6059V148.816C67.6059 149.776 68.0859 150.256 69.0459 150.256C69.2486 150.256 69.4459 150.24 69.6379 150.208V151.536C69.4139 151.589 69.1153 151.616 68.7419 151.616ZM75.4433 151.712C74.622 151.712 73.87 151.52 73.1873 151.136C72.5153 150.741 71.982 150.202 71.5873 149.52C71.1926 148.826 70.9953 148.053 70.9953 147.2C70.9953 146.357 71.1873 145.594 71.5713 144.912C71.966 144.218 72.4993 143.68 73.1713 143.296C73.854 142.901 74.6113 142.704 75.4433 142.704C76.2646 142.704 77.0113 142.901 77.6833 143.296C78.366 143.68 78.8993 144.213 79.2833 144.896C79.678 145.578 79.8753 146.346 79.8753 147.2C79.8753 148.064 79.678 148.837 79.2833 149.52C78.8886 150.202 78.35 150.741 77.6673 151.136C76.9953 151.52 76.254 151.712 75.4433 151.712ZM72.5633 147.2C72.5633 147.776 72.686 148.298 72.9313 148.768C73.1873 149.237 73.534 149.605 73.9713 149.872C74.4193 150.138 74.91 150.272 75.4433 150.272C75.966 150.272 76.446 150.138 76.8833 149.872C77.3206 149.605 77.662 149.237 77.9073 148.768C78.1633 148.298 78.2913 147.776 78.2913 147.2C78.2913 146.624 78.1633 146.106 77.9073 145.648C77.662 145.178 77.3206 144.81 76.8833 144.544C76.446 144.277 75.966 144.144 75.4433 144.144C74.91 144.144 74.4193 144.277 73.9713 144.544C73.534 144.81 73.1873 145.178 72.9313 145.648C72.686 146.106 72.5633 146.624 72.5633 147.2ZM84.5817 142.896H86.0377V144.096C86.379 143.658 86.8057 143.317 87.3177 143.072C87.8404 142.826 88.4217 142.704 89.0617 142.704C89.8617 142.704 90.587 142.901 91.2377 143.296C91.8884 143.69 92.4004 144.234 92.7737 144.928C93.147 145.61 93.3337 146.373 93.3337 147.216C93.3337 148.058 93.147 148.821 92.7737 149.504C92.4004 150.186 91.8884 150.725 91.2377 151.12C90.587 151.514 89.8564 151.712 89.0457 151.712C88.427 151.712 87.8564 151.594 87.3337 151.36C86.8217 151.114 86.4004 150.768 86.0697 150.32V154.72H84.5817V142.896ZM86.0697 147.216C86.0697 147.792 86.1924 148.314 86.4377 148.784C86.6937 149.242 87.0404 149.605 87.4777 149.872C87.915 150.138 88.4004 150.272 88.9337 150.272C89.467 150.272 89.947 150.138 90.3737 149.872C90.811 149.605 91.147 149.242 91.3817 148.784C91.627 148.314 91.7497 147.792 91.7497 147.216C91.7497 146.64 91.627 146.117 91.3817 145.648C91.1364 145.178 90.8004 144.81 90.3737 144.544C89.947 144.277 89.467 144.144 88.9337 144.144C88.4004 144.144 87.915 144.277 87.4777 144.544C87.0404 144.81 86.6937 145.178 86.4377 145.648C86.1924 146.117 86.0697 146.64 86.0697 147.216ZM95.2848 142.896H96.7408V143.92C97.1888 143.173 97.9515 142.8 99.0288 142.8H99.5568V144.208H98.8048C98.1861 144.208 97.6901 144.4 97.3168 144.784C96.9541 145.168 96.7728 145.701 96.7728 146.384V151.52H95.2848V142.896ZM104.975 151.712C104.153 151.712 103.401 151.52 102.719 151.136C102.047 150.741 101.513 150.202 101.119 149.52C100.724 148.826 100.527 148.053 100.527 147.2C100.527 146.357 100.719 145.594 101.103 144.912C101.497 144.218 102.031 143.68 102.703 143.296C103.385 142.901 104.143 142.704 104.975 142.704C105.796 142.704 106.543 142.901 107.215 143.296C107.897 143.68 108.431 144.213 108.815 144.896C109.209 145.578 109.407 146.346 109.407 147.2C109.407 148.064 109.209 148.837 108.815 149.52C108.42 150.202 107.881 150.741 107.199 151.136C106.527 151.52 105.785 151.712 104.975 151.712ZM102.095 147.2C102.095 147.776 102.217 148.298 102.463 148.768C102.719 149.237 103.065 149.605 103.503 149.872C103.951 150.138 104.441 150.272 104.975 150.272C105.497 150.272 105.977 150.138 106.415 149.872C106.852 149.605 107.193 149.237 107.439 148.768C107.695 148.298 107.823 147.776 107.823 147.2C107.823 146.624 107.695 146.106 107.439 145.648C107.193 145.178 106.852 144.81 106.415 144.544C105.977 144.277 105.497 144.144 104.975 144.144C104.441 144.144 103.951 144.277 103.503 144.544C103.065 144.81 102.719 145.178 102.463 145.648C102.217 146.106 102.095 146.624 102.095 147.2ZM110.215 142.896H111.879L114.295 149.424L116.727 142.896H118.391L114.999 151.52H113.591L110.215 142.896ZM119.722 142.896H121.21V151.52H119.722V142.896ZM119.546 140.592C119.546 140.314 119.632 140.09 119.802 139.92C119.973 139.749 120.197 139.664 120.474 139.664C120.752 139.664 120.976 139.749 121.146 139.92C121.317 140.09 121.402 140.314 121.402 140.592C121.402 140.869 121.317 141.093 121.146 141.264C120.976 141.434 120.752 141.52 120.474 141.52C120.197 141.52 119.973 141.434 119.802 141.264C119.632 141.093 119.546 140.869 119.546 140.592ZM127.439 151.712C126.639 151.712 125.914 151.514 125.263 151.12C124.613 150.725 124.101 150.186 123.727 149.504C123.354 148.821 123.167 148.058 123.167 147.216C123.167 146.373 123.354 145.61 123.727 144.928C124.101 144.234 124.613 143.69 125.263 143.296C125.914 142.901 126.639 142.704 127.439 142.704C128.069 142.704 128.634 142.821 129.135 143.056C129.647 143.29 130.074 143.621 130.415 144.048V139.408H131.919V151.52H130.463V150.256C130.143 150.714 129.717 151.072 129.183 151.328C128.661 151.584 128.079 151.712 127.439 151.712ZM124.735 147.216C124.735 147.792 124.858 148.314 125.103 148.784C125.349 149.242 125.685 149.605 126.111 149.872C126.549 150.138 127.034 150.272 127.567 150.272C128.101 150.272 128.581 150.138 129.007 149.872C129.445 149.605 129.786 149.242 130.031 148.784C130.287 148.314 130.415 147.792 130.415 147.216C130.415 146.64 130.287 146.117 130.031 145.648C129.786 145.178 129.445 144.81 129.007 144.544C128.581 144.277 128.101 144.144 127.567 144.144C127.034 144.144 126.549 144.277 126.111 144.544C125.685 144.81 125.349 145.178 125.103 145.648C124.858 146.117 124.735 146.64 124.735 147.216ZM138.19 151.712C137.38 151.712 136.644 151.514 135.982 151.12C135.321 150.725 134.804 150.186 134.43 149.504C134.057 148.81 133.87 148.037 133.87 147.184C133.87 146.33 134.052 145.562 134.414 144.88C134.788 144.197 135.289 143.664 135.918 143.28C136.558 142.896 137.273 142.704 138.062 142.704C138.884 142.704 139.598 142.896 140.206 143.28C140.825 143.664 141.294 144.176 141.614 144.816C141.945 145.445 142.11 146.122 142.11 146.848C142.11 147.093 142.084 147.36 142.03 147.648H135.438C135.46 148.192 135.598 148.666 135.854 149.072C136.11 149.477 136.441 149.792 136.846 150.016C137.262 150.24 137.716 150.352 138.206 150.352C139.252 150.352 140.057 149.877 140.622 148.928L141.87 149.568C141.593 150.186 141.124 150.698 140.462 151.104C139.801 151.509 139.044 151.712 138.19 151.712ZM140.494 146.368C140.473 145.696 140.228 145.141 139.758 144.704C139.3 144.256 138.734 144.032 138.062 144.032C137.401 144.032 136.83 144.245 136.35 144.672C135.87 145.088 135.577 145.653 135.47 146.368H140.494ZM147.138 151.712C146.306 151.712 145.57 151.509 144.93 151.104C144.29 150.688 143.832 150.128 143.554 149.424L144.754 148.816C145 149.317 145.336 149.712 145.762 150C146.189 150.288 146.653 150.432 147.154 150.432C147.634 150.432 148.029 150.32 148.338 150.096C148.648 149.872 148.802 149.578 148.802 149.216C148.802 148.864 148.664 148.581 148.386 148.368C148.109 148.144 147.81 148.01 147.49 147.968L146.194 147.792C145.426 147.6 144.85 147.28 144.466 146.832C144.082 146.384 143.89 145.856 143.89 145.248C143.89 144.746 144.018 144.304 144.274 143.92C144.541 143.536 144.904 143.237 145.362 143.024C145.832 142.81 146.349 142.704 146.914 142.704C147.661 142.704 148.328 142.89 148.914 143.264C149.512 143.637 149.938 144.154 150.194 144.816L149.01 145.424C148.797 144.986 148.498 144.64 148.114 144.384C147.741 144.128 147.325 144 146.866 144C146.429 144 146.077 144.106 145.81 144.32C145.544 144.533 145.41 144.81 145.41 145.152C145.41 145.504 145.533 145.786 145.778 146C146.034 146.202 146.312 146.33 146.61 146.384L148.034 146.576C148.749 146.768 149.304 147.098 149.698 147.568C150.104 148.026 150.306 148.56 150.306 149.168C150.306 149.658 150.173 150.096 149.906 150.48C149.64 150.864 149.266 151.168 148.786 151.392C148.306 151.605 147.757 151.712 147.138 151.712ZM157.516 151.712C156.663 151.712 155.969 151.488 155.436 151.04C154.903 150.581 154.636 149.989 154.636 149.264C154.636 148.56 154.865 147.973 155.324 147.504C155.793 147.024 156.503 146.704 157.452 146.544L160.396 146.064V145.664C160.396 145.194 160.22 144.816 159.868 144.528C159.516 144.229 159.063 144.08 158.508 144.08C158.017 144.08 157.58 144.208 157.196 144.464C156.823 144.709 156.545 145.04 156.364 145.456L155.068 144.784C155.313 144.186 155.761 143.69 156.412 143.296C157.063 142.901 157.772 142.704 158.54 142.704C159.191 142.704 159.767 142.832 160.268 143.088C160.78 143.333 161.175 143.68 161.452 144.128C161.74 144.576 161.884 145.088 161.884 145.664V151.52H160.428V150.4C160.119 150.805 159.708 151.125 159.196 151.36C158.695 151.594 158.135 151.712 157.516 151.712ZM156.204 149.216C156.204 149.568 156.343 149.861 156.62 150.096C156.908 150.33 157.265 150.448 157.692 150.448C158.215 150.448 158.679 150.336 159.084 150.112C159.5 149.877 159.82 149.562 160.044 149.168C160.279 148.773 160.396 148.336 160.396 147.856V147.312L157.788 147.744C156.732 147.925 156.204 148.416 156.204 149.216ZM168.191 151.712C167.348 151.712 166.591 151.514 165.919 151.12C165.247 150.725 164.724 150.186 164.351 149.504C163.978 148.81 163.791 148.042 163.791 147.2C163.791 146.346 163.978 145.578 164.351 144.896C164.724 144.213 165.242 143.68 165.903 143.296C166.575 142.901 167.338 142.704 168.191 142.704C169.023 142.704 169.78 142.922 170.463 143.36C171.156 143.786 171.647 144.341 171.935 145.024L170.591 145.664C170.388 145.205 170.068 144.837 169.631 144.56C169.204 144.282 168.724 144.144 168.191 144.144C167.668 144.144 167.188 144.277 166.751 144.544C166.324 144.81 165.988 145.178 165.743 145.648C165.498 146.106 165.375 146.629 165.375 147.216C165.375 147.792 165.498 148.314 165.743 148.784C165.999 149.242 166.34 149.605 166.767 149.872C167.194 150.138 167.668 150.272 168.191 150.272C168.735 150.272 169.22 150.133 169.647 149.856C170.074 149.578 170.388 149.2 170.591 148.72L171.935 149.392C171.658 150.064 171.172 150.618 170.479 151.056C169.786 151.493 169.023 151.712 168.191 151.712ZM177.832 151.712C176.989 151.712 176.232 151.514 175.56 151.12C174.888 150.725 174.365 150.186 173.992 149.504C173.618 148.81 173.432 148.042 173.432 147.2C173.432 146.346 173.618 145.578 173.992 144.896C174.365 144.213 174.882 143.68 175.544 143.296C176.216 142.901 176.978 142.704 177.832 142.704C178.664 142.704 179.421 142.922 180.104 143.36C180.797 143.786 181.288 144.341 181.576 145.024L180.232 145.664C180.029 145.205 179.709 144.837 179.272 144.56C178.845 144.282 178.365 144.144 177.832 144.144C177.309 144.144 176.829 144.277 176.392 144.544C175.965 144.81 175.629 145.178 175.384 145.648C175.138 146.106 175.016 146.629 175.016 147.216C175.016 147.792 175.138 148.314 175.384 148.784C175.64 149.242 175.981 149.605 176.408 149.872C176.834 150.138 177.309 150.272 177.832 150.272C178.376 150.272 178.861 150.133 179.288 149.856C179.714 149.578 180.029 149.2 180.232 148.72L181.576 149.392C181.298 150.064 180.813 150.618 180.12 151.056C179.426 151.493 178.664 151.712 177.832 151.712ZM186.528 151.712C185.91 151.712 185.355 151.568 184.864 151.28C184.374 150.992 183.99 150.592 183.712 150.08C183.435 149.557 183.296 148.96 183.296 148.288V142.896H184.784V148.128C184.784 148.768 184.976 149.285 185.36 149.68C185.744 150.074 186.246 150.272 186.864 150.272C187.483 150.272 187.984 150.069 188.368 149.664C188.752 149.248 188.944 148.693 188.944 148V142.896H190.448V151.52H188.992V150.464C188.736 150.869 188.395 151.178 187.968 151.392C187.542 151.605 187.062 151.712 186.528 151.712ZM192.754 142.896H194.21V143.92C194.658 143.173 195.42 142.8 196.498 142.8H197.026V144.208H196.274C195.655 144.208 195.159 144.4 194.786 144.784C194.423 145.168 194.242 145.701 194.242 146.384V151.52H192.754V142.896ZM200.875 151.712C200.022 151.712 199.329 151.488 198.795 151.04C198.262 150.581 197.995 149.989 197.995 149.264C197.995 148.56 198.225 147.973 198.683 147.504C199.153 147.024 199.862 146.704 200.811 146.544L203.755 146.064V145.664C203.755 145.194 203.579 144.816 203.227 144.528C202.875 144.229 202.422 144.08 201.867 144.08C201.377 144.08 200.939 144.208 200.555 144.464C200.182 144.709 199.905 145.04 199.723 145.456L198.427 144.784C198.673 144.186 199.121 143.69 199.771 143.296C200.422 142.901 201.131 142.704 201.899 142.704C202.55 142.704 203.126 142.832 203.627 143.088C204.139 143.333 204.534 143.68 204.811 144.128C205.099 144.576 205.243 145.088 205.243 145.664V151.52H203.787V150.4C203.478 150.805 203.067 151.125 202.555 151.36C202.054 151.594 201.494 151.712 200.875 151.712ZM199.563 149.216C199.563 149.568 199.702 149.861 199.979 150.096C200.267 150.33 200.625 150.448 201.051 150.448C201.574 150.448 202.038 150.336 202.443 150.112C202.859 149.877 203.179 149.562 203.403 149.168C203.638 148.773 203.755 148.336 203.755 147.856V147.312L201.147 147.744C200.091 147.925 199.563 148.416 199.563 149.216ZM210.898 151.616C210.056 151.616 209.405 151.381 208.946 150.912C208.498 150.432 208.274 149.749 208.274 148.864V144.32H206.706V142.896H207.026C207.41 142.896 207.714 142.784 207.938 142.56C208.162 142.325 208.274 142.01 208.274 141.616V140.912H209.762V142.896H211.698V144.32H209.762V148.816C209.762 149.776 210.242 150.256 211.202 150.256C211.405 150.256 211.602 150.24 211.794 150.208V151.536C211.57 151.589 211.272 151.616 210.898 151.616ZM217.472 151.712C216.661 151.712 215.925 151.514 215.264 151.12C214.602 150.725 214.085 150.186 213.712 149.504C213.338 148.81 213.152 148.037 213.152 147.184C213.152 146.33 213.333 145.562 213.696 144.88C214.069 144.197 214.57 143.664 215.2 143.28C215.84 142.896 216.554 142.704 217.344 142.704C218.165 142.704 218.88 142.896 219.488 143.28C220.106 143.664 220.576 144.176 220.896 144.816C221.226 145.445 221.392 146.122 221.392 146.848C221.392 147.093 221.365 147.36 221.312 147.648H214.72C214.741 148.192 214.88 148.666 215.136 149.072C215.392 149.477 215.722 149.792 216.128 150.016C216.544 150.24 216.997 150.352 217.488 150.352C218.533 150.352 219.338 149.877 219.904 148.928L221.152 149.568C220.874 150.186 220.405 150.698 219.744 151.104C219.082 151.509 218.325 151.712 217.472 151.712ZM219.776 146.368C219.754 145.696 219.509 145.141 219.04 144.704C218.581 144.256 218.016 144.032 217.344 144.032C216.682 144.032 216.112 144.245 215.632 144.672C215.152 145.088 214.858 145.653 214.752 146.368H219.776ZM230.017 151.712C229.217 151.712 228.492 151.514 227.841 151.12C227.191 150.725 226.679 150.186 226.305 149.504C225.932 148.821 225.745 148.058 225.745 147.216C225.745 146.373 225.932 145.61 226.305 144.928C226.679 144.234 227.191 143.69 227.841 143.296C228.492 142.901 229.217 142.704 230.017 142.704C230.647 142.704 231.212 142.821 231.713 143.056C232.225 143.29 232.652 143.621 232.993 144.048V139.408H234.497V151.52H233.041V150.256C232.721 150.714 232.295 151.072 231.761 151.328C231.239 151.584 230.657 151.712 230.017 151.712ZM227.313 147.216C227.313 147.792 227.436 148.314 227.681 148.784C227.927 149.242 228.263 149.605 228.689 149.872C229.127 150.138 229.612 150.272 230.145 150.272C230.679 150.272 231.159 150.138 231.585 149.872C232.023 149.605 232.364 149.242 232.609 148.784C232.865 148.314 232.993 147.792 232.993 147.216C232.993 146.64 232.865 146.117 232.609 145.648C232.364 145.178 232.023 144.81 231.585 144.544C231.159 144.277 230.679 144.144 230.145 144.144C229.612 144.144 229.127 144.277 228.689 144.544C228.263 144.81 227.927 145.178 227.681 145.648C227.436 146.117 227.313 146.64 227.313 147.216ZM239.328 151.712C238.475 151.712 237.782 151.488 237.248 151.04C236.715 150.581 236.448 149.989 236.448 149.264C236.448 148.56 236.678 147.973 237.136 147.504C237.606 147.024 238.315 146.704 239.264 146.544L242.208 146.064V145.664C242.208 145.194 242.032 144.816 241.68 144.528C241.328 144.229 240.875 144.08 240.32 144.08C239.83 144.08 239.392 144.208 239.008 144.464C238.635 144.709 238.358 145.04 238.176 145.456L236.88 144.784C237.126 144.186 237.574 143.69 238.224 143.296C238.875 142.901 239.584 142.704 240.352 142.704C241.003 142.704 241.579 142.832 242.08 143.088C242.592 143.333 242.987 143.68 243.264 144.128C243.552 144.576 243.696 145.088 243.696 145.664V151.52H242.24V150.4C241.931 150.805 241.52 151.125 241.008 151.36C240.507 151.594 239.947 151.712 239.328 151.712ZM238.016 149.216C238.016 149.568 238.155 149.861 238.432 150.096C238.72 150.33 239.078 150.448 239.504 150.448C240.027 150.448 240.491 150.336 240.896 150.112C241.312 149.877 241.632 149.562 241.856 149.168C242.091 148.773 242.208 148.336 242.208 147.856V147.312L239.6 147.744C238.544 147.925 238.016 148.416 238.016 149.216ZM249.351 151.616C248.509 151.616 247.858 151.381 247.399 150.912C246.951 150.432 246.727 149.749 246.727 148.864V144.32H245.159V142.896H245.479C245.863 142.896 246.167 142.784 246.391 142.56C246.615 142.325 246.727 142.01 246.727 141.616V140.912H248.215V142.896H250.151V144.32H248.215V148.816C248.215 149.776 248.695 150.256 249.655 150.256C249.858 150.256 250.055 150.24 250.247 150.208V151.536C250.023 151.589 249.725 151.616 249.351 151.616ZM254.594 151.712C253.741 151.712 253.047 151.488 252.514 151.04C251.981 150.581 251.714 149.989 251.714 149.264C251.714 148.56 251.943 147.973 252.402 147.504C252.871 147.024 253.581 146.704 254.53 146.544L257.474 146.064V145.664C257.474 145.194 257.298 144.816 256.946 144.528C256.594 144.229 256.141 144.08 255.586 144.08C255.095 144.08 254.658 144.208 254.274 144.464C253.901 144.709 253.623 145.04 253.442 145.456L252.146 144.784C252.391 144.186 252.839 143.69 253.49 143.296C254.141 142.901 254.85 142.704 255.618 142.704C256.269 142.704 256.845 142.832 257.346 143.088C257.858 143.333 258.253 143.68 258.53 144.128C258.818 144.576 258.962 145.088 258.962 145.664V151.52H257.506V150.4C257.197 150.805 256.786 151.125 256.274 151.36C255.773 151.594 255.213 151.712 254.594 151.712ZM253.282 149.216C253.282 149.568 253.421 149.861 253.698 150.096C253.986 150.33 254.343 150.448 254.77 150.448C255.293 150.448 255.757 150.336 256.162 150.112C256.578 149.877 256.898 149.562 257.122 149.168C257.357 148.773 257.474 148.336 257.474 147.856V147.312L254.866 147.744C253.81 147.925 253.282 148.416 253.282 149.216ZM42.8988 175.712C42.0454 175.712 41.3521 175.488 40.8188 175.04C40.2854 174.581 40.0188 173.989 40.0188 173.264C40.0188 172.56 40.2481 171.973 40.7068 171.504C41.1761 171.024 41.8854 170.704 42.8348 170.544L45.7788 170.064V169.664C45.7788 169.194 45.6028 168.816 45.2508 168.528C44.8988 168.229 44.4454 168.08 43.8908 168.08C43.4001 168.08 42.9628 168.208 42.5788 168.464C42.2054 168.709 41.9281 169.04 41.7468 169.456L40.4508 168.784C40.6961 168.186 41.1441 167.69 41.7948 167.296C42.4454 166.901 43.1548 166.704 43.9227 166.704C44.5734 166.704 45.1494 166.832 45.6508 167.088C46.1628 167.333 46.5574 167.68 46.8348 168.128C47.1228 168.576 47.2668 169.088 47.2668 169.664V175.52H45.8108V174.4C45.5014 174.805 45.0908 175.125 44.5788 175.36C44.0774 175.594 43.5174 175.712 42.8988 175.712ZM41.5868 173.216C41.5868 173.568 41.7254 173.861 42.0028 174.096C42.2908 174.33 42.6481 174.448 43.0748 174.448C43.5974 174.448 44.0614 174.336 44.4668 174.112C44.8828 173.877 45.2028 173.562 45.4268 173.168C45.6614 172.773 45.7788 172.336 45.7788 171.856V171.312L43.1708 171.744C42.1148 171.925 41.5868 172.416 41.5868 173.216ZM49.5739 166.896H51.0299V167.952C51.2859 167.546 51.6272 167.237 52.0539 167.024C52.4805 166.81 52.9605 166.704 53.4939 166.704C54.1019 166.704 54.6512 166.848 55.1419 167.136C55.6325 167.413 56.0165 167.797 56.2939 168.288C56.5819 168.778 56.7259 169.328 56.7259 169.936V175.52H55.2219V170.416C55.2219 169.712 55.0299 169.157 54.6459 168.752C54.2725 168.346 53.7765 168.144 53.1579 168.144C52.5392 168.144 52.0325 168.352 51.6379 168.768C51.2539 169.173 51.0619 169.722 51.0619 170.416V175.52H49.5739V166.896ZM61.3831 175.712C60.5298 175.712 59.8365 175.488 59.3031 175.04C58.7698 174.581 58.5031 173.989 58.5031 173.264C58.5031 172.56 58.7325 171.973 59.1911 171.504C59.6605 171.024 60.3698 170.704 61.3191 170.544L64.2631 170.064V169.664C64.2631 169.194 64.0871 168.816 63.7351 168.528C63.3831 168.229 62.9298 168.08 62.3751 168.08C61.8845 168.08 61.4471 168.208 61.0631 168.464C60.6898 168.709 60.4125 169.04 60.2311 169.456L58.9351 168.784C59.1805 168.186 59.6285 167.69 60.2791 167.296C60.9298 166.901 61.6391 166.704 62.4071 166.704C63.0578 166.704 63.6338 166.832 64.1351 167.088C64.6471 167.333 65.0418 167.68 65.3191 168.128C65.6071 168.576 65.7511 169.088 65.7511 169.664V175.52H64.2951V174.4C63.9858 174.805 63.5751 175.125 63.0631 175.36C62.5618 175.594 62.0018 175.712 61.3831 175.712ZM60.0711 173.216C60.0711 173.568 60.2098 173.861 60.4871 174.096C60.7751 174.33 61.1325 174.448 61.5591 174.448C62.0818 174.448 62.5458 174.336 62.9511 174.112C63.3671 173.877 63.6871 173.562 63.9111 173.168C64.1458 172.773 64.2631 172.336 64.2631 171.856V171.312L61.6551 171.744C60.5991 171.925 60.0711 172.416 60.0711 173.216ZM68.0583 163.408H69.5463V175.52H68.0583V163.408ZM74.3031 175.504L70.8791 166.896H72.4951L75.1191 173.632L77.7271 166.896H79.3751L74.6071 178.72H72.9591L74.3031 175.504ZM83.7869 175.712C82.9549 175.712 82.2189 175.509 81.5789 175.104C80.9389 174.688 80.4802 174.128 80.2029 173.424L81.4029 172.816C81.6482 173.317 81.9842 173.712 82.4109 174C82.8375 174.288 83.3015 174.432 83.8029 174.432C84.2829 174.432 84.6775 174.32 84.9869 174.096C85.2962 173.872 85.4509 173.578 85.4509 173.216C85.4509 172.864 85.3122 172.581 85.0349 172.368C84.7575 172.144 84.4589 172.01 84.1389 171.968L82.8429 171.792C82.0749 171.6 81.4989 171.28 81.1149 170.832C80.7309 170.384 80.5389 169.856 80.5389 169.248C80.5389 168.746 80.6669 168.304 80.9229 167.92C81.1895 167.536 81.5522 167.237 82.0109 167.024C82.4802 166.81 82.9975 166.704 83.5629 166.704C84.3095 166.704 84.9762 166.89 85.5629 167.264C86.1602 167.637 86.5869 168.154 86.8429 168.816L85.6589 169.424C85.4455 168.986 85.1469 168.64 84.7629 168.384C84.3895 168.128 83.9735 168 83.5149 168C83.0775 168 82.7255 168.106 82.4589 168.32C82.1922 168.533 82.0589 168.81 82.0589 169.152C82.0589 169.504 82.1815 169.786 82.4269 170C82.6829 170.202 82.9602 170.33 83.2589 170.384L84.6829 170.576C85.3975 170.768 85.9522 171.098 86.3469 171.568C86.7522 172.026 86.9549 172.56 86.9549 173.168C86.9549 173.658 86.8215 174.096 86.5549 174.48C86.2882 174.864 85.9149 175.168 85.4349 175.392C84.9549 175.605 84.4055 175.712 83.7869 175.712ZM88.8708 166.896H90.3588V175.52H88.8708V166.896ZM88.6948 164.592C88.6948 164.314 88.7801 164.09 88.9508 163.92C89.1214 163.749 89.3454 163.664 89.6228 163.664C89.9001 163.664 90.1241 163.749 90.2948 163.92C90.4654 164.09 90.5508 164.314 90.5508 164.592C90.5508 164.869 90.4654 165.093 90.2948 165.264C90.1241 165.434 89.9001 165.52 89.6228 165.52C89.3454 165.52 89.1214 165.434 88.9508 165.264C88.7801 165.093 88.6948 164.869 88.6948 164.592ZM95.7556 175.712C94.9236 175.712 94.1876 175.509 93.5476 175.104C92.9076 174.688 92.449 174.128 92.1716 173.424L93.3716 172.816C93.617 173.317 93.953 173.712 94.3796 174C94.8063 174.288 95.2703 174.432 95.7716 174.432C96.2516 174.432 96.6463 174.32 96.9556 174.096C97.265 173.872 97.4196 173.578 97.4196 173.216C97.4196 172.864 97.281 172.581 97.0036 172.368C96.7263 172.144 96.4276 172.01 96.1076 171.968L94.8116 171.792C94.0436 171.6 93.4676 171.28 93.0836 170.832C92.6996 170.384 92.5076 169.856 92.5076 169.248C92.5076 168.746 92.6356 168.304 92.8916 167.92C93.1583 167.536 93.521 167.237 93.9796 167.024C94.449 166.81 94.9663 166.704 95.5316 166.704C96.2783 166.704 96.945 166.89 97.5316 167.264C98.129 167.637 98.5556 168.154 98.8116 168.816L97.6276 169.424C97.4143 168.986 97.1156 168.64 96.7316 168.384C96.3583 168.128 95.9423 168 95.4836 168C95.0463 168 94.6943 168.106 94.4276 168.32C94.161 168.533 94.0276 168.81 94.0276 169.152C94.0276 169.504 94.1503 169.786 94.3956 170C94.6516 170.202 94.929 170.33 95.2276 170.384L96.6516 170.576C97.3663 170.768 97.921 171.098 98.3156 171.568C98.721 172.026 98.9236 172.56 98.9236 173.168C98.9236 173.658 98.7903 174.096 98.5236 174.48C98.257 174.864 97.8836 175.168 97.4036 175.392C96.9236 175.605 96.3743 175.712 95.7556 175.712ZM106.133 175.712C105.28 175.712 104.586 175.488 104.053 175.04C103.52 174.581 103.253 173.989 103.253 173.264C103.253 172.56 103.482 171.973 103.941 171.504C104.41 171.024 105.12 170.704 106.069 170.544L109.013 170.064V169.664C109.013 169.194 108.837 168.816 108.485 168.528C108.133 168.229 107.68 168.08 107.125 168.08C106.634 168.08 106.197 168.208 105.813 168.464C105.44 168.709 105.162 169.04 104.981 169.456L103.685 168.784C103.93 168.186 104.378 167.69 105.029 167.296C105.68 166.901 106.389 166.704 107.157 166.704C107.808 166.704 108.384 166.832 108.885 167.088C109.397 167.333 109.792 167.68 110.069 168.128C110.357 168.576 110.501 169.088 110.501 169.664V175.52H109.045V174.4C108.736 174.805 108.325 175.125 107.813 175.36C107.312 175.594 106.752 175.712 106.133 175.712ZM104.821 173.216C104.821 173.568 104.96 173.861 105.237 174.096C105.525 174.33 105.882 174.448 106.309 174.448C106.832 174.448 107.296 174.336 107.701 174.112C108.117 173.877 108.437 173.562 108.661 173.168C108.896 172.773 109.013 172.336 109.013 171.856V171.312L106.405 171.744C105.349 171.925 104.821 172.416 104.821 173.216ZM112.808 166.896H114.264V167.952C114.52 167.546 114.862 167.237 115.288 167.024C115.715 166.81 116.195 166.704 116.728 166.704C117.336 166.704 117.886 166.848 118.376 167.136C118.867 167.413 119.251 167.797 119.528 168.288C119.816 168.778 119.96 169.328 119.96 169.936V175.52H118.456V170.416C118.456 169.712 118.264 169.157 117.88 168.752C117.507 168.346 117.011 168.144 116.392 168.144C115.774 168.144 115.267 168.352 114.872 168.768C114.488 169.173 114.296 169.722 114.296 170.416V175.52H112.808V166.896ZM126.01 175.712C125.21 175.712 124.484 175.514 123.834 175.12C123.183 174.725 122.671 174.186 122.298 173.504C121.924 172.821 121.738 172.058 121.738 171.216C121.738 170.373 121.924 169.61 122.298 168.928C122.671 168.234 123.183 167.69 123.834 167.296C124.484 166.901 125.21 166.704 126.01 166.704C126.639 166.704 127.204 166.821 127.706 167.056C128.218 167.29 128.644 167.621 128.986 168.048V163.408H130.49V175.52H129.034V174.256C128.714 174.714 128.287 175.072 127.754 175.328C127.231 175.584 126.65 175.712 126.01 175.712ZM123.306 171.216C123.306 171.792 123.428 172.314 123.674 172.784C123.919 173.242 124.255 173.605 124.682 173.872C125.119 174.138 125.604 174.272 126.138 174.272C126.671 174.272 127.151 174.138 127.578 173.872C128.015 173.605 128.356 173.242 128.602 172.784C128.858 172.314 128.986 171.792 128.986 171.216C128.986 170.64 128.858 170.117 128.602 169.648C128.356 169.178 128.015 168.81 127.578 168.544C127.151 168.277 126.671 168.144 126.138 168.144C125.604 168.144 125.119 168.277 124.682 168.544C124.255 168.81 123.919 169.178 123.674 169.648C123.428 170.117 123.306 170.64 123.306 171.216ZM142.454 174.32C142.134 174.768 141.713 175.114 141.19 175.36C140.668 175.594 140.097 175.712 139.478 175.712C138.678 175.712 137.953 175.514 137.302 175.12C136.652 174.725 136.14 174.186 135.766 173.504C135.393 172.821 135.206 172.058 135.206 171.216C135.206 170.373 135.393 169.61 135.766 168.928C136.14 168.234 136.652 167.69 137.302 167.296C137.953 166.901 138.678 166.704 139.478 166.704C140.118 166.704 140.694 166.826 141.206 167.072C141.729 167.317 142.161 167.658 142.502 168.096V166.896H143.958V178.72H142.454V174.32ZM136.774 171.216C136.774 171.792 136.897 172.314 137.142 172.784C137.388 173.242 137.724 173.605 138.15 173.872C138.588 174.138 139.073 174.272 139.606 174.272C140.14 174.272 140.62 174.138 141.046 173.872C141.484 173.605 141.825 173.242 142.07 172.784C142.326 172.314 142.454 171.792 142.454 171.216C142.454 170.64 142.326 170.117 142.07 169.648C141.825 169.178 141.484 168.81 141.046 168.544C140.62 168.277 140.14 168.144 139.606 168.144C139.073 168.144 138.588 168.277 138.15 168.544C137.724 168.81 137.388 169.178 137.142 169.648C136.897 170.117 136.774 170.64 136.774 171.216ZM149.317 175.712C148.699 175.712 148.144 175.568 147.653 175.28C147.163 174.992 146.779 174.592 146.501 174.08C146.224 173.557 146.085 172.96 146.085 172.288V166.896H147.573V172.128C147.573 172.768 147.765 173.285 148.149 173.68C148.533 174.074 149.035 174.272 149.653 174.272C150.272 174.272 150.773 174.069 151.157 173.664C151.541 173.248 151.733 172.693 151.733 172V166.896H153.237V175.52H151.781V174.464C151.525 174.869 151.184 175.178 150.757 175.392C150.331 175.605 149.851 175.712 149.317 175.712ZM158.071 175.712C157.217 175.712 156.524 175.488 155.991 175.04C155.457 174.581 155.191 173.989 155.191 173.264C155.191 172.56 155.42 171.973 155.879 171.504C156.348 171.024 157.057 170.704 158.007 170.544L160.951 170.064V169.664C160.951 169.194 160.775 168.816 160.423 168.528C160.071 168.229 159.617 168.08 159.063 168.08C158.572 168.08 158.135 168.208 157.751 168.464C157.377 168.709 157.1 169.04 156.919 169.456L155.623 168.784C155.868 168.186 156.316 167.69 156.967 167.296C157.617 166.901 158.327 166.704 159.095 166.704C159.745 166.704 160.321 166.832 160.823 167.088C161.335 167.333 161.729 167.68 162.007 168.128C162.295 168.576 162.439 169.088 162.439 169.664V175.52H160.983V174.4C160.673 174.805 160.263 175.125 159.751 175.36C159.249 175.594 158.689 175.712 158.071 175.712ZM156.759 173.216C156.759 173.568 156.897 173.861 157.175 174.096C157.463 174.33 157.82 174.448 158.247 174.448C158.769 174.448 159.233 174.336 159.639 174.112C160.055 173.877 160.375 173.562 160.599 173.168C160.833 172.773 160.951 172.336 160.951 171.856V171.312L158.343 171.744C157.287 171.925 156.759 172.416 156.759 173.216ZM164.746 166.896H166.202V167.952C166.458 167.546 166.799 167.237 167.226 167.024C167.652 166.81 168.132 166.704 168.666 166.704C169.274 166.704 169.823 166.848 170.314 167.136C170.804 167.413 171.188 167.797 171.466 168.288C171.754 168.778 171.898 169.328 171.898 169.936V175.52H170.394V170.416C170.394 169.712 170.202 169.157 169.818 168.752C169.444 168.346 168.948 168.144 168.33 168.144C167.711 168.144 167.204 168.352 166.81 168.768C166.426 169.173 166.234 169.722 166.234 170.416V175.52H164.746V166.896ZM177.531 175.616C176.688 175.616 176.038 175.381 175.579 174.912C175.131 174.432 174.907 173.749 174.907 172.864V168.32H173.339V166.896H173.659C174.043 166.896 174.347 166.784 174.571 166.56C174.795 166.325 174.907 166.01 174.907 165.616V164.912H176.395V166.896H178.331V168.32H176.395V172.816C176.395 173.776 176.875 174.256 177.835 174.256C178.038 174.256 178.235 174.24 178.427 174.208V175.536C178.203 175.589 177.904 175.616 177.531 175.616ZM180.371 166.896H181.859V175.52H180.371V166.896ZM180.195 164.592C180.195 164.314 180.28 164.09 180.451 163.92C180.621 163.749 180.845 163.664 181.123 163.664C181.4 163.664 181.624 163.749 181.795 163.92C181.965 164.09 182.051 164.314 182.051 164.592C182.051 164.869 181.965 165.093 181.795 165.264C181.624 165.434 181.4 165.52 181.123 165.52C180.845 165.52 180.621 165.434 180.451 165.264C180.28 165.093 180.195 164.869 180.195 164.592ZM185.08 168.32H183.432V166.896H185.08V166.288C185.08 165.69 185.213 165.173 185.48 164.736C185.746 164.298 186.104 163.968 186.552 163.744C187.01 163.52 187.522 163.408 188.088 163.408C188.376 163.408 188.626 163.434 188.84 163.488V164.816C188.68 164.784 188.488 164.768 188.264 164.768C187.144 164.768 186.584 165.274 186.584 166.288V166.896H191.624V175.52H190.136V168.32H186.584V175.52H185.08V168.32ZM197.699 175.712C196.856 175.712 196.099 175.514 195.427 175.12C194.755 174.725 194.232 174.186 193.859 173.504C193.486 172.81 193.299 172.042 193.299 171.2C193.299 170.346 193.486 169.578 193.859 168.896C194.232 168.213 194.75 167.68 195.411 167.296C196.083 166.901 196.846 166.704 197.699 166.704C198.531 166.704 199.288 166.922 199.971 167.36C200.664 167.786 201.155 168.341 201.443 169.024L200.099 169.664C199.896 169.205 199.576 168.837 199.139 168.56C198.712 168.282 198.232 168.144 197.699 168.144C197.176 168.144 196.696 168.277 196.259 168.544C195.832 168.81 195.496 169.178 195.251 169.648C195.006 170.106 194.883 170.629 194.883 171.216C194.883 171.792 195.006 172.314 195.251 172.784C195.507 173.242 195.848 173.605 196.275 173.872C196.702 174.138 197.176 174.272 197.699 174.272C198.243 174.272 198.728 174.133 199.155 173.856C199.582 173.578 199.896 173.2 200.099 172.72L201.443 173.392C201.166 174.064 200.68 174.618 199.987 175.056C199.294 175.493 198.531 175.712 197.699 175.712ZM205.743 175.712C204.889 175.712 204.196 175.488 203.663 175.04C203.129 174.581 202.863 173.989 202.863 173.264C202.863 172.56 203.092 171.973 203.551 171.504C204.02 171.024 204.729 170.704 205.679 170.544L208.623 170.064V169.664C208.623 169.194 208.447 168.816 208.095 168.528C207.743 168.229 207.289 168.08 206.735 168.08C206.244 168.08 205.807 168.208 205.423 168.464C205.049 168.709 204.772 169.04 204.591 169.456L203.295 168.784C203.54 168.186 203.988 167.69 204.639 167.296C205.289 166.901 205.999 166.704 206.766 166.704C207.417 166.704 207.993 166.832 208.495 167.088C209.007 167.333 209.401 167.68 209.679 168.128C209.967 168.576 210.111 169.088 210.111 169.664V175.52H208.655V174.4C208.345 174.805 207.935 175.125 207.423 175.36C206.921 175.594 206.361 175.712 205.743 175.712ZM204.431 173.216C204.431 173.568 204.569 173.861 204.847 174.096C205.135 174.33 205.492 174.448 205.919 174.448C206.441 174.448 206.905 174.336 207.311 174.112C207.727 173.877 208.047 173.562 208.271 173.168C208.505 172.773 208.623 172.336 208.623 171.856V171.312L206.015 171.744C204.959 171.925 204.431 172.416 204.431 173.216ZM215.765 175.616C214.923 175.616 214.272 175.381 213.813 174.912C213.365 174.432 213.141 173.749 213.141 172.864V168.32H211.573V166.896H211.893C212.277 166.896 212.581 166.784 212.805 166.56C213.029 166.325 213.141 166.01 213.141 165.616V164.912H214.629V166.896H216.565V168.32H214.629V172.816C214.629 173.776 215.109 174.256 216.069 174.256C216.272 174.256 216.469 174.24 216.661 174.208V175.536C216.437 175.589 216.139 175.616 215.765 175.616ZM218.605 166.896H220.093V175.52H218.605V166.896ZM218.429 164.592C218.429 164.314 218.514 164.09 218.685 163.92C218.856 163.749 219.08 163.664 219.357 163.664C219.634 163.664 219.858 163.749 220.029 163.92C220.2 164.09 220.285 164.314 220.285 164.592C220.285 164.869 220.2 165.093 220.029 165.264C219.858 165.434 219.634 165.52 219.357 165.52C219.08 165.52 218.856 165.434 218.685 165.264C218.514 165.093 218.429 164.869 218.429 164.592ZM226.498 175.712C225.677 175.712 224.925 175.52 224.242 175.136C223.57 174.741 223.037 174.202 222.642 173.52C222.247 172.826 222.05 172.053 222.05 171.2C222.05 170.357 222.242 169.594 222.626 168.912C223.021 168.218 223.554 167.68 224.226 167.296C224.909 166.901 225.666 166.704 226.498 166.704C227.319 166.704 228.066 166.901 228.738 167.296C229.421 167.68 229.954 168.213 230.338 168.896C230.733 169.578 230.93 170.346 230.93 171.2C230.93 172.064 230.733 172.837 230.338 173.52C229.943 174.202 229.405 174.741 228.722 175.136C228.05 175.52 227.309 175.712 226.498 175.712ZM223.618 171.2C223.618 171.776 223.741 172.298 223.986 172.768C224.242 173.237 224.589 173.605 225.026 173.872C225.474 174.138 225.965 174.272 226.498 174.272C227.021 174.272 227.501 174.138 227.938 173.872C228.375 173.605 228.717 173.237 228.962 172.768C229.218 172.298 229.346 171.776 229.346 171.2C229.346 170.624 229.218 170.106 228.962 169.648C228.717 169.178 228.375 168.81 227.938 168.544C227.501 168.277 227.021 168.144 226.498 168.144C225.965 168.144 225.474 168.277 225.026 168.544C224.589 168.81 224.242 169.178 223.986 169.648C223.741 170.106 223.618 170.624 223.618 171.2ZM232.871 166.896H234.327V167.952C234.583 167.546 234.924 167.237 235.351 167.024C235.777 166.81 236.257 166.704 236.791 166.704C237.399 166.704 237.948 166.848 238.439 167.136C238.929 167.413 239.313 167.797 239.591 168.288C239.879 168.778 240.023 169.328 240.023 169.936V175.52H238.519V170.416C238.519 169.712 238.327 169.157 237.943 168.752C237.569 168.346 237.073 168.144 236.455 168.144C235.836 168.144 235.329 168.352 234.935 168.768C234.551 169.173 234.359 169.722 234.359 170.416V175.52H232.871V166.896ZM242.408 177.088C243.08 176.906 243.448 176.384 243.512 175.52C243.277 175.52 243.08 175.44 242.92 175.28C242.76 175.12 242.68 174.922 242.68 174.688C242.68 174.453 242.755 174.256 242.904 174.096C243.064 173.936 243.261 173.856 243.496 173.856C243.741 173.856 243.939 173.952 244.088 174.144C244.248 174.336 244.328 174.592 244.328 174.912C244.328 175.69 244.163 176.32 243.832 176.8C243.501 177.28 243.027 177.594 242.408 177.744V177.088ZM64.7151 190.896H66.3631L68.4271 197.216L70.4431 190.896H71.8511L73.8671 197.216L75.9471 190.896H77.5791L74.6191 199.52H73.1951L71.1471 193.024L69.0991 199.52H67.6751L64.7151 190.896ZM78.9098 187.408H80.3978V191.904C80.6538 191.52 80.9898 191.226 81.4058 191.024C81.8325 190.81 82.3071 190.704 82.8298 190.704C83.4378 190.704 83.9871 190.848 84.4778 191.136C84.9685 191.413 85.3525 191.797 85.6298 192.288C85.9178 192.778 86.0618 193.328 86.0618 193.936V199.52H84.5578V194.416C84.5578 193.712 84.3658 193.157 83.9818 192.752C83.5978 192.346 83.1018 192.144 82.4938 192.144C81.8858 192.144 81.3845 192.352 80.9898 192.768C80.5951 193.173 80.3978 193.722 80.3978 194.416V199.52H78.9098V187.408ZM88.1911 190.896H89.6791V199.52H88.1911V190.896ZM88.0151 188.592C88.0151 188.314 88.1004 188.09 88.2711 187.92C88.4417 187.749 88.6657 187.664 88.9431 187.664C89.2204 187.664 89.4444 187.749 89.6151 187.92C89.7857 188.09 89.8711 188.314 89.8711 188.592C89.8711 188.869 89.7857 189.093 89.6151 189.264C89.4444 189.434 89.2204 189.52 88.9431 189.52C88.6657 189.52 88.4417 189.434 88.2711 189.264C88.1004 189.093 88.0151 188.869 88.0151 188.592ZM95.9879 199.712C95.1453 199.712 94.3879 199.514 93.7159 199.12C93.0439 198.725 92.5213 198.186 92.1479 197.504C91.7746 196.81 91.5879 196.042 91.5879 195.2C91.5879 194.346 91.7746 193.578 92.1479 192.896C92.5213 192.213 93.0386 191.68 93.6999 191.296C94.3719 190.901 95.1346 190.704 95.9879 190.704C96.8199 190.704 97.5773 190.922 98.2599 191.36C98.9533 191.786 99.4439 192.341 99.7319 193.024L98.3879 193.664C98.1853 193.205 97.8653 192.837 97.4279 192.56C97.0013 192.282 96.5213 192.144 95.9879 192.144C95.4653 192.144 94.9853 192.277 94.5479 192.544C94.1213 192.81 93.7853 193.178 93.5399 193.648C93.2946 194.106 93.1719 194.629 93.1719 195.216C93.1719 195.792 93.2946 196.314 93.5399 196.784C93.7959 197.242 94.1373 197.605 94.5639 197.872C94.9906 198.138 95.4653 198.272 95.9879 198.272C96.5319 198.272 97.0173 198.133 97.4439 197.856C97.8706 197.578 98.1853 197.2 98.3879 196.72L99.7319 197.392C99.4546 198.064 98.9693 198.618 98.2759 199.056C97.5826 199.493 96.8199 199.712 95.9879 199.712ZM101.629 187.408H103.117V191.904C103.373 191.52 103.709 191.226 104.125 191.024C104.551 190.81 105.026 190.704 105.549 190.704C106.157 190.704 106.706 190.848 107.197 191.136C107.687 191.413 108.071 191.797 108.349 192.288C108.637 192.778 108.781 193.328 108.781 193.936V199.52H107.277V194.416C107.277 193.712 107.085 193.157 106.701 192.752C106.317 192.346 105.821 192.144 105.213 192.144C104.605 192.144 104.103 192.352 103.709 192.768C103.314 193.173 103.117 193.722 103.117 194.416V199.52H101.629V187.408ZM113.675 190.896H115.163V199.52H113.675V190.896ZM113.499 188.592C113.499 188.314 113.585 188.09 113.755 187.92C113.926 187.749 114.15 187.664 114.427 187.664C114.705 187.664 114.929 187.749 115.099 187.92C115.27 188.09 115.355 188.314 115.355 188.592C115.355 188.869 115.27 189.093 115.099 189.264C114.929 189.434 114.705 189.52 114.427 189.52C114.15 189.52 113.926 189.434 113.755 189.264C113.585 189.093 113.499 188.869 113.499 188.592ZM120.56 199.712C119.728 199.712 118.992 199.509 118.352 199.104C117.712 198.688 117.254 198.128 116.976 197.424L118.176 196.816C118.422 197.317 118.758 197.712 119.184 198C119.611 198.288 120.075 198.432 120.576 198.432C121.056 198.432 121.451 198.32 121.76 198.096C122.07 197.872 122.224 197.578 122.224 197.216C122.224 196.864 122.086 196.581 121.808 196.368C121.531 196.144 121.232 196.01 120.912 195.968L119.616 195.792C118.848 195.6 118.272 195.28 117.888 194.832C117.504 194.384 117.312 193.856 117.312 193.248C117.312 192.746 117.44 192.304 117.696 191.92C117.963 191.536 118.326 191.237 118.784 191.024C119.254 190.81 119.771 190.704 120.336 190.704C121.083 190.704 121.75 190.89 122.336 191.264C122.934 191.637 123.36 192.154 123.616 192.816L122.432 193.424C122.219 192.986 121.92 192.64 121.536 192.384C121.163 192.128 120.747 192 120.288 192C119.851 192 119.499 192.106 119.232 192.32C118.966 192.533 118.832 192.81 118.832 193.152C118.832 193.504 118.955 193.786 119.2 194C119.456 194.202 119.734 194.33 120.032 194.384L121.456 194.576C122.171 194.768 122.726 195.098 123.12 195.568C123.526 196.026 123.728 196.56 123.728 197.168C123.728 197.658 123.595 198.096 123.328 198.48C123.062 198.864 122.688 199.168 122.208 199.392C121.728 199.605 121.179 199.712 120.56 199.712ZM132.378 199.712C131.567 199.712 130.831 199.514 130.17 199.12C129.508 198.725 128.991 198.186 128.618 197.504C128.244 196.81 128.058 196.037 128.058 195.184C128.058 194.33 128.239 193.562 128.602 192.88C128.975 192.197 129.476 191.664 130.106 191.28C130.746 190.896 131.46 190.704 132.25 190.704C133.071 190.704 133.786 190.896 134.394 191.28C135.012 191.664 135.482 192.176 135.802 192.816C136.132 193.445 136.298 194.122 136.298 194.848C136.298 195.093 136.271 195.36 136.218 195.648H129.626C129.647 196.192 129.786 196.666 130.042 197.072C130.298 197.477 130.628 197.792 131.034 198.016C131.45 198.24 131.903 198.352 132.394 198.352C133.439 198.352 134.244 197.877 134.81 196.928L136.058 197.568C135.78 198.186 135.311 198.698 134.65 199.104C133.988 199.509 133.231 199.712 132.378 199.712ZM134.682 194.368C134.66 193.696 134.415 193.141 133.946 192.704C133.487 192.256 132.922 192.032 132.25 192.032C131.588 192.032 131.018 192.245 130.538 192.672C130.058 193.088 129.764 193.653 129.658 194.368H134.682ZM141.326 199.712C140.494 199.712 139.758 199.509 139.118 199.104C138.478 198.688 138.019 198.128 137.742 197.424L138.942 196.816C139.187 197.317 139.523 197.712 139.95 198C140.377 198.288 140.841 198.432 141.342 198.432C141.822 198.432 142.217 198.32 142.526 198.096C142.835 197.872 142.99 197.578 142.99 197.216C142.99 196.864 142.851 196.581 142.574 196.368C142.297 196.144 141.998 196.01 141.678 195.968L140.382 195.792C139.614 195.6 139.038 195.28 138.654 194.832C138.27 194.384 138.078 193.856 138.078 193.248C138.078 192.746 138.206 192.304 138.462 191.92C138.729 191.536 139.091 191.237 139.55 191.024C140.019 190.81 140.537 190.704 141.102 190.704C141.849 190.704 142.515 190.89 143.102 191.264C143.699 191.637 144.126 192.154 144.382 192.816L143.198 193.424C142.985 192.986 142.686 192.64 142.302 192.384C141.929 192.128 141.513 192 141.054 192C140.617 192 140.265 192.106 139.998 192.32C139.731 192.533 139.598 192.81 139.598 193.152C139.598 193.504 139.721 193.786 139.966 194C140.222 194.202 140.499 194.33 140.798 194.384L142.222 194.576C142.937 194.768 143.491 195.098 143.886 195.568C144.291 196.026 144.494 196.56 144.494 197.168C144.494 197.658 144.361 198.096 144.094 198.48C143.827 198.864 143.454 199.168 142.974 199.392C142.494 199.605 141.945 199.712 141.326 199.712ZM149.498 199.712C148.666 199.712 147.93 199.509 147.29 199.104C146.65 198.688 146.191 198.128 145.914 197.424L147.114 196.816C147.359 197.317 147.695 197.712 148.122 198C148.548 198.288 149.012 198.432 149.514 198.432C149.994 198.432 150.388 198.32 150.698 198.096C151.007 197.872 151.162 197.578 151.162 197.216C151.162 196.864 151.023 196.581 150.746 196.368C150.468 196.144 150.17 196.01 149.85 195.968L148.554 195.792C147.786 195.6 147.21 195.28 146.826 194.832C146.442 194.384 146.25 193.856 146.25 193.248C146.25 192.746 146.378 192.304 146.634 191.92C146.9 191.536 147.263 191.237 147.722 191.024C148.191 190.81 148.708 190.704 149.274 190.704C150.02 190.704 150.687 190.89 151.274 191.264C151.871 191.637 152.298 192.154 152.554 192.816L151.37 193.424C151.156 192.986 150.858 192.64 150.474 192.384C150.1 192.128 149.684 192 149.226 192C148.788 192 148.436 192.106 148.17 192.32C147.903 192.533 147.77 192.81 147.77 193.152C147.77 193.504 147.892 193.786 148.138 194C148.394 194.202 148.671 194.33 148.97 194.384L150.394 194.576C151.108 194.768 151.663 195.098 152.058 195.568C152.463 196.026 152.666 196.56 152.666 197.168C152.666 197.658 152.532 198.096 152.266 198.48C151.999 198.864 151.626 199.168 151.146 199.392C150.666 199.605 150.116 199.712 149.498 199.712ZM158.55 199.712C157.739 199.712 157.003 199.514 156.342 199.12C155.68 198.725 155.163 198.186 154.79 197.504C154.416 196.81 154.23 196.037 154.23 195.184C154.23 194.33 154.411 193.562 154.774 192.88C155.147 192.197 155.648 191.664 156.278 191.28C156.918 190.896 157.632 190.704 158.422 190.704C159.243 190.704 159.958 190.896 160.566 191.28C161.184 191.664 161.654 192.176 161.974 192.816C162.304 193.445 162.47 194.122 162.47 194.848C162.47 195.093 162.443 195.36 162.39 195.648H155.798C155.819 196.192 155.958 196.666 156.214 197.072C156.47 197.477 156.8 197.792 157.206 198.016C157.622 198.24 158.075 198.352 158.566 198.352C159.611 198.352 160.416 197.877 160.982 196.928L162.23 197.568C161.952 198.186 161.483 198.698 160.822 199.104C160.16 199.509 159.403 199.712 158.55 199.712ZM160.854 194.368C160.832 193.696 160.587 193.141 160.118 192.704C159.659 192.256 159.094 192.032 158.422 192.032C157.76 192.032 157.19 192.245 156.71 192.672C156.23 193.088 155.936 193.653 155.83 194.368H160.854ZM164.41 190.896H165.866V191.952C166.122 191.546 166.463 191.237 166.89 191.024C167.316 190.81 167.796 190.704 168.33 190.704C168.938 190.704 169.487 190.848 169.978 191.136C170.468 191.413 170.852 191.797 171.13 192.288C171.418 192.778 171.562 193.328 171.562 193.936V199.52H170.058V194.416C170.058 193.712 169.866 193.157 169.482 192.752C169.108 192.346 168.612 192.144 167.994 192.144C167.375 192.144 166.868 192.352 166.474 192.768C166.09 193.173 165.898 193.722 165.898 194.416V199.52H164.41V190.896ZM177.195 199.616C176.352 199.616 175.702 199.381 175.243 198.912C174.795 198.432 174.571 197.749 174.571 196.864V192.32H173.003V190.896H173.323C173.707 190.896 174.011 190.784 174.235 190.56C174.459 190.325 174.571 190.01 174.571 189.616V188.912H176.059V190.896H177.995V192.32H176.059V196.816C176.059 197.776 176.539 198.256 177.499 198.256C177.702 198.256 177.899 198.24 178.091 198.208V199.536C177.867 199.589 177.568 199.616 177.195 199.616ZM180.035 190.896H181.523V199.52H180.035V190.896ZM179.859 188.592C179.859 188.314 179.944 188.09 180.115 187.92C180.285 187.749 180.509 187.664 180.787 187.664C181.064 187.664 181.288 187.749 181.459 187.92C181.629 188.09 181.715 188.314 181.715 188.592C181.715 188.869 181.629 189.093 181.459 189.264C181.288 189.434 181.064 189.52 180.787 189.52C180.509 189.52 180.285 189.434 180.115 189.264C179.944 189.093 179.859 188.869 179.859 188.592ZM186.36 199.712C185.506 199.712 184.813 199.488 184.28 199.04C183.746 198.581 183.48 197.989 183.48 197.264C183.48 196.56 183.709 195.973 184.168 195.504C184.637 195.024 185.346 194.704 186.296 194.544L189.24 194.064V193.664C189.24 193.194 189.064 192.816 188.712 192.528C188.36 192.229 187.906 192.08 187.352 192.08C186.861 192.08 186.424 192.208 186.04 192.464C185.666 192.709 185.389 193.04 185.208 193.456L183.912 192.784C184.157 192.186 184.605 191.69 185.256 191.296C185.906 190.901 186.616 190.704 187.384 190.704C188.034 190.704 188.61 190.832 189.112 191.088C189.624 191.333 190.018 191.68 190.296 192.128C190.584 192.576 190.728 193.088 190.728 193.664V199.52H189.272V198.4C188.962 198.805 188.552 199.125 188.04 199.36C187.538 199.594 186.978 199.712 186.36 199.712ZM185.048 197.216C185.048 197.568 185.186 197.861 185.464 198.096C185.752 198.33 186.109 198.448 186.536 198.448C187.058 198.448 187.522 198.336 187.928 198.112C188.344 197.877 188.664 197.562 188.888 197.168C189.122 196.773 189.24 196.336 189.24 195.856V195.312L186.632 195.744C185.576 195.925 185.048 196.416 185.048 197.216ZM193.035 187.408H194.523V199.52H193.035V187.408ZM200.509 192.384H198.861V190.96H200.509V190.352C200.509 189.733 200.643 189.2 200.909 188.752C201.176 188.304 201.533 187.962 201.981 187.728C202.44 187.482 202.952 187.36 203.517 187.36C203.805 187.36 204.056 187.386 204.269 187.44V188.768C204.109 188.736 203.917 188.72 203.693 188.72C203.171 188.72 202.76 188.853 202.461 189.12C202.163 189.376 202.013 189.786 202.013 190.352V190.96H204.061V192.384H202.013V199.52H200.509V192.384ZM209.646 199.712C208.825 199.712 208.073 199.52 207.39 199.136C206.718 198.741 206.185 198.202 205.79 197.52C205.396 196.826 205.198 196.053 205.198 195.2C205.198 194.357 205.39 193.594 205.774 192.912C206.169 192.218 206.702 191.68 207.374 191.296C208.057 190.901 208.814 190.704 209.646 190.704C210.468 190.704 211.214 190.901 211.886 191.296C212.569 191.68 213.102 192.213 213.486 192.896C213.881 193.578 214.078 194.346 214.078 195.2C214.078 196.064 213.881 196.837 213.486 197.52C213.092 198.202 212.553 198.741 211.87 199.136C211.198 199.52 210.457 199.712 209.646 199.712ZM206.766 195.2C206.766 195.776 206.889 196.298 207.134 196.768C207.39 197.237 207.737 197.605 208.174 197.872C208.622 198.138 209.113 198.272 209.646 198.272C210.169 198.272 210.649 198.138 211.086 197.872C211.524 197.605 211.865 197.237 212.11 196.768C212.366 196.298 212.494 195.776 212.494 195.2C212.494 194.624 212.366 194.106 212.11 193.648C211.865 193.178 211.524 192.81 211.086 192.544C210.649 192.277 210.169 192.144 209.646 192.144C209.113 192.144 208.622 192.277 208.174 192.544C207.737 192.81 207.39 193.178 207.134 193.648C206.889 194.106 206.766 194.624 206.766 195.2ZM216.019 190.896H217.475V191.92C217.923 191.173 218.686 190.8 219.763 190.8H220.291V192.208H219.539C218.921 192.208 218.425 192.4 218.051 192.784C217.689 193.168 217.507 193.701 217.507 194.384V199.52H216.019V190.896ZM38.4658 223.712C37.8471 223.712 37.2925 223.568 36.8018 223.28C36.3111 222.992 35.9271 222.592 35.6498 222.08C35.3725 221.557 35.2338 220.96 35.2338 220.288V214.896H36.7218V220.128C36.7218 220.768 36.9138 221.285 37.2978 221.68C37.6818 222.074 38.1831 222.272 38.8018 222.272C39.4205 222.272 39.9218 222.069 40.3058 221.664C40.6898 221.248 40.8818 220.693 40.8818 220V214.896H42.3858V223.52H40.9298V222.464C40.6738 222.869 40.3325 223.178 39.9058 223.392C39.4791 223.605 38.9991 223.712 38.4658 223.712ZM44.6911 214.896H46.1471V215.952C46.4031 215.546 46.7444 215.237 47.1711 215.024C47.5977 214.81 48.0777 214.704 48.6111 214.704C49.2191 214.704 49.7684 214.848 50.2591 215.136C50.7497 215.413 51.1337 215.797 51.4111 216.288C51.6991 216.778 51.8431 217.328 51.8431 217.936V223.52H50.3391V218.416C50.3391 217.712 50.1471 217.157 49.7631 216.752C49.3897 216.346 48.8937 216.144 48.2751 216.144C47.6564 216.144 47.1497 216.352 46.7551 216.768C46.3711 217.173 46.1791 217.722 46.1791 218.416V223.52H44.6911V214.896ZM57.8923 223.712C57.0923 223.712 56.367 223.514 55.7163 223.12C55.0656 222.725 54.5536 222.186 54.1803 221.504C53.807 220.821 53.6203 220.058 53.6203 219.216C53.6203 218.373 53.807 217.61 54.1803 216.928C54.5536 216.234 55.0656 215.69 55.7163 215.296C56.367 214.901 57.0923 214.704 57.8923 214.704C58.5216 214.704 59.087 214.821 59.5883 215.056C60.1003 215.29 60.527 215.621 60.8683 216.048V211.408H62.3723V223.52H60.9163V222.256C60.5963 222.714 60.1696 223.072 59.6363 223.328C59.1136 223.584 58.5323 223.712 57.8923 223.712ZM55.1883 219.216C55.1883 219.792 55.311 220.314 55.5563 220.784C55.8016 221.242 56.1376 221.605 56.5643 221.872C57.0016 222.138 57.487 222.272 58.0203 222.272C58.5536 222.272 59.0336 222.138 59.4603 221.872C59.8976 221.605 60.239 221.242 60.4843 220.784C60.7403 220.314 60.8683 219.792 60.8683 219.216C60.8683 218.64 60.7403 218.117 60.4843 217.648C60.239 217.178 59.8976 216.81 59.4603 216.544C59.0336 216.277 58.5536 216.144 58.0203 216.144C57.487 216.144 57.0016 216.277 56.5643 216.544C56.1376 216.81 55.8016 217.178 55.5563 217.648C55.311 218.117 55.1883 218.64 55.1883 219.216ZM68.6434 223.712C67.8328 223.712 67.0968 223.514 66.4354 223.12C65.7741 222.725 65.2568 222.186 64.8834 221.504C64.5101 220.81 64.3234 220.037 64.3234 219.184C64.3234 218.33 64.5048 217.562 64.8674 216.88C65.2408 216.197 65.7421 215.664 66.3714 215.28C67.0114 214.896 67.7261 214.704 68.5154 214.704C69.3368 214.704 70.0514 214.896 70.6594 215.28C71.2781 215.664 71.7474 216.176 72.0674 216.816C72.3981 217.445 72.5634 218.122 72.5634 218.848C72.5634 219.093 72.5368 219.36 72.4834 219.648H65.8914C65.9128 220.192 66.0514 220.666 66.3074 221.072C66.5634 221.477 66.8941 221.792 67.2994 222.016C67.7154 222.24 68.1688 222.352 68.6594 222.352C69.7048 222.352 70.5101 221.877 71.0754 220.928L72.3234 221.568C72.0461 222.186 71.5768 222.698 70.9154 223.104C70.2541 223.509 69.4968 223.712 68.6434 223.712ZM70.9474 218.368C70.9261 217.696 70.6808 217.141 70.2114 216.704C69.7528 216.256 69.1874 216.032 68.5154 216.032C67.8541 216.032 67.2834 216.245 66.8034 216.672C66.3234 217.088 66.0301 217.653 65.9234 218.368H70.9474ZM74.5036 214.896H75.9596V215.92C76.4076 215.173 77.1702 214.8 78.2476 214.8H78.7756V216.208H78.0236C77.4049 216.208 76.9089 216.4 76.5356 216.784C76.1729 217.168 75.9916 217.701 75.9916 218.384V223.52H74.5036V214.896ZM83.1853 223.712C82.3533 223.712 81.6173 223.509 80.9773 223.104C80.3373 222.688 79.8786 222.128 79.6013 221.424L80.8013 220.816C81.0466 221.317 81.3826 221.712 81.8093 222C82.236 222.288 82.7 222.432 83.2013 222.432C83.6813 222.432 84.076 222.32 84.3853 222.096C84.6946 221.872 84.8493 221.578 84.8493 221.216C84.8493 220.864 84.7106 220.581 84.4333 220.368C84.156 220.144 83.8573 220.01 83.5373 219.968L82.2413 219.792C81.4733 219.6 80.8973 219.28 80.5133 218.832C80.1293 218.384 79.9373 217.856 79.9373 217.248C79.9373 216.746 80.0653 216.304 80.3213 215.92C80.588 215.536 80.9506 215.237 81.4093 215.024C81.8786 214.81 82.396 214.704 82.9613 214.704C83.708 214.704 84.3746 214.89 84.9613 215.264C85.5586 215.637 85.9853 216.154 86.2413 216.816L85.0573 217.424C84.844 216.986 84.5453 216.64 84.1613 216.384C83.788 216.128 83.372 216 82.9133 216C82.476 216 82.124 216.106 81.8573 216.32C81.5906 216.533 81.4573 216.81 81.4573 217.152C81.4573 217.504 81.58 217.786 81.8253 218C82.0813 218.202 82.3586 218.33 82.6573 218.384L84.0813 218.576C84.796 218.768 85.3506 219.098 85.7453 219.568C86.1506 220.026 86.3533 220.56 86.3533 221.168C86.3533 221.658 86.22 222.096 85.9533 222.48C85.6866 222.864 85.3133 223.168 84.8333 223.392C84.3533 223.605 83.804 223.712 83.1853 223.712ZM91.7732 223.616C90.9305 223.616 90.2799 223.381 89.8212 222.912C89.3732 222.432 89.1492 221.749 89.1492 220.864V216.32H87.5812V214.896H87.9012C88.2852 214.896 88.5892 214.784 88.8132 214.56C89.0372 214.325 89.1492 214.01 89.1492 213.616V212.912H90.6372V214.896H92.5732V216.32H90.6372V220.816C90.6372 221.776 91.1172 222.256 92.0772 222.256C92.2799 222.256 92.4772 222.24 92.6692 222.208V223.536C92.4452 223.589 92.1465 223.616 91.7732 223.616ZM97.0159 223.712C96.1626 223.712 95.4693 223.488 94.9359 223.04C94.4026 222.581 94.1359 221.989 94.1359 221.264C94.1359 220.56 94.3653 219.973 94.8239 219.504C95.2933 219.024 96.0026 218.704 96.9519 218.544L99.8959 218.064V217.664C99.8959 217.194 99.7199 216.816 99.3679 216.528C99.0159 216.229 98.5626 216.08 98.0079 216.08C97.5173 216.08 97.0799 216.208 96.6959 216.464C96.3226 216.709 96.0453 217.04 95.8639 217.456L94.5679 216.784C94.8133 216.186 95.2613 215.69 95.9119 215.296C96.5626 214.901 97.2719 214.704 98.0399 214.704C98.6906 214.704 99.2666 214.832 99.7679 215.088C100.28 215.333 100.675 215.68 100.952 216.128C101.24 216.576 101.384 217.088 101.384 217.664V223.52H99.9279V222.4C99.6186 222.805 99.2079 223.125 98.6959 223.36C98.1946 223.594 97.6346 223.712 97.0159 223.712ZM95.7039 221.216C95.7039 221.568 95.8426 221.861 96.1199 222.096C96.4079 222.33 96.7653 222.448 97.1919 222.448C97.7146 222.448 98.1786 222.336 98.5839 222.112C98.9999 221.877 99.3199 221.562 99.5439 221.168C99.7786 220.773 99.8959 220.336 99.8959 219.856V219.312L97.2879 219.744C96.2319 219.925 95.7039 220.416 95.7039 221.216ZM103.691 214.896H105.147V215.952C105.403 215.546 105.744 215.237 106.171 215.024C106.598 214.81 107.078 214.704 107.611 214.704C108.219 214.704 108.768 214.848 109.259 215.136C109.75 215.413 110.134 215.797 110.411 216.288C110.699 216.778 110.843 217.328 110.843 217.936V223.52H109.339V218.416C109.339 217.712 109.147 217.157 108.763 216.752C108.39 216.346 107.894 216.144 107.275 216.144C106.656 216.144 106.15 216.352 105.755 216.768C105.371 217.173 105.179 217.722 105.179 218.416V223.52H103.691V214.896ZM116.892 223.712C116.092 223.712 115.367 223.514 114.716 223.12C114.066 222.725 113.554 222.186 113.18 221.504C112.807 220.821 112.62 220.058 112.62 219.216C112.62 218.373 112.807 217.61 113.18 216.928C113.554 216.234 114.066 215.69 114.716 215.296C115.367 214.901 116.092 214.704 116.892 214.704C117.522 214.704 118.087 214.821 118.588 215.056C119.1 215.29 119.527 215.621 119.868 216.048V211.408H121.372V223.52H119.916V222.256C119.596 222.714 119.17 223.072 118.636 223.328C118.114 223.584 117.532 223.712 116.892 223.712ZM114.188 219.216C114.188 219.792 114.311 220.314 114.556 220.784C114.802 221.242 115.138 221.605 115.564 221.872C116.002 222.138 116.487 222.272 117.02 222.272C117.554 222.272 118.034 222.138 118.46 221.872C118.898 221.605 119.239 221.242 119.484 220.784C119.74 220.314 119.868 219.792 119.868 219.216C119.868 218.64 119.74 218.117 119.484 217.648C119.239 217.178 118.898 216.81 118.46 216.544C118.034 216.277 117.554 216.144 117.02 216.144C116.487 216.144 116.002 216.277 115.564 216.544C115.138 216.81 114.802 217.178 114.556 217.648C114.311 218.117 114.188 218.64 114.188 219.216ZM123.675 214.896H125.163V223.52H123.675V214.896ZM123.499 212.592C123.499 212.314 123.585 212.09 123.755 211.92C123.926 211.749 124.15 211.664 124.427 211.664C124.705 211.664 124.929 211.749 125.099 211.92C125.27 212.09 125.355 212.314 125.355 212.592C125.355 212.869 125.27 213.093 125.099 213.264C124.929 213.434 124.705 213.52 124.427 213.52C124.15 213.52 123.926 213.434 123.755 213.264C123.585 213.093 123.499 212.869 123.499 212.592ZM127.472 214.896H128.928V215.952C129.184 215.546 129.526 215.237 129.952 215.024C130.379 214.81 130.859 214.704 131.392 214.704C132 214.704 132.55 214.848 133.04 215.136C133.531 215.413 133.915 215.797 134.192 216.288C134.48 216.778 134.624 217.328 134.624 217.936V223.52H133.12V218.416C133.12 217.712 132.928 217.157 132.544 216.752C132.171 216.346 131.675 216.144 131.056 216.144C130.438 216.144 129.931 216.352 129.536 216.768C129.152 217.173 128.96 217.722 128.96 218.416V223.52H127.472V214.896ZM140.866 227.04C139.959 227.04 139.159 226.832 138.466 226.416C137.783 226.01 137.298 225.466 137.01 224.784L138.402 224.144C138.562 224.57 138.855 224.917 139.282 225.184C139.708 225.461 140.231 225.6 140.85 225.6C141.607 225.6 142.236 225.381 142.738 224.944C143.239 224.517 143.49 223.92 143.49 223.152V221.952C143.17 222.389 142.759 222.725 142.258 222.96C141.756 223.194 141.212 223.312 140.626 223.312C139.826 223.312 139.106 223.125 138.466 222.752C137.826 222.368 137.319 221.85 136.946 221.2C136.583 220.538 136.402 219.808 136.402 219.008C136.402 218.208 136.583 217.482 136.946 216.832C137.308 216.17 137.81 215.653 138.45 215.28C139.09 214.896 139.81 214.704 140.61 214.704C141.207 214.704 141.756 214.826 142.258 215.072C142.759 215.306 143.186 215.648 143.538 216.096V214.896H144.994V223.152C144.994 223.898 144.818 224.565 144.466 225.152C144.114 225.738 143.623 226.197 142.994 226.528C142.364 226.869 141.655 227.04 140.866 227.04ZM137.97 219.008C137.97 219.53 138.087 220.01 138.322 220.448C138.567 220.885 138.903 221.232 139.33 221.488C139.756 221.744 140.231 221.872 140.754 221.872C141.255 221.872 141.714 221.744 142.13 221.488C142.556 221.232 142.887 220.885 143.122 220.448C143.367 220.01 143.49 219.53 143.49 219.008C143.49 218.485 143.367 218.005 143.122 217.568C142.887 217.13 142.556 216.784 142.13 216.528C141.714 216.272 141.255 216.144 140.754 216.144C140.231 216.144 139.756 216.272 139.33 216.528C138.914 216.784 138.583 217.13 138.338 217.568C138.092 218.005 137.97 218.485 137.97 219.008ZM153.57 223.616C152.727 223.616 152.077 223.381 151.618 222.912C151.17 222.432 150.946 221.749 150.946 220.864V216.32H149.378V214.896H149.698C150.082 214.896 150.386 214.784 150.61 214.56C150.834 214.325 150.946 214.01 150.946 213.616V212.912H152.434V214.896H154.37V216.32H152.434V220.816C152.434 221.776 152.914 222.256 153.874 222.256C154.077 222.256 154.274 222.24 154.466 222.208V223.536C154.242 223.589 153.943 223.616 153.57 223.616ZM156.41 211.408H157.898V215.904C158.154 215.52 158.49 215.226 158.906 215.024C159.332 214.81 159.807 214.704 160.33 214.704C160.938 214.704 161.487 214.848 161.978 215.136C162.468 215.413 162.852 215.797 163.13 216.288C163.418 216.778 163.562 217.328 163.562 217.936V223.52H162.058V218.416C162.058 217.712 161.866 217.157 161.482 216.752C161.098 216.346 160.602 216.144 159.994 216.144C159.386 216.144 158.884 216.352 158.49 216.768C158.095 217.173 157.898 217.722 157.898 218.416V223.52H156.41V211.408ZM169.659 223.712C168.848 223.712 168.112 223.514 167.451 223.12C166.79 222.725 166.272 222.186 165.899 221.504C165.526 220.81 165.339 220.037 165.339 219.184C165.339 218.33 165.52 217.562 165.883 216.88C166.256 216.197 166.758 215.664 167.387 215.28C168.027 214.896 168.742 214.704 169.531 214.704C170.352 214.704 171.067 214.896 171.675 215.28C172.294 215.664 172.763 216.176 173.083 216.816C173.414 217.445 173.579 218.122 173.579 218.848C173.579 219.093 173.552 219.36 173.499 219.648H166.907C166.928 220.192 167.067 220.666 167.323 221.072C167.579 221.477 167.91 221.792 168.315 222.016C168.731 222.24 169.184 222.352 169.675 222.352C170.72 222.352 171.526 221.877 172.091 220.928L173.339 221.568C173.062 222.186 172.592 222.698 171.931 223.104C171.27 223.509 170.512 223.712 169.659 223.712ZM171.963 218.368C171.942 217.696 171.696 217.141 171.227 216.704C170.768 216.256 170.203 216.032 169.531 216.032C168.87 216.032 168.299 216.245 167.819 216.672C167.339 217.088 167.046 217.653 166.939 218.368H171.963ZM178.285 214.896H179.773V223.52H178.285V214.896ZM178.109 212.592C178.109 212.314 178.194 212.09 178.365 211.92C178.535 211.749 178.759 211.664 179.037 211.664C179.314 211.664 179.538 211.749 179.709 211.92C179.879 212.09 179.965 212.314 179.965 212.592C179.965 212.869 179.879 213.093 179.709 213.264C179.538 213.434 179.314 213.52 179.037 213.52C178.759 213.52 178.535 213.434 178.365 213.264C178.194 213.093 178.109 212.869 178.109 212.592ZM182.082 214.896H183.538V215.968C183.783 215.562 184.114 215.253 184.53 215.04C184.956 214.816 185.426 214.704 185.938 214.704C186.524 214.704 187.058 214.848 187.538 215.136C188.028 215.413 188.402 215.792 188.658 216.272C188.935 215.77 189.308 215.386 189.778 215.12C190.258 214.842 190.786 214.704 191.362 214.704C191.948 214.704 192.487 214.848 192.978 215.136C193.468 215.413 193.858 215.797 194.146 216.288C194.434 216.778 194.578 217.328 194.578 217.936V223.52H193.074V218.416C193.074 217.712 192.887 217.157 192.514 216.752C192.151 216.346 191.676 216.144 191.09 216.144C190.492 216.144 190.007 216.352 189.634 216.768C189.26 217.173 189.074 217.722 189.074 218.416V223.52H187.57V218.416C187.57 217.712 187.388 217.157 187.026 216.752C186.663 216.346 186.183 216.144 185.586 216.144C184.999 216.144 184.514 216.352 184.13 216.768C183.756 217.173 183.57 217.722 183.57 218.416V223.52H182.082V214.896ZM196.691 214.896H198.147V216.096C198.488 215.658 198.915 215.317 199.427 215.072C199.95 214.826 200.531 214.704 201.171 214.704C201.971 214.704 202.696 214.901 203.347 215.296C203.998 215.69 204.51 216.234 204.883 216.928C205.256 217.61 205.443 218.373 205.443 219.216C205.443 220.058 205.256 220.821 204.883 221.504C204.51 222.186 203.998 222.725 203.347 223.12C202.696 223.514 201.966 223.712 201.155 223.712C200.536 223.712 199.966 223.594 199.443 223.36C198.931 223.114 198.51 222.768 198.179 222.32V226.72H196.691V214.896ZM198.179 219.216C198.179 219.792 198.302 220.314 198.547 220.784C198.803 221.242 199.15 221.605 199.587 221.872C200.024 222.138 200.51 222.272 201.043 222.272C201.576 222.272 202.056 222.138 202.483 221.872C202.92 221.605 203.256 221.242 203.491 220.784C203.736 220.314 203.859 219.792 203.859 219.216C203.859 218.64 203.736 218.117 203.491 217.648C203.246 217.178 202.91 216.81 202.483 216.544C202.056 216.277 201.576 216.144 201.043 216.144C200.51 216.144 200.024 216.277 199.587 216.544C199.15 216.81 198.803 217.178 198.547 217.648C198.302 218.117 198.179 218.64 198.179 219.216ZM209.922 223.712C209.069 223.712 208.376 223.488 207.842 223.04C207.309 222.581 207.042 221.989 207.042 221.264C207.042 220.56 207.272 219.973 207.73 219.504C208.2 219.024 208.909 218.704 209.858 218.544L212.802 218.064V217.664C212.802 217.194 212.626 216.816 212.274 216.528C211.922 216.229 211.469 216.08 210.914 216.08C210.424 216.08 209.986 216.208 209.602 216.464C209.229 216.709 208.952 217.04 208.77 217.456L207.474 216.784C207.72 216.186 208.168 215.69 208.818 215.296C209.469 214.901 210.178 214.704 210.946 214.704C211.597 214.704 212.173 214.832 212.674 215.088C213.186 215.333 213.581 215.68 213.858 216.128C214.146 216.576 214.29 217.088 214.29 217.664V223.52H212.834V222.4C212.525 222.805 212.114 223.125 211.602 223.36C211.101 223.594 210.541 223.712 209.922 223.712ZM208.61 221.216C208.61 221.568 208.749 221.861 209.026 222.096C209.314 222.33 209.672 222.448 210.098 222.448C210.621 222.448 211.085 222.336 211.49 222.112C211.906 221.877 212.226 221.562 212.45 221.168C212.685 220.773 212.802 220.336 212.802 219.856V219.312L210.194 219.744C209.138 219.925 208.61 220.416 208.61 221.216ZM220.597 223.712C219.755 223.712 218.997 223.514 218.325 223.12C217.653 222.725 217.131 222.186 216.757 221.504C216.384 220.81 216.197 220.042 216.197 219.2C216.197 218.346 216.384 217.578 216.757 216.896C217.131 216.213 217.648 215.68 218.309 215.296C218.981 214.901 219.744 214.704 220.597 214.704C221.429 214.704 222.187 214.922 222.869 215.36C223.563 215.786 224.053 216.341 224.341 217.024L222.997 217.664C222.795 217.205 222.475 216.837 222.037 216.56C221.611 216.282 221.131 216.144 220.597 216.144C220.075 216.144 219.595 216.277 219.157 216.544C218.731 216.81 218.395 217.178 218.149 217.648C217.904 218.106 217.781 218.629 217.781 219.216C217.781 219.792 217.904 220.314 218.149 220.784C218.405 221.242 218.747 221.605 219.173 221.872C219.6 222.138 220.075 222.272 220.597 222.272C221.141 222.272 221.627 222.133 222.053 221.856C222.48 221.578 222.795 221.2 222.997 220.72L224.341 221.392C224.064 222.064 223.579 222.618 222.885 223.056C222.192 223.493 221.429 223.712 220.597 223.712ZM229.742 223.616C228.899 223.616 228.249 223.381 227.79 222.912C227.342 222.432 227.118 221.749 227.118 220.864V216.32H225.55V214.896H225.87C226.254 214.896 226.558 214.784 226.782 214.56C227.006 214.325 227.118 214.01 227.118 213.616V212.912H228.606V214.896H230.542V216.32H228.606V220.816C228.606 221.776 229.086 222.256 230.046 222.256C230.249 222.256 230.446 222.24 230.638 222.208V223.536C230.414 223.589 230.115 223.616 229.742 223.616ZM239.443 223.712C238.622 223.712 237.87 223.52 237.187 223.136C236.515 222.741 235.982 222.202 235.587 221.52C235.193 220.826 234.995 220.053 234.995 219.2C234.995 218.357 235.187 217.594 235.571 216.912C235.966 216.218 236.499 215.68 237.171 215.296C237.854 214.901 238.611 214.704 239.443 214.704C240.265 214.704 241.011 214.901 241.683 215.296C242.366 215.68 242.899 216.213 243.283 216.896C243.678 217.578 243.875 218.346 243.875 219.2C243.875 220.064 243.678 220.837 243.283 221.52C242.889 222.202 242.35 222.741 241.667 223.136C240.995 223.52 240.254 223.712 239.443 223.712ZM236.563 219.2C236.563 219.776 236.686 220.298 236.931 220.768C237.187 221.237 237.534 221.605 237.971 221.872C238.419 222.138 238.91 222.272 239.443 222.272C239.966 222.272 240.446 222.138 240.883 221.872C241.321 221.605 241.662 221.237 241.907 220.768C242.163 220.298 242.291 219.776 242.291 219.2C242.291 218.624 242.163 218.106 241.907 217.648C241.662 217.178 241.321 216.81 240.883 216.544C240.446 216.277 239.966 216.144 239.443 216.144C238.91 216.144 238.419 216.277 237.971 216.544C237.534 216.81 237.187 217.178 236.931 217.648C236.686 218.106 236.563 218.624 236.563 219.2ZM246.447 216.384H244.799V214.96H246.447V214.352C246.447 213.733 246.58 213.2 246.847 212.752C247.113 212.304 247.471 211.962 247.919 211.728C248.377 211.482 248.889 211.36 249.455 211.36C249.743 211.36 249.993 211.386 250.207 211.44V212.768C250.047 212.736 249.855 212.72 249.631 212.72C249.108 212.72 248.697 212.853 248.399 213.12C248.1 213.376 247.951 213.786 247.951 214.352V214.96H249.999V216.384H247.951V223.52H246.447V216.384ZM80.4438 247.504L77.0198 238.896H78.6358L81.2598 245.632L83.8678 238.896H85.5158L80.7478 250.72H79.0998L80.4438 247.504ZM90.7793 247.712C89.9579 247.712 89.2059 247.52 88.5233 247.136C87.8513 246.741 87.3179 246.202 86.9233 245.52C86.5286 244.826 86.3313 244.053 86.3313 243.2C86.3313 242.357 86.5233 241.594 86.9073 240.912C87.3019 240.218 87.8353 239.68 88.5073 239.296C89.1899 238.901 89.9473 238.704 90.7793 238.704C91.6006 238.704 92.3473 238.901 93.0193 239.296C93.7019 239.68 94.2353 240.213 94.6193 240.896C95.0139 241.578 95.2113 242.346 95.2113 243.2C95.2113 244.064 95.0139 244.837 94.6193 245.52C94.2246 246.202 93.6859 246.741 93.0033 247.136C92.3313 247.52 91.5899 247.712 90.7793 247.712ZM87.8993 243.2C87.8993 243.776 88.0219 244.298 88.2673 244.768C88.5233 245.237 88.8699 245.605 89.3073 245.872C89.7553 246.138 90.2459 246.272 90.7793 246.272C91.3019 246.272 91.7819 246.138 92.2193 245.872C92.6566 245.605 92.9979 245.237 93.2433 244.768C93.4993 244.298 93.6273 243.776 93.6273 243.2C93.6273 242.624 93.4993 242.106 93.2433 241.648C92.9979 241.178 92.6566 240.81 92.2193 240.544C91.7819 240.277 91.3019 240.144 90.7793 240.144C90.2459 240.144 89.7553 240.277 89.3073 240.544C88.8699 240.81 88.5233 241.178 88.2673 241.648C88.0219 242.106 87.8993 242.624 87.8993 243.2ZM100.208 247.712C99.5893 247.712 99.0347 247.568 98.544 247.28C98.0533 246.992 97.6693 246.592 97.392 246.08C97.1147 245.557 96.976 244.96 96.976 244.288V238.896H98.464V244.128C98.464 244.768 98.656 245.285 99.04 245.68C99.424 246.074 99.9253 246.272 100.544 246.272C101.163 246.272 101.664 246.069 102.048 245.664C102.432 245.248 102.624 244.693 102.624 244V238.896H104.128V247.52H102.672V246.464C102.416 246.869 102.075 247.178 101.648 247.392C101.221 247.605 100.741 247.712 100.208 247.712ZM106.433 238.896H107.889V239.92C108.337 239.173 109.1 238.8 110.177 238.8H110.705V240.208H109.953C109.335 240.208 108.839 240.4 108.465 240.784C108.103 241.168 107.921 241.701 107.921 242.384V247.52H106.433V238.896ZM118.761 247.712C117.95 247.712 117.214 247.514 116.553 247.12C115.891 246.725 115.374 246.186 115.001 245.504C114.627 244.81 114.441 244.037 114.441 243.184C114.441 242.33 114.622 241.562 114.985 240.88C115.358 240.197 115.859 239.664 116.489 239.28C117.129 238.896 117.843 238.704 118.633 238.704C119.454 238.704 120.169 238.896 120.777 239.28C121.395 239.664 121.865 240.176 122.185 240.816C122.515 241.445 122.681 242.122 122.681 242.848C122.681 243.093 122.654 243.36 122.601 243.648H116.009C116.03 244.192 116.169 244.666 116.425 245.072C116.681 245.477 117.011 245.792 117.417 246.016C117.833 246.24 118.286 246.352 118.777 246.352C119.822 246.352 120.627 245.877 121.193 244.928L122.441 245.568C122.163 246.186 121.694 246.698 121.033 247.104C120.371 247.509 119.614 247.712 118.761 247.712ZM121.065 242.368C121.043 241.696 120.798 241.141 120.329 240.704C119.87 240.256 119.305 240.032 118.633 240.032C117.971 240.032 117.401 240.245 116.921 240.672C116.441 241.088 116.147 241.653 116.041 242.368H121.065ZM126.513 243.2L123.505 238.896H125.297L127.409 241.968L129.505 238.896H131.312L128.305 243.2L131.297 247.52H129.505L127.409 244.432L125.312 247.52H123.489L126.513 243.2ZM132.636 238.896H134.092V240.096C134.434 239.658 134.86 239.317 135.372 239.072C135.895 238.826 136.476 238.704 137.116 238.704C137.916 238.704 138.642 238.901 139.292 239.296C139.943 239.69 140.455 240.234 140.828 240.928C141.202 241.61 141.388 242.373 141.388 243.216C141.388 244.058 141.202 244.821 140.828 245.504C140.455 246.186 139.943 246.725 139.292 247.12C138.642 247.514 137.911 247.712 137.1 247.712C136.482 247.712 135.911 247.594 135.388 247.36C134.876 247.114 134.455 246.768 134.124 246.32V250.72H132.636V238.896ZM134.124 243.216C134.124 243.792 134.247 244.314 134.492 244.784C134.748 245.242 135.095 245.605 135.532 245.872C135.97 246.138 136.455 246.272 136.988 246.272C137.522 246.272 138.002 246.138 138.428 245.872C138.866 245.605 139.202 245.242 139.436 244.784C139.682 244.314 139.804 243.792 139.804 243.216C139.804 242.64 139.682 242.117 139.436 241.648C139.191 241.178 138.855 240.81 138.428 240.544C138.002 240.277 137.522 240.144 136.988 240.144C136.455 240.144 135.97 240.277 135.532 240.544C135.095 240.81 134.748 241.178 134.492 241.648C134.247 242.117 134.124 242.64 134.124 243.216ZM147.308 247.712C146.497 247.712 145.761 247.514 145.1 247.12C144.438 246.725 143.921 246.186 143.548 245.504C143.174 244.81 142.988 244.037 142.988 243.184C142.988 242.33 143.169 241.562 143.532 240.88C143.905 240.197 144.406 239.664 145.036 239.28C145.676 238.896 146.39 238.704 147.18 238.704C148.001 238.704 148.716 238.896 149.324 239.28C149.942 239.664 150.412 240.176 150.732 240.816C151.062 241.445 151.227 242.122 151.227 242.848C151.227 243.093 151.201 243.36 151.148 243.648H144.556C144.577 244.192 144.716 244.666 144.972 245.072C145.228 245.477 145.558 245.792 145.964 246.016C146.38 246.24 146.833 246.352 147.324 246.352C148.369 246.352 149.174 245.877 149.74 244.928L150.988 245.568C150.71 246.186 150.241 246.698 149.58 247.104C148.918 247.509 148.161 247.712 147.308 247.712ZM149.612 242.368C149.59 241.696 149.345 241.141 148.876 240.704C148.417 240.256 147.852 240.032 147.18 240.032C146.518 240.032 145.948 240.245 145.468 240.672C144.988 241.088 144.694 241.653 144.588 242.368H149.612ZM153.168 238.896H154.624V239.92C155.072 239.173 155.834 238.8 156.912 238.8H157.44V240.208H156.688C156.069 240.208 155.573 240.4 155.2 240.784C154.837 241.168 154.656 241.701 154.656 242.384V247.52H153.168V238.896ZM158.761 238.896H160.249V247.52H158.761V238.896ZM158.585 236.592C158.585 236.314 158.671 236.09 158.841 235.92C159.012 235.749 159.236 235.664 159.513 235.664C159.791 235.664 160.015 235.749 160.185 235.92C160.356 236.09 160.441 236.314 160.441 236.592C160.441 236.869 160.356 237.093 160.185 237.264C160.015 237.434 159.791 237.52 159.513 237.52C159.236 237.52 159.012 237.434 158.841 237.264C158.671 237.093 158.585 236.869 158.585 236.592ZM166.526 247.712C165.716 247.712 164.98 247.514 164.318 247.12C163.657 246.725 163.14 246.186 162.766 245.504C162.393 244.81 162.206 244.037 162.206 243.184C162.206 242.33 162.388 241.562 162.75 240.88C163.124 240.197 163.625 239.664 164.254 239.28C164.894 238.896 165.609 238.704 166.398 238.704C167.22 238.704 167.934 238.896 168.542 239.28C169.161 239.664 169.63 240.176 169.95 240.816C170.281 241.445 170.446 242.122 170.446 242.848C170.446 243.093 170.42 243.36 170.366 243.648H163.774C163.796 244.192 163.934 244.666 164.19 245.072C164.446 245.477 164.777 245.792 165.182 246.016C165.598 246.24 166.052 246.352 166.542 246.352C167.588 246.352 168.393 245.877 168.958 244.928L170.206 245.568C169.929 246.186 169.46 246.698 168.798 247.104C168.137 247.509 167.38 247.712 166.526 247.712ZM168.83 242.368C168.809 241.696 168.564 241.141 168.094 240.704C167.636 240.256 167.07 240.032 166.398 240.032C165.737 240.032 165.166 240.245 164.686 240.672C164.206 241.088 163.913 241.653 163.806 242.368H168.83ZM172.386 238.896H173.842V239.952C174.098 239.546 174.44 239.237 174.866 239.024C175.293 238.81 175.773 238.704 176.306 238.704C176.914 238.704 177.464 238.848 177.954 239.136C178.445 239.413 178.829 239.797 179.106 240.288C179.394 240.778 179.538 241.328 179.538 241.936V247.52H178.034V242.416C178.034 241.712 177.842 241.157 177.458 240.752C177.085 240.346 176.589 240.144 175.97 240.144C175.352 240.144 174.845 240.352 174.45 240.768C174.066 241.173 173.874 241.722 173.874 242.416V247.52H172.386V238.896ZM185.668 247.712C184.825 247.712 184.068 247.514 183.396 247.12C182.724 246.725 182.201 246.186 181.828 245.504C181.454 244.81 181.268 244.042 181.268 243.2C181.268 242.346 181.454 241.578 181.828 240.896C182.201 240.213 182.718 239.68 183.38 239.296C184.052 238.901 184.814 238.704 185.668 238.704C186.5 238.704 187.257 238.922 187.94 239.36C188.633 239.786 189.124 240.341 189.412 241.024L188.068 241.664C187.865 241.205 187.545 240.837 187.108 240.56C186.681 240.282 186.201 240.144 185.668 240.144C185.145 240.144 184.665 240.277 184.228 240.544C183.801 240.81 183.465 241.178 183.22 241.648C182.974 242.106 182.852 242.629 182.852 243.216C182.852 243.792 182.974 244.314 183.22 244.784C183.476 245.242 183.817 245.605 184.244 245.872C184.67 246.138 185.145 246.272 185.668 246.272C186.212 246.272 186.697 246.133 187.124 245.856C187.55 245.578 187.865 245.2 188.068 244.72L189.412 245.392C189.134 246.064 188.649 246.618 187.956 247.056C187.262 247.493 186.5 247.712 185.668 247.712ZM195.276 247.712C194.466 247.712 193.73 247.514 193.068 247.12C192.407 246.725 191.89 246.186 191.516 245.504C191.143 244.81 190.956 244.037 190.956 243.184C190.956 242.33 191.138 241.562 191.5 240.88C191.874 240.197 192.375 239.664 193.004 239.28C193.644 238.896 194.359 238.704 195.148 238.704C195.97 238.704 196.684 238.896 197.292 239.28C197.911 239.664 198.38 240.176 198.7 240.816C199.031 241.445 199.196 242.122 199.196 242.848C199.196 243.093 199.17 243.36 199.116 243.648H192.524C192.546 244.192 192.684 244.666 192.94 245.072C193.196 245.477 193.527 245.792 193.932 246.016C194.348 246.24 194.802 246.352 195.292 246.352C196.338 246.352 197.143 245.877 197.708 244.928L198.956 245.568C198.679 246.186 198.21 246.698 197.548 247.104C196.887 247.509 196.13 247.712 195.276 247.712ZM197.58 242.368C197.559 241.696 197.314 241.141 196.844 240.704C196.386 240.256 195.82 240.032 195.148 240.032C194.487 240.032 193.916 240.245 193.436 240.672C192.956 241.088 192.663 241.653 192.556 242.368H197.58ZM204.224 247.712C203.392 247.712 202.656 247.509 202.016 247.104C201.376 246.688 200.918 246.128 200.64 245.424L201.84 244.816C202.086 245.317 202.422 245.712 202.848 246C203.275 246.288 203.739 246.432 204.24 246.432C204.72 246.432 205.115 246.32 205.424 246.096C205.734 245.872 205.888 245.578 205.888 245.216C205.888 244.864 205.75 244.581 205.472 244.368C205.195 244.144 204.896 244.01 204.576 243.968L203.28 243.792C202.512 243.6 201.936 243.28 201.552 242.832C201.168 242.384 200.976 241.856 200.976 241.248C200.976 240.746 201.104 240.304 201.36 239.92C201.627 239.536 201.99 239.237 202.448 239.024C202.918 238.81 203.435 238.704 204 238.704C204.747 238.704 205.414 238.89 206 239.264C206.598 239.637 207.024 240.154 207.28 240.816L206.096 241.424C205.883 240.986 205.584 240.64 205.2 240.384C204.827 240.128 204.411 240 203.952 240C203.515 240 203.163 240.106 202.896 240.32C202.63 240.533 202.496 240.81 202.496 241.152C202.496 241.504 202.619 241.786 202.864 242C203.12 242.202 203.398 242.33 203.696 242.384L205.12 242.576C205.835 242.768 206.39 243.098 206.784 243.568C207.19 244.026 207.392 244.56 207.392 245.168C207.392 245.658 207.259 246.096 206.992 246.48C206.726 246.864 206.352 247.168 205.872 247.392C205.392 247.605 204.843 247.712 204.224 247.712Z" fill="white"/>
</svg>
