<svg width="285" height="276" viewBox="0 0 285 276" fill="none" xmlns="http://www.w3.org/2000/svg">
<path d="M0 24C0 10.7452 10.7452 0 24 0H261C274.255 0 285 10.7452 285 24V252C285 265.255 274.255 276 261 276H24C10.7452 276 0 265.255 0 252V24Z" fill="#5D71DE"/>
<path d="M158.618 38.25H148.5V35.25C148.5 31.1137 145.136 27.75 141 27.75C140.432 27.75 139.913 28.0706 139.658 28.5788L132.574 42.75H124.5C122.846 42.75 121.5 44.0963 121.5 45.75V62.25C121.5 63.9038 122.846 65.25 124.5 65.25H156.364C158.616 65.2388 160.526 63.5475 160.808 61.3106L163.056 43.3237C163.082 43.125 163.095 42.9225 163.095 42.72C163.089 40.2525 161.079 38.25 158.618 38.25ZM124.498 45.75H132V62.25H124.5V45.75H124.498ZM160.078 42.9394L157.828 60.9375C157.734 61.6819 157.097 62.2463 156.354 62.25H135V44.6044L141.883 30.8362C143.944 31.2487 145.5 33.0694 145.5 35.25V39.75C145.5 40.5787 146.171 41.25 147 41.25H158.614C159.008 41.25 159.379 41.4038 159.658 41.6813C159.939 41.9606 160.093 42.3319 160.095 42.7275C160.095 42.795 160.091 42.8606 160.08 42.9375L160.078 42.9394Z" fill="white"/>
<path d="M95.0923 103.1H104.992V105.5H97.8123V109.32H104.592V111.72H97.8123V115.6H104.992V118H95.0923V103.1ZM108.027 109.46H106.107V107.12H108.027V106.76C108.027 105.533 108.394 104.58 109.127 103.9C109.874 103.207 110.88 102.86 112.147 102.86C112.52 102.86 112.86 102.893 113.167 102.96V105.22C112.927 105.18 112.7 105.16 112.487 105.16C111.26 105.16 110.647 105.693 110.647 106.76V107.12H116.147V106.76C116.147 105.533 116.514 104.58 117.247 103.9C117.994 103.207 119 102.86 120.267 102.86C120.64 102.86 120.98 102.893 121.287 102.96V105.22C121.047 105.18 120.82 105.16 120.607 105.16C119.38 105.16 118.767 105.693 118.767 106.76V107.12H125.187V118H122.547V109.46H118.767V118H116.147V109.46H110.647V118H108.027V109.46ZM132.612 118.24C131.546 118.24 130.572 117.993 129.692 117.5C128.826 116.993 128.146 116.307 127.652 115.44C127.159 114.573 126.912 113.607 126.912 112.54C126.912 111.473 127.159 110.513 127.652 109.66C128.146 108.793 128.826 108.113 129.692 107.62C130.559 107.127 131.532 106.88 132.612 106.88C133.772 106.88 134.806 107.18 135.712 107.78C136.619 108.367 137.239 109.14 137.572 110.1L135.292 111.1C135.079 110.54 134.732 110.1 134.252 109.78C133.772 109.447 133.226 109.28 132.612 109.28C132.052 109.28 131.546 109.42 131.092 109.7C130.639 109.98 130.279 110.373 130.012 110.88C129.759 111.373 129.632 111.933 129.632 112.56C129.632 113.187 129.759 113.753 130.012 114.26C130.279 114.753 130.639 115.14 131.092 115.42C131.546 115.7 132.052 115.84 132.612 115.84C133.239 115.84 133.786 115.68 134.252 115.36C134.732 115.027 135.079 114.573 135.292 114L137.572 115.04C137.252 115.987 136.632 116.76 135.712 117.36C134.806 117.947 133.772 118.24 132.612 118.24ZM139.54 107.12H142.16V118H139.54V107.12ZM139.34 104.12C139.34 103.64 139.474 103.267 139.74 103C140.007 102.733 140.374 102.6 140.84 102.6C141.32 102.6 141.694 102.733 141.96 103C142.227 103.267 142.36 103.64 142.36 104.12C142.36 104.587 142.227 104.953 141.96 105.22C141.707 105.487 141.334 105.62 140.84 105.62C140.374 105.62 140.007 105.487 139.74 105.22C139.474 104.953 139.34 104.587 139.34 104.12ZM149.739 118.24C148.646 118.24 147.673 117.987 146.819 117.48C145.979 116.973 145.319 116.287 144.839 115.42C144.373 114.553 144.139 113.593 144.139 112.54C144.139 111.473 144.373 110.513 144.839 109.66C145.319 108.793 145.966 108.113 146.779 107.62C147.606 107.127 148.526 106.88 149.539 106.88C150.633 106.88 151.579 107.12 152.379 107.6C153.179 108.067 153.786 108.707 154.199 109.52C154.626 110.333 154.839 111.227 154.839 112.2C154.839 112.653 154.793 113.02 154.699 113.3H146.859C146.939 114.1 147.246 114.74 147.779 115.22C148.313 115.7 148.973 115.94 149.759 115.94C150.346 115.94 150.846 115.82 151.259 115.58C151.686 115.327 152.026 114.98 152.279 114.54L154.399 115.58C154.066 116.38 153.479 117.027 152.639 117.52C151.799 118 150.833 118.24 149.739 118.24ZM152.039 111.3C151.973 110.633 151.713 110.093 151.259 109.68C150.806 109.253 150.233 109.04 149.539 109.04C148.873 109.04 148.306 109.24 147.839 109.64C147.373 110.027 147.066 110.58 146.919 111.3H152.039ZM156.825 107.12H159.285V108.46C159.565 107.953 159.972 107.567 160.505 107.3C161.052 107.02 161.672 106.88 162.365 106.88C163.152 106.88 163.859 107.053 164.485 107.4C165.112 107.747 165.599 108.233 165.945 108.86C166.292 109.487 166.465 110.2 166.465 111V118H163.845V111.62C163.845 110.913 163.639 110.347 163.225 109.92C162.825 109.493 162.299 109.28 161.645 109.28C160.992 109.28 160.459 109.493 160.045 109.92C159.645 110.347 159.445 110.913 159.445 111.62V118H156.825V107.12ZM173.921 118.24C172.854 118.24 171.881 117.993 171.001 117.5C170.134 116.993 169.454 116.307 168.961 115.44C168.468 114.573 168.221 113.607 168.221 112.54C168.221 111.473 168.468 110.513 168.961 109.66C169.454 108.793 170.134 108.113 171.001 107.62C171.868 107.127 172.841 106.88 173.921 106.88C175.081 106.88 176.114 107.18 177.021 107.78C177.928 108.367 178.548 109.14 178.881 110.1L176.601 111.1C176.388 110.54 176.041 110.1 175.561 109.78C175.081 109.447 174.534 109.28 173.921 109.28C173.361 109.28 172.854 109.42 172.401 109.7C171.948 109.98 171.588 110.373 171.321 110.88C171.068 111.373 170.941 111.933 170.941 112.56C170.941 113.187 171.068 113.753 171.321 114.26C171.588 114.753 171.948 115.14 172.401 115.42C172.854 115.7 173.361 115.84 173.921 115.84C174.548 115.84 175.094 115.68 175.561 115.36C176.041 115.027 176.388 114.573 176.601 114L178.881 115.04C178.561 115.987 177.941 116.76 177.021 117.36C176.114 117.947 175.081 118.24 173.921 118.24ZM184.089 117.84L179.849 107.12H182.669L185.489 114.62L188.289 107.12H191.129L185.249 122H182.429L184.089 117.84Z" fill="white"/>
<path opacity="0.75" d="M62.0389 139.08H63.6069V145.176L68.9189 139.08H70.8869L66.5669 144.072L71.1269 151H69.2549L65.4789 145.336L63.6069 147.48V151H62.0389V139.08ZM74.8284 151.192C73.9751 151.192 73.2818 150.968 72.7484 150.52C72.2151 150.061 71.9484 149.469 71.9484 148.744C71.9484 148.04 72.1778 147.453 72.6364 146.984C73.1058 146.504 73.8151 146.184 74.7644 146.024L77.7084 145.544V145.144C77.7084 144.675 77.5324 144.296 77.1804 144.008C76.8284 143.709 76.3751 143.56 75.8204 143.56C75.3298 143.56 74.8924 143.688 74.5084 143.944C74.1351 144.189 73.8578 144.52 73.6764 144.936L72.3804 144.264C72.6258 143.667 73.0738 143.171 73.7244 142.776C74.3751 142.381 75.0844 142.184 75.8524 142.184C76.5031 142.184 77.0791 142.312 77.5804 142.568C78.0924 142.813 78.4871 143.16 78.7644 143.608C79.0524 144.056 79.1964 144.568 79.1964 145.144V151H77.7404V149.88C77.4311 150.285 77.0204 150.605 76.5084 150.84C76.0071 151.075 75.4471 151.192 74.8284 151.192ZM73.5164 148.696C73.5164 149.048 73.6551 149.341 73.9324 149.576C74.2204 149.811 74.5778 149.928 75.0044 149.928C75.5271 149.928 75.9911 149.816 76.3964 149.592C76.8124 149.357 77.1324 149.043 77.3564 148.648C77.5911 148.253 77.7084 147.816 77.7084 147.336V146.792L75.1004 147.224C74.0444 147.405 73.5164 147.896 73.5164 148.696ZM81.5036 138.888H82.9916V151H81.5036V138.888ZM85.3004 138.888H86.7884V151H85.3004V138.888ZM89.0973 142.376H90.5853V151H89.0973V142.376ZM88.9213 140.072C88.9213 139.795 89.0066 139.571 89.1773 139.4C89.348 139.229 89.572 139.144 89.8493 139.144C90.1266 139.144 90.3506 139.229 90.5213 139.4C90.692 139.571 90.7773 139.795 90.7773 140.072C90.7773 140.349 90.692 140.573 90.5213 140.744C90.3506 140.915 90.1266 141 89.8493 141C89.572 141 89.348 140.915 89.1773 140.744C89.0066 140.573 88.9213 140.349 88.9213 140.072ZM95.9822 151.192C95.1502 151.192 94.4142 150.989 93.7742 150.584C93.1342 150.168 92.6755 149.608 92.3982 148.904L93.5982 148.296C93.8435 148.797 94.1795 149.192 94.6062 149.48C95.0329 149.768 95.4969 149.912 95.9982 149.912C96.4782 149.912 96.8729 149.8 97.1822 149.576C97.4915 149.352 97.6462 149.059 97.6462 148.696C97.6462 148.344 97.5075 148.061 97.2302 147.848C96.9529 147.624 96.6542 147.491 96.3342 147.448L95.0382 147.272C94.2702 147.08 93.6942 146.76 93.3102 146.312C92.9262 145.864 92.7342 145.336 92.7342 144.728C92.7342 144.227 92.8622 143.784 93.1182 143.4C93.3849 143.016 93.7475 142.717 94.2062 142.504C94.6755 142.291 95.1929 142.184 95.7582 142.184C96.5049 142.184 97.1715 142.371 97.7582 142.744C98.3555 143.117 98.7822 143.635 99.0382 144.296L97.8542 144.904C97.6409 144.467 97.3422 144.12 96.9582 143.864C96.5849 143.608 96.1689 143.48 95.7102 143.48C95.2729 143.48 94.9209 143.587 94.6542 143.8C94.3875 144.013 94.2542 144.291 94.2542 144.632C94.2542 144.984 94.3769 145.267 94.6222 145.48C94.8782 145.683 95.1555 145.811 95.4542 145.864L96.8782 146.056C97.5929 146.248 98.1475 146.579 98.5422 147.048C98.9475 147.507 99.1502 148.04 99.1502 148.648C99.1502 149.139 99.0169 149.576 98.7502 149.96C98.4835 150.344 98.1102 150.648 97.6302 150.872C97.1502 151.085 96.6009 151.192 95.9822 151.192ZM104.57 151.096C103.727 151.096 103.077 150.861 102.618 150.392C102.17 149.912 101.946 149.229 101.946 148.344V143.8H100.378V142.376H100.698C101.082 142.376 101.386 142.264 101.61 142.04C101.834 141.805 101.946 141.491 101.946 141.096V140.392H103.434V142.376H105.37V143.8H103.434V148.296C103.434 149.256 103.914 149.736 104.874 149.736C105.077 149.736 105.274 149.72 105.466 149.688V151.016C105.242 151.069 104.943 151.096 104.57 151.096ZM111.271 151.192C110.45 151.192 109.698 151 109.015 150.616C108.343 150.221 107.81 149.683 107.415 149C107.021 148.307 106.823 147.533 106.823 146.68C106.823 145.837 107.015 145.075 107.399 144.392C107.794 143.699 108.327 143.16 108.999 142.776C109.682 142.381 110.439 142.184 111.271 142.184C112.093 142.184 112.839 142.381 113.511 142.776C114.194 143.16 114.727 143.693 115.111 144.376C115.506 145.059 115.703 145.827 115.703 146.68C115.703 147.544 115.506 148.317 115.111 149C114.717 149.683 114.178 150.221 113.495 150.616C112.823 151 112.082 151.192 111.271 151.192ZM108.391 146.68C108.391 147.256 108.514 147.779 108.759 148.248C109.015 148.717 109.362 149.085 109.799 149.352C110.247 149.619 110.738 149.752 111.271 149.752C111.794 149.752 112.274 149.619 112.711 149.352C113.149 149.085 113.49 148.717 113.735 148.248C113.991 147.779 114.119 147.256 114.119 146.68C114.119 146.104 113.991 145.587 113.735 145.128C113.49 144.659 113.149 144.291 112.711 144.024C112.274 143.757 111.794 143.624 111.271 143.624C110.738 143.624 110.247 143.757 109.799 144.024C109.362 144.291 109.015 144.659 108.759 145.128C108.514 145.587 108.391 146.104 108.391 146.68ZM117.884 139.08H119.356L119.148 142.92H118.108L117.884 139.08ZM124.998 151.192C124.166 151.192 123.43 150.989 122.79 150.584C122.15 150.168 121.691 149.608 121.414 148.904L122.614 148.296C122.859 148.797 123.195 149.192 123.622 149.48C124.048 149.768 124.512 149.912 125.014 149.912C125.494 149.912 125.888 149.8 126.198 149.576C126.507 149.352 126.662 149.059 126.662 148.696C126.662 148.344 126.523 148.061 126.246 147.848C125.968 147.624 125.67 147.491 125.35 147.448L124.054 147.272C123.286 147.08 122.71 146.76 122.326 146.312C121.942 145.864 121.75 145.336 121.75 144.728C121.75 144.227 121.878 143.784 122.134 143.4C122.4 143.016 122.763 142.717 123.222 142.504C123.691 142.291 124.208 142.184 124.774 142.184C125.52 142.184 126.187 142.371 126.774 142.744C127.371 143.117 127.798 143.635 128.054 144.296L126.87 144.904C126.656 144.467 126.358 144.12 125.974 143.864C125.6 143.608 125.184 143.48 124.726 143.48C124.288 143.48 123.936 143.587 123.67 143.8C123.403 144.013 123.27 144.291 123.27 144.632C123.27 144.984 123.392 145.267 123.638 145.48C123.894 145.683 124.171 145.811 124.47 145.864L125.894 146.056C126.608 146.248 127.163 146.579 127.558 147.048C127.963 147.507 128.166 148.04 128.166 148.648C128.166 149.139 128.032 149.576 127.766 149.96C127.499 150.344 127.126 150.648 126.646 150.872C126.166 151.085 125.616 151.192 124.998 151.192ZM136.815 151.192C136.005 151.192 135.269 150.995 134.607 150.6C133.946 150.205 133.429 149.667 133.055 148.984C132.682 148.291 132.495 147.517 132.495 146.664C132.495 145.811 132.677 145.043 133.039 144.36C133.413 143.677 133.914 143.144 134.543 142.76C135.183 142.376 135.898 142.184 136.687 142.184C137.509 142.184 138.223 142.376 138.831 142.76C139.45 143.144 139.919 143.656 140.239 144.296C140.57 144.925 140.735 145.603 140.735 146.328C140.735 146.573 140.709 146.84 140.655 147.128H134.063C134.085 147.672 134.223 148.147 134.479 148.552C134.735 148.957 135.066 149.272 135.471 149.496C135.887 149.72 136.341 149.832 136.831 149.832C137.877 149.832 138.682 149.357 139.247 148.408L140.495 149.048C140.218 149.667 139.749 150.179 139.087 150.584C138.426 150.989 137.669 151.192 136.815 151.192ZM139.119 145.848C139.098 145.176 138.853 144.621 138.383 144.184C137.925 143.736 137.359 143.512 136.687 143.512C136.026 143.512 135.455 143.725 134.975 144.152C134.495 144.568 134.202 145.133 134.095 145.848H139.119ZM143.587 143.8H141.939V142.376H143.587V141.768C143.587 141.171 143.721 140.653 143.987 140.216C144.254 139.779 144.611 139.448 145.059 139.224C145.518 139 146.03 138.888 146.595 138.888C146.883 138.888 147.134 138.915 147.347 138.968V140.296C147.187 140.264 146.995 140.248 146.771 140.248C145.651 140.248 145.091 140.755 145.091 141.768V142.376H149.939V141.768C149.939 141.171 150.073 140.653 150.339 140.216C150.606 139.779 150.963 139.448 151.411 139.224C151.87 139 152.382 138.888 152.947 138.888C153.235 138.888 153.486 138.915 153.699 138.968V140.296C153.539 140.264 153.347 140.248 153.123 140.248C152.003 140.248 151.443 140.755 151.443 141.768V142.376H156.499V151H154.995V143.8H151.443V151H149.939V143.8H145.091V151H143.587V143.8ZM162.566 151.192C161.723 151.192 160.966 150.995 160.294 150.6C159.622 150.205 159.099 149.667 158.726 148.984C158.353 148.291 158.166 147.523 158.166 146.68C158.166 145.827 158.353 145.059 158.726 144.376C159.099 143.693 159.617 143.16 160.278 142.776C160.95 142.381 161.713 142.184 162.566 142.184C163.398 142.184 164.155 142.403 164.838 142.84C165.531 143.267 166.022 143.821 166.31 144.504L164.966 145.144C164.763 144.685 164.443 144.317 164.006 144.04C163.579 143.763 163.099 143.624 162.566 143.624C162.043 143.624 161.563 143.757 161.126 144.024C160.699 144.291 160.363 144.659 160.118 145.128C159.873 145.587 159.75 146.109 159.75 146.696C159.75 147.272 159.873 147.795 160.118 148.264C160.374 148.723 160.715 149.085 161.142 149.352C161.569 149.619 162.043 149.752 162.566 149.752C163.11 149.752 163.595 149.613 164.022 149.336C164.449 149.059 164.763 148.68 164.966 148.2L166.31 148.872C166.033 149.544 165.547 150.099 164.854 150.536C164.161 150.973 163.398 151.192 162.566 151.192ZM168.207 142.376H169.695V151H168.207V142.376ZM168.031 140.072C168.031 139.795 168.116 139.571 168.287 139.4C168.457 139.229 168.681 139.144 168.959 139.144C169.236 139.144 169.46 139.229 169.631 139.4C169.801 139.571 169.887 139.795 169.887 140.072C169.887 140.349 169.801 140.573 169.631 140.744C169.46 140.915 169.236 141 168.959 141C168.681 141 168.457 140.915 168.287 140.744C168.116 140.573 168.031 140.349 168.031 140.072ZM175.972 151.192C175.161 151.192 174.425 150.995 173.764 150.6C173.102 150.205 172.585 149.667 172.212 148.984C171.838 148.291 171.652 147.517 171.652 146.664C171.652 145.811 171.833 145.043 172.196 144.36C172.569 143.677 173.07 143.144 173.7 142.76C174.34 142.376 175.054 142.184 175.844 142.184C176.665 142.184 177.38 142.376 177.988 142.76C178.606 143.144 179.076 143.656 179.396 144.296C179.726 144.925 179.892 145.603 179.892 146.328C179.892 146.573 179.865 146.84 179.812 147.128H173.22C173.241 147.672 173.38 148.147 173.636 148.552C173.892 148.957 174.222 149.272 174.628 149.496C175.044 149.72 175.497 149.832 175.988 149.832C177.033 149.832 177.838 149.357 178.404 148.408L179.652 149.048C179.374 149.667 178.905 150.179 178.244 150.584C177.582 150.989 176.825 151.192 175.972 151.192ZM178.276 145.848C178.254 145.176 178.009 144.621 177.54 144.184C177.081 143.736 176.516 143.512 175.844 143.512C175.182 143.512 174.612 143.725 174.132 144.152C173.652 144.568 173.358 145.133 173.252 145.848H178.276ZM181.832 142.376H183.288V143.432C183.544 143.027 183.885 142.717 184.312 142.504C184.738 142.291 185.218 142.184 185.752 142.184C186.36 142.184 186.909 142.328 187.4 142.616C187.89 142.893 188.274 143.277 188.552 143.768C188.84 144.259 188.984 144.808 188.984 145.416V151H187.48V145.896C187.48 145.192 187.288 144.637 186.904 144.232C186.53 143.827 186.034 143.624 185.416 143.624C184.797 143.624 184.29 143.832 183.896 144.248C183.512 144.653 183.32 145.203 183.32 145.896V151H181.832V142.376ZM195.113 151.192C194.27 151.192 193.513 150.995 192.841 150.6C192.169 150.205 191.646 149.667 191.273 148.984C190.9 148.291 190.713 147.523 190.713 146.68C190.713 145.827 190.9 145.059 191.273 144.376C191.646 143.693 192.164 143.16 192.825 142.776C193.497 142.381 194.26 142.184 195.113 142.184C195.945 142.184 196.702 142.403 197.385 142.84C198.078 143.267 198.569 143.821 198.857 144.504L197.513 145.144C197.31 144.685 196.99 144.317 196.553 144.04C196.126 143.763 195.646 143.624 195.113 143.624C194.59 143.624 194.11 143.757 193.673 144.024C193.246 144.291 192.91 144.659 192.665 145.128C192.42 145.587 192.297 146.109 192.297 146.696C192.297 147.272 192.42 147.795 192.665 148.264C192.921 148.723 193.262 149.085 193.689 149.352C194.116 149.619 194.59 149.752 195.113 149.752C195.657 149.752 196.142 149.613 196.569 149.336C196.996 149.059 197.31 148.68 197.513 148.2L198.857 148.872C198.58 149.544 198.094 150.099 197.401 150.536C196.708 150.973 195.945 151.192 195.113 151.192ZM203.202 150.984L199.778 142.376H201.394L204.018 149.112L206.626 142.376H208.274L203.506 154.2H201.858L203.202 150.984ZM212.363 142.376H213.851V151H212.363V142.376ZM212.187 140.072C212.187 139.795 212.272 139.571 212.443 139.4C212.614 139.229 212.838 139.144 213.115 139.144C213.392 139.144 213.616 139.229 213.787 139.4C213.958 139.571 214.043 139.795 214.043 140.072C214.043 140.349 213.958 140.573 213.787 140.744C213.616 140.915 213.392 141 213.115 141C212.838 141 212.614 140.915 212.443 140.744C212.272 140.573 212.187 140.349 212.187 140.072ZM216.16 142.376H217.616V143.432C217.872 143.027 218.213 142.717 218.64 142.504C219.066 142.291 219.546 142.184 220.08 142.184C220.688 142.184 221.237 142.328 221.728 142.616C222.218 142.893 222.602 143.277 222.88 143.768C223.168 144.259 223.312 144.808 223.312 145.416V151H221.808V145.896C221.808 145.192 221.616 144.637 221.232 144.232C220.858 143.827 220.362 143.624 219.744 143.624C219.125 143.624 218.618 143.832 218.224 144.248C217.84 144.653 217.648 145.203 217.648 145.896V151H216.16V142.376ZM65.6051 166.376H67.0611V167.576C67.4025 167.139 67.8291 166.797 68.3411 166.552C68.8638 166.307 69.4451 166.184 70.0851 166.184C70.8851 166.184 71.6105 166.381 72.2611 166.776C72.9118 167.171 73.4238 167.715 73.7971 168.408C74.1705 169.091 74.3571 169.853 74.3571 170.696C74.3571 171.539 74.1705 172.301 73.7971 172.984C73.4238 173.667 72.9118 174.205 72.2611 174.6C71.6105 174.995 70.8798 175.192 70.0691 175.192C69.4505 175.192 68.8798 175.075 68.3571 174.84C67.8451 174.595 67.4238 174.248 67.0931 173.8V178.2H65.6051V166.376ZM67.0931 170.696C67.0931 171.272 67.2158 171.795 67.4611 172.264C67.7171 172.723 68.0638 173.085 68.5011 173.352C68.9385 173.619 69.4238 173.752 69.9571 173.752C70.4905 173.752 70.9705 173.619 71.3971 173.352C71.8345 173.085 72.1705 172.723 72.4051 172.264C72.6505 171.795 72.7731 171.272 72.7731 170.696C72.7731 170.12 72.6505 169.597 72.4051 169.128C72.1598 168.659 71.8238 168.291 71.3971 168.024C70.9705 167.757 70.4905 167.624 69.9571 167.624C69.4238 167.624 68.9385 167.757 68.5011 168.024C68.0638 168.291 67.7171 168.659 67.4611 169.128C67.2158 169.597 67.0931 170.12 67.0931 170.696ZM76.3083 166.376H77.7643V167.4C78.2123 166.653 78.9749 166.28 80.0523 166.28H80.5803V167.688H79.8283C79.2096 167.688 78.7136 167.88 78.3403 168.264C77.9776 168.648 77.7963 169.181 77.7963 169.864V175H76.3083V166.376ZM85.998 175.192C85.1767 175.192 84.4247 175 83.742 174.616C83.07 174.221 82.5367 173.683 82.142 173C81.7473 172.307 81.55 171.533 81.55 170.68C81.55 169.837 81.742 169.075 82.126 168.392C82.5207 167.699 83.054 167.16 83.726 166.776C84.4087 166.381 85.166 166.184 85.998 166.184C86.8193 166.184 87.566 166.381 88.238 166.776C88.9207 167.16 89.454 167.693 89.838 168.376C90.2327 169.059 90.43 169.827 90.43 170.68C90.43 171.544 90.2327 172.317 89.838 173C89.4433 173.683 88.9047 174.221 88.222 174.616C87.55 175 86.8087 175.192 85.998 175.192ZM83.118 170.68C83.118 171.256 83.2407 171.779 83.486 172.248C83.742 172.717 84.0887 173.085 84.526 173.352C84.974 173.619 85.4647 173.752 85.998 173.752C86.5207 173.752 87.0007 173.619 87.438 173.352C87.8753 173.085 88.2167 172.717 88.462 172.248C88.718 171.779 88.846 171.256 88.846 170.68C88.846 170.104 88.718 169.587 88.462 169.128C88.2167 168.659 87.8753 168.291 87.438 168.024C87.0007 167.757 86.5207 167.624 85.998 167.624C85.4647 167.624 84.974 167.757 84.526 168.024C84.0887 168.291 83.742 168.659 83.486 169.128C83.2407 169.587 83.118 170.104 83.118 170.68ZM96.3708 175.192C95.5281 175.192 94.7708 174.995 94.0988 174.6C93.4268 174.205 92.9041 173.667 92.5308 172.984C92.1574 172.291 91.9708 171.523 91.9708 170.68C91.9708 169.827 92.1574 169.059 92.5308 168.376C92.9041 167.693 93.4214 167.16 94.0828 166.776C94.7548 166.381 95.5174 166.184 96.3708 166.184C97.2028 166.184 97.9601 166.403 98.6428 166.84C99.3361 167.267 99.8268 167.821 100.115 168.504L98.7708 169.144C98.5681 168.685 98.2481 168.317 97.8108 168.04C97.3841 167.763 96.9041 167.624 96.3708 167.624C95.8481 167.624 95.3681 167.757 94.9308 168.024C94.5041 168.291 94.1681 168.659 93.9228 169.128C93.6774 169.587 93.5548 170.109 93.5548 170.696C93.5548 171.272 93.6774 171.795 93.9228 172.264C94.1788 172.723 94.5201 173.085 94.9468 173.352C95.3734 173.619 95.8481 173.752 96.3708 173.752C96.9148 173.752 97.4001 173.613 97.8268 173.336C98.2534 173.059 98.5681 172.68 98.7708 172.2L100.115 172.872C99.8374 173.544 99.3521 174.099 98.6588 174.536C97.9654 174.973 97.2028 175.192 96.3708 175.192ZM105.979 175.192C105.169 175.192 104.433 174.995 103.771 174.6C103.11 174.205 102.593 173.667 102.219 172.984C101.846 172.291 101.659 171.517 101.659 170.664C101.659 169.811 101.841 169.043 102.203 168.36C102.577 167.677 103.078 167.144 103.707 166.76C104.347 166.376 105.062 166.184 105.851 166.184C106.673 166.184 107.387 166.376 107.995 166.76C108.614 167.144 109.083 167.656 109.403 168.296C109.734 168.925 109.899 169.603 109.899 170.328C109.899 170.573 109.873 170.84 109.819 171.128H103.227C103.249 171.672 103.387 172.147 103.643 172.552C103.899 172.957 104.23 173.272 104.635 173.496C105.051 173.72 105.505 173.832 105.995 173.832C107.041 173.832 107.846 173.357 108.411 172.408L109.659 173.048C109.382 173.667 108.913 174.179 108.251 174.584C107.59 174.989 106.833 175.192 105.979 175.192ZM108.283 169.848C108.262 169.176 108.017 168.621 107.547 168.184C107.089 167.736 106.523 167.512 105.851 167.512C105.19 167.512 104.619 167.725 104.139 168.152C103.659 168.568 103.366 169.133 103.259 169.848H108.283ZM114.928 175.192C114.096 175.192 113.36 174.989 112.72 174.584C112.08 174.168 111.621 173.608 111.344 172.904L112.544 172.296C112.789 172.797 113.125 173.192 113.552 173.48C113.978 173.768 114.442 173.912 114.944 173.912C115.424 173.912 115.818 173.8 116.128 173.576C116.437 173.352 116.592 173.059 116.592 172.696C116.592 172.344 116.453 172.061 116.176 171.848C115.898 171.624 115.6 171.491 115.28 171.448L113.984 171.272C113.216 171.08 112.64 170.76 112.256 170.312C111.872 169.864 111.68 169.336 111.68 168.728C111.68 168.227 111.808 167.784 112.064 167.4C112.33 167.016 112.693 166.717 113.152 166.504C113.621 166.291 114.138 166.184 114.704 166.184C115.45 166.184 116.117 166.371 116.704 166.744C117.301 167.117 117.728 167.635 117.984 168.296L116.8 168.904C116.586 168.467 116.288 168.12 115.904 167.864C115.53 167.608 115.114 167.48 114.656 167.48C114.218 167.48 113.866 167.587 113.6 167.8C113.333 168.013 113.2 168.291 113.2 168.632C113.2 168.984 113.322 169.267 113.568 169.48C113.824 169.683 114.101 169.811 114.4 169.864L115.824 170.056C116.538 170.248 117.093 170.579 117.488 171.048C117.893 171.507 118.096 172.04 118.096 172.648C118.096 173.139 117.962 173.576 117.696 173.96C117.429 174.344 117.056 174.648 116.576 174.872C116.096 175.085 115.546 175.192 114.928 175.192ZM123.099 175.192C122.267 175.192 121.531 174.989 120.891 174.584C120.251 174.168 119.793 173.608 119.515 172.904L120.715 172.296C120.961 172.797 121.297 173.192 121.723 173.48C122.15 173.768 122.614 173.912 123.115 173.912C123.595 173.912 123.99 173.8 124.299 173.576C124.609 173.352 124.763 173.059 124.763 172.696C124.763 172.344 124.625 172.061 124.347 171.848C124.07 171.624 123.771 171.491 123.451 171.448L122.155 171.272C121.387 171.08 120.811 170.76 120.427 170.312C120.043 169.864 119.851 169.336 119.851 168.728C119.851 168.227 119.979 167.784 120.235 167.4C120.502 167.016 120.865 166.717 121.323 166.504C121.793 166.291 122.31 166.184 122.875 166.184C123.622 166.184 124.289 166.371 124.875 166.744C125.473 167.117 125.899 167.635 126.155 168.296L124.971 168.904C124.758 168.467 124.459 168.12 124.075 167.864C123.702 167.608 123.286 167.48 122.827 167.48C122.39 167.48 122.038 167.587 121.771 167.8C121.505 168.013 121.371 168.291 121.371 168.632C121.371 168.984 121.494 169.267 121.739 169.48C121.995 169.683 122.273 169.811 122.571 169.864L123.995 170.056C124.71 170.248 125.265 170.579 125.659 171.048C126.065 171.507 126.267 172.04 126.267 172.648C126.267 173.139 126.134 173.576 125.867 173.96C125.601 174.344 125.227 174.648 124.747 174.872C124.267 175.085 123.718 175.192 123.099 175.192ZM128.183 166.376H129.671V175H128.183V166.376ZM128.007 164.072C128.007 163.795 128.093 163.571 128.263 163.4C128.434 163.229 128.658 163.144 128.935 163.144C129.213 163.144 129.437 163.229 129.607 163.4C129.778 163.571 129.863 163.795 129.863 164.072C129.863 164.349 129.778 164.573 129.607 164.744C129.437 164.915 129.213 165 128.935 165C128.658 165 128.434 164.915 128.263 164.744C128.093 164.573 128.007 164.349 128.007 164.072ZM131.98 166.376H133.436V167.432C133.692 167.027 134.033 166.717 134.46 166.504C134.887 166.291 135.367 166.184 135.9 166.184C136.508 166.184 137.057 166.328 137.548 166.616C138.039 166.893 138.423 167.277 138.7 167.768C138.988 168.259 139.132 168.808 139.132 169.416V175H137.628V169.896C137.628 169.192 137.436 168.637 137.052 168.232C136.679 167.827 136.183 167.624 135.564 167.624C134.945 167.624 134.439 167.832 134.044 168.248C133.66 168.653 133.468 169.203 133.468 169.896V175H131.98V166.376ZM145.373 178.52C144.467 178.52 143.667 178.312 142.973 177.896C142.291 177.491 141.805 176.947 141.517 176.264L142.909 175.624C143.069 176.051 143.363 176.397 143.789 176.664C144.216 176.941 144.739 177.08 145.357 177.08C146.115 177.08 146.744 176.861 147.245 176.424C147.747 175.997 147.997 175.4 147.997 174.632V173.432C147.677 173.869 147.267 174.205 146.765 174.44C146.264 174.675 145.72 174.792 145.133 174.792C144.333 174.792 143.613 174.605 142.973 174.232C142.333 173.848 141.827 173.331 141.453 172.68C141.091 172.019 140.909 171.288 140.909 170.488C140.909 169.688 141.091 168.963 141.453 168.312C141.816 167.651 142.317 167.133 142.957 166.76C143.597 166.376 144.317 166.184 145.117 166.184C145.715 166.184 146.264 166.307 146.765 166.552C147.267 166.787 147.693 167.128 148.045 167.576V166.376H149.501V174.632C149.501 175.379 149.325 176.045 148.973 176.632C148.621 177.219 148.131 177.677 147.501 178.008C146.872 178.349 146.163 178.52 145.373 178.52ZM142.477 170.488C142.477 171.011 142.595 171.491 142.829 171.928C143.075 172.365 143.411 172.712 143.837 172.968C144.264 173.224 144.739 173.352 145.261 173.352C145.763 173.352 146.221 173.224 146.637 172.968C147.064 172.712 147.395 172.365 147.629 171.928C147.875 171.491 147.997 171.011 147.997 170.488C147.997 169.965 147.875 169.485 147.629 169.048C147.395 168.611 147.064 168.264 146.637 168.008C146.221 167.752 145.763 167.624 145.261 167.624C144.739 167.624 144.264 167.752 143.837 168.008C143.421 168.264 143.091 168.611 142.845 169.048C142.6 169.485 142.477 169.965 142.477 170.488ZM158.494 175.192C157.694 175.192 156.969 174.995 156.318 174.6C155.667 174.205 155.155 173.667 154.782 172.984C154.409 172.301 154.222 171.539 154.222 170.696C154.222 169.853 154.409 169.091 154.782 168.408C155.155 167.715 155.667 167.171 156.318 166.776C156.969 166.381 157.694 166.184 158.494 166.184C159.123 166.184 159.689 166.301 160.19 166.536C160.702 166.771 161.129 167.101 161.47 167.528V162.888H162.974V175H161.518V173.736C161.198 174.195 160.771 174.552 160.238 174.808C159.715 175.064 159.134 175.192 158.494 175.192ZM155.79 170.696C155.79 171.272 155.913 171.795 156.158 172.264C156.403 172.723 156.739 173.085 157.166 173.352C157.603 173.619 158.089 173.752 158.622 173.752C159.155 173.752 159.635 173.619 160.062 173.352C160.499 173.085 160.841 172.723 161.086 172.264C161.342 171.795 161.47 171.272 161.47 170.696C161.47 170.12 161.342 169.597 161.086 169.128C160.841 168.659 160.499 168.291 160.062 168.024C159.635 167.757 159.155 167.624 158.622 167.624C158.089 167.624 157.603 167.757 157.166 168.024C156.739 168.291 156.403 168.659 156.158 169.128C155.913 169.597 155.79 170.12 155.79 170.696ZM167.805 175.192C166.952 175.192 166.258 174.968 165.725 174.52C165.192 174.061 164.925 173.469 164.925 172.744C164.925 172.04 165.154 171.453 165.613 170.984C166.082 170.504 166.792 170.184 167.741 170.024L170.685 169.544V169.144C170.685 168.675 170.509 168.296 170.157 168.008C169.805 167.709 169.352 167.56 168.797 167.56C168.306 167.56 167.869 167.688 167.485 167.944C167.112 168.189 166.834 168.52 166.653 168.936L165.357 168.264C165.602 167.667 166.05 167.171 166.701 166.776C167.352 166.381 168.061 166.184 168.829 166.184C169.48 166.184 170.056 166.312 170.557 166.568C171.069 166.813 171.464 167.16 171.741 167.608C172.029 168.056 172.173 168.568 172.173 169.144V175H170.717V173.88C170.408 174.285 169.997 174.605 169.485 174.84C168.984 175.075 168.424 175.192 167.805 175.192ZM166.493 172.696C166.493 173.048 166.632 173.341 166.909 173.576C167.197 173.811 167.554 173.928 167.981 173.928C168.504 173.928 168.968 173.816 169.373 173.592C169.789 173.357 170.109 173.043 170.333 172.648C170.568 172.253 170.685 171.816 170.685 171.336V170.792L168.077 171.224C167.021 171.405 166.493 171.896 166.493 172.696ZM177.828 175.096C176.985 175.096 176.335 174.861 175.876 174.392C175.428 173.912 175.204 173.229 175.204 172.344V167.8H173.636V166.376H173.956C174.34 166.376 174.644 166.264 174.868 166.04C175.092 165.805 175.204 165.491 175.204 165.096V164.392H176.692V166.376H178.628V167.8H176.692V172.296C176.692 173.256 177.172 173.736 178.132 173.736C178.335 173.736 178.532 173.72 178.724 173.688V175.016C178.5 175.069 178.201 175.096 177.828 175.096ZM183.071 175.192C182.217 175.192 181.524 174.968 180.991 174.52C180.457 174.061 180.191 173.469 180.191 172.744C180.191 172.04 180.42 171.453 180.879 170.984C181.348 170.504 182.057 170.184 183.007 170.024L185.951 169.544V169.144C185.951 168.675 185.775 168.296 185.423 168.008C185.071 167.709 184.617 167.56 184.063 167.56C183.572 167.56 183.135 167.688 182.751 167.944C182.377 168.189 182.1 168.52 181.919 168.936L180.623 168.264C180.868 167.667 181.316 167.171 181.967 166.776C182.617 166.381 183.327 166.184 184.095 166.184C184.745 166.184 185.321 166.312 185.823 166.568C186.335 166.813 186.729 167.16 187.007 167.608C187.295 168.056 187.439 168.568 187.439 169.144V175H185.983V173.88C185.673 174.285 185.263 174.605 184.751 174.84C184.249 175.075 183.689 175.192 183.071 175.192ZM181.759 172.696C181.759 173.048 181.897 173.341 182.175 173.576C182.463 173.811 182.82 173.928 183.247 173.928C183.769 173.928 184.233 173.816 184.639 173.592C185.055 173.357 185.375 173.043 185.599 172.648C185.833 172.253 185.951 171.816 185.951 171.336V170.792L183.343 171.224C182.287 171.405 181.759 171.896 181.759 172.696ZM195.039 175.192C194.186 175.192 193.493 174.968 192.959 174.52C192.426 174.061 192.159 173.469 192.159 172.744C192.159 172.04 192.389 171.453 192.847 170.984C193.317 170.504 194.026 170.184 194.975 170.024L197.919 169.544V169.144C197.919 168.675 197.743 168.296 197.391 168.008C197.039 167.709 196.586 167.56 196.031 167.56C195.541 167.56 195.103 167.688 194.719 167.944C194.346 168.189 194.069 168.52 193.887 168.936L192.591 168.264C192.837 167.667 193.285 167.171 193.935 166.776C194.586 166.381 195.295 166.184 196.063 166.184C196.714 166.184 197.29 166.312 197.791 166.568C198.303 166.813 198.698 167.16 198.975 167.608C199.263 168.056 199.407 168.568 199.407 169.144V175H197.951V173.88C197.642 174.285 197.231 174.605 196.719 174.84C196.218 175.075 195.658 175.192 195.039 175.192ZM193.727 172.696C193.727 173.048 193.866 173.341 194.143 173.576C194.431 173.811 194.789 173.928 195.215 173.928C195.738 173.928 196.202 173.816 196.607 173.592C197.023 173.357 197.343 173.043 197.567 172.648C197.802 172.253 197.919 171.816 197.919 171.336V170.792L195.311 171.224C194.255 171.405 193.727 171.896 193.727 172.696ZM201.715 166.376H203.171V167.432C203.427 167.027 203.768 166.717 204.195 166.504C204.621 166.291 205.101 166.184 205.635 166.184C206.243 166.184 206.792 166.328 207.283 166.616C207.773 166.893 208.157 167.277 208.435 167.768C208.723 168.259 208.867 168.808 208.867 169.416V175H207.363V169.896C207.363 169.192 207.171 168.637 206.787 168.232C206.413 167.827 205.917 167.624 205.299 167.624C204.68 167.624 204.173 167.832 203.779 168.248C203.395 168.653 203.203 169.203 203.203 169.896V175H201.715V166.376ZM214.916 175.192C214.116 175.192 213.39 174.995 212.74 174.6C212.089 174.205 211.577 173.667 211.204 172.984C210.83 172.301 210.644 171.539 210.644 170.696C210.644 169.853 210.83 169.091 211.204 168.408C211.577 167.715 212.089 167.171 212.74 166.776C213.39 166.381 214.116 166.184 214.916 166.184C215.545 166.184 216.11 166.301 216.612 166.536C217.124 166.771 217.55 167.101 217.892 167.528V162.888H219.396V175H217.94V173.736C217.62 174.195 217.193 174.552 216.66 174.808C216.137 175.064 215.556 175.192 214.916 175.192ZM212.212 170.696C212.212 171.272 212.334 171.795 212.58 172.264C212.825 172.723 213.161 173.085 213.588 173.352C214.025 173.619 214.51 173.752 215.044 173.752C215.577 173.752 216.057 173.619 216.484 173.352C216.921 173.085 217.262 172.723 217.508 172.264C217.764 171.795 217.892 171.272 217.892 170.696C217.892 170.12 217.764 169.597 217.508 169.128C217.262 168.659 216.921 168.291 216.484 168.024C216.057 167.757 215.577 167.624 215.044 167.624C214.51 167.624 214.025 167.757 213.588 168.024C213.161 168.291 212.825 168.659 212.58 169.128C212.334 169.597 212.212 170.12 212.212 170.696ZM30.2093 202.52C29.3026 202.52 28.5026 202.312 27.8093 201.896C27.1266 201.491 26.6413 200.947 26.3533 200.264L27.7453 199.624C27.9053 200.051 28.1986 200.397 28.6253 200.664C29.052 200.941 29.5746 201.08 30.1933 201.08C30.9506 201.08 31.58 200.861 32.0813 200.424C32.5826 199.997 32.8333 199.4 32.8333 198.632V197.432C32.5133 197.869 32.1026 198.205 31.6013 198.44C31.1 198.675 30.556 198.792 29.9693 198.792C29.1693 198.792 28.4493 198.605 27.8093 198.232C27.1693 197.848 26.6626 197.331 26.2893 196.68C25.9266 196.019 25.7453 195.288 25.7453 194.488C25.7453 193.688 25.9266 192.963 26.2893 192.312C26.652 191.651 27.1533 191.133 27.7933 190.76C28.4333 190.376 29.1533 190.184 29.9533 190.184C30.5506 190.184 31.1 190.307 31.6013 190.552C32.1026 190.787 32.5293 191.128 32.8813 191.576V190.376H34.3373V198.632C34.3373 199.379 34.1613 200.045 33.8093 200.632C33.4573 201.219 32.9666 201.677 32.3373 202.008C31.708 202.349 30.9986 202.52 30.2093 202.52ZM27.3133 194.488C27.3133 195.011 27.4306 195.491 27.6653 195.928C27.9106 196.365 28.2466 196.712 28.6733 196.968C29.1 197.224 29.5746 197.352 30.0973 197.352C30.5986 197.352 31.0573 197.224 31.4733 196.968C31.9 196.712 32.2306 196.365 32.4653 195.928C32.7106 195.491 32.8333 195.011 32.8333 194.488C32.8333 193.965 32.7106 193.485 32.4653 193.048C32.2306 192.611 31.9 192.264 31.4733 192.008C31.0573 191.752 30.5986 191.624 30.0973 191.624C29.5746 191.624 29.1 191.752 28.6733 192.008C28.2573 192.264 27.9266 192.611 27.6813 193.048C27.436 193.485 27.3133 193.965 27.3133 194.488ZM40.6122 199.192C39.8015 199.192 39.0655 198.995 38.4042 198.6C37.7429 198.205 37.2255 197.667 36.8522 196.984C36.4789 196.291 36.2922 195.517 36.2922 194.664C36.2922 193.811 36.4735 193.043 36.8362 192.36C37.2095 191.677 37.7109 191.144 38.3402 190.76C38.9802 190.376 39.6949 190.184 40.4842 190.184C41.3055 190.184 42.0202 190.376 42.6282 190.76C43.2469 191.144 43.7162 191.656 44.0362 192.296C44.3669 192.925 44.5322 193.603 44.5322 194.328C44.5322 194.573 44.5055 194.84 44.4522 195.128H37.8602C37.8815 195.672 38.0202 196.147 38.2762 196.552C38.5322 196.957 38.8629 197.272 39.2682 197.496C39.6842 197.72 40.1375 197.832 40.6282 197.832C41.6735 197.832 42.4789 197.357 43.0442 196.408L44.2922 197.048C44.0149 197.667 43.5455 198.179 42.8842 198.584C42.2229 198.989 41.4655 199.192 40.6122 199.192ZM42.9162 193.848C42.8949 193.176 42.6495 192.621 42.1802 192.184C41.7215 191.736 41.1562 191.512 40.4842 191.512C39.8229 191.512 39.2522 191.725 38.7722 192.152C38.2922 192.568 37.9989 193.133 37.8922 193.848H42.9162ZM46.4723 190.376H47.9283V191.432C48.1843 191.027 48.5256 190.717 48.9523 190.504C49.379 190.291 49.859 190.184 50.3923 190.184C51.0003 190.184 51.5496 190.328 52.0403 190.616C52.531 190.893 52.915 191.277 53.1923 191.768C53.4803 192.259 53.6243 192.808 53.6243 193.416V199H52.1203V193.896C52.1203 193.192 51.9283 192.637 51.5443 192.232C51.171 191.827 50.675 191.624 50.0563 191.624C49.4376 191.624 48.931 191.832 48.5363 192.248C48.1523 192.653 47.9603 193.203 47.9603 193.896V199H46.4723V190.376ZM59.7216 199.192C58.9109 199.192 58.1749 198.995 57.5136 198.6C56.8522 198.205 56.3349 197.667 55.9616 196.984C55.5882 196.291 55.4016 195.517 55.4016 194.664C55.4016 193.811 55.5829 193.043 55.9456 192.36C56.3189 191.677 56.8202 191.144 57.4496 190.76C58.0896 190.376 58.8042 190.184 59.5936 190.184C60.4149 190.184 61.1296 190.376 61.7376 190.76C62.3562 191.144 62.8256 191.656 63.1456 192.296C63.4762 192.925 63.6416 193.603 63.6416 194.328C63.6416 194.573 63.6149 194.84 63.5616 195.128H56.9696C56.9909 195.672 57.1296 196.147 57.3856 196.552C57.6416 196.957 57.9722 197.272 58.3776 197.496C58.7936 197.72 59.2469 197.832 59.7376 197.832C60.7829 197.832 61.5882 197.357 62.1536 196.408L63.4016 197.048C63.1242 197.667 62.6549 198.179 61.9936 198.584C61.3322 198.989 60.5749 199.192 59.7216 199.192ZM62.0256 193.848C62.0042 193.176 61.7589 192.621 61.2896 192.184C60.8309 191.736 60.2656 191.512 59.5936 191.512C58.9322 191.512 58.3616 191.725 57.8816 192.152C57.4016 192.568 57.1082 193.133 57.0016 193.848H62.0256ZM65.5817 190.376H67.0377V191.4C67.4857 190.653 68.2484 190.28 69.3257 190.28H69.8537V191.688H69.1017C68.483 191.688 67.987 191.88 67.6137 192.264C67.251 192.648 67.0697 193.181 67.0697 193.864V199H65.5817V190.376ZM73.7034 199.192C72.8501 199.192 72.1568 198.968 71.6234 198.52C71.0901 198.061 70.8234 197.469 70.8234 196.744C70.8234 196.04 71.0528 195.453 71.5114 194.984C71.9808 194.504 72.6901 194.184 73.6394 194.024L76.5834 193.544V193.144C76.5834 192.675 76.4074 192.296 76.0554 192.008C75.7034 191.709 75.2501 191.56 74.6954 191.56C74.2048 191.56 73.7674 191.688 73.3834 191.944C73.0101 192.189 72.7328 192.52 72.5514 192.936L71.2554 192.264C71.5008 191.667 71.9488 191.171 72.5994 190.776C73.2501 190.381 73.9594 190.184 74.7274 190.184C75.3781 190.184 75.9541 190.312 76.4554 190.568C76.9674 190.813 77.3621 191.16 77.6394 191.608C77.9274 192.056 78.0714 192.568 78.0714 193.144V199H76.6154V197.88C76.3061 198.285 75.8954 198.605 75.3834 198.84C74.8821 199.075 74.3221 199.192 73.7034 199.192ZM72.3914 196.696C72.3914 197.048 72.5301 197.341 72.8074 197.576C73.0954 197.811 73.4528 197.928 73.8794 197.928C74.4021 197.928 74.8661 197.816 75.2714 197.592C75.6874 197.357 76.0074 197.043 76.2314 196.648C76.4661 196.253 76.5834 195.816 76.5834 195.336V194.792L73.9754 195.224C72.9194 195.405 72.3914 195.896 72.3914 196.696ZM83.7263 199.096C82.8836 199.096 82.233 198.861 81.7743 198.392C81.3263 197.912 81.1023 197.229 81.1023 196.344V191.8H79.5343V190.376H79.8543C80.2383 190.376 80.5423 190.264 80.7663 190.04C80.9903 189.805 81.1023 189.491 81.1023 189.096V188.392H82.5903V190.376H84.5263V191.8H82.5903V196.296C82.5903 197.256 83.0703 197.736 84.0303 197.736C84.233 197.736 84.4303 197.72 84.6223 197.688V199.016C84.3983 199.069 84.0996 199.096 83.7263 199.096ZM86.5661 190.376H88.0541V199H86.5661V190.376ZM86.3901 188.072C86.3901 187.795 86.4754 187.571 86.6461 187.4C86.8167 187.229 87.0407 187.144 87.3181 187.144C87.5954 187.144 87.8194 187.229 87.9901 187.4C88.1607 187.571 88.2461 187.795 88.2461 188.072C88.2461 188.349 88.1607 188.573 87.9901 188.744C87.8194 188.915 87.5954 189 87.3181 189C87.0407 189 86.8167 188.915 86.6461 188.744C86.4754 188.573 86.3901 188.349 86.3901 188.072ZM90.3629 190.376H91.8189V191.432C92.0749 191.027 92.4163 190.717 92.8429 190.504C93.2696 190.291 93.7496 190.184 94.2829 190.184C94.8909 190.184 95.4403 190.328 95.9309 190.616C96.4216 190.893 96.8056 191.277 97.0829 191.768C97.3709 192.259 97.5149 192.808 97.5149 193.416V199H96.0109V193.896C96.0109 193.192 95.8189 192.637 95.4349 192.232C95.0616 191.827 94.5656 191.624 93.9469 191.624C93.3283 191.624 92.8216 191.832 92.4269 192.248C92.0429 192.653 91.8509 193.203 91.8509 193.896V199H90.3629V190.376ZM103.756 202.52C102.85 202.52 102.05 202.312 101.356 201.896C100.674 201.491 100.188 200.947 99.9002 200.264L101.292 199.624C101.452 200.051 101.746 200.397 102.172 200.664C102.599 200.941 103.122 201.08 103.74 201.08C104.498 201.08 105.127 200.861 105.628 200.424C106.13 199.997 106.38 199.4 106.38 198.632V197.432C106.06 197.869 105.65 198.205 105.148 198.44C104.647 198.675 104.103 198.792 103.516 198.792C102.716 198.792 101.996 198.605 101.356 198.232C100.716 197.848 100.21 197.331 99.8362 196.68C99.4735 196.019 99.2922 195.288 99.2922 194.488C99.2922 193.688 99.4735 192.963 99.8362 192.312C100.199 191.651 100.7 191.133 101.34 190.76C101.98 190.376 102.7 190.184 103.5 190.184C104.098 190.184 104.647 190.307 105.148 190.552C105.65 190.787 106.076 191.128 106.428 191.576V190.376H107.884V198.632C107.884 199.379 107.708 200.045 107.356 200.632C107.004 201.219 106.514 201.677 105.884 202.008C105.255 202.349 104.546 202.52 103.756 202.52ZM100.86 194.488C100.86 195.011 100.978 195.491 101.212 195.928C101.458 196.365 101.794 196.712 102.22 196.968C102.647 197.224 103.122 197.352 103.644 197.352C104.146 197.352 104.604 197.224 105.02 196.968C105.447 196.712 105.778 196.365 106.012 195.928C106.258 195.491 106.38 195.011 106.38 194.488C106.38 193.965 106.258 193.485 106.012 193.048C105.778 192.611 105.447 192.264 105.02 192.008C104.604 191.752 104.146 191.624 103.644 191.624C103.122 191.624 102.647 191.752 102.22 192.008C101.804 192.264 101.474 192.611 101.228 193.048C100.983 193.485 100.86 193.965 100.86 194.488ZM112.957 190.376H114.413V191.576C114.754 191.139 115.181 190.797 115.693 190.552C116.215 190.307 116.797 190.184 117.437 190.184C118.237 190.184 118.962 190.381 119.613 190.776C120.263 191.171 120.775 191.715 121.149 192.408C121.522 193.091 121.709 193.853 121.709 194.696C121.709 195.539 121.522 196.301 121.149 196.984C120.775 197.667 120.263 198.205 119.613 198.6C118.962 198.995 118.231 199.192 117.421 199.192C116.802 199.192 116.231 199.075 115.709 198.84C115.197 198.595 114.775 198.248 114.445 197.8V202.2H112.957V190.376ZM114.445 194.696C114.445 195.272 114.567 195.795 114.813 196.264C115.069 196.723 115.415 197.085 115.853 197.352C116.29 197.619 116.775 197.752 117.309 197.752C117.842 197.752 118.322 197.619 118.749 197.352C119.186 197.085 119.522 196.723 119.757 196.264C120.002 195.795 120.125 195.272 120.125 194.696C120.125 194.12 120.002 193.597 119.757 193.128C119.511 192.659 119.175 192.291 118.749 192.024C118.322 191.757 117.842 191.624 117.309 191.624C116.775 191.624 116.29 191.757 115.853 192.024C115.415 192.291 115.069 192.659 114.813 193.128C114.567 193.597 114.445 194.12 114.445 194.696ZM127.628 199.192C126.817 199.192 126.081 198.995 125.42 198.6C124.758 198.205 124.241 197.667 123.868 196.984C123.494 196.291 123.308 195.517 123.308 194.664C123.308 193.811 123.489 193.043 123.852 192.36C124.225 191.677 124.726 191.144 125.356 190.76C125.996 190.376 126.71 190.184 127.5 190.184C128.321 190.184 129.036 190.376 129.644 190.76C130.262 191.144 130.732 191.656 131.052 192.296C131.382 192.925 131.548 193.603 131.548 194.328C131.548 194.573 131.521 194.84 131.468 195.128H124.876C124.897 195.672 125.036 196.147 125.292 196.552C125.548 196.957 125.878 197.272 126.284 197.496C126.7 197.72 127.153 197.832 127.644 197.832C128.689 197.832 129.494 197.357 130.06 196.408L131.308 197.048C131.03 197.667 130.561 198.179 129.9 198.584C129.238 198.989 128.481 199.192 127.628 199.192ZM129.932 193.848C129.91 193.176 129.665 192.621 129.196 192.184C128.737 191.736 128.172 191.512 127.5 191.512C126.838 191.512 126.268 191.725 125.788 192.152C125.308 192.568 125.014 193.133 124.908 193.848H129.932ZM137.584 199.192C136.763 199.192 136.011 199 135.328 198.616C134.656 198.221 134.123 197.683 133.728 197C133.333 196.307 133.136 195.533 133.136 194.68C133.136 193.837 133.328 193.075 133.712 192.392C134.107 191.699 134.64 191.16 135.312 190.776C135.995 190.381 136.752 190.184 137.584 190.184C138.405 190.184 139.152 190.381 139.824 190.776C140.507 191.16 141.04 191.693 141.424 192.376C141.819 193.059 142.016 193.827 142.016 194.68C142.016 195.544 141.819 196.317 141.424 197C141.029 197.683 140.491 198.221 139.808 198.616C139.136 199 138.395 199.192 137.584 199.192ZM134.704 194.68C134.704 195.256 134.827 195.779 135.072 196.248C135.328 196.717 135.675 197.085 136.112 197.352C136.56 197.619 137.051 197.752 137.584 197.752C138.107 197.752 138.587 197.619 139.024 197.352C139.461 197.085 139.803 196.717 140.048 196.248C140.304 195.779 140.432 195.256 140.432 194.68C140.432 194.104 140.304 193.587 140.048 193.128C139.803 192.659 139.461 192.291 139.024 192.024C138.587 191.757 138.107 191.624 137.584 191.624C137.051 191.624 136.56 191.757 136.112 192.024C135.675 192.291 135.328 192.659 135.072 193.128C134.827 193.587 134.704 194.104 134.704 194.68ZM143.957 190.376H145.413V191.576C145.754 191.139 146.181 190.797 146.693 190.552C147.215 190.307 147.797 190.184 148.437 190.184C149.237 190.184 149.962 190.381 150.613 190.776C151.263 191.171 151.775 191.715 152.149 192.408C152.522 193.091 152.709 193.853 152.709 194.696C152.709 195.539 152.522 196.301 152.149 196.984C151.775 197.667 151.263 198.205 150.613 198.6C149.962 198.995 149.231 199.192 148.421 199.192C147.802 199.192 147.231 199.075 146.709 198.84C146.197 198.595 145.775 198.248 145.445 197.8V202.2H143.957V190.376ZM145.445 194.696C145.445 195.272 145.567 195.795 145.813 196.264C146.069 196.723 146.415 197.085 146.853 197.352C147.29 197.619 147.775 197.752 148.309 197.752C148.842 197.752 149.322 197.619 149.749 197.352C150.186 197.085 150.522 196.723 150.757 196.264C151.002 195.795 151.125 195.272 151.125 194.696C151.125 194.12 151.002 193.597 150.757 193.128C150.511 192.659 150.175 192.291 149.749 192.024C149.322 191.757 148.842 191.624 148.309 191.624C147.775 191.624 147.29 191.757 146.853 192.024C146.415 192.291 146.069 192.659 145.813 193.128C145.567 193.597 145.445 194.12 145.445 194.696ZM154.66 186.888H156.148V199H154.66V186.888ZM162.425 199.192C161.614 199.192 160.878 198.995 160.217 198.6C159.555 198.205 159.038 197.667 158.665 196.984C158.291 196.291 158.105 195.517 158.105 194.664C158.105 193.811 158.286 193.043 158.649 192.36C159.022 191.677 159.523 191.144 160.153 190.76C160.793 190.376 161.507 190.184 162.297 190.184C163.118 190.184 163.833 190.376 164.441 190.76C165.059 191.144 165.529 191.656 165.849 192.296C166.179 192.925 166.345 193.603 166.345 194.328C166.345 194.573 166.318 194.84 166.265 195.128H159.673C159.694 195.672 159.833 196.147 160.089 196.552C160.345 196.957 160.675 197.272 161.081 197.496C161.497 197.72 161.95 197.832 162.441 197.832C163.486 197.832 164.291 197.357 164.857 196.408L166.105 197.048C165.827 197.667 165.358 198.179 164.697 198.584C164.035 198.989 163.278 199.192 162.425 199.192ZM164.729 193.848C164.707 193.176 164.462 192.621 163.993 192.184C163.534 191.736 162.969 191.512 162.297 191.512C161.635 191.512 161.065 191.725 160.585 192.152C160.105 192.568 159.811 193.133 159.705 193.848H164.729ZM171.05 190.376H172.538V199H171.05V190.376ZM170.874 188.072C170.874 187.795 170.96 187.571 171.13 187.4C171.301 187.229 171.525 187.144 171.802 187.144C172.08 187.144 172.304 187.229 172.474 187.4C172.645 187.571 172.73 187.795 172.73 188.072C172.73 188.349 172.645 188.573 172.474 188.744C172.304 188.915 172.08 189 171.802 189C171.525 189 171.301 188.915 171.13 188.744C170.96 188.573 170.874 188.349 170.874 188.072ZM174.847 190.376H176.303V191.432C176.559 191.027 176.901 190.717 177.327 190.504C177.754 190.291 178.234 190.184 178.767 190.184C179.375 190.184 179.925 190.328 180.415 190.616C180.906 190.893 181.29 191.277 181.567 191.768C181.855 192.259 181.999 192.808 181.999 193.416V199H180.495V193.896C180.495 193.192 180.303 192.637 179.919 192.232C179.546 191.827 179.05 191.624 178.431 191.624C177.813 191.624 177.306 191.832 176.911 192.248C176.527 192.653 176.335 193.203 176.335 193.896V199H174.847V190.376ZM187.217 199.192C186.385 199.192 185.649 198.989 185.009 198.584C184.369 198.168 183.91 197.608 183.633 196.904L184.833 196.296C185.078 196.797 185.414 197.192 185.841 197.48C186.267 197.768 186.731 197.912 187.233 197.912C187.713 197.912 188.107 197.8 188.417 197.576C188.726 197.352 188.881 197.059 188.881 196.696C188.881 196.344 188.742 196.061 188.465 195.848C188.187 195.624 187.889 195.491 187.569 195.448L186.273 195.272C185.505 195.08 184.929 194.76 184.545 194.312C184.161 193.864 183.969 193.336 183.969 192.728C183.969 192.227 184.097 191.784 184.353 191.4C184.619 191.016 184.982 190.717 185.441 190.504C185.91 190.291 186.427 190.184 186.993 190.184C187.739 190.184 188.406 190.371 188.993 190.744C189.59 191.117 190.017 191.635 190.273 192.296L189.089 192.904C188.875 192.467 188.577 192.12 188.193 191.864C187.819 191.608 187.403 191.48 186.945 191.48C186.507 191.48 186.155 191.587 185.889 191.8C185.622 192.013 185.489 192.291 185.489 192.632C185.489 192.984 185.611 193.267 185.857 193.48C186.113 193.683 186.39 193.811 186.689 193.864L188.113 194.056C188.827 194.248 189.382 194.579 189.777 195.048C190.182 195.507 190.385 196.04 190.385 196.648C190.385 197.139 190.251 197.576 189.985 197.96C189.718 198.344 189.345 198.648 188.865 198.872C188.385 199.085 187.835 199.192 187.217 199.192ZM192.3 190.376H193.788V199H192.3V190.376ZM192.124 188.072C192.124 187.795 192.21 187.571 192.38 187.4C192.551 187.229 192.775 187.144 193.052 187.144C193.33 187.144 193.554 187.229 193.724 187.4C193.895 187.571 193.98 187.795 193.98 188.072C193.98 188.349 193.895 188.573 193.724 188.744C193.554 188.915 193.33 189 193.052 189C192.775 189 192.551 188.915 192.38 188.744C192.21 188.573 192.124 188.349 192.124 188.072ZM200.209 202.52C199.303 202.52 198.503 202.312 197.809 201.896C197.127 201.491 196.641 200.947 196.353 200.264L197.745 199.624C197.905 200.051 198.199 200.397 198.625 200.664C199.052 200.941 199.575 201.08 200.193 201.08C200.951 201.08 201.58 200.861 202.081 200.424C202.583 199.997 202.833 199.4 202.833 198.632V197.432C202.513 197.869 202.103 198.205 201.601 198.44C201.1 198.675 200.556 198.792 199.969 198.792C199.169 198.792 198.449 198.605 197.809 198.232C197.169 197.848 196.663 197.331 196.289 196.68C195.927 196.019 195.745 195.288 195.745 194.488C195.745 193.688 195.927 192.963 196.289 192.312C196.652 191.651 197.153 191.133 197.793 190.76C198.433 190.376 199.153 190.184 199.953 190.184C200.551 190.184 201.1 190.307 201.601 190.552C202.103 190.787 202.529 191.128 202.881 191.576V190.376H204.337V198.632C204.337 199.379 204.161 200.045 203.809 200.632C203.457 201.219 202.967 201.677 202.337 202.008C201.708 202.349 200.999 202.52 200.209 202.52ZM197.313 194.488C197.313 195.011 197.431 195.491 197.665 195.928C197.911 196.365 198.247 196.712 198.673 196.968C199.1 197.224 199.575 197.352 200.097 197.352C200.599 197.352 201.057 197.224 201.473 196.968C201.9 196.712 202.231 196.365 202.465 195.928C202.711 195.491 202.833 195.011 202.833 194.488C202.833 193.965 202.711 193.485 202.465 193.048C202.231 192.611 201.9 192.264 201.473 192.008C201.057 191.752 200.599 191.624 200.097 191.624C199.575 191.624 199.1 191.752 198.673 192.008C198.257 192.264 197.927 192.611 197.681 193.048C197.436 193.485 197.313 193.965 197.313 194.488ZM206.644 186.888H208.132V191.384C208.388 191 208.724 190.707 209.14 190.504C209.567 190.291 210.042 190.184 210.564 190.184C211.172 190.184 211.722 190.328 212.212 190.616C212.703 190.893 213.087 191.277 213.364 191.768C213.652 192.259 213.796 192.808 213.796 193.416V199H212.292V193.896C212.292 193.192 212.1 192.637 211.716 192.232C211.332 191.827 210.836 191.624 210.228 191.624C209.62 191.624 209.119 191.832 208.724 192.248C208.33 192.653 208.132 193.203 208.132 193.896V199H206.644V186.888ZM219.429 199.096C218.587 199.096 217.936 198.861 217.477 198.392C217.029 197.912 216.805 197.229 216.805 196.344V191.8H215.237V190.376H215.557C215.941 190.376 216.245 190.264 216.469 190.04C216.693 189.805 216.805 189.491 216.805 189.096V188.392H218.293V190.376H220.229V191.8H218.293V196.296C218.293 197.256 218.773 197.736 219.733 197.736C219.936 197.736 220.133 197.72 220.325 197.688V199.016C220.101 199.069 219.803 199.096 219.429 199.096ZM225.357 199.192C224.525 199.192 223.789 198.989 223.149 198.584C222.509 198.168 222.051 197.608 221.773 196.904L222.973 196.296C223.219 196.797 223.555 197.192 223.981 197.48C224.408 197.768 224.872 197.912 225.373 197.912C225.853 197.912 226.248 197.8 226.557 197.576C226.867 197.352 227.021 197.059 227.021 196.696C227.021 196.344 226.883 196.061 226.605 195.848C226.328 195.624 226.029 195.491 225.709 195.448L224.413 195.272C223.645 195.08 223.069 194.76 222.685 194.312C222.301 193.864 222.109 193.336 222.109 192.728C222.109 192.227 222.237 191.784 222.493 191.4C222.76 191.016 223.123 190.717 223.581 190.504C224.051 190.291 224.568 190.184 225.133 190.184C225.88 190.184 226.547 190.371 227.133 190.744C227.731 191.117 228.157 191.635 228.413 192.296L227.229 192.904C227.016 192.467 226.717 192.12 226.333 191.864C225.96 191.608 225.544 191.48 225.085 191.48C224.648 191.48 224.296 191.587 224.029 191.8C223.763 192.013 223.629 192.291 223.629 192.632C223.629 192.984 223.752 193.267 223.997 193.48C224.253 193.683 224.531 193.811 224.829 193.864L226.253 194.056C226.968 194.248 227.523 194.579 227.917 195.048C228.323 195.507 228.525 196.04 228.525 196.648C228.525 197.139 228.392 197.576 228.125 197.96C227.859 198.344 227.485 198.648 227.005 198.872C226.525 199.085 225.976 199.192 225.357 199.192ZM237.207 199.192C236.364 199.192 235.607 198.995 234.935 198.6C234.263 198.205 233.74 197.667 233.367 196.984C232.993 196.291 232.807 195.523 232.807 194.68C232.807 193.827 232.993 193.059 233.367 192.376C233.74 191.693 234.257 191.16 234.919 190.776C235.591 190.381 236.353 190.184 237.207 190.184C238.039 190.184 238.796 190.403 239.479 190.84C240.172 191.267 240.663 191.821 240.951 192.504L239.607 193.144C239.404 192.685 239.084 192.317 238.647 192.04C238.22 191.763 237.74 191.624 237.207 191.624C236.684 191.624 236.204 191.757 235.767 192.024C235.34 192.291 235.004 192.659 234.759 193.128C234.513 193.587 234.391 194.109 234.391 194.696C234.391 195.272 234.513 195.795 234.759 196.264C235.015 196.723 235.356 197.085 235.783 197.352C236.209 197.619 236.684 197.752 237.207 197.752C237.751 197.752 238.236 197.613 238.663 197.336C239.089 197.059 239.404 196.68 239.607 196.2L240.951 196.872C240.673 197.544 240.188 198.099 239.495 198.536C238.801 198.973 238.039 199.192 237.207 199.192ZM245.25 199.192C244.397 199.192 243.704 198.968 243.17 198.52C242.637 198.061 242.37 197.469 242.37 196.744C242.37 196.04 242.6 195.453 243.058 194.984C243.528 194.504 244.237 194.184 245.186 194.024L248.13 193.544V193.144C248.13 192.675 247.954 192.296 247.602 192.008C247.25 191.709 246.797 191.56 246.242 191.56C245.752 191.56 245.314 191.688 244.93 191.944C244.557 192.189 244.28 192.52 244.098 192.936L242.802 192.264C243.048 191.667 243.496 191.171 244.146 190.776C244.797 190.381 245.506 190.184 246.274 190.184C246.925 190.184 247.501 190.312 248.002 190.568C248.514 190.813 248.909 191.16 249.186 191.608C249.474 192.056 249.618 192.568 249.618 193.144V199H248.162V197.88C247.853 198.285 247.442 198.605 246.93 198.84C246.429 199.075 245.869 199.192 245.25 199.192ZM243.938 196.696C243.938 197.048 244.077 197.341 244.354 197.576C244.642 197.811 245 197.928 245.426 197.928C245.949 197.928 246.413 197.816 246.818 197.592C247.234 197.357 247.554 197.043 247.778 196.648C248.013 196.253 248.13 195.816 248.13 195.336V194.792L245.522 195.224C244.466 195.405 243.938 195.896 243.938 196.696ZM251.925 190.376H253.381V191.432C253.637 191.027 253.979 190.717 254.405 190.504C254.832 190.291 255.312 190.184 255.845 190.184C256.453 190.184 257.003 190.328 257.493 190.616C257.984 190.893 258.368 191.277 258.645 191.768C258.933 192.259 259.077 192.808 259.077 193.416V199H257.573V193.896C257.573 193.192 257.381 192.637 256.997 192.232C256.624 191.827 256.128 191.624 255.509 191.624C254.891 191.624 254.384 191.832 253.989 192.248C253.605 192.653 253.413 193.203 253.413 193.896V199H251.925V190.376ZM43.6228 223.192C42.7908 223.192 42.0548 222.989 41.4148 222.584C40.7748 222.168 40.3161 221.608 40.0388 220.904L41.2388 220.296C41.4841 220.797 41.8201 221.192 42.2468 221.48C42.6735 221.768 43.1375 221.912 43.6388 221.912C44.1188 221.912 44.5135 221.8 44.8228 221.576C45.1321 221.352 45.2868 221.059 45.2868 220.696C45.2868 220.344 45.1481 220.061 44.8708 219.848C44.5935 219.624 44.2948 219.491 43.9748 219.448L42.6788 219.272C41.9108 219.08 41.3348 218.76 40.9508 218.312C40.5668 217.864 40.3748 217.336 40.3748 216.728C40.3748 216.227 40.5028 215.784 40.7588 215.4C41.0255 215.016 41.3881 214.717 41.8468 214.504C42.3161 214.291 42.8335 214.184 43.3988 214.184C44.1455 214.184 44.8121 214.371 45.3988 214.744C45.9961 215.117 46.4228 215.635 46.6788 216.296L45.4948 216.904C45.2815 216.467 44.9828 216.12 44.5988 215.864C44.2255 215.608 43.8095 215.48 43.3508 215.48C42.9135 215.48 42.5615 215.587 42.2948 215.8C42.0281 216.013 41.8948 216.291 41.8948 216.632C41.8948 216.984 42.0175 217.267 42.2628 217.48C42.5188 217.683 42.7961 217.811 43.0948 217.864L44.5188 218.056C45.2335 218.248 45.7881 218.579 46.1828 219.048C46.5881 219.507 46.7908 220.04 46.7908 220.648C46.7908 221.139 46.6575 221.576 46.3908 221.96C46.1241 222.344 45.7508 222.648 45.2708 222.872C44.7908 223.085 44.2415 223.192 43.6228 223.192ZM52.2107 223.096C51.368 223.096 50.7174 222.861 50.2587 222.392C49.8107 221.912 49.5867 221.229 49.5867 220.344V215.8H48.0187V214.376H48.3387C48.7227 214.376 49.0267 214.264 49.2507 214.04C49.4747 213.805 49.5867 213.491 49.5867 213.096V212.392H51.0747V214.376H53.0107V215.8H51.0747V220.296C51.0747 221.256 51.5547 221.736 52.5147 221.736C52.7174 221.736 52.9147 221.72 53.1067 221.688V223.016C52.8827 223.069 52.584 223.096 52.2107 223.096ZM55.0504 214.376H56.5064V215.4C56.9544 214.653 57.7171 214.28 58.7944 214.28H59.3224V215.688H58.5704C57.9518 215.688 57.4558 215.88 57.0824 216.264C56.7198 216.648 56.5384 217.181 56.5384 217.864V223H55.0504V214.376ZM64.6122 223.192C63.8015 223.192 63.0655 222.995 62.4042 222.6C61.7429 222.205 61.2255 221.667 60.8522 220.984C60.4789 220.291 60.2922 219.517 60.2922 218.664C60.2922 217.811 60.4735 217.043 60.8362 216.36C61.2095 215.677 61.7109 215.144 62.3402 214.76C62.9802 214.376 63.6949 214.184 64.4842 214.184C65.3055 214.184 66.0202 214.376 66.6282 214.76C67.2469 215.144 67.7162 215.656 68.0362 216.296C68.3669 216.925 68.5322 217.603 68.5322 218.328C68.5322 218.573 68.5055 218.84 68.4522 219.128H61.8602C61.8815 219.672 62.0202 220.147 62.2762 220.552C62.5322 220.957 62.8629 221.272 63.2682 221.496C63.6842 221.72 64.1375 221.832 64.6282 221.832C65.6735 221.832 66.4789 221.357 67.0442 220.408L68.2922 221.048C68.0149 221.667 67.5455 222.179 66.8842 222.584C66.2229 222.989 65.4655 223.192 64.6122 223.192ZM66.9162 217.848C66.8949 217.176 66.6495 216.621 66.1802 216.184C65.7215 215.736 65.1562 215.512 64.4842 215.512C63.8229 215.512 63.2522 215.725 62.7722 216.152C62.2922 216.568 61.9989 217.133 61.8922 217.848H66.9162ZM72.8753 223.192C72.022 223.192 71.3286 222.968 70.7953 222.52C70.262 222.061 69.9953 221.469 69.9953 220.744C69.9953 220.04 70.2246 219.453 70.6833 218.984C71.1526 218.504 71.862 218.184 72.8113 218.024L75.7553 217.544V217.144C75.7553 216.675 75.5793 216.296 75.2273 216.008C74.8753 215.709 74.422 215.56 73.8673 215.56C73.3766 215.56 72.9393 215.688 72.5553 215.944C72.182 216.189 71.9046 216.52 71.7233 216.936L70.4273 216.264C70.6726 215.667 71.1206 215.171 71.7713 214.776C72.422 214.381 73.1313 214.184 73.8993 214.184C74.55 214.184 75.126 214.312 75.6273 214.568C76.1393 214.813 76.534 215.16 76.8113 215.608C77.0993 216.056 77.2433 216.568 77.2433 217.144V223H75.7873V221.88C75.478 222.285 75.0673 222.605 74.5553 222.84C74.054 223.075 73.494 223.192 72.8753 223.192ZM71.5633 220.696C71.5633 221.048 71.702 221.341 71.9793 221.576C72.2673 221.811 72.6246 221.928 73.0513 221.928C73.574 221.928 74.038 221.816 74.4433 221.592C74.8593 221.357 75.1793 221.043 75.4033 220.648C75.638 220.253 75.7553 219.816 75.7553 219.336V218.792L73.1473 219.224C72.0913 219.405 71.5633 219.896 71.5633 220.696ZM79.5504 214.376H81.0064V215.448C81.2518 215.043 81.5824 214.733 81.9984 214.52C82.4251 214.296 82.8944 214.184 83.4064 214.184C83.9931 214.184 84.5264 214.328 85.0064 214.616C85.4971 214.893 85.8704 215.272 86.1264 215.752C86.4038 215.251 86.7771 214.867 87.2464 214.6C87.7264 214.323 88.2544 214.184 88.8304 214.184C89.4171 214.184 89.9558 214.328 90.4464 214.616C90.9371 214.893 91.3264 215.277 91.6144 215.768C91.9024 216.259 92.0464 216.808 92.0464 217.416V223H90.5424V217.896C90.5424 217.192 90.3558 216.637 89.9824 216.232C89.6198 215.827 89.1451 215.624 88.5584 215.624C87.9611 215.624 87.4758 215.832 87.1024 216.248C86.7291 216.653 86.5424 217.203 86.5424 217.896V223H85.0384V217.896C85.0384 217.192 84.8571 216.637 84.4944 216.232C84.1318 215.827 83.6518 215.624 83.0544 215.624C82.4678 215.624 81.9824 215.832 81.5984 216.248C81.2251 216.653 81.0384 217.203 81.0384 217.896V223H79.5504V214.376ZM94.1598 210.888H95.6478V223H94.1598V210.888ZM97.9567 214.376H99.4447V223H97.9567V214.376ZM97.7807 212.072C97.7807 211.795 97.866 211.571 98.0367 211.4C98.2074 211.229 98.4314 211.144 98.7087 211.144C98.986 211.144 99.21 211.229 99.3807 211.4C99.5514 211.571 99.6367 211.795 99.6367 212.072C99.6367 212.349 99.5514 212.573 99.3807 212.744C99.21 212.915 98.986 213 98.7087 213C98.4314 213 98.2074 212.915 98.0367 212.744C97.866 212.573 97.7807 212.349 97.7807 212.072ZM101.754 214.376H103.21V215.432C103.466 215.027 103.807 214.717 104.234 214.504C104.66 214.291 105.14 214.184 105.674 214.184C106.282 214.184 106.831 214.328 107.322 214.616C107.812 214.893 108.196 215.277 108.474 215.768C108.762 216.259 108.906 216.808 108.906 217.416V223H107.402V217.896C107.402 217.192 107.21 216.637 106.826 216.232C106.452 215.827 105.956 215.624 105.338 215.624C104.719 215.624 104.212 215.832 103.818 216.248C103.434 216.653 103.242 217.203 103.242 217.896V223H101.754V214.376ZM115.003 223.192C114.192 223.192 113.456 222.995 112.795 222.6C112.133 222.205 111.616 221.667 111.243 220.984C110.869 220.291 110.683 219.517 110.683 218.664C110.683 217.811 110.864 217.043 111.227 216.36C111.6 215.677 112.101 215.144 112.731 214.76C113.371 214.376 114.085 214.184 114.875 214.184C115.696 214.184 116.411 214.376 117.019 214.76C117.637 215.144 118.107 215.656 118.427 216.296C118.757 216.925 118.923 217.603 118.923 218.328C118.923 218.573 118.896 218.84 118.843 219.128H112.251C112.272 219.672 112.411 220.147 112.667 220.552C112.923 220.957 113.253 221.272 113.659 221.496C114.075 221.72 114.528 221.832 115.019 221.832C116.064 221.832 116.869 221.357 117.435 220.408L118.683 221.048C118.405 221.667 117.936 222.179 117.275 222.584C116.613 222.989 115.856 223.192 115.003 223.192ZM117.307 217.848C117.285 217.176 117.04 216.621 116.571 216.184C116.112 215.736 115.547 215.512 114.875 215.512C114.213 215.512 113.643 215.725 113.163 216.152C112.683 216.568 112.389 217.133 112.283 217.848H117.307ZM126.077 222.984L122.653 214.376H124.269L126.893 221.112L129.501 214.376H131.149L126.381 226.2H124.733L126.077 222.984ZM136.412 223.192C135.591 223.192 134.839 223 134.156 222.616C133.484 222.221 132.951 221.683 132.556 221C132.161 220.307 131.964 219.533 131.964 218.68C131.964 217.837 132.156 217.075 132.54 216.392C132.935 215.699 133.468 215.16 134.14 214.776C134.823 214.381 135.58 214.184 136.412 214.184C137.233 214.184 137.98 214.381 138.652 214.776C139.335 215.16 139.868 215.693 140.252 216.376C140.647 217.059 140.844 217.827 140.844 218.68C140.844 219.544 140.647 220.317 140.252 221C139.857 221.683 139.319 222.221 138.636 222.616C137.964 223 137.223 223.192 136.412 223.192ZM133.532 218.68C133.532 219.256 133.655 219.779 133.9 220.248C134.156 220.717 134.503 221.085 134.94 221.352C135.388 221.619 135.879 221.752 136.412 221.752C136.935 221.752 137.415 221.619 137.852 221.352C138.289 221.085 138.631 220.717 138.876 220.248C139.132 219.779 139.26 219.256 139.26 218.68C139.26 218.104 139.132 217.587 138.876 217.128C138.631 216.659 138.289 216.291 137.852 216.024C137.415 215.757 136.935 215.624 136.412 215.624C135.879 215.624 135.388 215.757 134.94 216.024C134.503 216.291 134.156 216.659 133.9 217.128C133.655 217.587 133.532 218.104 133.532 218.68ZM145.841 223.192C145.222 223.192 144.667 223.048 144.177 222.76C143.686 222.472 143.302 222.072 143.025 221.56C142.747 221.037 142.609 220.44 142.609 219.768V214.376H144.097V219.608C144.097 220.248 144.289 220.765 144.673 221.16C145.057 221.555 145.558 221.752 146.177 221.752C146.795 221.752 147.297 221.549 147.681 221.144C148.065 220.728 148.257 220.173 148.257 219.48V214.376H149.761V223H148.305V221.944C148.049 222.349 147.707 222.659 147.281 222.872C146.854 223.085 146.374 223.192 145.841 223.192ZM152.066 214.376H153.522V215.4C153.97 214.653 154.733 214.28 155.81 214.28H156.338V215.688H155.586C154.967 215.688 154.471 215.88 154.098 216.264C153.735 216.648 153.554 217.181 153.554 217.864V223H152.066V214.376ZM164.393 223.192C163.583 223.192 162.847 222.995 162.185 222.6C161.524 222.205 161.007 221.667 160.633 220.984C160.26 220.291 160.073 219.517 160.073 218.664C160.073 217.811 160.255 217.043 160.617 216.36C160.991 215.677 161.492 215.144 162.121 214.76C162.761 214.376 163.476 214.184 164.265 214.184C165.087 214.184 165.801 214.376 166.409 214.76C167.028 215.144 167.497 215.656 167.817 216.296C168.148 216.925 168.313 217.603 168.313 218.328C168.313 218.573 168.287 218.84 168.233 219.128H161.641C161.663 219.672 161.801 220.147 162.057 220.552C162.313 220.957 162.644 221.272 163.049 221.496C163.465 221.72 163.919 221.832 164.409 221.832C165.455 221.832 166.26 221.357 166.825 220.408L168.073 221.048C167.796 221.667 167.327 222.179 166.665 222.584C166.004 222.989 165.247 223.192 164.393 223.192ZM166.697 217.848C166.676 217.176 166.431 216.621 165.961 216.184C165.503 215.736 164.937 215.512 164.265 215.512C163.604 215.512 163.033 215.725 162.553 216.152C162.073 216.568 161.78 217.133 161.673 217.848H166.697ZM172.145 218.68L169.137 214.376H170.929L173.041 217.448L175.137 214.376H176.945L173.937 218.68L176.929 223H175.137L173.041 219.912L170.945 223H169.121L172.145 218.68ZM178.269 214.376H179.725V215.576C180.067 215.139 180.493 214.797 181.005 214.552C181.528 214.307 182.109 214.184 182.749 214.184C183.549 214.184 184.275 214.381 184.925 214.776C185.576 215.171 186.088 215.715 186.461 216.408C186.835 217.091 187.021 217.853 187.021 218.696C187.021 219.539 186.835 220.301 186.461 220.984C186.088 221.667 185.576 222.205 184.925 222.6C184.275 222.995 183.544 223.192 182.733 223.192C182.115 223.192 181.544 223.075 181.021 222.84C180.509 222.595 180.088 222.248 179.757 221.8V226.2H178.269V214.376ZM179.757 218.696C179.757 219.272 179.88 219.795 180.125 220.264C180.381 220.723 180.728 221.085 181.165 221.352C181.603 221.619 182.088 221.752 182.621 221.752C183.155 221.752 183.635 221.619 184.061 221.352C184.499 221.085 184.835 220.723 185.069 220.264C185.315 219.795 185.437 219.272 185.437 218.696C185.437 218.12 185.315 217.597 185.069 217.128C184.824 216.659 184.488 216.291 184.061 216.024C183.635 215.757 183.155 215.624 182.621 215.624C182.088 215.624 181.603 215.757 181.165 216.024C180.728 216.291 180.381 216.659 180.125 217.128C179.88 217.597 179.757 218.12 179.757 218.696ZM192.94 223.192C192.13 223.192 191.394 222.995 190.732 222.6C190.071 222.205 189.554 221.667 189.18 220.984C188.807 220.291 188.62 219.517 188.62 218.664C188.62 217.811 188.802 217.043 189.164 216.36C189.538 215.677 190.039 215.144 190.668 214.76C191.308 214.376 192.023 214.184 192.812 214.184C193.634 214.184 194.348 214.376 194.956 214.76C195.575 215.144 196.044 215.656 196.364 216.296C196.695 216.925 196.86 217.603 196.86 218.328C196.86 218.573 196.834 218.84 196.78 219.128H190.188C190.21 219.672 190.348 220.147 190.604 220.552C190.86 220.957 191.191 221.272 191.596 221.496C192.012 221.72 192.466 221.832 192.956 221.832C194.002 221.832 194.807 221.357 195.372 220.408L196.62 221.048C196.343 221.667 195.874 222.179 195.212 222.584C194.551 222.989 193.794 223.192 192.94 223.192ZM195.244 217.848C195.223 217.176 194.978 216.621 194.508 216.184C194.05 215.736 193.484 215.512 192.812 215.512C192.151 215.512 191.58 215.725 191.1 216.152C190.62 216.568 190.327 217.133 190.22 217.848H195.244ZM198.8 214.376H200.256V215.4C200.704 214.653 201.467 214.28 202.544 214.28H203.072V215.688H202.32C201.702 215.688 201.206 215.88 200.832 216.264C200.47 216.648 200.288 217.181 200.288 217.864V223H198.8V214.376ZM204.394 214.376H205.882V223H204.394V214.376ZM204.218 212.072C204.218 211.795 204.304 211.571 204.474 211.4C204.645 211.229 204.869 211.144 205.146 211.144C205.424 211.144 205.648 211.229 205.818 211.4C205.989 211.571 206.074 211.795 206.074 212.072C206.074 212.349 205.989 212.573 205.818 212.744C205.648 212.915 205.424 213 205.146 213C204.869 213 204.645 212.915 204.474 212.744C204.304 212.573 204.218 212.349 204.218 212.072ZM212.159 223.192C211.348 223.192 210.612 222.995 209.951 222.6C209.29 222.205 208.772 221.667 208.399 220.984C208.026 220.291 207.839 219.517 207.839 218.664C207.839 217.811 208.02 217.043 208.383 216.36C208.756 215.677 209.258 215.144 209.887 214.76C210.527 214.376 211.242 214.184 212.031 214.184C212.852 214.184 213.567 214.376 214.175 214.76C214.794 215.144 215.263 215.656 215.583 216.296C215.914 216.925 216.079 217.603 216.079 218.328C216.079 218.573 216.052 218.84 215.999 219.128H209.407C209.428 219.672 209.567 220.147 209.823 220.552C210.079 220.957 210.41 221.272 210.815 221.496C211.231 221.72 211.684 221.832 212.175 221.832C213.22 221.832 214.026 221.357 214.591 220.408L215.839 221.048C215.562 221.667 215.092 222.179 214.431 222.584C213.77 222.989 213.012 223.192 212.159 223.192ZM214.463 217.848C214.442 217.176 214.196 216.621 213.727 216.184C213.268 215.736 212.703 215.512 212.031 215.512C211.37 215.512 210.799 215.725 210.319 216.152C209.839 216.568 209.546 217.133 209.439 217.848H214.463ZM218.019 214.376H219.475V215.432C219.731 215.027 220.073 214.717 220.499 214.504C220.926 214.291 221.406 214.184 221.939 214.184C222.547 214.184 223.097 214.328 223.587 214.616C224.078 214.893 224.462 215.277 224.739 215.768C225.027 216.259 225.171 216.808 225.171 217.416V223H223.667V217.896C223.667 217.192 223.475 216.637 223.091 216.232C222.718 215.827 222.222 215.624 221.603 215.624C220.985 215.624 220.478 215.832 220.083 216.248C219.699 216.653 219.507 217.203 219.507 217.896V223H218.019V214.376ZM231.3 223.192C230.458 223.192 229.7 222.995 229.028 222.6C228.356 222.205 227.834 221.667 227.46 220.984C227.087 220.291 226.9 219.523 226.9 218.68C226.9 217.827 227.087 217.059 227.46 216.376C227.834 215.693 228.351 215.16 229.012 214.776C229.684 214.381 230.447 214.184 231.3 214.184C232.132 214.184 232.89 214.403 233.572 214.84C234.266 215.267 234.756 215.821 235.044 216.504L233.7 217.144C233.498 216.685 233.178 216.317 232.74 216.04C232.314 215.763 231.834 215.624 231.3 215.624C230.778 215.624 230.298 215.757 229.86 216.024C229.434 216.291 229.098 216.659 228.852 217.128C228.607 217.587 228.484 218.109 228.484 218.696C228.484 219.272 228.607 219.795 228.852 220.264C229.108 220.723 229.45 221.085 229.876 221.352C230.303 221.619 230.778 221.752 231.3 221.752C231.844 221.752 232.33 221.613 232.756 221.336C233.183 221.059 233.498 220.68 233.7 220.2L235.044 220.872C234.767 221.544 234.282 222.099 233.588 222.536C232.895 222.973 232.132 223.192 231.3 223.192ZM240.909 223.192C240.098 223.192 239.362 222.995 238.701 222.6C238.04 222.205 237.522 221.667 237.149 220.984C236.776 220.291 236.589 219.517 236.589 218.664C236.589 217.811 236.77 217.043 237.133 216.36C237.506 215.677 238.008 215.144 238.637 214.76C239.277 214.376 239.992 214.184 240.781 214.184C241.602 214.184 242.317 214.376 242.925 214.76C243.544 215.144 244.013 215.656 244.333 216.296C244.664 216.925 244.829 217.603 244.829 218.328C244.829 218.573 244.802 218.84 244.749 219.128H238.157C238.178 219.672 238.317 220.147 238.573 220.552C238.829 220.957 239.16 221.272 239.565 221.496C239.981 221.72 240.434 221.832 240.925 221.832C241.97 221.832 242.776 221.357 243.341 220.408L244.589 221.048C244.312 221.667 243.842 222.179 243.181 222.584C242.52 222.989 241.762 223.192 240.909 223.192ZM243.213 217.848C243.192 217.176 242.946 216.621 242.477 216.184C242.018 215.736 241.453 215.512 240.781 215.512C240.12 215.512 239.549 215.725 239.069 216.152C238.589 216.568 238.296 217.133 238.189 217.848H243.213ZM86.197 247.192C85.397 247.192 84.6717 246.995 84.021 246.6C83.3703 246.205 82.8583 245.667 82.485 244.984C82.1117 244.301 81.925 243.539 81.925 242.696C81.925 241.853 82.1117 241.091 82.485 240.408C82.8583 239.715 83.3703 239.171 84.021 238.776C84.6717 238.381 85.397 238.184 86.197 238.184C86.8263 238.184 87.3917 238.301 87.893 238.536C88.405 238.771 88.8317 239.101 89.173 239.528V234.888H90.677V247H89.221V245.736C88.901 246.195 88.4743 246.552 87.941 246.808C87.4183 247.064 86.837 247.192 86.197 247.192ZM83.493 242.696C83.493 243.272 83.6157 243.795 83.861 244.264C84.1063 244.723 84.4423 245.085 84.869 245.352C85.3063 245.619 85.7917 245.752 86.325 245.752C86.8583 245.752 87.3383 245.619 87.765 245.352C88.2023 245.085 88.5437 244.723 88.789 244.264C89.045 243.795 89.173 243.272 89.173 242.696C89.173 242.12 89.045 241.597 88.789 241.128C88.5437 240.659 88.2023 240.291 87.765 240.024C87.3383 239.757 86.8583 239.624 86.325 239.624C85.7917 239.624 85.3063 239.757 84.869 240.024C84.4423 240.291 84.1063 240.659 83.861 241.128C83.6157 241.597 83.493 242.12 83.493 242.696ZM96.9481 247.192C96.1375 247.192 95.4015 246.995 94.7401 246.6C94.0788 246.205 93.5615 245.667 93.1881 244.984C92.8148 244.291 92.6281 243.517 92.6281 242.664C92.6281 241.811 92.8095 241.043 93.1721 240.36C93.5455 239.677 94.0468 239.144 94.6761 238.76C95.3161 238.376 96.0308 238.184 96.8201 238.184C97.6415 238.184 98.3561 238.376 98.9641 238.76C99.5828 239.144 100.052 239.656 100.372 240.296C100.703 240.925 100.868 241.603 100.868 242.328C100.868 242.573 100.841 242.84 100.788 243.128H94.1961C94.2175 243.672 94.3561 244.147 94.6121 244.552C94.8681 244.957 95.1988 245.272 95.6041 245.496C96.0201 245.72 96.4735 245.832 96.9641 245.832C98.0095 245.832 98.8148 245.357 99.3801 244.408L100.628 245.048C100.351 245.667 99.8815 246.179 99.2201 246.584C98.5588 246.989 97.8015 247.192 96.9481 247.192ZM99.2521 241.848C99.2308 241.176 98.9855 240.621 98.5161 240.184C98.0575 239.736 97.4921 239.512 96.8201 239.512C96.1588 239.512 95.5881 239.725 95.1081 240.152C94.6281 240.568 94.3348 241.133 94.2281 241.848H99.2521ZM105.896 247.192C105.064 247.192 104.328 246.989 103.688 246.584C103.048 246.168 102.59 245.608 102.312 244.904L103.512 244.296C103.758 244.797 104.094 245.192 104.52 245.48C104.947 245.768 105.411 245.912 105.912 245.912C106.392 245.912 106.787 245.8 107.096 245.576C107.406 245.352 107.56 245.059 107.56 244.696C107.56 244.344 107.422 244.061 107.144 243.848C106.867 243.624 106.568 243.491 106.248 243.448L104.952 243.272C104.184 243.08 103.608 242.76 103.224 242.312C102.84 241.864 102.648 241.336 102.648 240.728C102.648 240.227 102.776 239.784 103.032 239.4C103.299 239.016 103.662 238.717 104.12 238.504C104.59 238.291 105.107 238.184 105.672 238.184C106.419 238.184 107.086 238.371 107.672 238.744C108.27 239.117 108.696 239.635 108.952 240.296L107.768 240.904C107.555 240.467 107.256 240.12 106.872 239.864C106.499 239.608 106.083 239.48 105.624 239.48C105.187 239.48 104.835 239.587 104.568 239.8C104.302 240.013 104.168 240.291 104.168 240.632C104.168 240.984 104.291 241.267 104.536 241.48C104.792 241.683 105.07 241.811 105.368 241.864L106.792 242.056C107.507 242.248 108.062 242.579 108.456 243.048C108.862 243.507 109.064 244.04 109.064 244.648C109.064 245.139 108.931 245.576 108.664 245.96C108.398 246.344 108.024 246.648 107.544 246.872C107.064 247.085 106.515 247.192 105.896 247.192ZM110.98 238.376H112.468V247H110.98V238.376ZM110.804 236.072C110.804 235.795 110.889 235.571 111.06 235.4C111.231 235.229 111.455 235.144 111.732 235.144C112.009 235.144 112.233 235.229 112.404 235.4C112.575 235.571 112.66 235.795 112.66 236.072C112.66 236.349 112.575 236.573 112.404 236.744C112.233 236.915 112.009 237 111.732 237C111.455 237 111.231 236.915 111.06 236.744C110.889 236.573 110.804 236.349 110.804 236.072ZM118.889 250.52C117.982 250.52 117.182 250.312 116.489 249.896C115.806 249.491 115.321 248.947 115.033 248.264L116.425 247.624C116.585 248.051 116.878 248.397 117.305 248.664C117.732 248.941 118.254 249.08 118.873 249.08C119.63 249.08 120.26 248.861 120.761 248.424C121.262 247.997 121.513 247.4 121.513 246.632V245.432C121.193 245.869 120.782 246.205 120.281 246.44C119.78 246.675 119.236 246.792 118.649 246.792C117.849 246.792 117.129 246.605 116.489 246.232C115.849 245.848 115.342 245.331 114.969 244.68C114.606 244.019 114.425 243.288 114.425 242.488C114.425 241.688 114.606 240.963 114.969 240.312C115.332 239.651 115.833 239.133 116.473 238.76C117.113 238.376 117.833 238.184 118.633 238.184C119.23 238.184 119.78 238.307 120.281 238.552C120.782 238.787 121.209 239.128 121.561 239.576V238.376H123.017V246.632C123.017 247.379 122.841 248.045 122.489 248.632C122.137 249.219 121.646 249.677 121.017 250.008C120.388 250.349 119.678 250.52 118.889 250.52ZM115.993 242.488C115.993 243.011 116.11 243.491 116.345 243.928C116.59 244.365 116.926 244.712 117.353 244.968C117.78 245.224 118.254 245.352 118.777 245.352C119.278 245.352 119.737 245.224 120.153 244.968C120.58 244.712 120.91 244.365 121.145 243.928C121.39 243.491 121.513 243.011 121.513 242.488C121.513 241.965 121.39 241.485 121.145 241.048C120.91 240.611 120.58 240.264 120.153 240.008C119.737 239.752 119.278 239.624 118.777 239.624C118.254 239.624 117.78 239.752 117.353 240.008C116.937 240.264 116.606 240.611 116.361 241.048C116.116 241.485 115.993 241.965 115.993 242.488ZM125.324 238.376H126.78V239.432C127.036 239.027 127.377 238.717 127.804 238.504C128.231 238.291 128.711 238.184 129.244 238.184C129.852 238.184 130.401 238.328 130.892 238.616C131.383 238.893 131.767 239.277 132.044 239.768C132.332 240.259 132.476 240.808 132.476 241.416V247H130.972V241.896C130.972 241.192 130.78 240.637 130.396 240.232C130.023 239.827 129.527 239.624 128.908 239.624C128.289 239.624 127.783 239.832 127.388 240.248C127.004 240.653 126.812 241.203 126.812 241.896V247H125.324V238.376ZM137.371 238.376H138.827V239.576C139.168 239.139 139.595 238.797 140.107 238.552C140.629 238.307 141.211 238.184 141.851 238.184C142.651 238.184 143.376 238.381 144.027 238.776C144.677 239.171 145.189 239.715 145.563 240.408C145.936 241.091 146.123 241.853 146.123 242.696C146.123 243.539 145.936 244.301 145.563 244.984C145.189 245.667 144.677 246.205 144.027 246.6C143.376 246.995 142.645 247.192 141.835 247.192C141.216 247.192 140.645 247.075 140.123 246.84C139.611 246.595 139.189 246.248 138.859 245.8V250.2H137.371V238.376ZM138.859 242.696C138.859 243.272 138.981 243.795 139.227 244.264C139.483 244.723 139.829 245.085 140.267 245.352C140.704 245.619 141.189 245.752 141.723 245.752C142.256 245.752 142.736 245.619 143.163 245.352C143.6 245.085 143.936 244.723 144.171 244.264C144.416 243.795 144.539 243.272 144.539 242.696C144.539 242.12 144.416 241.597 144.171 241.128C143.925 240.659 143.589 240.291 143.163 240.024C142.736 239.757 142.256 239.624 141.723 239.624C141.189 239.624 140.704 239.757 140.267 240.024C139.829 240.291 139.483 240.659 139.227 241.128C138.981 241.597 138.859 242.12 138.859 242.696ZM148.074 238.376H149.53V239.4C149.978 238.653 150.741 238.28 151.818 238.28H152.346V239.688H151.594C150.975 239.688 150.479 239.88 150.106 240.264C149.743 240.648 149.562 241.181 149.562 241.864V247H148.074V238.376ZM157.764 247.192C156.942 247.192 156.19 247 155.508 246.616C154.836 246.221 154.302 245.683 153.908 245C153.513 244.307 153.316 243.533 153.316 242.68C153.316 241.837 153.508 241.075 153.892 240.392C154.286 239.699 154.82 239.16 155.492 238.776C156.174 238.381 156.932 238.184 157.764 238.184C158.585 238.184 159.332 238.381 160.004 238.776C160.686 239.16 161.22 239.693 161.604 240.376C161.998 241.059 162.196 241.827 162.196 242.68C162.196 243.544 161.998 244.317 161.604 245C161.209 245.683 160.67 246.221 159.988 246.616C159.316 247 158.574 247.192 157.764 247.192ZM154.884 242.68C154.884 243.256 155.006 243.779 155.252 244.248C155.508 244.717 155.854 245.085 156.292 245.352C156.74 245.619 157.23 245.752 157.764 245.752C158.286 245.752 158.766 245.619 159.204 245.352C159.641 245.085 159.982 244.717 160.228 244.248C160.484 243.779 160.612 243.256 160.612 242.68C160.612 242.104 160.484 241.587 160.228 241.128C159.982 240.659 159.641 240.291 159.204 240.024C158.766 239.757 158.286 239.624 157.764 239.624C157.23 239.624 156.74 239.757 156.292 240.024C155.854 240.291 155.508 240.659 155.252 241.128C155.006 241.587 154.884 242.104 154.884 242.68ZM168.136 247.192C167.294 247.192 166.536 246.995 165.864 246.6C165.192 246.205 164.67 245.667 164.296 244.984C163.923 244.291 163.736 243.523 163.736 242.68C163.736 241.827 163.923 241.059 164.296 240.376C164.67 239.693 165.187 239.16 165.848 238.776C166.52 238.381 167.283 238.184 168.136 238.184C168.968 238.184 169.726 238.403 170.408 238.84C171.102 239.267 171.592 239.821 171.88 240.504L170.536 241.144C170.334 240.685 170.014 240.317 169.576 240.04C169.15 239.763 168.67 239.624 168.136 239.624C167.614 239.624 167.134 239.757 166.696 240.024C166.27 240.291 165.934 240.659 165.688 241.128C165.443 241.587 165.32 242.109 165.32 242.696C165.32 243.272 165.443 243.795 165.688 244.264C165.944 244.723 166.286 245.085 166.712 245.352C167.139 245.619 167.614 245.752 168.136 245.752C168.68 245.752 169.166 245.613 169.592 245.336C170.019 245.059 170.334 244.68 170.536 244.2L171.88 244.872C171.603 245.544 171.118 246.099 170.424 246.536C169.731 246.973 168.968 247.192 168.136 247.192ZM177.745 247.192C176.934 247.192 176.198 246.995 175.537 246.6C174.876 246.205 174.358 245.667 173.985 244.984C173.612 244.291 173.425 243.517 173.425 242.664C173.425 241.811 173.606 241.043 173.969 240.36C174.342 239.677 174.844 239.144 175.473 238.76C176.113 238.376 176.828 238.184 177.617 238.184C178.438 238.184 179.153 238.376 179.761 238.76C180.38 239.144 180.849 239.656 181.169 240.296C181.5 240.925 181.665 241.603 181.665 242.328C181.665 242.573 181.638 242.84 181.585 243.128H174.993C175.014 243.672 175.153 244.147 175.409 244.552C175.665 244.957 175.996 245.272 176.401 245.496C176.817 245.72 177.27 245.832 177.761 245.832C178.806 245.832 179.612 245.357 180.177 244.408L181.425 245.048C181.148 245.667 180.678 246.179 180.017 246.584C179.356 246.989 178.598 247.192 177.745 247.192ZM180.049 241.848C180.028 241.176 179.782 240.621 179.313 240.184C178.854 239.736 178.289 239.512 177.617 239.512C176.956 239.512 176.385 239.725 175.905 240.152C175.425 240.568 175.132 241.133 175.025 241.848H180.049ZM186.693 247.192C185.861 247.192 185.125 246.989 184.485 246.584C183.845 246.168 183.386 245.608 183.109 244.904L184.309 244.296C184.554 244.797 184.89 245.192 185.317 245.48C185.744 245.768 186.208 245.912 186.709 245.912C187.189 245.912 187.584 245.8 187.893 245.576C188.202 245.352 188.357 245.059 188.357 244.696C188.357 244.344 188.218 244.061 187.941 243.848C187.664 243.624 187.365 243.491 187.045 243.448L185.749 243.272C184.981 243.08 184.405 242.76 184.021 242.312C183.637 241.864 183.445 241.336 183.445 240.728C183.445 240.227 183.573 239.784 183.829 239.4C184.096 239.016 184.458 238.717 184.917 238.504C185.386 238.291 185.904 238.184 186.469 238.184C187.216 238.184 187.882 238.371 188.469 238.744C189.066 239.117 189.493 239.635 189.749 240.296L188.565 240.904C188.352 240.467 188.053 240.12 187.669 239.864C187.296 239.608 186.88 239.48 186.421 239.48C185.984 239.48 185.632 239.587 185.365 239.8C185.098 240.013 184.965 240.291 184.965 240.632C184.965 240.984 185.088 241.267 185.333 241.48C185.589 241.683 185.866 241.811 186.165 241.864L187.589 242.056C188.304 242.248 188.858 242.579 189.253 243.048C189.658 243.507 189.861 244.04 189.861 244.648C189.861 245.139 189.728 245.576 189.461 245.96C189.194 246.344 188.821 246.648 188.341 246.872C187.861 247.085 187.312 247.192 186.693 247.192ZM194.865 247.192C194.033 247.192 193.297 246.989 192.657 246.584C192.017 246.168 191.558 245.608 191.281 244.904L192.481 244.296C192.726 244.797 193.062 245.192 193.489 245.48C193.916 245.768 194.38 245.912 194.881 245.912C195.361 245.912 195.756 245.8 196.065 245.576C196.374 245.352 196.529 245.059 196.529 244.696C196.529 244.344 196.39 244.061 196.113 243.848C195.836 243.624 195.537 243.491 195.217 243.448L193.921 243.272C193.153 243.08 192.577 242.76 192.193 242.312C191.809 241.864 191.617 241.336 191.617 240.728C191.617 240.227 191.745 239.784 192.001 239.4C192.268 239.016 192.63 238.717 193.089 238.504C193.558 238.291 194.076 238.184 194.641 238.184C195.388 238.184 196.054 238.371 196.641 238.744C197.238 239.117 197.665 239.635 197.921 240.296L196.737 240.904C196.524 240.467 196.225 240.12 195.841 239.864C195.468 239.608 195.052 239.48 194.593 239.48C194.156 239.48 193.804 239.587 193.537 239.8C193.27 240.013 193.137 240.291 193.137 240.632C193.137 240.984 193.26 241.267 193.505 241.48C193.761 241.683 194.038 241.811 194.337 241.864L195.761 242.056C196.476 242.248 197.03 242.579 197.425 243.048C197.83 243.507 198.033 244.04 198.033 244.648C198.033 245.139 197.9 245.576 197.633 245.96C197.366 246.344 196.993 246.648 196.513 246.872C196.033 247.085 195.484 247.192 194.865 247.192ZM201.341 247C201.085 247 200.866 246.915 200.685 246.744C200.514 246.563 200.429 246.339 200.429 246.072C200.429 245.805 200.514 245.587 200.685 245.416C200.866 245.235 201.085 245.144 201.341 245.144C201.597 245.144 201.81 245.235 201.981 245.416C202.152 245.587 202.237 245.805 202.237 246.072C202.237 246.339 202.152 246.563 201.981 246.744C201.821 246.915 201.608 247 201.341 247Z" fill="white"/>
</svg>
