<svg width="285" height="280" viewBox="0 0 285 280" fill="none" xmlns="http://www.w3.org/2000/svg">
<path d="M0 24C0 10.7452 10.7452 0 24 0H261C274.255 0 285 10.7452 285 24V256C285 269.255 274.255 280 261 280H24C10.7452 280 0 269.255 0 256V24Z" fill="#5D71DE"/>
<path fill-rule="evenodd" clip-rule="evenodd" d="M133.308 53.8784C133.572 54.6636 133.15 55.5142 132.365 55.7782C129.822 56.6333 128.471 58.7677 127.748 60.9382C127.461 61.8001 127.288 62.6298 127.183 63.3159C127.869 63.2117 128.699 63.0383 129.561 62.7513C131.732 62.0285 133.866 60.6772 134.721 58.1346C134.985 57.3494 135.836 56.9269 136.621 57.191C137.406 57.455 137.829 58.3056 137.565 59.0909C136.282 62.9045 133.11 64.7314 130.509 65.5976C129.195 66.0352 127.965 66.2513 127.067 66.359C126.615 66.4131 126.242 66.4406 125.977 66.4545C125.845 66.4615 125.739 66.4651 125.663 66.467C125.625 66.4679 125.595 66.4684 125.573 66.4687L125.545 66.4689L125.536 66.469L125.533 66.469C125.532 66.469 125.53 66.469 125.53 64.969C124.03 64.969 124.03 64.9684 124.03 64.9678L124.03 64.963L124.03 64.9539L124.031 64.9265C124.031 64.9043 124.031 64.874 124.032 64.8361C124.034 64.7605 124.038 64.6545 124.045 64.5218C124.059 64.2569 124.086 63.8839 124.14 63.4327C124.248 62.5348 124.464 61.3045 124.902 59.9904C125.768 57.389 127.595 54.2172 131.408 52.9347C132.194 52.6707 133.044 53.0932 133.308 53.8784ZM125.53 64.969L124.03 64.9678C124.03 65.7962 124.702 66.469 125.53 66.469V64.969Z" fill="white"/>
<path fill-rule="evenodd" clip-rule="evenodd" d="M158.21 32.2894C156.469 32.0383 152.183 31.9437 147.797 36.3297L136.126 48.0003L142.499 54.3727L154.169 42.7021C158.556 38.3161 158.461 34.0304 158.21 32.2894ZM158.645 29.3211C156.25 28.9744 150.913 28.9714 145.676 34.2084L132.944 46.9396C132.663 47.2209 132.505 47.6024 132.505 48.0003C132.505 48.3981 132.663 48.7796 132.944 49.0609L141.438 57.5547C142.024 58.1405 142.974 58.1405 143.56 57.5547L156.291 44.8234C161.528 39.5864 161.525 34.2489 161.178 31.8544C161.09 31.2135 160.795 30.6189 160.338 30.1614C159.88 29.7039 159.286 29.4088 158.645 29.3211Z" fill="white"/>
<path fill-rule="evenodd" clip-rule="evenodd" d="M153.112 44.3816C153.94 44.3816 154.612 45.0532 154.612 45.8816V57.9941L154.612 58.0155C154.6 58.8033 154.28 59.555 153.719 60.1083L147.666 66.1804C147.281 66.5642 146.8 66.8365 146.273 66.9682C145.746 67.1 145.193 67.0862 144.674 66.9284C144.154 66.7705 143.687 66.4746 143.322 66.072C142.958 65.6698 142.709 65.1763 142.603 64.6441C142.603 64.6437 142.603 64.6445 142.603 64.6441L141.029 56.7889C140.866 55.9767 141.392 55.1862 142.204 55.0234C143.017 54.8605 143.807 55.387 143.97 56.1992L145.546 64.0578L151.612 57.9727V45.8816C151.612 45.0532 152.283 44.3816 153.112 44.3816Z" fill="white"/>
<path fill-rule="evenodd" clip-rule="evenodd" d="M132.484 35.888L132.505 35.8879H144.618C145.446 35.8879 146.118 36.5595 146.118 37.3879C146.118 38.2163 145.446 38.8879 144.618 38.8879H132.526L132.514 38.9002L126.441 44.9542L126.444 44.9546L134.3 46.5296C135.112 46.6925 135.639 47.483 135.476 48.2952C135.313 49.1075 134.523 49.634 133.71 49.4711L125.856 47.8966C125.856 47.8965 125.857 47.8967 125.856 47.8966C125.324 47.7905 124.829 47.5418 124.427 47.1774C124.025 46.8128 123.729 46.3457 123.571 45.826C123.413 45.3063 123.399 44.7535 123.531 44.2266C123.663 43.6996 123.935 43.2184 124.319 42.8341L124.321 42.8318L130.391 36.7807C130.944 36.22 131.696 35.8993 132.484 35.888Z" fill="white"/>
<path d="M49.231 118.24C47.831 118.24 46.5643 117.907 45.431 117.24C44.2977 116.573 43.4043 115.653 42.751 114.48C42.111 113.307 41.791 111.993 41.791 110.54C41.791 109.087 42.111 107.773 42.751 106.6C43.4043 105.427 44.291 104.513 45.411 103.86C46.5443 103.193 47.8177 102.86 49.231 102.86C50.2577 102.86 51.1977 103.04 52.051 103.4C52.9043 103.747 53.6243 104.22 54.211 104.82C54.811 105.407 55.2443 106.06 55.511 106.78L53.071 107.92C52.7777 107.147 52.291 106.527 51.611 106.06C50.931 105.58 50.1377 105.34 49.231 105.34C48.311 105.34 47.491 105.56 46.771 106C46.051 106.427 45.491 107.033 45.091 107.82C44.7043 108.607 44.511 109.513 44.511 110.54C44.511 111.567 44.7043 112.48 45.091 113.28C45.491 114.067 46.051 114.68 46.771 115.12C47.491 115.547 48.311 115.76 49.231 115.76C50.1377 115.76 50.931 115.527 51.611 115.06C52.291 114.58 52.7777 113.953 53.071 113.18L55.511 114.32C55.2443 115.04 54.811 115.7 54.211 116.3C53.6243 116.887 52.9043 117.36 52.051 117.72C51.1977 118.067 50.2577 118.24 49.231 118.24ZM62.624 118.24C61.5707 118.24 60.604 117.993 59.724 117.5C58.844 117.007 58.144 116.327 57.624 115.46C57.1173 114.593 56.864 113.627 56.864 112.56C56.864 111.493 57.1173 110.527 57.624 109.66C58.1307 108.793 58.824 108.113 59.704 107.62C60.584 107.127 61.5573 106.88 62.624 106.88C63.6773 106.88 64.6373 107.127 65.504 107.62C66.384 108.113 67.0773 108.793 67.584 109.66C68.104 110.527 68.364 111.493 68.364 112.56C68.364 113.64 68.104 114.613 67.584 115.48C67.0773 116.347 66.384 117.027 65.504 117.52C64.624 118 63.664 118.24 62.624 118.24ZM59.584 112.56C59.584 113.507 59.864 114.293 60.424 114.92C60.9973 115.533 61.7307 115.84 62.624 115.84C63.1973 115.84 63.7107 115.7 64.164 115.42C64.6173 115.14 64.9707 114.753 65.224 114.26C65.4907 113.753 65.624 113.187 65.624 112.56C65.624 111.947 65.4907 111.393 65.224 110.9C64.9707 110.393 64.6173 110 64.164 109.72C63.7107 109.427 63.1973 109.28 62.624 109.28C62.0373 109.28 61.5107 109.427 61.044 109.72C60.5907 110 60.2307 110.387 59.964 110.88C59.7107 111.373 59.584 111.933 59.584 112.56ZM70.3509 107.12H72.8109V108.46C73.0909 107.953 73.4975 107.567 74.0309 107.3C74.5775 107.02 75.1975 106.88 75.8909 106.88C76.6775 106.88 77.3842 107.053 78.0109 107.4C78.6375 107.747 79.1242 108.233 79.4709 108.86C79.8175 109.487 79.9909 110.2 79.9909 111V118H77.3709V111.62C77.3709 110.913 77.1642 110.347 76.7509 109.92C76.3509 109.493 75.8242 109.28 75.1709 109.28C74.5175 109.28 73.9842 109.493 73.5709 109.92C73.1709 110.347 72.9709 110.913 72.9709 111.62V118H70.3509V107.12ZM87.1663 118.12C85.9397 118.12 84.9863 117.787 84.3063 117.12C83.6397 116.44 83.3063 115.487 83.3063 114.26V109.46H81.4263V107.12H81.6263C82.1597 107.12 82.573 106.98 82.8663 106.7C83.1597 106.42 83.3063 106.013 83.3063 105.48V104.64H85.9263V107.12H88.4263V109.46H85.9263V114.12C85.9263 115.253 86.5397 115.82 87.7663 115.82C87.9797 115.82 88.213 115.8 88.4663 115.76V118.02C88.0397 118.087 87.6063 118.12 87.1663 118.12ZM90.468 107.12H93.088V118H90.468V107.12ZM90.268 104.12C90.268 103.64 90.4014 103.267 90.668 103C90.9347 102.733 91.3014 102.6 91.768 102.6C92.248 102.6 92.6214 102.733 92.888 103C93.1547 103.267 93.288 103.64 93.288 104.12C93.288 104.587 93.1547 104.953 92.888 105.22C92.6347 105.487 92.2614 105.62 91.768 105.62C91.3014 105.62 90.9347 105.487 90.668 105.22C90.4014 104.953 90.268 104.587 90.268 104.12ZM95.5071 107.12H97.9671V108.46C98.2471 107.953 98.6538 107.567 99.1871 107.3C99.7338 107.02 100.354 106.88 101.047 106.88C101.834 106.88 102.54 107.053 103.167 107.4C103.794 107.747 104.28 108.233 104.627 108.86C104.974 109.487 105.147 110.2 105.147 111V118H102.527V111.62C102.527 110.913 102.32 110.347 101.907 109.92C101.507 109.493 100.98 109.28 100.327 109.28C99.6738 109.28 99.1404 109.493 98.7271 109.92C98.3271 110.347 98.1271 110.913 98.1271 111.62V118H95.5071V107.12ZM111.243 118.24C109.976 118.24 108.976 117.833 108.243 117.02C107.509 116.207 107.143 115.127 107.143 113.78V107.12H109.763V113.56C109.763 114.24 109.963 114.793 110.363 115.22C110.776 115.633 111.309 115.84 111.963 115.84C112.616 115.84 113.143 115.627 113.543 115.2C113.956 114.773 114.163 114.207 114.163 113.5V107.12H116.783V118H114.303V116.7C114.009 117.207 113.596 117.593 113.063 117.86C112.543 118.113 111.936 118.24 111.243 118.24ZM124.538 118.24C123.485 118.24 122.518 117.993 121.638 117.5C120.758 117.007 120.058 116.327 119.538 115.46C119.031 114.593 118.778 113.627 118.778 112.56C118.778 111.493 119.031 110.527 119.538 109.66C120.045 108.793 120.738 108.113 121.618 107.62C122.498 107.127 123.471 106.88 124.538 106.88C125.591 106.88 126.551 107.127 127.418 107.62C128.298 108.113 128.991 108.793 129.498 109.66C130.018 110.527 130.278 111.493 130.278 112.56C130.278 113.64 130.018 114.613 129.498 115.48C128.991 116.347 128.298 117.027 127.418 117.52C126.538 118 125.578 118.24 124.538 118.24ZM121.498 112.56C121.498 113.507 121.778 114.293 122.338 114.92C122.911 115.533 123.645 115.84 124.538 115.84C125.111 115.84 125.625 115.7 126.078 115.42C126.531 115.14 126.885 114.753 127.138 114.26C127.405 113.753 127.538 113.187 127.538 112.56C127.538 111.947 127.405 111.393 127.138 110.9C126.885 110.393 126.531 110 126.078 109.72C125.625 109.427 125.111 109.28 124.538 109.28C123.951 109.28 123.425 109.427 122.958 109.72C122.505 110 122.145 110.387 121.878 110.88C121.625 111.373 121.498 111.933 121.498 112.56ZM136.145 118.24C134.878 118.24 133.878 117.833 133.145 117.02C132.412 116.207 132.045 115.127 132.045 113.78V107.12H134.665V113.56C134.665 114.24 134.865 114.793 135.265 115.22C135.678 115.633 136.212 115.84 136.865 115.84C137.518 115.84 138.045 115.627 138.445 115.2C138.858 114.773 139.065 114.207 139.065 113.5V107.12H141.685V118H139.205V116.7C138.912 117.207 138.498 117.593 137.965 117.86C137.445 118.113 136.838 118.24 136.145 118.24ZM148.2 118.22C147.107 118.22 146.14 117.96 145.3 117.44C144.474 116.92 143.887 116.207 143.54 115.3L145.48 114.3C145.774 114.887 146.16 115.347 146.64 115.68C147.134 116 147.674 116.16 148.26 116.16C148.767 116.16 149.16 116.06 149.44 115.86C149.734 115.647 149.88 115.36 149.88 115C149.88 114.693 149.76 114.44 149.52 114.24C149.28 114.027 148.967 113.887 148.58 113.82L146.8 113.52C145.88 113.28 145.167 112.873 144.66 112.3C144.167 111.713 143.92 111.027 143.92 110.24C143.92 109.587 144.094 109.007 144.44 108.5C144.787 107.98 145.267 107.58 145.88 107.3C146.507 107.02 147.214 106.88 148 106.88C149 106.88 149.88 107.12 150.64 107.6C151.4 108.067 151.954 108.72 152.3 109.56L150.36 110.56C150.147 110.093 149.82 109.72 149.38 109.44C148.94 109.16 148.454 109.02 147.92 109.02C147.48 109.02 147.127 109.12 146.86 109.32C146.607 109.52 146.48 109.78 146.48 110.1C146.48 110.687 146.92 111.08 147.8 111.28L149.54 111.6C150.46 111.853 151.174 112.267 151.68 112.84C152.187 113.413 152.44 114.093 152.44 114.88C152.44 115.533 152.26 116.113 151.9 116.62C151.554 117.127 151.06 117.52 150.42 117.8C149.78 118.08 149.04 118.22 148.2 118.22ZM158.169 103.1H160.889V115.6H167.269V118H158.169V103.1ZM173.968 118.24C172.875 118.24 171.901 117.987 171.048 117.48C170.208 116.973 169.548 116.287 169.068 115.42C168.601 114.553 168.368 113.593 168.368 112.54C168.368 111.473 168.601 110.513 169.068 109.66C169.548 108.793 170.195 108.113 171.008 107.62C171.835 107.127 172.755 106.88 173.768 106.88C174.861 106.88 175.808 107.12 176.608 107.6C177.408 108.067 178.015 108.707 178.428 109.52C178.855 110.333 179.068 111.227 179.068 112.2C179.068 112.653 179.021 113.02 178.928 113.3H171.088C171.168 114.1 171.475 114.74 172.008 115.22C172.541 115.7 173.201 115.94 173.988 115.94C174.575 115.94 175.075 115.82 175.488 115.58C175.915 115.327 176.255 114.98 176.508 114.54L178.628 115.58C178.295 116.38 177.708 117.027 176.868 117.52C176.028 118 175.061 118.24 173.968 118.24ZM176.268 111.3C176.201 110.633 175.941 110.093 175.488 109.68C175.035 109.253 174.461 109.04 173.768 109.04C173.101 109.04 172.535 109.24 172.068 109.64C171.601 110.027 171.295 110.58 171.148 111.3H176.268ZM184.295 118.24C183.149 118.24 182.235 117.96 181.555 117.4C180.889 116.84 180.555 116.08 180.555 115.12C180.555 114.2 180.869 113.44 181.495 112.84C182.122 112.24 183.062 111.84 184.315 111.64L187.555 111.12V110.76C187.555 110.28 187.369 109.887 186.995 109.58C186.635 109.273 186.155 109.12 185.555 109.12C184.995 109.12 184.495 109.273 184.055 109.58C183.629 109.873 183.315 110.267 183.115 110.76L180.975 109.72C181.295 108.867 181.882 108.18 182.735 107.66C183.589 107.14 184.562 106.88 185.655 106.88C186.535 106.88 187.315 107.047 187.995 107.38C188.689 107.7 189.222 108.16 189.595 108.76C189.982 109.347 190.175 110.013 190.175 110.76V118H187.695V116.84C186.842 117.773 185.709 118.24 184.295 118.24ZM183.275 115.02C183.275 115.393 183.415 115.693 183.695 115.92C183.975 116.133 184.335 116.24 184.775 116.24C185.589 116.24 186.255 115.987 186.775 115.48C187.295 114.96 187.555 114.32 187.555 113.56V113.12L184.815 113.58C184.295 113.687 183.909 113.86 183.655 114.1C183.402 114.327 183.275 114.633 183.275 115.02ZM192.597 107.12H195.057V108.64C195.324 108.053 195.704 107.633 196.197 107.38C196.69 107.127 197.29 107 197.997 107H198.637V109.32H197.697C196.95 109.32 196.35 109.553 195.897 110.02C195.444 110.487 195.217 111.127 195.217 111.94V118H192.597V107.12ZM200.077 107.12H202.537V108.46C202.817 107.953 203.224 107.567 203.757 107.3C204.304 107.02 204.924 106.88 205.617 106.88C206.404 106.88 207.111 107.053 207.737 107.4C208.364 107.747 208.851 108.233 209.197 108.86C209.544 109.487 209.717 110.2 209.717 111V118H207.097V111.62C207.097 110.913 206.891 110.347 206.477 109.92C206.077 109.493 205.551 109.28 204.897 109.28C204.244 109.28 203.711 109.493 203.297 109.92C202.897 110.347 202.697 110.913 202.697 111.62V118H200.077V107.12ZM211.933 107.12H214.553V118H211.933V107.12ZM211.733 104.12C211.733 103.64 211.866 103.267 212.133 103C212.4 102.733 212.766 102.6 213.233 102.6C213.713 102.6 214.086 102.733 214.353 103C214.62 103.267 214.753 103.64 214.753 104.12C214.753 104.587 214.62 104.953 214.353 105.22C214.1 105.487 213.726 105.62 213.233 105.62C212.766 105.62 212.4 105.487 212.133 105.22C211.866 104.953 211.733 104.587 211.733 104.12ZM216.972 107.12H219.432V108.46C219.712 107.953 220.119 107.567 220.652 107.3C221.199 107.02 221.819 106.88 222.512 106.88C223.299 106.88 224.005 107.053 224.632 107.4C225.259 107.747 225.745 108.233 226.092 108.86C226.439 109.487 226.612 110.2 226.612 111V118H223.992V111.62C223.992 110.913 223.785 110.347 223.372 109.92C222.972 109.493 222.445 109.28 221.792 109.28C221.139 109.28 220.605 109.493 220.192 109.92C219.792 110.347 219.592 110.913 219.592 111.62V118H216.972V107.12ZM234.107 122.4C232.881 122.4 231.801 122.107 230.867 121.52C229.947 120.947 229.314 120.18 228.967 119.22L231.407 118.3C231.567 118.82 231.887 119.233 232.367 119.54C232.847 119.847 233.427 120 234.107 120C234.907 120 235.554 119.773 236.047 119.32C236.554 118.867 236.807 118.247 236.807 117.46V116.28C236.034 117.133 234.987 117.56 233.667 117.56C232.667 117.56 231.761 117.327 230.947 116.86C230.147 116.393 229.521 115.753 229.067 114.94C228.614 114.127 228.387 113.213 228.387 112.2C228.387 111.187 228.607 110.28 229.047 109.48C229.501 108.667 230.127 108.033 230.927 107.58C231.727 107.113 232.621 106.88 233.607 106.88C235.007 106.88 236.121 107.373 236.947 108.36V107.12H239.427V117.46C239.427 118.407 239.201 119.253 238.747 120C238.294 120.76 237.661 121.347 236.847 121.76C236.047 122.187 235.134 122.4 234.107 122.4ZM231.107 112.22C231.107 113.06 231.374 113.76 231.907 114.32C232.454 114.867 233.147 115.14 233.987 115.14C234.814 115.14 235.487 114.867 236.007 114.32C236.541 113.773 236.807 113.073 236.807 112.22C236.807 111.367 236.541 110.667 236.007 110.12C235.474 109.56 234.801 109.28 233.987 109.28C233.161 109.28 232.474 109.56 231.927 110.12C231.381 110.68 231.107 111.38 231.107 112.22ZM72.9276 146.24C72.0209 146.24 71.2142 146.073 70.5076 145.74C69.8009 145.407 69.2542 144.933 68.8676 144.32C68.4809 143.707 68.2876 143 68.2876 142.2C68.2876 140.48 69.1942 139.087 71.0076 138.02C70.5809 137.5 70.2409 136.973 69.9876 136.44C69.7476 135.907 69.6276 135.327 69.6276 134.7C69.6276 133.94 69.8076 133.273 70.1676 132.7C70.5409 132.113 71.0276 131.66 71.6276 131.34C72.2409 131.02 72.9076 130.86 73.6276 130.86C74.3476 130.86 75.0076 131.02 75.6076 131.34C76.2209 131.66 76.7009 132.107 77.0476 132.68C77.3942 133.24 77.5676 133.873 77.5676 134.58C77.5676 135.5 77.2942 136.267 76.7476 136.88C76.2142 137.48 75.5342 138.027 74.7076 138.52L76.7276 140.78L78.1676 138.7H80.9076L78.3876 142.62L81.4076 146H78.2676L76.9476 144.56C75.8542 145.68 74.5142 146.24 72.9276 146.24ZM71.0476 142.16C71.0476 142.733 71.2209 143.187 71.5676 143.52C71.9276 143.84 72.4142 144 73.0276 144C73.9076 144 74.6742 143.593 75.3276 142.78L72.5876 139.78C71.5609 140.447 71.0476 141.24 71.0476 142.16ZM72.1076 134.58C72.1076 135.273 72.4742 136.027 73.2076 136.84C73.8342 136.507 74.3142 136.167 74.6476 135.82C74.9942 135.46 75.1676 135.04 75.1676 134.56C75.1676 134.12 75.0209 133.753 74.7276 133.46C74.4476 133.153 74.0876 133 73.6476 133C73.2076 133 72.8409 133.153 72.5476 133.46C72.2542 133.753 72.1076 134.127 72.1076 134.58ZM87.6216 131.1H90.3416V146H87.6216V131.1ZM92.9876 135.12H95.4476V136.48C95.7276 135.96 96.1276 135.567 96.6476 135.3C97.1809 135.02 97.7942 134.88 98.4876 134.88C99.2076 134.88 99.8676 135.04 100.468 135.36C101.068 135.667 101.528 136.093 101.848 136.64C102.208 136.053 102.674 135.613 103.248 135.32C103.834 135.027 104.494 134.88 105.228 134.88C105.988 134.88 106.674 135.053 107.288 135.4C107.901 135.747 108.381 136.233 108.728 136.86C109.074 137.487 109.248 138.2 109.248 139V146H106.628V139.62C106.628 138.9 106.434 138.333 106.048 137.92C105.674 137.493 105.168 137.28 104.528 137.28C103.901 137.28 103.394 137.493 103.008 137.92C102.621 138.347 102.428 138.913 102.428 139.62V146H99.8076V139.62C99.8076 138.9 99.6142 138.333 99.2276 137.92C98.8542 137.493 98.3476 137.28 97.7076 137.28C97.0809 137.28 96.5742 137.493 96.1876 137.92C95.8009 138.347 95.6076 138.913 95.6076 139.62V146H92.9876V135.12ZM111.464 135.12H113.924V136.4C114.324 135.92 114.817 135.547 115.404 135.28C116.004 135.013 116.677 134.88 117.424 134.88C118.437 134.88 119.364 135.133 120.204 135.64C121.044 136.133 121.704 136.813 122.184 137.68C122.664 138.547 122.904 139.507 122.904 140.56C122.904 141.613 122.664 142.573 122.184 143.44C121.704 144.307 121.044 144.993 120.204 145.5C119.377 145.993 118.444 146.24 117.404 146.24C116.737 146.24 116.117 146.133 115.544 145.92C114.971 145.693 114.484 145.373 114.084 144.96V150H111.464V135.12ZM114.084 140.56C114.084 141.187 114.211 141.753 114.464 142.26C114.731 142.753 115.091 143.14 115.544 143.42C116.011 143.7 116.531 143.84 117.104 143.84C117.997 143.84 118.731 143.533 119.304 142.92C119.891 142.293 120.184 141.507 120.184 140.56C120.184 139.947 120.051 139.393 119.784 138.9C119.517 138.393 119.151 138 118.684 137.72C118.217 137.427 117.691 137.28 117.104 137.28C116.531 137.28 116.011 137.42 115.544 137.7C115.091 137.98 114.731 138.373 114.464 138.88C114.211 139.373 114.084 139.933 114.084 140.56ZM124.902 135.12H127.362V136.64C127.628 136.053 128.008 135.633 128.502 135.38C128.995 135.127 129.595 135 130.302 135H130.942V137.32H130.002C129.255 137.32 128.655 137.553 128.202 138.02C127.748 138.487 127.522 139.127 127.522 139.94V146H124.902V135.12ZM137.702 146.24C136.649 146.24 135.682 145.993 134.802 145.5C133.922 145.007 133.222 144.327 132.702 143.46C132.195 142.593 131.942 141.627 131.942 140.56C131.942 139.493 132.195 138.527 132.702 137.66C133.209 136.793 133.902 136.113 134.782 135.62C135.662 135.127 136.635 134.88 137.702 134.88C138.755 134.88 139.715 135.127 140.582 135.62C141.462 136.113 142.155 136.793 142.662 137.66C143.182 138.527 143.442 139.493 143.442 140.56C143.442 141.64 143.182 142.613 142.662 143.48C142.155 144.347 141.462 145.027 140.582 145.52C139.702 146 138.742 146.24 137.702 146.24ZM134.662 140.56C134.662 141.507 134.942 142.293 135.502 142.92C136.075 143.533 136.809 143.84 137.702 143.84C138.275 143.84 138.789 143.7 139.242 143.42C139.695 143.14 140.049 142.753 140.302 142.26C140.569 141.753 140.702 141.187 140.702 140.56C140.702 139.947 140.569 139.393 140.302 138.9C140.049 138.393 139.695 138 139.242 137.72C138.789 137.427 138.275 137.28 137.702 137.28C137.115 137.28 136.589 137.427 136.122 137.72C135.669 138 135.309 138.387 135.042 138.88C134.789 139.373 134.662 139.933 134.662 140.56ZM144.234 135.12H147.094L149.674 142.22L152.254 135.12H155.114L150.834 146H148.514L144.234 135.12ZM161.526 146.24C160.433 146.24 159.46 145.987 158.606 145.48C157.766 144.973 157.106 144.287 156.626 143.42C156.16 142.553 155.926 141.593 155.926 140.54C155.926 139.473 156.16 138.513 156.626 137.66C157.106 136.793 157.753 136.113 158.566 135.62C159.393 135.127 160.313 134.88 161.326 134.88C162.42 134.88 163.366 135.12 164.166 135.6C164.966 136.067 165.573 136.707 165.986 137.52C166.413 138.333 166.626 139.227 166.626 140.2C166.626 140.653 166.58 141.02 166.486 141.3H158.646C158.726 142.1 159.033 142.74 159.566 143.22C160.1 143.7 160.76 143.94 161.546 143.94C162.133 143.94 162.633 143.82 163.046 143.58C163.473 143.327 163.813 142.98 164.066 142.54L166.186 143.58C165.853 144.38 165.266 145.027 164.426 145.52C163.586 146 162.62 146.24 161.526 146.24ZM163.826 139.3C163.76 138.633 163.5 138.093 163.046 137.68C162.593 137.253 162.02 137.04 161.326 137.04C160.66 137.04 160.093 137.24 159.626 137.64C159.16 138.027 158.853 138.58 158.706 139.3H163.826ZM168.613 135.12H171.073V136.48C171.353 135.96 171.753 135.567 172.273 135.3C172.806 135.02 173.419 134.88 174.113 134.88C174.833 134.88 175.493 135.04 176.093 135.36C176.693 135.667 177.153 136.093 177.473 136.64C177.833 136.053 178.299 135.613 178.873 135.32C179.459 135.027 180.119 134.88 180.853 134.88C181.613 134.88 182.299 135.053 182.913 135.4C183.526 135.747 184.006 136.233 184.353 136.86C184.699 137.487 184.873 138.2 184.873 139V146H182.253V139.62C182.253 138.9 182.059 138.333 181.673 137.92C181.299 137.493 180.793 137.28 180.153 137.28C179.526 137.28 179.019 137.493 178.633 137.92C178.246 138.347 178.053 138.913 178.053 139.62V146H175.433V139.62C175.433 138.9 175.239 138.333 174.853 137.92C174.479 137.493 173.973 137.28 173.333 137.28C172.706 137.28 172.199 137.493 171.813 137.92C171.426 138.347 171.233 138.913 171.233 139.62V146H168.613V135.12ZM192.249 146.24C191.156 146.24 190.182 145.987 189.329 145.48C188.489 144.973 187.829 144.287 187.349 143.42C186.882 142.553 186.649 141.593 186.649 140.54C186.649 139.473 186.882 138.513 187.349 137.66C187.829 136.793 188.476 136.113 189.289 135.62C190.116 135.127 191.036 134.88 192.049 134.88C193.142 134.88 194.089 135.12 194.889 135.6C195.689 136.067 196.296 136.707 196.709 137.52C197.136 138.333 197.349 139.227 197.349 140.2C197.349 140.653 197.302 141.02 197.209 141.3H189.369C189.449 142.1 189.756 142.74 190.289 143.22C190.822 143.7 191.482 143.94 192.269 143.94C192.856 143.94 193.356 143.82 193.769 143.58C194.196 143.327 194.536 142.98 194.789 142.54L196.909 143.58C196.576 144.38 195.989 145.027 195.149 145.52C194.309 146 193.342 146.24 192.249 146.24ZM194.549 139.3C194.482 138.633 194.222 138.093 193.769 137.68C193.316 137.253 192.742 137.04 192.049 137.04C191.382 137.04 190.816 137.24 190.349 137.64C189.882 138.027 189.576 138.58 189.429 139.3H194.549ZM199.335 135.12H201.795V136.46C202.075 135.953 202.482 135.567 203.015 135.3C203.562 135.02 204.182 134.88 204.875 134.88C205.662 134.88 206.369 135.053 206.995 135.4C207.622 135.747 208.109 136.233 208.455 136.86C208.802 137.487 208.975 138.2 208.975 139V146H206.355V139.62C206.355 138.913 206.149 138.347 205.735 137.92C205.335 137.493 204.809 137.28 204.155 137.28C203.502 137.28 202.969 137.493 202.555 137.92C202.155 138.347 201.955 138.913 201.955 139.62V146H199.335V135.12ZM216.151 146.12C214.924 146.12 213.971 145.787 213.291 145.12C212.624 144.44 212.291 143.487 212.291 142.26V137.46H210.411V135.12H210.611C211.144 135.12 211.557 134.98 211.851 134.7C212.144 134.42 212.291 134.013 212.291 133.48V132.64H214.911V135.12H217.411V137.46H214.911V142.12C214.911 143.253 215.524 143.82 216.751 143.82C216.964 143.82 217.197 143.8 217.451 143.76V146.02C217.024 146.087 216.591 146.12 216.151 146.12Z" fill="white"/>
<path opacity="0.75" d="M31.6249 167.08H33.1929V173.176L38.5049 167.08H40.4729L36.1529 172.072L40.7129 179H38.8409L35.0649 173.336L33.1929 175.48V179H31.6249V167.08ZM44.4144 179.192C43.561 179.192 42.8677 178.968 42.3344 178.52C41.801 178.061 41.5344 177.469 41.5344 176.744C41.5344 176.04 41.7637 175.453 42.2224 174.984C42.6917 174.504 43.401 174.184 44.3504 174.024L47.2944 173.544V173.144C47.2944 172.675 47.1184 172.296 46.7664 172.008C46.4144 171.709 45.961 171.56 45.4064 171.56C44.9157 171.56 44.4784 171.688 44.0944 171.944C43.721 172.189 43.4437 172.52 43.2624 172.936L41.9664 172.264C42.2117 171.667 42.6597 171.171 43.3104 170.776C43.961 170.381 44.6704 170.184 45.4384 170.184C46.089 170.184 46.665 170.312 47.1664 170.568C47.6784 170.813 48.073 171.16 48.3504 171.608C48.6384 172.056 48.7824 172.568 48.7824 173.144V179H47.3264V177.88C47.017 178.285 46.6064 178.605 46.0944 178.84C45.593 179.075 45.033 179.192 44.4144 179.192ZM43.1024 176.696C43.1024 177.048 43.241 177.341 43.5184 177.576C43.8064 177.811 44.1637 177.928 44.5904 177.928C45.113 177.928 45.577 177.816 45.9824 177.592C46.3984 177.357 46.7184 177.043 46.9424 176.648C47.177 176.253 47.2944 175.816 47.2944 175.336V174.792L44.6864 175.224C43.6304 175.405 43.1024 175.896 43.1024 176.696ZM51.0895 166.888H52.5775V179H51.0895V166.888ZM54.8864 166.888H56.3744V179H54.8864V166.888ZM58.6833 170.376H60.1713V179H58.6833V170.376ZM58.5073 168.072C58.5073 167.795 58.5926 167.571 58.7633 167.4C58.9339 167.229 59.1579 167.144 59.4353 167.144C59.7126 167.144 59.9366 167.229 60.1073 167.4C60.2779 167.571 60.3633 167.795 60.3633 168.072C60.3633 168.349 60.2779 168.573 60.1073 168.744C59.9366 168.915 59.7126 169 59.4353 169C59.1579 169 58.9339 168.915 58.7633 168.744C58.5926 168.573 58.5073 168.349 58.5073 168.072ZM65.5681 179.192C64.7361 179.192 64.0001 178.989 63.3601 178.584C62.7201 178.168 62.2615 177.608 61.9841 176.904L63.1841 176.296C63.4295 176.797 63.7655 177.192 64.1921 177.48C64.6188 177.768 65.0828 177.912 65.5841 177.912C66.0641 177.912 66.4588 177.8 66.7681 177.576C67.0775 177.352 67.2321 177.059 67.2321 176.696C67.2321 176.344 67.0935 176.061 66.8161 175.848C66.5388 175.624 66.2401 175.491 65.9201 175.448L64.6241 175.272C63.8561 175.08 63.2801 174.76 62.8961 174.312C62.5121 173.864 62.3201 173.336 62.3201 172.728C62.3201 172.227 62.4481 171.784 62.7041 171.4C62.9708 171.016 63.3335 170.717 63.7921 170.504C64.2615 170.291 64.7788 170.184 65.3441 170.184C66.0908 170.184 66.7575 170.371 67.3441 170.744C67.9415 171.117 68.3681 171.635 68.6241 172.296L67.4401 172.904C67.2268 172.467 66.9281 172.12 66.5441 171.864C66.1708 171.608 65.7548 171.48 65.2961 171.48C64.8588 171.48 64.5068 171.587 64.2401 171.8C63.9735 172.013 63.8401 172.291 63.8401 172.632C63.8401 172.984 63.9628 173.267 64.2081 173.48C64.4641 173.683 64.7415 173.811 65.0401 173.864L66.4641 174.056C67.1788 174.248 67.7335 174.579 68.1281 175.048C68.5335 175.507 68.7361 176.04 68.7361 176.648C68.7361 177.139 68.6028 177.576 68.3361 177.96C68.0695 178.344 67.6961 178.648 67.2161 178.872C66.7361 179.085 66.1868 179.192 65.5681 179.192ZM74.156 179.096C73.3133 179.096 72.6627 178.861 72.204 178.392C71.756 177.912 71.532 177.229 71.532 176.344V171.8H69.964V170.376H70.284C70.668 170.376 70.972 170.264 71.196 170.04C71.42 169.805 71.532 169.491 71.532 169.096V168.392H73.02V170.376H74.956V171.8H73.02V176.296C73.02 177.256 73.5 177.736 74.46 177.736C74.6627 177.736 74.86 177.72 75.052 177.688V179.016C74.828 179.069 74.5293 179.096 74.156 179.096ZM80.8574 179.192C80.036 179.192 79.284 179 78.6014 178.616C77.9294 178.221 77.396 177.683 77.0014 177C76.6067 176.307 76.4094 175.533 76.4094 174.68C76.4094 173.837 76.6014 173.075 76.9854 172.392C77.38 171.699 77.9134 171.16 78.5854 170.776C79.268 170.381 80.0254 170.184 80.8574 170.184C81.6787 170.184 82.4254 170.381 83.0974 170.776C83.78 171.16 84.3134 171.693 84.6974 172.376C85.092 173.059 85.2894 173.827 85.2894 174.68C85.2894 175.544 85.092 176.317 84.6974 177C84.3027 177.683 83.764 178.221 83.0814 178.616C82.4094 179 81.668 179.192 80.8574 179.192ZM77.9774 174.68C77.9774 175.256 78.1 175.779 78.3454 176.248C78.6014 176.717 78.948 177.085 79.3854 177.352C79.8334 177.619 80.324 177.752 80.8574 177.752C81.38 177.752 81.86 177.619 82.2974 177.352C82.7347 177.085 83.076 176.717 83.3214 176.248C83.5774 175.779 83.7054 175.256 83.7054 174.68C83.7054 174.104 83.5774 173.587 83.3214 173.128C83.076 172.659 82.7347 172.291 82.2974 172.024C81.86 171.757 81.38 171.624 80.8574 171.624C80.324 171.624 79.8334 171.757 79.3854 172.024C78.948 172.291 78.6014 172.659 78.3454 173.128C78.1 173.587 77.9774 174.104 77.9774 174.68ZM87.4701 167.08H88.9421L88.7341 170.92H87.6941L87.4701 167.08ZM94.5838 179.192C93.7518 179.192 93.0158 178.989 92.3758 178.584C91.7358 178.168 91.2771 177.608 90.9998 176.904L92.1998 176.296C92.4451 176.797 92.7811 177.192 93.2078 177.48C93.6344 177.768 94.0984 177.912 94.5998 177.912C95.0798 177.912 95.4744 177.8 95.7838 177.576C96.0931 177.352 96.2478 177.059 96.2478 176.696C96.2478 176.344 96.1091 176.061 95.8318 175.848C95.5544 175.624 95.2558 175.491 94.9358 175.448L93.6398 175.272C92.8718 175.08 92.2958 174.76 91.9118 174.312C91.5278 173.864 91.3358 173.336 91.3358 172.728C91.3358 172.227 91.4638 171.784 91.7198 171.4C91.9864 171.016 92.3491 170.717 92.8078 170.504C93.2771 170.291 93.7944 170.184 94.3598 170.184C95.1064 170.184 95.7731 170.371 96.3598 170.744C96.9571 171.117 97.3838 171.635 97.6398 172.296L96.4558 172.904C96.2424 172.467 95.9438 172.12 95.5598 171.864C95.1864 171.608 94.7704 171.48 94.3118 171.48C93.8744 171.48 93.5224 171.587 93.2558 171.8C92.9891 172.013 92.8558 172.291 92.8558 172.632C92.8558 172.984 92.9784 173.267 93.2238 173.48C93.4798 173.683 93.7571 173.811 94.0558 173.864L95.4798 174.056C96.1944 174.248 96.7491 174.579 97.1438 175.048C97.5491 175.507 97.7518 176.04 97.7518 176.648C97.7518 177.139 97.6184 177.576 97.3518 177.96C97.0851 178.344 96.7118 178.648 96.2318 178.872C95.7518 179.085 95.2024 179.192 94.5838 179.192ZM106.353 179.192C105.553 179.192 104.828 178.995 104.177 178.6C103.527 178.205 103.015 177.667 102.641 176.984C102.268 176.301 102.081 175.539 102.081 174.696C102.081 173.853 102.268 173.091 102.641 172.408C103.015 171.715 103.527 171.171 104.177 170.776C104.828 170.381 105.553 170.184 106.353 170.184C106.983 170.184 107.548 170.301 108.049 170.536C108.561 170.771 108.988 171.101 109.329 171.528V166.888H110.833V179H109.377V177.736C109.057 178.195 108.631 178.552 108.097 178.808C107.575 179.064 106.993 179.192 106.353 179.192ZM103.649 174.696C103.649 175.272 103.772 175.795 104.017 176.264C104.263 176.723 104.599 177.085 105.025 177.352C105.463 177.619 105.948 177.752 106.481 177.752C107.015 177.752 107.495 177.619 107.921 177.352C108.359 177.085 108.7 176.723 108.945 176.264C109.201 175.795 109.329 175.272 109.329 174.696C109.329 174.12 109.201 173.597 108.945 173.128C108.7 172.659 108.359 172.291 107.921 172.024C107.495 171.757 107.015 171.624 106.481 171.624C105.948 171.624 105.463 171.757 105.025 172.024C104.599 172.291 104.263 172.659 104.017 173.128C103.772 173.597 103.649 174.12 103.649 174.696ZM115.664 179.192C114.811 179.192 114.118 178.968 113.584 178.52C113.051 178.061 112.784 177.469 112.784 176.744C112.784 176.04 113.014 175.453 113.472 174.984C113.942 174.504 114.651 174.184 115.6 174.024L118.544 173.544V173.144C118.544 172.675 118.368 172.296 118.016 172.008C117.664 171.709 117.211 171.56 116.656 171.56C116.166 171.56 115.728 171.688 115.344 171.944C114.971 172.189 114.694 172.52 114.512 172.936L113.216 172.264C113.462 171.667 113.91 171.171 114.56 170.776C115.211 170.381 115.92 170.184 116.688 170.184C117.339 170.184 117.915 170.312 118.416 170.568C118.928 170.813 119.323 171.16 119.6 171.608C119.888 172.056 120.032 172.568 120.032 173.144V179H118.576V177.88C118.267 178.285 117.856 178.605 117.344 178.84C116.843 179.075 116.283 179.192 115.664 179.192ZM114.352 176.696C114.352 177.048 114.491 177.341 114.768 177.576C115.056 177.811 115.414 177.928 115.84 177.928C116.363 177.928 116.827 177.816 117.232 177.592C117.648 177.357 117.968 177.043 118.192 176.648C118.427 176.253 118.544 175.816 118.544 175.336V174.792L115.936 175.224C114.88 175.405 114.352 175.896 114.352 176.696ZM125.687 179.096C124.845 179.096 124.194 178.861 123.735 178.392C123.287 177.912 123.063 177.229 123.063 176.344V171.8H121.495V170.376H121.815C122.199 170.376 122.503 170.264 122.727 170.04C122.951 169.805 123.063 169.491 123.063 169.096V168.392H124.551V170.376H126.487V171.8H124.551V176.296C124.551 177.256 125.031 177.736 125.991 177.736C126.194 177.736 126.391 177.72 126.583 177.688V179.016C126.359 179.069 126.061 179.096 125.687 179.096ZM130.93 179.192C130.077 179.192 129.383 178.968 128.85 178.52C128.317 178.061 128.05 177.469 128.05 176.744C128.05 176.04 128.279 175.453 128.738 174.984C129.207 174.504 129.917 174.184 130.866 174.024L133.81 173.544V173.144C133.81 172.675 133.634 172.296 133.282 172.008C132.93 171.709 132.477 171.56 131.922 171.56C131.431 171.56 130.994 171.688 130.61 171.944C130.237 172.189 129.959 172.52 129.778 172.936L128.482 172.264C128.727 171.667 129.175 171.171 129.826 170.776C130.477 170.381 131.186 170.184 131.954 170.184C132.605 170.184 133.181 170.312 133.682 170.568C134.194 170.813 134.589 171.16 134.866 171.608C135.154 172.056 135.298 172.568 135.298 173.144V179H133.842V177.88C133.533 178.285 133.122 178.605 132.61 178.84C132.109 179.075 131.549 179.192 130.93 179.192ZM129.618 176.696C129.618 177.048 129.757 177.341 130.034 177.576C130.322 177.811 130.679 177.928 131.106 177.928C131.629 177.928 132.093 177.816 132.498 177.592C132.914 177.357 133.234 177.043 133.458 176.648C133.693 176.253 133.81 175.816 133.81 175.336V174.792L131.202 175.224C130.146 175.405 129.618 175.896 129.618 176.696ZM137.717 174.008H143.717V175.368H137.717V174.008ZM150.041 179.192C149.241 179.192 148.515 178.995 147.865 178.6C147.214 178.205 146.702 177.667 146.329 176.984C145.955 176.301 145.769 175.539 145.769 174.696C145.769 173.853 145.955 173.091 146.329 172.408C146.702 171.715 147.214 171.171 147.865 170.776C148.515 170.381 149.241 170.184 150.041 170.184C150.67 170.184 151.235 170.301 151.737 170.536C152.249 170.771 152.675 171.101 153.017 171.528V166.888H154.521V179H153.065V177.736C152.745 178.195 152.318 178.552 151.785 178.808C151.262 179.064 150.681 179.192 150.041 179.192ZM147.337 174.696C147.337 175.272 147.459 175.795 147.705 176.264C147.95 176.723 148.286 177.085 148.713 177.352C149.15 177.619 149.635 177.752 150.169 177.752C150.702 177.752 151.182 177.619 151.609 177.352C152.046 177.085 152.387 176.723 152.633 176.264C152.889 175.795 153.017 175.272 153.017 174.696C153.017 174.12 152.889 173.597 152.633 173.128C152.387 172.659 152.046 172.291 151.609 172.024C151.182 171.757 150.702 171.624 150.169 171.624C149.635 171.624 149.15 171.757 148.713 172.024C148.286 172.291 147.95 172.659 147.705 173.128C147.459 173.597 147.337 174.12 147.337 174.696ZM156.824 170.376H158.28V171.4C158.728 170.653 159.491 170.28 160.568 170.28H161.096V171.688H160.344C159.725 171.688 159.229 171.88 158.856 172.264C158.493 172.648 158.312 173.181 158.312 173.864V179H156.824V170.376ZM162.418 170.376H163.906V179H162.418V170.376ZM162.242 168.072C162.242 167.795 162.327 167.571 162.498 167.4C162.668 167.229 162.892 167.144 163.17 167.144C163.447 167.144 163.671 167.229 163.842 167.4C164.012 167.571 164.098 167.795 164.098 168.072C164.098 168.349 164.012 168.573 163.842 168.744C163.671 168.915 163.447 169 163.17 169C162.892 169 162.668 168.915 162.498 168.744C162.327 168.573 162.242 168.349 162.242 168.072ZM165.239 170.376H166.903L169.319 176.904L171.751 170.376H173.415L170.023 179H168.615L165.239 170.376ZM178.558 179.192C177.747 179.192 177.011 178.995 176.35 178.6C175.688 178.205 175.171 177.667 174.798 176.984C174.424 176.291 174.238 175.517 174.238 174.664C174.238 173.811 174.419 173.043 174.782 172.36C175.155 171.677 175.656 171.144 176.286 170.76C176.926 170.376 177.64 170.184 178.43 170.184C179.251 170.184 179.966 170.376 180.574 170.76C181.192 171.144 181.662 171.656 181.982 172.296C182.312 172.925 182.477 173.603 182.477 174.328C182.477 174.573 182.451 174.84 182.398 175.128H175.806C175.827 175.672 175.966 176.147 176.222 176.552C176.478 176.957 176.808 177.272 177.214 177.496C177.63 177.72 178.083 177.832 178.574 177.832C179.619 177.832 180.424 177.357 180.99 176.408L182.238 177.048C181.96 177.667 181.491 178.179 180.83 178.584C180.168 178.989 179.411 179.192 178.558 179.192ZM180.862 173.848C180.84 173.176 180.595 172.621 180.126 172.184C179.667 171.736 179.102 171.512 178.43 171.512C177.768 171.512 177.198 171.725 176.718 172.152C176.238 172.568 175.944 173.133 175.838 173.848H180.862ZM184.418 170.376H185.874V171.432C186.13 171.027 186.471 170.717 186.898 170.504C187.324 170.291 187.804 170.184 188.338 170.184C188.946 170.184 189.495 170.328 189.986 170.616C190.476 170.893 190.86 171.277 191.138 171.768C191.426 172.259 191.57 172.808 191.57 173.416V179H190.066V173.896C190.066 173.192 189.874 172.637 189.49 172.232C189.116 171.827 188.62 171.624 188.002 171.624C187.383 171.624 186.876 171.832 186.482 172.248C186.098 172.653 185.906 173.203 185.906 173.896V179H184.418V170.376ZM196.465 170.376H197.953V179H196.465V170.376ZM196.289 168.072C196.289 167.795 196.374 167.571 196.545 167.4C196.715 167.229 196.939 167.144 197.217 167.144C197.494 167.144 197.718 167.229 197.889 167.4C198.059 167.571 198.145 167.795 198.145 168.072C198.145 168.349 198.059 168.573 197.889 168.744C197.718 168.915 197.494 169 197.217 169C196.939 169 196.715 168.915 196.545 168.744C196.374 168.573 196.289 168.349 196.289 168.072ZM200.261 170.376H201.717V171.432C201.973 171.027 202.315 170.717 202.741 170.504C203.168 170.291 203.648 170.184 204.181 170.184C204.789 170.184 205.339 170.328 205.829 170.616C206.32 170.893 206.704 171.277 206.981 171.768C207.269 172.259 207.413 172.808 207.413 173.416V179H205.909V173.896C205.909 173.192 205.717 172.637 205.333 172.232C204.96 171.827 204.464 171.624 203.845 171.624C203.227 171.624 202.72 171.832 202.325 172.248C201.941 172.653 201.749 173.203 201.749 173.896V179H200.261V170.376ZM212.631 179.192C211.799 179.192 211.063 178.989 210.423 178.584C209.783 178.168 209.324 177.608 209.047 176.904L210.247 176.296C210.492 176.797 210.828 177.192 211.255 177.48C211.681 177.768 212.145 177.912 212.647 177.912C213.127 177.912 213.521 177.8 213.831 177.576C214.14 177.352 214.295 177.059 214.295 176.696C214.295 176.344 214.156 176.061 213.879 175.848C213.601 175.624 213.303 175.491 212.983 175.448L211.687 175.272C210.919 175.08 210.343 174.76 209.959 174.312C209.575 173.864 209.383 173.336 209.383 172.728C209.383 172.227 209.511 171.784 209.767 171.4C210.033 171.016 210.396 170.717 210.855 170.504C211.324 170.291 211.841 170.184 212.407 170.184C213.153 170.184 213.82 170.371 214.407 170.744C215.004 171.117 215.431 171.635 215.687 172.296L214.503 172.904C214.289 172.467 213.991 172.12 213.607 171.864C213.233 171.608 212.817 171.48 212.359 171.48C211.921 171.48 211.569 171.587 211.303 171.8C211.036 172.013 210.903 172.291 210.903 172.632C210.903 172.984 211.025 173.267 211.271 173.48C211.527 173.683 211.804 173.811 212.103 173.864L213.527 174.056C214.241 174.248 214.796 174.579 215.191 175.048C215.596 175.507 215.799 176.04 215.799 176.648C215.799 177.139 215.665 177.576 215.399 177.96C215.132 178.344 214.759 178.648 214.279 178.872C213.799 179.085 213.249 179.192 212.631 179.192ZM217.715 170.376H219.203V179H217.715V170.376ZM217.539 168.072C217.539 167.795 217.624 167.571 217.795 167.4C217.965 167.229 218.189 167.144 218.467 167.144C218.744 167.144 218.968 167.229 219.139 167.4C219.309 167.571 219.395 167.795 219.395 168.072C219.395 168.349 219.309 168.573 219.139 168.744C218.968 168.915 218.744 169 218.467 169C218.189 169 217.965 168.915 217.795 168.744C217.624 168.573 217.539 168.349 217.539 168.072ZM225.623 182.52C224.717 182.52 223.917 182.312 223.223 181.896C222.541 181.491 222.055 180.947 221.767 180.264L223.159 179.624C223.319 180.051 223.613 180.397 224.039 180.664C224.466 180.941 224.989 181.08 225.607 181.08C226.365 181.08 226.994 180.861 227.495 180.424C227.997 179.997 228.247 179.4 228.247 178.632V177.432C227.927 177.869 227.517 178.205 227.015 178.44C226.514 178.675 225.97 178.792 225.383 178.792C224.583 178.792 223.863 178.605 223.223 178.232C222.583 177.848 222.077 177.331 221.703 176.68C221.341 176.019 221.159 175.288 221.159 174.488C221.159 173.688 221.341 172.963 221.703 172.312C222.066 171.651 222.567 171.133 223.207 170.76C223.847 170.376 224.567 170.184 225.367 170.184C225.965 170.184 226.514 170.307 227.015 170.552C227.517 170.787 227.943 171.128 228.295 171.576V170.376H229.751V178.632C229.751 179.379 229.575 180.045 229.223 180.632C228.871 181.219 228.381 181.677 227.751 182.008C227.122 182.349 226.413 182.52 225.623 182.52ZM222.727 174.488C222.727 175.011 222.845 175.491 223.079 175.928C223.325 176.365 223.661 176.712 224.087 176.968C224.514 177.224 224.989 177.352 225.511 177.352C226.013 177.352 226.471 177.224 226.887 176.968C227.314 176.712 227.645 176.365 227.879 175.928C228.125 175.491 228.247 175.011 228.247 174.488C228.247 173.965 228.125 173.485 227.879 173.048C227.645 172.611 227.314 172.264 226.887 172.008C226.471 171.752 226.013 171.624 225.511 171.624C224.989 171.624 224.514 171.752 224.087 172.008C223.671 172.264 223.341 172.611 223.095 173.048C222.85 173.485 222.727 173.965 222.727 174.488ZM232.058 166.888H233.546V171.384C233.802 171 234.138 170.707 234.554 170.504C234.981 170.291 235.456 170.184 235.978 170.184C236.586 170.184 237.136 170.328 237.626 170.616C238.117 170.893 238.501 171.277 238.778 171.768C239.066 172.259 239.21 172.808 239.21 173.416V179H237.706V173.896C237.706 173.192 237.514 172.637 237.13 172.232C236.746 171.827 236.25 171.624 235.642 171.624C235.034 171.624 234.533 171.832 234.138 172.248C233.744 172.653 233.546 173.203 233.546 173.896V179H232.058V166.888ZM244.844 179.096C244.001 179.096 243.35 178.861 242.892 178.392C242.444 177.912 242.22 177.229 242.22 176.344V171.8H240.652V170.376H240.972C241.356 170.376 241.66 170.264 241.884 170.04C242.108 169.805 242.22 169.491 242.22 169.096V168.392H243.708V170.376H245.644V171.8H243.708V176.296C243.708 177.256 244.188 177.736 245.148 177.736C245.35 177.736 245.548 177.72 245.74 177.688V179.016C245.516 179.069 245.217 179.096 244.844 179.096ZM250.771 179.192C249.939 179.192 249.203 178.989 248.563 178.584C247.923 178.168 247.465 177.608 247.187 176.904L248.387 176.296C248.633 176.797 248.969 177.192 249.395 177.48C249.822 177.768 250.286 177.912 250.787 177.912C251.267 177.912 251.662 177.8 251.971 177.576C252.281 177.352 252.435 177.059 252.435 176.696C252.435 176.344 252.297 176.061 252.019 175.848C251.742 175.624 251.443 175.491 251.123 175.448L249.827 175.272C249.059 175.08 248.483 174.76 248.099 174.312C247.715 173.864 247.523 173.336 247.523 172.728C247.523 172.227 247.651 171.784 247.907 171.4C248.174 171.016 248.537 170.717 248.995 170.504C249.465 170.291 249.982 170.184 250.547 170.184C251.294 170.184 251.961 170.371 252.547 170.744C253.145 171.117 253.571 171.635 253.827 172.296L252.643 172.904C252.43 172.467 252.131 172.12 251.747 171.864C251.374 171.608 250.958 171.48 250.499 171.48C250.062 171.48 249.71 171.587 249.443 171.8C249.177 172.013 249.043 172.291 249.043 172.632C249.043 172.984 249.166 173.267 249.411 173.48C249.667 173.683 249.945 173.811 250.243 173.864L251.667 174.056C252.382 174.248 252.937 174.579 253.331 175.048C253.737 175.507 253.939 176.04 253.939 176.648C253.939 177.139 253.806 177.576 253.539 177.96C253.273 178.344 252.899 178.648 252.419 178.872C251.939 179.085 251.39 179.192 250.771 179.192ZM34.4781 195.864H32.8301V194.44H34.4781V193.832C34.4781 193.213 34.6114 192.68 34.8781 192.232C35.1447 191.784 35.5021 191.443 35.9501 191.208C36.4087 190.963 36.9207 190.84 37.4861 190.84C37.7741 190.84 38.0247 190.867 38.2381 190.92V192.248C38.0781 192.216 37.8861 192.2 37.6621 192.2C37.1394 192.2 36.7287 192.333 36.4301 192.6C36.1314 192.856 35.9821 193.267 35.9821 193.832V194.44H38.0301V195.864H35.9821V203H34.4781V195.864ZM42.0784 203.192C41.2251 203.192 40.5318 202.968 39.9984 202.52C39.4651 202.061 39.1984 201.469 39.1984 200.744C39.1984 200.04 39.4278 199.453 39.8864 198.984C40.3558 198.504 41.0651 198.184 42.0144 198.024L44.9584 197.544V197.144C44.9584 196.675 44.7824 196.296 44.4304 196.008C44.0784 195.709 43.6251 195.56 43.0704 195.56C42.5798 195.56 42.1424 195.688 41.7584 195.944C41.3851 196.189 41.1078 196.52 40.9264 196.936L39.6304 196.264C39.8758 195.667 40.3238 195.171 40.9744 194.776C41.6251 194.381 42.3344 194.184 43.1024 194.184C43.7531 194.184 44.3291 194.312 44.8304 194.568C45.3424 194.813 45.7371 195.16 46.0144 195.608C46.3024 196.056 46.4464 196.568 46.4464 197.144V203H44.9904V201.88C44.6811 202.285 44.2704 202.605 43.7584 202.84C43.2571 203.075 42.6971 203.192 42.0784 203.192ZM40.7664 200.696C40.7664 201.048 40.9051 201.341 41.1824 201.576C41.4704 201.811 41.8278 201.928 42.2544 201.928C42.7771 201.928 43.2411 201.816 43.6464 201.592C44.0624 201.357 44.3824 201.043 44.6064 200.648C44.8411 200.253 44.9584 199.816 44.9584 199.336V198.792L42.3504 199.224C41.2944 199.405 40.7664 199.896 40.7664 200.696ZM52.7536 203.192C51.9109 203.192 51.1536 202.995 50.4816 202.6C49.8096 202.205 49.2869 201.667 48.9136 200.984C48.5402 200.291 48.3536 199.523 48.3536 198.68C48.3536 197.827 48.5402 197.059 48.9136 196.376C49.2869 195.693 49.8042 195.16 50.4656 194.776C51.1376 194.381 51.9002 194.184 52.7536 194.184C53.5856 194.184 54.3429 194.403 55.0256 194.84C55.7189 195.267 56.2096 195.821 56.4976 196.504L55.1536 197.144C54.9509 196.685 54.6309 196.317 54.1936 196.04C53.7669 195.763 53.2869 195.624 52.7536 195.624C52.2309 195.624 51.7509 195.757 51.3136 196.024C50.8869 196.291 50.5509 196.659 50.3056 197.128C50.0602 197.587 49.9376 198.109 49.9376 198.696C49.9376 199.272 50.0602 199.795 50.3056 200.264C50.5616 200.723 50.9029 201.085 51.3296 201.352C51.7562 201.619 52.2309 201.752 52.7536 201.752C53.2976 201.752 53.7829 201.613 54.2096 201.336C54.6362 201.059 54.9509 200.68 55.1536 200.2L56.4976 200.872C56.2202 201.544 55.7349 202.099 55.0416 202.536C54.3482 202.973 53.5856 203.192 52.7536 203.192ZM58.3942 194.376H59.8822V203H58.3942V194.376ZM58.2182 192.072C58.2182 191.795 58.3035 191.571 58.4742 191.4C58.6449 191.229 58.8689 191.144 59.1462 191.144C59.4235 191.144 59.6475 191.229 59.8182 191.4C59.9889 191.571 60.0742 191.795 60.0742 192.072C60.0742 192.349 59.9889 192.573 59.8182 192.744C59.6475 192.915 59.4235 193 59.1462 193C58.8689 193 58.6449 192.915 58.4742 192.744C58.3035 192.573 58.2182 192.349 58.2182 192.072ZM62.1911 190.888H63.6791V203H62.1911V190.888ZM65.9879 194.376H67.4759V203H65.9879V194.376ZM65.8119 192.072C65.8119 191.795 65.8973 191.571 66.0679 191.4C66.2386 191.229 66.4626 191.144 66.7399 191.144C67.0173 191.144 67.2413 191.229 67.4119 191.4C67.5826 191.571 67.6679 191.795 67.6679 192.072C67.6679 192.349 67.5826 192.573 67.4119 192.744C67.2413 192.915 67.0173 193 66.7399 193C66.4626 193 66.2386 192.915 66.0679 192.744C65.8973 192.573 65.8119 192.349 65.8119 192.072ZM73.2888 203.096C72.4461 203.096 71.7955 202.861 71.3368 202.392C70.8888 201.912 70.6648 201.229 70.6648 200.344V195.8H69.0968V194.376H69.4168C69.8008 194.376 70.1048 194.264 70.3288 194.04C70.5528 193.805 70.6648 193.491 70.6648 193.096V192.392H72.1528V194.376H74.0888V195.8H72.1528V200.296C72.1528 201.256 72.6328 201.736 73.5928 201.736C73.7955 201.736 73.9928 201.72 74.1848 201.688V203.016C73.9608 203.069 73.6621 203.096 73.2888 203.096ZM78.5316 203.192C77.6782 203.192 76.9849 202.968 76.4516 202.52C75.9182 202.061 75.6516 201.469 75.6516 200.744C75.6516 200.04 75.8809 199.453 76.3396 198.984C76.8089 198.504 77.5182 198.184 78.4676 198.024L81.4116 197.544V197.144C81.4116 196.675 81.2356 196.296 80.8836 196.008C80.5316 195.709 80.0782 195.56 79.5236 195.56C79.0329 195.56 78.5956 195.688 78.2116 195.944C77.8382 196.189 77.5609 196.52 77.3796 196.936L76.0836 196.264C76.3289 195.667 76.7769 195.171 77.4276 194.776C78.0782 194.381 78.7876 194.184 79.5556 194.184C80.2062 194.184 80.7822 194.312 81.2836 194.568C81.7956 194.813 82.1902 195.16 82.4676 195.608C82.7556 196.056 82.8996 196.568 82.8996 197.144V203H81.4436V201.88C81.1342 202.285 80.7236 202.605 80.2116 202.84C79.7102 203.075 79.1502 203.192 78.5316 203.192ZM77.2196 200.696C77.2196 201.048 77.3582 201.341 77.6356 201.576C77.9236 201.811 78.2809 201.928 78.7076 201.928C79.2302 201.928 79.6942 201.816 80.0996 201.592C80.5156 201.357 80.8356 201.043 81.0596 200.648C81.2942 200.253 81.4116 199.816 81.4116 199.336V198.792L78.8036 199.224C77.7476 199.405 77.2196 199.896 77.2196 200.696ZM88.5544 203.096C87.7118 203.096 87.0611 202.861 86.6024 202.392C86.1544 201.912 85.9304 201.229 85.9304 200.344V195.8H84.3624V194.376H84.6824C85.0664 194.376 85.3704 194.264 85.5944 194.04C85.8184 193.805 85.9304 193.491 85.9304 193.096V192.392H87.4184V194.376H89.3544V195.8H87.4184V200.296C87.4184 201.256 87.8984 201.736 88.8584 201.736C89.0611 201.736 89.2584 201.72 89.4504 201.688V203.016C89.2264 203.069 88.9278 203.096 88.5544 203.096ZM95.1278 203.192C94.3171 203.192 93.5811 202.995 92.9198 202.6C92.2585 202.205 91.7411 201.667 91.3678 200.984C90.9945 200.291 90.8078 199.517 90.8078 198.664C90.8078 197.811 90.9891 197.043 91.3518 196.36C91.7251 195.677 92.2265 195.144 92.8558 194.76C93.4958 194.376 94.2105 194.184 94.9998 194.184C95.8211 194.184 96.5358 194.376 97.1438 194.76C97.7625 195.144 98.2318 195.656 98.5518 196.296C98.8825 196.925 99.0478 197.603 99.0478 198.328C99.0478 198.573 99.0211 198.84 98.9678 199.128H92.3758C92.3971 199.672 92.5358 200.147 92.7918 200.552C93.0478 200.957 93.3785 201.272 93.7838 201.496C94.1998 201.72 94.6531 201.832 95.1438 201.832C96.1891 201.832 96.9945 201.357 97.5598 200.408L98.8078 201.048C98.5305 201.667 98.0611 202.179 97.3998 202.584C96.7385 202.989 95.9811 203.192 95.1278 203.192ZM97.4318 197.848C97.4105 197.176 97.1651 196.621 96.6958 196.184C96.2371 195.736 95.6718 195.512 94.9998 195.512C94.3385 195.512 93.7678 195.725 93.2878 196.152C92.8078 196.568 92.5145 197.133 92.4078 197.848H97.4318ZM107.754 203.192C106.911 203.192 106.154 202.995 105.482 202.6C104.81 202.205 104.287 201.667 103.914 200.984C103.54 200.291 103.354 199.523 103.354 198.68C103.354 197.827 103.54 197.059 103.914 196.376C104.287 195.693 104.804 195.16 105.466 194.776C106.138 194.381 106.9 194.184 107.754 194.184C108.586 194.184 109.343 194.403 110.026 194.84C110.719 195.267 111.21 195.821 111.498 196.504L110.154 197.144C109.951 196.685 109.631 196.317 109.194 196.04C108.767 195.763 108.287 195.624 107.754 195.624C107.231 195.624 106.751 195.757 106.314 196.024C105.887 196.291 105.551 196.659 105.306 197.128C105.06 197.587 104.938 198.109 104.938 198.696C104.938 199.272 105.06 199.795 105.306 200.264C105.562 200.723 105.903 201.085 106.33 201.352C106.756 201.619 107.231 201.752 107.754 201.752C108.298 201.752 108.783 201.613 109.21 201.336C109.636 201.059 109.951 200.68 110.154 200.2L111.498 200.872C111.22 201.544 110.735 202.099 110.042 202.536C109.348 202.973 108.586 203.192 107.754 203.192ZM117.49 203.192C116.669 203.192 115.917 203 115.234 202.616C114.562 202.221 114.029 201.683 113.634 201C113.24 200.307 113.042 199.533 113.042 198.68C113.042 197.837 113.234 197.075 113.618 196.392C114.013 195.699 114.546 195.16 115.218 194.776C115.901 194.381 116.658 194.184 117.49 194.184C118.312 194.184 119.058 194.381 119.73 194.776C120.413 195.16 120.946 195.693 121.33 196.376C121.725 197.059 121.922 197.827 121.922 198.68C121.922 199.544 121.725 200.317 121.33 201C120.936 201.683 120.397 202.221 119.714 202.616C119.042 203 118.301 203.192 117.49 203.192ZM114.61 198.68C114.61 199.256 114.733 199.779 114.978 200.248C115.234 200.717 115.581 201.085 116.018 201.352C116.466 201.619 116.957 201.752 117.49 201.752C118.013 201.752 118.493 201.619 118.93 201.352C119.368 201.085 119.709 200.717 119.954 200.248C120.21 199.779 120.338 199.256 120.338 198.68C120.338 198.104 120.21 197.587 119.954 197.128C119.709 196.659 119.368 196.291 118.93 196.024C118.493 195.757 118.013 195.624 117.49 195.624C116.957 195.624 116.466 195.757 116.018 196.024C115.581 196.291 115.234 196.659 114.978 197.128C114.733 197.587 114.61 198.104 114.61 198.68ZM123.863 194.376H125.319V195.432C125.575 195.027 125.916 194.717 126.343 194.504C126.77 194.291 127.25 194.184 127.783 194.184C128.391 194.184 128.94 194.328 129.431 194.616C129.922 194.893 130.306 195.277 130.583 195.768C130.871 196.259 131.015 196.808 131.015 197.416V203H129.511V197.896C129.511 197.192 129.319 196.637 128.935 196.232C128.562 195.827 128.066 195.624 127.447 195.624C126.828 195.624 126.322 195.832 125.927 196.248C125.543 196.653 125.351 197.203 125.351 197.896V203H123.863V194.376ZM136.648 203.096C135.806 203.096 135.155 202.861 134.696 202.392C134.248 201.912 134.024 201.229 134.024 200.344V195.8H132.456V194.376H132.776C133.16 194.376 133.464 194.264 133.688 194.04C133.912 193.805 134.024 193.491 134.024 193.096V192.392H135.512V194.376H137.448V195.8H135.512V200.296C135.512 201.256 135.992 201.736 136.952 201.736C137.155 201.736 137.352 201.72 137.544 201.688V203.016C137.32 203.069 137.022 203.096 136.648 203.096ZM139.488 194.376H140.976V203H139.488V194.376ZM139.312 192.072C139.312 191.795 139.397 191.571 139.568 191.4C139.739 191.229 139.963 191.144 140.24 191.144C140.517 191.144 140.741 191.229 140.912 191.4C141.083 191.571 141.168 191.795 141.168 192.072C141.168 192.349 141.083 192.573 140.912 192.744C140.741 192.915 140.517 193 140.24 193C139.963 193 139.739 192.915 139.568 192.744C139.397 192.573 139.312 192.349 139.312 192.072ZM143.285 194.376H144.741V195.432C144.997 195.027 145.338 194.717 145.765 194.504C146.191 194.291 146.671 194.184 147.205 194.184C147.813 194.184 148.362 194.328 148.853 194.616C149.343 194.893 149.727 195.277 150.005 195.768C150.293 196.259 150.437 196.808 150.437 197.416V203H148.933V197.896C148.933 197.192 148.741 196.637 148.357 196.232C147.983 195.827 147.487 195.624 146.869 195.624C146.25 195.624 145.743 195.832 145.349 196.248C144.965 196.653 144.773 197.203 144.773 197.896V203H143.285V194.376ZM155.622 203.192C155.003 203.192 154.449 203.048 153.958 202.76C153.467 202.472 153.083 202.072 152.806 201.56C152.529 201.037 152.39 200.44 152.39 199.768V194.376H153.878V199.608C153.878 200.248 154.07 200.765 154.454 201.16C154.838 201.555 155.339 201.752 155.958 201.752C156.577 201.752 157.078 201.549 157.462 201.144C157.846 200.728 158.038 200.173 158.038 199.48V194.376H159.542V203H158.086V201.944C157.83 202.349 157.489 202.659 157.062 202.872C156.635 203.085 156.155 203.192 155.622 203.192ZM165.943 203.192C165.122 203.192 164.37 203 163.687 202.616C163.015 202.221 162.482 201.683 162.087 201C161.693 200.307 161.495 199.533 161.495 198.68C161.495 197.837 161.687 197.075 162.071 196.392C162.466 195.699 162.999 195.16 163.671 194.776C164.354 194.381 165.111 194.184 165.943 194.184C166.765 194.184 167.511 194.381 168.183 194.776C168.866 195.16 169.399 195.693 169.783 196.376C170.178 197.059 170.375 197.827 170.375 198.68C170.375 199.544 170.178 200.317 169.783 201C169.389 201.683 168.85 202.221 168.167 202.616C167.495 203 166.754 203.192 165.943 203.192ZM163.063 198.68C163.063 199.256 163.186 199.779 163.431 200.248C163.687 200.717 164.034 201.085 164.471 201.352C164.919 201.619 165.41 201.752 165.943 201.752C166.466 201.752 166.946 201.619 167.383 201.352C167.821 201.085 168.162 200.717 168.407 200.248C168.663 199.779 168.791 199.256 168.791 198.68C168.791 198.104 168.663 197.587 168.407 197.128C168.162 196.659 167.821 196.291 167.383 196.024C166.946 195.757 166.466 195.624 165.943 195.624C165.41 195.624 164.919 195.757 164.471 196.024C164.034 196.291 163.687 196.659 163.431 197.128C163.186 197.587 163.063 198.104 163.063 198.68ZM175.372 203.192C174.753 203.192 174.199 203.048 173.708 202.76C173.217 202.472 172.833 202.072 172.556 201.56C172.279 201.037 172.14 200.44 172.14 199.768V194.376H173.628V199.608C173.628 200.248 173.82 200.765 174.204 201.16C174.588 201.555 175.089 201.752 175.708 201.752C176.327 201.752 176.828 201.549 177.212 201.144C177.596 200.728 177.788 200.173 177.788 199.48V194.376H179.292V203H177.836V201.944C177.58 202.349 177.239 202.659 176.812 202.872C176.385 203.085 175.905 203.192 175.372 203.192ZM184.685 203.192C183.853 203.192 183.117 202.989 182.477 202.584C181.837 202.168 181.379 201.608 181.101 200.904L182.301 200.296C182.547 200.797 182.883 201.192 183.309 201.48C183.736 201.768 184.2 201.912 184.701 201.912C185.181 201.912 185.576 201.8 185.885 201.576C186.195 201.352 186.349 201.059 186.349 200.696C186.349 200.344 186.211 200.061 185.933 199.848C185.656 199.624 185.357 199.491 185.037 199.448L183.741 199.272C182.973 199.08 182.397 198.76 182.013 198.312C181.629 197.864 181.437 197.336 181.437 196.728C181.437 196.227 181.565 195.784 181.821 195.4C182.088 195.016 182.451 194.717 182.909 194.504C183.379 194.291 183.896 194.184 184.461 194.184C185.208 194.184 185.875 194.371 186.461 194.744C187.059 195.117 187.485 195.635 187.741 196.296L186.557 196.904C186.344 196.467 186.045 196.12 185.661 195.864C185.288 195.608 184.872 195.48 184.413 195.48C183.976 195.48 183.624 195.587 183.357 195.8C183.091 196.013 182.957 196.291 182.957 196.632C182.957 196.984 183.08 197.267 183.325 197.48C183.581 197.683 183.859 197.811 184.157 197.864L185.581 198.056C186.296 198.248 186.851 198.579 187.245 199.048C187.651 199.507 187.853 200.04 187.853 200.648C187.853 201.139 187.72 201.576 187.453 201.96C187.187 202.344 186.813 202.648 186.333 202.872C185.853 203.085 185.304 203.192 184.685 203.192ZM192.535 190.888H194.023V203H192.535V190.888ZM200.3 203.192C199.489 203.192 198.753 202.995 198.092 202.6C197.43 202.205 196.913 201.667 196.54 200.984C196.166 200.291 195.98 199.517 195.98 198.664C195.98 197.811 196.161 197.043 196.524 196.36C196.897 195.677 197.398 195.144 198.028 194.76C198.668 194.376 199.382 194.184 200.172 194.184C200.993 194.184 201.708 194.376 202.316 194.76C202.934 195.144 203.404 195.656 203.724 196.296C204.054 196.925 204.22 197.603 204.22 198.328C204.22 198.573 204.193 198.84 204.14 199.128H197.548C197.569 199.672 197.708 200.147 197.964 200.552C198.22 200.957 198.55 201.272 198.956 201.496C199.372 201.72 199.825 201.832 200.316 201.832C201.361 201.832 202.166 201.357 202.732 200.408L203.98 201.048C203.702 201.667 203.233 202.179 202.572 202.584C201.91 202.989 201.153 203.192 200.3 203.192ZM202.604 197.848C202.582 197.176 202.337 196.621 201.868 196.184C201.409 195.736 200.844 195.512 200.172 195.512C199.51 195.512 198.94 195.725 198.46 196.152C197.98 196.568 197.686 197.133 197.58 197.848H202.604ZM208.563 203.192C207.709 203.192 207.016 202.968 206.483 202.52C205.949 202.061 205.683 201.469 205.683 200.744C205.683 200.04 205.912 199.453 206.371 198.984C206.84 198.504 207.549 198.184 208.499 198.024L211.443 197.544V197.144C211.443 196.675 211.267 196.296 210.915 196.008C210.563 195.709 210.109 195.56 209.555 195.56C209.064 195.56 208.627 195.688 208.243 195.944C207.869 196.189 207.592 196.52 207.411 196.936L206.115 196.264C206.36 195.667 206.808 195.171 207.459 194.776C208.109 194.381 208.819 194.184 209.587 194.184C210.237 194.184 210.813 194.312 211.315 194.568C211.827 194.813 212.221 195.16 212.499 195.608C212.787 196.056 212.931 196.568 212.931 197.144V203H211.475V201.88C211.165 202.285 210.755 202.605 210.243 202.84C209.741 203.075 209.181 203.192 208.563 203.192ZM207.251 200.696C207.251 201.048 207.389 201.341 207.667 201.576C207.955 201.811 208.312 201.928 208.739 201.928C209.261 201.928 209.725 201.816 210.131 201.592C210.547 201.357 210.867 201.043 211.091 200.648C211.325 200.253 211.443 199.816 211.443 199.336V198.792L208.835 199.224C207.779 199.405 207.251 199.896 207.251 200.696ZM215.238 194.376H216.694V195.4C217.142 194.653 217.905 194.28 218.982 194.28H219.51V195.688H218.758C218.139 195.688 217.643 195.88 217.27 196.264C216.907 196.648 216.726 197.181 216.726 197.864V203H215.238V194.376ZM220.832 194.376H222.288V195.432C222.544 195.027 222.885 194.717 223.312 194.504C223.738 194.291 224.218 194.184 224.752 194.184C225.36 194.184 225.909 194.328 226.4 194.616C226.89 194.893 227.274 195.277 227.552 195.768C227.84 196.259 227.984 196.808 227.984 197.416V203H226.48V197.896C226.48 197.192 226.288 196.637 225.904 196.232C225.53 195.827 225.034 195.624 224.416 195.624C223.797 195.624 223.29 195.832 222.896 196.248C222.512 196.653 222.32 197.203 222.32 197.896V203H220.832V194.376ZM230.113 194.376H231.601V203H230.113V194.376ZM229.937 192.072C229.937 191.795 230.022 191.571 230.193 191.4C230.364 191.229 230.588 191.144 230.865 191.144C231.142 191.144 231.366 191.229 231.537 191.4C231.708 191.571 231.793 191.795 231.793 192.072C231.793 192.349 231.708 192.573 231.537 192.744C231.366 192.915 231.142 193 230.865 193C230.588 193 230.364 192.915 230.193 192.744C230.022 192.573 229.937 192.349 229.937 192.072ZM233.91 194.376H235.366V195.432C235.622 195.027 235.963 194.717 236.39 194.504C236.816 194.291 237.296 194.184 237.83 194.184C238.438 194.184 238.987 194.328 239.478 194.616C239.968 194.893 240.352 195.277 240.63 195.768C240.918 196.259 241.062 196.808 241.062 197.416V203H239.558V197.896C239.558 197.192 239.366 196.637 238.982 196.232C238.608 195.827 238.112 195.624 237.494 195.624C236.875 195.624 236.368 195.832 235.974 196.248C235.59 196.653 235.398 197.203 235.398 197.896V203H233.91V194.376ZM247.303 206.52C246.396 206.52 245.596 206.312 244.903 205.896C244.22 205.491 243.735 204.947 243.447 204.264L244.839 203.624C244.999 204.051 245.292 204.397 245.719 204.664C246.146 204.941 246.668 205.08 247.287 205.08C248.044 205.08 248.674 204.861 249.175 204.424C249.676 203.997 249.927 203.4 249.927 202.632V201.432C249.607 201.869 249.196 202.205 248.695 202.44C248.194 202.675 247.65 202.792 247.063 202.792C246.263 202.792 245.543 202.605 244.903 202.232C244.263 201.848 243.756 201.331 243.383 200.68C243.02 200.019 242.839 199.288 242.839 198.488C242.839 197.688 243.02 196.963 243.383 196.312C243.746 195.651 244.247 195.133 244.887 194.76C245.527 194.376 246.247 194.184 247.047 194.184C247.644 194.184 248.194 194.307 248.695 194.552C249.196 194.787 249.623 195.128 249.975 195.576V194.376H251.431V202.632C251.431 203.379 251.255 204.045 250.903 204.632C250.551 205.219 250.06 205.677 249.431 206.008C248.802 206.349 248.092 206.52 247.303 206.52ZM244.407 198.488C244.407 199.011 244.524 199.491 244.759 199.928C245.004 200.365 245.34 200.712 245.767 200.968C246.194 201.224 246.668 201.352 247.191 201.352C247.692 201.352 248.151 201.224 248.567 200.968C248.994 200.712 249.324 200.365 249.559 199.928C249.804 199.491 249.927 199.011 249.927 198.488C249.927 197.965 249.804 197.485 249.559 197.048C249.324 196.611 248.994 196.264 248.567 196.008C248.151 195.752 247.692 195.624 247.191 195.624C246.668 195.624 246.194 195.752 245.767 196.008C245.351 196.264 245.02 196.611 244.775 197.048C244.53 197.485 244.407 197.965 244.407 198.488ZM35.9222 227.192C35.0689 227.192 34.3755 226.968 33.8422 226.52C33.3089 226.061 33.0422 225.469 33.0422 224.744C33.0422 224.04 33.2715 223.453 33.7302 222.984C34.1995 222.504 34.9089 222.184 35.8582 222.024L38.8022 221.544V221.144C38.8022 220.675 38.6262 220.296 38.2742 220.008C37.9222 219.709 37.4689 219.56 36.9142 219.56C36.4235 219.56 35.9862 219.688 35.6022 219.944C35.2289 220.189 34.9515 220.52 34.7702 220.936L33.4742 220.264C33.7195 219.667 34.1675 219.171 34.8182 218.776C35.4689 218.381 36.1782 218.184 36.9462 218.184C37.5969 218.184 38.1729 218.312 38.6742 218.568C39.1862 218.813 39.5809 219.16 39.8582 219.608C40.1462 220.056 40.2902 220.568 40.2902 221.144V227H38.8342V225.88C38.5249 226.285 38.1142 226.605 37.6022 226.84C37.1009 227.075 36.5409 227.192 35.9222 227.192ZM34.6102 224.696C34.6102 225.048 34.7489 225.341 35.0262 225.576C35.3142 225.811 35.6715 225.928 36.0982 225.928C36.6209 225.928 37.0849 225.816 37.4902 225.592C37.9062 225.357 38.2262 225.043 38.4502 224.648C38.6849 224.253 38.8022 223.816 38.8022 223.336V222.792L36.1942 223.224C35.1382 223.405 34.6102 223.896 34.6102 224.696ZM42.5973 218.376H44.0533V219.432C44.3093 219.027 44.6506 218.717 45.0773 218.504C45.504 218.291 45.984 218.184 46.5173 218.184C47.1253 218.184 47.6746 218.328 48.1653 218.616C48.656 218.893 49.04 219.277 49.3173 219.768C49.6053 220.259 49.7493 220.808 49.7493 221.416V227H48.2453V221.896C48.2453 221.192 48.0533 220.637 47.6693 220.232C47.296 219.827 46.8 219.624 46.1813 219.624C45.5626 219.624 45.056 219.832 44.6613 220.248C44.2773 220.653 44.0853 221.203 44.0853 221.896V227H42.5973V218.376ZM55.7986 227.192C54.9986 227.192 54.2732 226.995 53.6226 226.6C52.9719 226.205 52.4599 225.667 52.0866 224.984C51.7132 224.301 51.5266 223.539 51.5266 222.696C51.5266 221.853 51.7132 221.091 52.0866 220.408C52.4599 219.715 52.9719 219.171 53.6226 218.776C54.2732 218.381 54.9986 218.184 55.7986 218.184C56.4279 218.184 56.9932 218.301 57.4946 218.536C58.0066 218.771 58.4332 219.101 58.7746 219.528V214.888H60.2786V227H58.8226V225.736C58.5026 226.195 58.0759 226.552 57.5426 226.808C57.0199 227.064 56.4386 227.192 55.7986 227.192ZM53.0946 222.696C53.0946 223.272 53.2172 223.795 53.4626 224.264C53.7079 224.723 54.0439 225.085 54.4706 225.352C54.9079 225.619 55.3932 225.752 55.9266 225.752C56.4599 225.752 56.9399 225.619 57.3666 225.352C57.8039 225.085 58.1452 224.723 58.3906 224.264C58.6466 223.795 58.7746 223.272 58.7746 222.696C58.7746 222.12 58.6466 221.597 58.3906 221.128C58.1452 220.659 57.8039 220.291 57.3666 220.024C56.9399 219.757 56.4599 219.624 55.9266 219.624C55.3932 219.624 54.9079 219.757 54.4706 220.024C54.0439 220.291 53.7079 220.659 53.4626 221.128C53.2172 221.597 53.0946 222.12 53.0946 222.696ZM65.3473 218.376H66.8353V227H65.3473V218.376ZM65.1713 216.072C65.1713 215.795 65.2566 215.571 65.4273 215.4C65.598 215.229 65.822 215.144 66.0993 215.144C66.3766 215.144 66.6006 215.229 66.7713 215.4C66.942 215.571 67.0273 215.795 67.0273 216.072C67.0273 216.349 66.942 216.573 66.7713 216.744C66.6006 216.915 66.3766 217 66.0993 217C65.822 217 65.598 216.915 65.4273 216.744C65.2566 216.573 65.1713 216.349 65.1713 216.072ZM69.1442 218.376H70.6002V219.448C70.8455 219.043 71.1762 218.733 71.5922 218.52C72.0189 218.296 72.4882 218.184 73.0002 218.184C73.5869 218.184 74.1202 218.328 74.6002 218.616C75.0909 218.893 75.4642 219.272 75.7202 219.752C75.9975 219.251 76.3709 218.867 76.8402 218.6C77.3202 218.323 77.8482 218.184 78.4242 218.184C79.0109 218.184 79.5495 218.328 80.0402 218.616C80.5309 218.893 80.9202 219.277 81.2082 219.768C81.4962 220.259 81.6402 220.808 81.6402 221.416V227H80.1362V221.896C80.1362 221.192 79.9495 220.637 79.5762 220.232C79.2135 219.827 78.7389 219.624 78.1522 219.624C77.5549 219.624 77.0695 219.832 76.6962 220.248C76.3229 220.653 76.1362 221.203 76.1362 221.896V227H74.6322V221.896C74.6322 221.192 74.4509 220.637 74.0882 220.232C73.7255 219.827 73.2455 219.624 72.6482 219.624C72.0615 219.624 71.5762 219.832 71.1922 220.248C70.8189 220.653 70.6322 221.203 70.6322 221.896V227H69.1442V218.376ZM83.7536 218.376H85.2096V219.576C85.5509 219.139 85.9776 218.797 86.4896 218.552C87.0122 218.307 87.5936 218.184 88.2336 218.184C89.0336 218.184 89.7589 218.381 90.4096 218.776C91.0602 219.171 91.5722 219.715 91.9456 220.408C92.3189 221.091 92.5056 221.853 92.5056 222.696C92.5056 223.539 92.3189 224.301 91.9456 224.984C91.5722 225.667 91.0602 226.205 90.4096 226.6C89.7589 226.995 89.0282 227.192 88.2176 227.192C87.5989 227.192 87.0282 227.075 86.5056 226.84C85.9936 226.595 85.5722 226.248 85.2416 225.8V230.2H83.7536V218.376ZM85.2416 222.696C85.2416 223.272 85.3642 223.795 85.6096 224.264C85.8656 224.723 86.2122 225.085 86.6496 225.352C87.0869 225.619 87.5722 225.752 88.1056 225.752C88.6389 225.752 89.1189 225.619 89.5456 225.352C89.9829 225.085 90.3189 224.723 90.5536 224.264C90.7989 223.795 90.9216 223.272 90.9216 222.696C90.9216 222.12 90.7989 221.597 90.5536 221.128C90.3082 220.659 89.9722 220.291 89.5456 220.024C89.1189 219.757 88.6389 219.624 88.1056 219.624C87.5722 219.624 87.0869 219.757 86.6496 220.024C86.2122 220.291 85.8656 220.659 85.6096 221.128C85.3642 221.597 85.2416 222.12 85.2416 222.696ZM94.4567 218.376H95.9127V219.4C96.3607 218.653 97.1234 218.28 98.2007 218.28H98.7287V219.688H97.9767C97.358 219.688 96.862 219.88 96.4887 220.264C96.126 220.648 95.9447 221.181 95.9447 221.864V227H94.4567V218.376ZM104.146 227.192C103.325 227.192 102.573 227 101.89 226.616C101.218 226.221 100.685 225.683 100.29 225C99.8958 224.307 99.6984 223.533 99.6984 222.68C99.6984 221.837 99.8904 221.075 100.274 220.392C100.669 219.699 101.202 219.16 101.874 218.776C102.557 218.381 103.314 218.184 104.146 218.184C104.968 218.184 105.714 218.381 106.386 218.776C107.069 219.16 107.602 219.693 107.986 220.376C108.381 221.059 108.578 221.827 108.578 222.68C108.578 223.544 108.381 224.317 107.986 225C107.592 225.683 107.053 226.221 106.37 226.616C105.698 227 104.957 227.192 104.146 227.192ZM101.266 222.68C101.266 223.256 101.389 223.779 101.634 224.248C101.89 224.717 102.237 225.085 102.674 225.352C103.122 225.619 103.613 225.752 104.146 225.752C104.669 225.752 105.149 225.619 105.586 225.352C106.024 225.085 106.365 224.717 106.61 224.248C106.866 223.779 106.994 223.256 106.994 222.68C106.994 222.104 106.866 221.587 106.61 221.128C106.365 220.659 106.024 220.291 105.586 220.024C105.149 219.757 104.669 219.624 104.146 219.624C103.613 219.624 103.122 219.757 102.674 220.024C102.237 220.291 101.89 220.659 101.634 221.128C101.389 221.587 101.266 222.104 101.266 222.68ZM109.387 218.376H111.051L113.467 224.904L115.899 218.376H117.563L114.171 227H112.763L109.387 218.376ZM122.706 227.192C121.895 227.192 121.159 226.995 120.498 226.6C119.837 226.205 119.319 225.667 118.946 224.984C118.573 224.291 118.386 223.517 118.386 222.664C118.386 221.811 118.567 221.043 118.93 220.36C119.303 219.677 119.805 219.144 120.434 218.76C121.074 218.376 121.789 218.184 122.578 218.184C123.399 218.184 124.114 218.376 124.722 218.76C125.341 219.144 125.81 219.656 126.13 220.296C126.461 220.925 126.626 221.603 126.626 222.328C126.626 222.573 126.599 222.84 126.546 223.128H119.954C119.975 223.672 120.114 224.147 120.37 224.552C120.626 224.957 120.957 225.272 121.362 225.496C121.778 225.72 122.231 225.832 122.722 225.832C123.767 225.832 124.573 225.357 125.138 224.408L126.386 225.048C126.109 225.667 125.639 226.179 124.978 226.584C124.317 226.989 123.559 227.192 122.706 227.192ZM125.01 221.848C124.989 221.176 124.743 220.621 124.274 220.184C123.815 219.736 123.25 219.512 122.578 219.512C121.917 219.512 121.346 219.725 120.866 220.152C120.386 220.568 120.093 221.133 119.986 221.848H125.01ZM128.566 218.376H130.022V219.448C130.267 219.043 130.598 218.733 131.014 218.52C131.441 218.296 131.91 218.184 132.422 218.184C133.009 218.184 133.542 218.328 134.022 218.616C134.513 218.893 134.886 219.272 135.142 219.752C135.419 219.251 135.793 218.867 136.262 218.6C136.742 218.323 137.27 218.184 137.846 218.184C138.433 218.184 138.971 218.328 139.462 218.616C139.953 218.893 140.342 219.277 140.63 219.768C140.918 220.259 141.062 220.808 141.062 221.416V227H139.558V221.896C139.558 221.192 139.371 220.637 138.998 220.232C138.635 219.827 138.161 219.624 137.574 219.624C136.977 219.624 136.491 219.832 136.118 220.248C135.745 220.653 135.558 221.203 135.558 221.896V227H134.054V221.896C134.054 221.192 133.873 220.637 133.51 220.232C133.147 219.827 132.667 219.624 132.07 219.624C131.483 219.624 130.998 219.832 130.614 220.248C130.241 220.653 130.054 221.203 130.054 221.896V227H128.566V218.376ZM147.143 227.192C146.333 227.192 145.597 226.995 144.935 226.6C144.274 226.205 143.757 225.667 143.383 224.984C143.01 224.291 142.823 223.517 142.823 222.664C142.823 221.811 143.005 221.043 143.367 220.36C143.741 219.677 144.242 219.144 144.871 218.76C145.511 218.376 146.226 218.184 147.015 218.184C147.837 218.184 148.551 218.376 149.159 218.76C149.778 219.144 150.247 219.656 150.567 220.296C150.898 220.925 151.063 221.603 151.063 222.328C151.063 222.573 151.037 222.84 150.983 223.128H144.391C144.413 223.672 144.551 224.147 144.807 224.552C145.063 224.957 145.394 225.272 145.799 225.496C146.215 225.72 146.669 225.832 147.159 225.832C148.205 225.832 149.01 225.357 149.575 224.408L150.823 225.048C150.546 225.667 150.077 226.179 149.415 226.584C148.754 226.989 147.997 227.192 147.143 227.192ZM149.447 221.848C149.426 221.176 149.181 220.621 148.711 220.184C148.253 219.736 147.687 219.512 147.015 219.512C146.354 219.512 145.783 219.725 145.303 220.152C144.823 220.568 144.53 221.133 144.423 221.848H149.447ZM153.004 218.376H154.46V219.432C154.716 219.027 155.057 218.717 155.484 218.504C155.91 218.291 156.39 218.184 156.924 218.184C157.532 218.184 158.081 218.328 158.572 218.616C159.062 218.893 159.446 219.277 159.724 219.768C160.012 220.259 160.156 220.808 160.156 221.416V227H158.652V221.896C158.652 221.192 158.46 220.637 158.076 220.232C157.702 219.827 157.206 219.624 156.588 219.624C155.969 219.624 155.462 219.832 155.068 220.248C154.684 220.653 154.492 221.203 154.492 221.896V227H153.004V218.376ZM165.789 227.096C164.946 227.096 164.295 226.861 163.837 226.392C163.389 225.912 163.165 225.229 163.165 224.344V219.8H161.597V218.376H161.917C162.301 218.376 162.605 218.264 162.829 218.04C163.053 217.805 163.165 217.491 163.165 217.096V216.392H164.653V218.376H166.589V219.8H164.653V224.296C164.653 225.256 165.133 225.736 166.093 225.736C166.295 225.736 166.493 225.72 166.685 225.688V227.016C166.461 227.069 166.162 227.096 165.789 227.096ZM170.418 218.376H172.066L174.13 224.696L176.146 218.376H177.554L179.57 224.696L181.65 218.376H183.282L180.322 227H178.898L176.85 220.504L174.802 227H173.378L170.418 218.376ZM184.613 218.376H186.101V227H184.613V218.376ZM184.437 216.072C184.437 215.795 184.522 215.571 184.693 215.4C184.864 215.229 185.088 215.144 185.365 215.144C185.642 215.144 185.866 215.229 186.037 215.4C186.208 215.571 186.293 215.795 186.293 216.072C186.293 216.349 186.208 216.573 186.037 216.744C185.866 216.915 185.642 217 185.365 217C185.088 217 184.864 216.915 184.693 216.744C184.522 216.573 184.437 216.349 184.437 216.072ZM191.914 227.096C191.071 227.096 190.42 226.861 189.962 226.392C189.514 225.912 189.29 225.229 189.29 224.344V219.8H187.722V218.376H188.042C188.426 218.376 188.73 218.264 188.954 218.04C189.178 217.805 189.29 217.491 189.29 217.096V216.392H190.778V218.376H192.714V219.8H190.778V224.296C190.778 225.256 191.258 225.736 192.218 225.736C192.42 225.736 192.618 225.72 192.81 225.688V227.016C192.586 227.069 192.287 227.096 191.914 227.096ZM194.754 214.888H196.242V219.384C196.498 219 196.834 218.707 197.25 218.504C197.676 218.291 198.151 218.184 198.674 218.184C199.282 218.184 199.831 218.328 200.322 218.616C200.812 218.893 201.196 219.277 201.474 219.768C201.762 220.259 201.906 220.808 201.906 221.416V227H200.402V221.896C200.402 221.192 200.21 220.637 199.826 220.232C199.442 219.827 198.946 219.624 198.338 219.624C197.73 219.624 197.228 219.832 196.834 220.248C196.439 220.653 196.242 221.203 196.242 221.896V227H194.754V214.888ZM204.035 218.376H205.523V227H204.035V218.376ZM203.859 216.072C203.859 215.795 203.944 215.571 204.115 215.4C204.285 215.229 204.509 215.144 204.787 215.144C205.064 215.144 205.288 215.229 205.459 215.4C205.629 215.571 205.715 215.795 205.715 216.072C205.715 216.349 205.629 216.573 205.459 216.744C205.288 216.915 205.064 217 204.787 217C204.509 217 204.285 216.915 204.115 216.744C203.944 216.573 203.859 216.349 203.859 216.072ZM207.832 218.376H209.288V219.432C209.544 219.027 209.885 218.717 210.312 218.504C210.738 218.291 211.218 218.184 211.752 218.184C212.36 218.184 212.909 218.328 213.4 218.616C213.89 218.893 214.274 219.277 214.552 219.768C214.84 220.259 214.984 220.808 214.984 221.416V227H213.48V221.896C213.48 221.192 213.288 220.637 212.904 220.232C212.53 219.827 212.034 219.624 211.416 219.624C210.797 219.624 210.29 219.832 209.896 220.248C209.512 220.653 209.32 221.203 209.32 221.896V227H207.832V218.376ZM222.327 226.984L218.903 218.376H220.519L223.143 225.112L225.751 218.376H227.399L222.631 230.2H220.983L222.327 226.984ZM232.662 227.192C231.841 227.192 231.089 227 230.406 226.616C229.734 226.221 229.201 225.683 228.806 225C228.411 224.307 228.214 223.533 228.214 222.68C228.214 221.837 228.406 221.075 228.79 220.392C229.185 219.699 229.718 219.16 230.39 218.776C231.073 218.381 231.83 218.184 232.662 218.184C233.483 218.184 234.23 218.381 234.902 218.776C235.585 219.16 236.118 219.693 236.502 220.376C236.897 221.059 237.094 221.827 237.094 222.68C237.094 223.544 236.897 224.317 236.502 225C236.107 225.683 235.569 226.221 234.886 226.616C234.214 227 233.473 227.192 232.662 227.192ZM229.782 222.68C229.782 223.256 229.905 223.779 230.15 224.248C230.406 224.717 230.753 225.085 231.19 225.352C231.638 225.619 232.129 225.752 232.662 225.752C233.185 225.752 233.665 225.619 234.102 225.352C234.539 225.085 234.881 224.717 235.126 224.248C235.382 223.779 235.51 223.256 235.51 222.68C235.51 222.104 235.382 221.587 235.126 221.128C234.881 220.659 234.539 220.291 234.102 220.024C233.665 219.757 233.185 219.624 232.662 219.624C232.129 219.624 231.638 219.757 231.19 220.024C230.753 220.291 230.406 220.659 230.15 221.128C229.905 221.587 229.782 222.104 229.782 222.68ZM242.091 227.192C241.472 227.192 240.917 227.048 240.427 226.76C239.936 226.472 239.552 226.072 239.275 225.56C238.997 225.037 238.859 224.44 238.859 223.768V218.376H240.347V223.608C240.347 224.248 240.539 224.765 240.923 225.16C241.307 225.555 241.808 225.752 242.427 225.752C243.045 225.752 243.547 225.549 243.931 225.144C244.315 224.728 244.507 224.173 244.507 223.48V218.376H246.011V227H244.555V225.944C244.299 226.349 243.957 226.659 243.531 226.872C243.104 227.085 242.624 227.192 242.091 227.192ZM248.316 218.376H249.772V219.4C250.22 218.653 250.983 218.28 252.06 218.28H252.588V219.688H251.836C251.217 219.688 250.721 219.88 250.348 220.264C249.985 220.648 249.804 221.181 249.804 221.864V227H248.316V218.376ZM111.355 251.192C110.512 251.192 109.755 250.995 109.083 250.6C108.411 250.205 107.888 249.667 107.515 248.984C107.142 248.291 106.955 247.523 106.955 246.68C106.955 245.827 107.142 245.059 107.515 244.376C107.888 243.693 108.406 243.16 109.067 242.776C109.739 242.381 110.502 242.184 111.355 242.184C112.187 242.184 112.944 242.403 113.627 242.84C114.32 243.267 114.811 243.821 115.099 244.504L113.755 245.144C113.552 244.685 113.232 244.317 112.795 244.04C112.368 243.763 111.888 243.624 111.355 243.624C110.832 243.624 110.352 243.757 109.915 244.024C109.488 244.291 109.152 244.659 108.907 245.128C108.662 245.587 108.539 246.109 108.539 246.696C108.539 247.272 108.662 247.795 108.907 248.264C109.163 248.723 109.504 249.085 109.931 249.352C110.358 249.619 110.832 249.752 111.355 249.752C111.899 249.752 112.384 249.613 112.811 249.336C113.238 249.059 113.552 248.68 113.755 248.2L115.099 248.872C114.822 249.544 114.336 250.099 113.643 250.536C112.95 250.973 112.187 251.192 111.355 251.192ZM121.092 251.192C120.27 251.192 119.518 251 118.836 250.616C118.164 250.221 117.63 249.683 117.236 249C116.841 248.307 116.644 247.533 116.644 246.68C116.644 245.837 116.836 245.075 117.22 244.392C117.614 243.699 118.148 243.16 118.82 242.776C119.502 242.381 120.26 242.184 121.092 242.184C121.913 242.184 122.66 242.381 123.332 242.776C124.014 243.16 124.548 243.693 124.932 244.376C125.326 245.059 125.524 245.827 125.524 246.68C125.524 247.544 125.326 248.317 124.932 249C124.537 249.683 123.998 250.221 123.316 250.616C122.644 251 121.902 251.192 121.092 251.192ZM118.212 246.68C118.212 247.256 118.334 247.779 118.58 248.248C118.836 248.717 119.182 249.085 119.62 249.352C120.068 249.619 120.558 249.752 121.092 249.752C121.614 249.752 122.094 249.619 122.532 249.352C122.969 249.085 123.31 248.717 123.556 248.248C123.812 247.779 123.94 247.256 123.94 246.68C123.94 246.104 123.812 245.587 123.556 245.128C123.31 244.659 122.969 244.291 122.532 244.024C122.094 243.757 121.614 243.624 121.092 243.624C120.558 243.624 120.068 243.757 119.62 244.024C119.182 244.291 118.836 244.659 118.58 245.128C118.334 245.587 118.212 246.104 118.212 246.68ZM127.465 242.376H128.921V243.448C129.166 243.043 129.497 242.733 129.913 242.52C130.339 242.296 130.809 242.184 131.321 242.184C131.907 242.184 132.441 242.328 132.921 242.616C133.411 242.893 133.785 243.272 134.041 243.752C134.318 243.251 134.691 242.867 135.161 242.6C135.641 242.323 136.169 242.184 136.745 242.184C137.331 242.184 137.87 242.328 138.361 242.616C138.851 242.893 139.241 243.277 139.529 243.768C139.817 244.259 139.961 244.808 139.961 245.416V251H138.457V245.896C138.457 245.192 138.27 244.637 137.897 244.232C137.534 243.827 137.059 243.624 136.473 243.624C135.875 243.624 135.39 243.832 135.017 244.248C134.643 244.653 134.457 245.203 134.457 245.896V251H132.953V245.896C132.953 245.192 132.771 244.637 132.409 244.232C132.046 243.827 131.566 243.624 130.969 243.624C130.382 243.624 129.897 243.832 129.513 244.248C129.139 244.653 128.953 245.203 128.953 245.896V251H127.465V242.376ZM142.074 242.376H143.53V243.576C143.871 243.139 144.298 242.797 144.81 242.552C145.333 242.307 145.914 242.184 146.554 242.184C147.354 242.184 148.079 242.381 148.73 242.776C149.381 243.171 149.893 243.715 150.266 244.408C150.639 245.091 150.826 245.853 150.826 246.696C150.826 247.539 150.639 248.301 150.266 248.984C149.893 249.667 149.381 250.205 148.73 250.6C148.079 250.995 147.349 251.192 146.538 251.192C145.919 251.192 145.349 251.075 144.826 250.84C144.314 250.595 143.893 250.248 143.562 249.8V254.2H142.074V242.376ZM143.562 246.696C143.562 247.272 143.685 247.795 143.93 248.264C144.186 248.723 144.533 249.085 144.97 249.352C145.407 249.619 145.893 249.752 146.426 249.752C146.959 249.752 147.439 249.619 147.866 249.352C148.303 249.085 148.639 248.723 148.874 248.264C149.119 247.795 149.242 247.272 149.242 246.696C149.242 246.12 149.119 245.597 148.874 245.128C148.629 244.659 148.293 244.291 147.866 244.024C147.439 243.757 146.959 243.624 146.426 243.624C145.893 243.624 145.407 243.757 144.97 244.024C144.533 244.291 144.186 244.659 143.93 245.128C143.685 245.597 143.562 246.12 143.562 246.696ZM155.305 251.192C154.452 251.192 153.758 250.968 153.225 250.52C152.692 250.061 152.425 249.469 152.425 248.744C152.425 248.04 152.654 247.453 153.113 246.984C153.582 246.504 154.292 246.184 155.241 246.024L158.185 245.544V245.144C158.185 244.675 158.009 244.296 157.657 244.008C157.305 243.709 156.852 243.56 156.297 243.56C155.806 243.56 155.369 243.688 154.985 243.944C154.612 244.189 154.334 244.52 154.153 244.936L152.857 244.264C153.102 243.667 153.55 243.171 154.201 242.776C154.852 242.381 155.561 242.184 156.329 242.184C156.98 242.184 157.556 242.312 158.057 242.568C158.569 242.813 158.964 243.16 159.241 243.608C159.529 244.056 159.673 244.568 159.673 245.144V251H158.217V249.88C157.908 250.285 157.497 250.605 156.985 250.84C156.484 251.075 155.924 251.192 155.305 251.192ZM153.993 248.696C153.993 249.048 154.132 249.341 154.409 249.576C154.697 249.811 155.054 249.928 155.481 249.928C156.004 249.928 156.468 249.816 156.873 249.592C157.289 249.357 157.609 249.043 157.833 248.648C158.068 248.253 158.185 247.816 158.185 247.336V246.792L155.577 247.224C154.521 247.405 153.993 247.896 153.993 248.696ZM161.98 242.376H163.436V243.432C163.692 243.027 164.033 242.717 164.46 242.504C164.887 242.291 165.367 242.184 165.9 242.184C166.508 242.184 167.057 242.328 167.548 242.616C168.039 242.893 168.423 243.277 168.7 243.768C168.988 244.259 169.132 244.808 169.132 245.416V251H167.628V245.896C167.628 245.192 167.436 244.637 167.052 244.232C166.679 243.827 166.183 243.624 165.564 243.624C164.945 243.624 164.439 243.832 164.044 244.248C163.66 244.653 163.468 245.203 163.468 245.896V251H161.98V242.376ZM173.553 250.984L170.129 242.376H171.745L174.369 249.112L176.977 242.376H178.625L173.857 254.2H172.209L173.553 250.984Z" fill="white"/>
</svg>
