<svg width="743" height="743" viewBox="0 0 743 743" fill="none" xmlns="http://www.w3.org/2000/svg">
<path d="M298.145 86.3693C254.643 97.2749 214.193 117.939 179.862 146.797C145.53 175.655 118.218 211.949 99.9946 252.928C81.7709 293.907 73.1142 338.497 74.6802 383.318C76.2463 428.14 87.9941 472.017 109.033 511.624C130.073 551.232 159.852 585.531 196.113 611.922C232.375 638.313 274.168 656.104 318.326 663.947C362.483 671.789 407.847 669.478 450.979 657.188C494.111 644.897 533.879 622.951 567.271 593.01" stroke="#5D71DE" stroke-width="3" stroke-linejoin="round"/>
<path d="M350.66 552.461C377.897 555.396 405.445 552.093 431.216 542.802C456.987 533.511 480.306 518.476 499.404 498.836C518.503 479.196 532.88 455.467 541.447 429.446C550.014 403.425 552.546 375.795 548.85 348.651C545.155 321.506 535.329 295.559 520.118 272.775C504.906 249.992 484.708 230.969 461.055 217.15C437.401 203.33 410.912 195.076 383.595 193.013C356.278 190.949 328.849 195.131 303.388 205.241" stroke="#5D71DE" stroke-width="3" stroke-linejoin="round"/>
<path d="M456.81 734.215C514.555 720.337 568.13 692.818 613.046 653.964C657.961 615.111 692.907 566.055 714.954 510.91C737 455.765 745.505 396.138 739.754 337.028C734.004 277.919 714.166 221.049 681.904 171.188C649.642 121.326 605.896 79.9261 554.334 50.4581C502.772 20.9902 444.896 4.3134 385.56 1.82599C326.223 -0.661418 267.155 11.113 213.308 36.1622C159.46 61.2113 112.403 98.805 76.0807 145.791" stroke="#5D71DE" stroke-width="3" stroke-linejoin="round"/>
</svg>
