<svg width="80" height="81" viewBox="0 0 80 81" fill="none" xmlns="http://www.w3.org/2000/svg">
<path d="M69.8344 53.4008C69.9 53.2789 69.9531 53.1508 69.9969 53.0227C71.6094 49.1727 72.5 44.9477 72.5 40.5195C72.5 29.5695 67.0562 19.8664 58.7344 13.9758C58.5969 13.857 58.4469 13.7539 58.2875 13.6664C53.075 10.1039 46.775 8.01953 40 8.01953C22.0781 8.01953 7.5 22.5977 7.5 40.5195C7.5 47.4133 9.65937 53.8102 13.3344 59.0758C13.3438 59.0945 13.3531 59.1102 13.3625 59.1289C13.4344 59.2445 13.5125 59.3508 13.6 59.4508C19.5031 67.6602 29.1375 73.0195 40 73.0195C47.4031 73.0195 54.2313 70.532 59.7031 66.3477C59.8937 66.2383 60.075 66.107 60.2375 65.9445C60.2531 65.9289 60.2656 65.9133 60.2812 65.8977C64.4062 62.5945 67.7094 58.3102 69.8375 53.4039L69.8344 53.4008ZM58.5906 60.7633L56.8594 59.032C56.2437 58.4164 55.475 57.9695 54.6375 57.7352L54.5969 57.7227L47.9062 55.9789L48.6219 50.9508C48.6281 50.9352 48.6375 50.9195 48.65 50.9164L58.1531 46.9539L64.5781 52.8383C63.0719 55.832 61.0344 58.5133 58.5906 60.7602V60.7633ZM40 13.0195C45.3812 13.0195 50.4094 14.5758 54.6531 17.2602L54.9344 23.5977L48.0188 31.5727L48.0125 31.582L38.2594 32.9133C38.225 32.907 38.1875 32.9039 38.1594 32.8852L32.0469 28.457C31.9875 28.4133 31.9281 28.3727 31.8625 28.332C29.5312 26.8258 26.4125 27.4945 24.8969 29.8414L18.7219 39.5414C18.2031 40.3289 17.9219 41.2445 17.9125 42.2039L17.8656 53.4852L16.2937 54.4383C13.8875 50.3539 12.5063 45.6008 12.5063 40.5289C12.5063 25.3664 24.8437 13.0289 40.0062 13.0289L40 13.0195ZM19.2125 58.5039L20.4688 57.7414C21.9531 56.8258 22.8438 55.2352 22.8438 53.5008L22.9062 42.2602C22.9062 42.2602 22.9156 42.2445 22.9219 42.2352L29.1 32.532L29.1281 32.5102L35.2531 36.9477C35.2531 36.9477 35.2781 36.9664 35.2906 36.9727C36.3094 37.682 37.5531 38.0039 38.7906 37.8789C38.8187 37.8789 38.8438 37.8727 38.8719 37.8695L48.7188 36.5258C49.925 36.3602 51.0219 35.7602 51.8063 34.832L58.7344 26.8445C58.7344 26.8445 58.75 26.8258 58.7563 26.8195C59.575 25.8477 59.9969 24.6102 59.9375 23.3445L59.8531 21.5102C64.5875 26.4508 67.5 33.1539 67.5 40.5195C67.5 43.0508 67.1562 45.5008 66.5125 47.8289L61.5375 43.2758C60.1063 41.957 58.0187 41.5883 56.225 42.3383L46.7188 46.3102C45.1125 46.9883 43.9813 48.4195 43.6937 50.1383C43.6906 50.1602 43.6875 50.1789 43.6844 50.2008L42.9688 55.2445C42.5938 57.7477 44.1531 60.1383 46.5938 60.807L46.625 60.8164L53.3094 62.557C53.3094 62.557 53.325 62.5664 53.3313 62.5695L54.5875 63.8258C50.3562 66.482 45.3594 68.0195 40.0062 68.0195C31.7125 68.0195 24.2656 64.3289 19.2188 58.5039H19.2125Z" fill="#3D3EA6"/>
</svg>
