<svg width="281" height="275" viewBox="0 0 281 275" fill="none" xmlns="http://www.w3.org/2000/svg">
<path d="M118.778 46.8867C104.719 50.4112 91.6462 57.0896 80.5509 66.4159C69.4557 75.7421 60.6289 87.4715 54.7394 100.715C48.8498 113.959 46.0521 128.37 46.5582 142.855C47.0644 157.34 50.861 171.521 57.6605 184.321C64.46 197.121 74.084 208.206 85.8031 216.735C97.5222 225.264 111.029 231.014 125.3 233.549C139.571 236.083 154.231 235.336 168.171 231.364C182.11 227.392 194.963 220.3 205.754 210.624" stroke="#F7D6AF" stroke-width="3" stroke-linejoin="round"/>
<path d="M174.131 273.213C195.503 268.076 215.333 257.891 231.957 243.51C248.581 229.13 261.515 210.973 269.675 190.563C277.835 170.153 280.983 148.083 278.854 126.206C276.726 104.328 269.384 83.2794 257.443 64.8246C245.502 46.3698 229.311 31.0467 210.226 20.14C191.142 9.23327 169.721 3.06084 147.76 2.1402C125.798 1.21956 103.935 5.57753 84.0054 14.8487C64.0753 24.12 46.6584 38.0342 33.2148 55.4249" stroke="#F7D6AF" stroke-width="3" stroke-linejoin="round"/>
<circle cx="142" cy="139.52" r="62" fill="#6886FF"/>
<g clip-path="url(#clip0_2432_8324)">
<rect x="107.125" y="104.645" width="69.75" height="69.75" fill="#6886FF"/>
<g clip-path="url(#clip1_2432_8324)">
<path d="M150.887 106.57C150.887 105.438 149.969 104.52 148.836 104.52H135.164C134.031 104.52 133.113 105.438 133.113 106.57V109.988H150.887V106.57Z" fill="white"/>
<path d="M174.949 170.418H174.129V150.594C174.129 149.817 173.69 149.107 172.995 148.76L167.977 146.25V170.418H163.875V139.656C163.875 138.97 163.532 138.33 162.962 137.95L150.657 129.747C150.028 129.327 149.219 129.288 148.552 129.645C147.885 130.002 147.469 130.697 147.469 131.453V170.418H143.367V131.453C143.367 129.18 144.612 127.101 146.617 126.029C147.506 125.552 148.51 125.301 149.519 125.301C150.739 125.301 151.919 125.658 152.933 126.335L154.988 127.705V116.141C154.988 115.008 154.07 114.09 152.938 114.09H131.062C129.93 114.09 129.012 115.008 129.012 116.141V118.465H132.43C135.822 118.465 138.582 121.225 138.582 124.617V170.418H134.48V124.617C134.48 123.485 133.562 122.566 132.43 122.566H120.125C118.992 122.566 118.074 123.485 118.074 124.617V151.961H122.859C126.252 151.961 129.012 154.721 129.012 158.113V170.418H124.91V158.113C124.91 156.981 123.992 156.062 122.859 156.062H111.922C110.789 156.062 109.871 156.981 109.871 158.113V170.418H109.051C107.918 170.418 107 171.336 107 172.469C107 173.601 107.918 174.52 109.051 174.52H174.949C176.082 174.52 177 173.601 177 172.469C177 171.336 176.082 170.418 174.949 170.418ZM153.621 146.492C153.621 145.36 154.539 144.441 155.672 144.441C156.804 144.441 157.723 145.36 157.723 146.492V150.594C157.723 151.726 156.804 152.645 155.672 152.645C154.539 152.645 153.621 151.726 153.621 150.594V146.492ZM153.621 158.797C153.621 157.664 154.539 156.746 155.672 156.746C156.804 156.746 157.723 157.664 157.723 158.797V162.898C157.723 164.031 156.804 164.949 155.672 164.949C154.539 164.949 153.621 164.031 153.621 162.898V158.797ZM128.328 146.492C128.328 147.625 127.41 148.543 126.277 148.543C125.145 148.543 124.227 147.625 124.227 146.492V142.391C124.227 141.258 125.145 140.34 126.277 140.34C127.41 140.34 128.328 141.258 128.328 142.391V146.492ZM128.328 134.188C128.328 135.32 127.41 136.238 126.277 136.238C125.145 136.238 124.227 135.32 124.227 134.188V130.086C124.227 128.953 125.145 128.035 126.277 128.035C127.41 128.035 128.328 128.953 128.328 130.086V134.188ZM115.34 165.633C115.34 164.5 116.258 163.582 117.391 163.582C118.523 163.582 119.441 164.5 119.441 165.633V170.418H115.34V165.633Z" fill="white"/>
</g>
</g>
<circle cx="240" cy="68.5195" r="32" fill="#6886FF"/>
<path d="M244.261 67.179L252.751 61.475C253.606 60.9031 253.831 59.7292 253.261 58.8864L250.531 54.8078C249.961 53.9499 248.791 53.7242 247.951 54.2961L239.461 60.0001L244.261 67.179Z" fill="white"/>
<path d="M243.78 66.4562L241.14 68.2321L237.135 70.9261L236.61 71.2722L236.37 70.911L233.01 65.8843L232.77 65.5231L239.94 60.707L243.78 66.4562Z" fill="white"/>
<path d="M230.461 74.8828L236.386 70.9096L233.026 65.8828L227.101 69.8561C226.411 70.3226 226.231 71.2557 226.696 71.948L228.391 74.4765C228.841 75.1688 229.771 75.3494 230.461 74.8828Z" fill="white"/>
<path d="M246.839 83.5967C246.689 83.6569 246.524 83.702 246.374 83.702C245.939 83.702 245.534 83.4462 245.339 83.0248L239.744 70.6234L234.074 83.0398C233.879 83.4462 233.474 83.702 233.039 83.702C232.889 83.702 232.724 83.6569 232.574 83.5967C232.019 83.3258 231.764 82.6636 232.019 82.0917L237.134 70.9244L241.139 68.2305L247.394 82.1067C247.649 82.6636 247.394 83.3408 246.839 83.5967Z" fill="white"/>
<circle cx="32" cy="68.5195" r="32" fill="#6886FF"/>
<path d="M44.8935 62.0236C44.0402 59.1206 41.6269 56.6992 38.7335 55.843C36.5335 55.2009 35.0135 55.2544 33.9602 56.0437C32.6935 56.9935 32.5469 58.7059 32.5469 59.9233V63.2544C32.5469 66.5454 34.0402 68.2176 36.9735 68.2176H40.8002C42.0002 68.2176 43.7202 68.0705 44.6669 66.7996C45.4802 65.7561 45.5469 64.231 44.8935 62.0236Z" fill="white"/>
<path d="M41.2132 70.598C40.8665 70.1967 40.3599 69.9693 39.8399 69.9693H35.0665C32.7199 69.9693 30.8132 68.0562 30.8132 65.7017V60.9124C30.8132 60.3907 30.5865 59.8823 30.1865 59.5345C29.7999 59.1867 29.2665 59.0261 28.7599 59.093C25.6265 59.4943 22.7465 61.2201 20.8665 63.8154C18.9732 66.4241 18.2799 69.6081 18.8799 72.792C19.7465 77.394 23.4132 81.0729 28.0132 81.9425C28.7465 82.0897 29.4799 82.1566 30.2132 82.1566C32.6265 82.1566 34.9599 81.4074 36.9465 79.9492C39.5332 78.0629 41.2532 75.1733 41.6532 72.0295C41.7199 71.5077 41.5599 70.986 41.2132 70.598Z" fill="white"/>
<circle cx="232" cy="212.52" r="32" fill="#6886FF"/>
<g clip-path="url(#clip2_2432_8324)">
<path d="M238.911 215.882C243.232 209.78 241.787 201.33 235.685 197.01C229.582 192.689 221.133 194.133 216.812 200.237C212.492 206.339 213.936 214.788 220.039 219.108C224.395 222.192 230.153 222.429 234.747 219.716L244.729 229.638C245.807 230.773 247.6 230.818 248.735 229.74C249.869 228.663 249.915 226.87 248.838 225.736C248.804 225.7 248.771 225.667 248.735 225.632L238.911 215.882ZM227.853 216.807C223.031 216.808 219.122 212.902 219.119 208.079C219.118 203.257 223.024 199.348 227.847 199.346C232.663 199.344 236.57 203.244 236.58 208.06C236.588 212.883 232.684 216.799 227.859 216.807C227.857 216.807 227.856 216.807 227.853 216.807Z" fill="white"/>
</g>
<circle cx="32" cy="199.52" r="32" fill="#6886FF"/>
<path d="M47 188.794V206.629C47 208.084 45.815 209.419 44.36 209.599L43.895 209.659C41.435 209.989 37.97 211.009 35.18 212.179C34.205 212.584 33.125 211.849 33.125 210.784V189.919C33.125 189.364 33.44 188.854 33.935 188.584C36.68 187.099 40.835 185.779 43.655 185.539H43.745C45.545 185.539 47 186.994 47 188.794Z" fill="white"/>
<path d="M30.0644 188.584C27.3194 187.099 23.1644 185.779 20.3444 185.539H20.2394C18.4394 185.539 16.9844 186.994 16.9844 188.794V206.629C16.9844 208.084 18.1694 209.419 19.6244 209.599L20.0894 209.659C22.5494 209.989 26.0144 211.009 28.8044 212.179C29.7794 212.584 30.8594 211.849 30.8594 210.784V189.919C30.8594 189.349 30.5594 188.854 30.0644 188.584Z" fill="white"/>
<defs>
<clipPath id="clip0_2432_8324">
<rect x="107.125" y="104.645" width="69.75" height="69.75" fill="white"/>
</clipPath>
<clipPath id="clip1_2432_8324">
<rect width="70" height="70" fill="white" transform="translate(107 104.52)"/>
</clipPath>
<clipPath id="clip2_2432_8324">
<rect width="36" height="36" fill="white" transform="translate(214 194.52)"/>
</clipPath>
</defs>
</svg>
