<svg width="420" height="300" viewBox="0 0 420 300" fill="none" xmlns="http://www.w3.org/2000/svg">
<rect width="111.326" height="110.683" rx="3.39512" transform="matrix(0.944768 -0.327741 0.332094 0.943246 47.3164 184.332)" fill="#5268DE"/>
<path d="M74.1543 188.316L77.5875 187.125C78.6895 186.743 79.7328 186.629 80.7172 186.784C81.7017 186.938 82.5607 187.337 83.2942 187.979C84.0244 188.612 84.57 189.441 84.9309 190.466C85.2884 191.482 85.3819 192.468 85.2112 193.424C85.0405 194.38 84.6155 195.229 83.9361 195.971C83.2629 196.701 82.3799 197.255 81.2874 197.634L77.8542 198.825L74.1543 188.316ZM80.7338 195.927C81.4402 195.682 82.0058 195.322 82.4306 194.847C82.8649 194.37 83.1289 193.814 83.2228 193.18C83.3227 192.533 83.2469 191.852 82.9953 191.138C82.7437 190.423 82.3775 189.848 81.8968 189.413C81.4255 188.975 80.8701 188.704 80.2306 188.599C79.6005 188.49 78.9323 188.558 78.2259 188.803L76.6717 189.342L79.1797 196.466L80.7338 195.927ZM84.6126 184.688L91.6061 182.262L92.202 183.955L87.13 185.715L88.0785 188.409L92.868 186.747L93.464 188.44L88.6745 190.101L89.6379 192.838L94.71 191.078L95.3059 192.771L88.3124 195.197L84.6126 184.688ZM93.0151 181.774L94.9365 181.107L98.0404 189.923L102.547 188.36L103.143 190.052L96.7149 192.282L93.0151 181.774ZM100.686 179.112L102.608 178.446L106.308 188.954L104.386 189.621L100.686 179.112ZM113.379 186.691C112.39 187.034 111.408 187.111 110.432 186.922C109.457 186.733 108.592 186.305 107.839 185.637C107.087 184.97 106.53 184.124 106.169 183.099C105.808 182.074 105.708 181.069 105.869 180.085C106.039 179.097 106.438 178.236 107.067 177.5C107.702 176.752 108.519 176.205 109.518 175.859C110.243 175.607 110.952 175.504 111.644 175.549C112.333 175.584 112.959 175.741 113.522 176.021C114.092 176.288 114.56 176.642 114.927 177.085L113.506 178.496C113.103 178.013 112.604 177.69 112.008 177.528C111.417 177.352 110.793 177.379 110.133 177.608C109.483 177.833 108.959 178.19 108.559 178.676C108.157 179.154 107.912 179.719 107.825 180.372C107.747 181.021 107.835 181.708 108.09 182.432C108.345 183.156 108.713 183.751 109.195 184.218C109.682 184.671 110.234 184.965 110.852 185.099C111.476 185.22 112.113 185.168 112.763 184.942C113.3 184.756 113.756 184.476 114.132 184.103C114.518 183.727 114.773 183.295 114.897 182.809C115.032 182.319 115.008 181.816 114.825 181.299L114.811 181.256L111.787 182.305L111.216 180.683L116.161 178.968L116.533 180.026C116.901 181.069 116.986 182.047 116.79 182.96C116.599 183.86 116.195 184.633 115.577 185.28C114.969 185.923 114.236 186.394 113.379 186.691ZM116.042 173.785L117.964 173.119L119.578 177.703L124.057 176.149L122.443 171.565L124.378 170.894L128.078 181.402L126.142 182.074L124.653 177.842L120.174 179.396L121.664 183.627L119.742 184.294L116.042 173.785ZM128.865 171.237L126.138 172.182L125.542 170.49L132.889 167.941L133.485 169.634L130.801 170.565L133.904 179.381L131.969 180.053L128.865 171.237Z" fill="#E8EDFF"/>
<rect width="93.9333" height="93.2728" rx="3.39512" transform="matrix(0.988403 0.151855 -0.154067 0.988061 327.156 58.875)" fill="#5268DE"/>
<path d="M349.925 73.2834L353.517 73.8352C354.67 74.0123 355.644 74.399 356.439 74.9952C357.234 75.5914 357.802 76.3444 358.145 77.2544C358.489 78.1545 358.577 79.1414 358.41 80.2151C358.244 81.2789 357.859 82.1931 357.256 82.9577C356.652 83.7223 355.875 84.2737 354.924 84.6118C353.985 84.9415 352.944 85.0186 351.801 84.843L348.209 84.2912L349.925 73.2834ZM352.121 83.0767C352.86 83.1903 353.53 83.1367 354.129 82.9162C354.738 82.6971 355.235 82.3295 355.618 81.8135C356.012 81.2891 356.268 80.6526 356.385 79.9039C356.501 79.1553 356.451 78.4768 356.233 77.8684C356.025 77.2615 355.664 76.7622 355.15 76.3706C354.646 75.9804 354.024 75.7286 353.285 75.6151L351.659 75.3653L350.496 82.8269L352.121 83.0767ZM360.866 74.9643L364.961 75.5934C365.71 75.7084 366.353 75.9485 366.892 76.3136C367.432 76.6689 367.818 77.1318 368.052 77.7023C368.296 78.2744 368.361 78.9248 368.248 79.6538C368.131 80.4024 367.853 81.0203 367.414 81.5076C366.976 81.985 366.427 82.3041 365.766 82.4648L367.605 87.271L365.328 86.9213L363.686 82.5083L361.794 82.2177L361.16 86.281L359.15 85.9721L360.866 74.9643ZM364.184 80.7693C364.726 80.8526 365.183 80.7665 365.556 80.5111C365.93 80.2459 366.157 79.8571 366.237 79.3449C366.317 78.8327 366.218 78.3989 365.941 78.0436C365.665 77.6784 365.256 77.4542 364.714 77.371L362.6 77.0462L362.07 80.4446L364.184 80.7693ZM370.638 76.4657L372.649 76.7745L370.932 87.7823L368.922 87.4735L370.638 76.4657ZM373.865 76.9614L376.053 77.2975L377.541 86.1953L381.654 78.1581L383.842 78.4942L378.297 88.9138L375.992 88.5596L373.865 76.9614ZM385.073 78.6833L392.389 79.8074L392.113 81.5804L386.806 80.7652L386.366 83.5873L391.377 84.3572L391.101 86.1302L386.09 85.3604L385.643 88.2269L390.949 89.0421L390.673 90.8152L383.356 89.6911L385.073 78.6833Z" fill="#E8EDFF"/>
<ellipse cx="62.3227" cy="61.9361" rx="62.3227" ry="61.9361" transform="matrix(0.959905 0.280327 -0.284173 0.958773 187.334 18.0352)" fill="#5268DE"/>
<path d="M204.345 81.3998L207.834 82.4187C208.954 82.7457 209.868 83.2569 210.578 83.9522C211.287 84.6476 211.751 85.4687 211.969 86.4155C212.191 87.3527 212.147 88.3424 211.838 89.3845C211.532 90.4171 211.029 91.2726 210.328 91.951C209.628 92.6295 208.784 93.0738 207.796 93.2839C206.821 93.4873 205.778 93.4268 204.667 93.1026L201.178 92.0837L204.345 81.3998ZM205.22 91.3942C205.938 91.6039 206.609 91.6388 207.233 91.499C207.867 91.3619 208.408 91.0629 208.856 90.6018C209.317 90.1339 209.656 89.5367 209.871 88.8101C210.086 88.0835 210.126 87.4044 209.991 86.7728C209.865 86.144 209.574 85.6017 209.116 85.146C208.668 84.6931 208.085 84.3618 207.367 84.1521L205.788 83.6909L203.641 90.933L205.22 91.3942ZM214.973 84.5036L222.08 86.5791L221.57 88.3L216.416 86.7947L215.604 89.5338L220.471 90.9552L219.961 92.6761L215.094 91.2547L214.269 94.0368L219.424 95.5421L218.914 97.263L211.806 95.1875L214.973 84.5036ZM224.114 98.9686C223.271 98.7226 222.586 98.351 222.057 97.8538C221.538 97.3594 221.177 96.8229 220.974 96.2442C220.774 95.656 220.704 95.085 220.764 94.5312L222.747 94.5803C222.717 95.2054 222.87 95.7434 223.204 96.1943C223.539 96.6451 224.031 96.9656 224.682 97.1557C225.18 97.301 225.619 97.2941 225.999 97.135C226.388 96.9787 226.634 96.7284 226.736 96.3842C226.829 96.0687 226.795 95.7627 226.634 95.4662C226.484 95.1629 226.23 94.9171 225.869 94.7288L224.355 93.9437C223.551 93.5324 222.99 92.9686 222.672 92.2524C222.354 91.5362 222.317 90.767 222.56 89.9448C222.73 89.3712 223.049 88.8929 223.516 88.5099C223.996 88.1201 224.549 87.8663 225.177 87.7484C225.814 87.6333 226.444 87.6665 227.066 87.8482C227.861 88.0802 228.496 88.4112 228.972 88.841C229.448 89.2708 229.778 89.736 229.962 90.2366C230.159 90.7303 230.243 91.2173 230.216 91.6974L228.222 91.7385C228.174 91.1635 228.01 90.7158 227.731 90.3953C227.454 90.0652 227.053 89.8233 226.527 89.6695C226.23 89.5829 225.943 89.5667 225.667 89.6211C225.401 89.6783 225.171 89.7878 224.977 89.9494C224.796 90.1043 224.676 90.2821 224.616 90.4829C224.523 90.7984 224.546 91.1064 224.686 91.4069C224.828 91.6978 225.076 91.9313 225.43 92.1072L226.854 92.8815C227.723 93.3534 228.327 93.9455 228.667 94.6577C229.01 95.3604 229.067 96.0989 228.837 96.8733C228.673 97.4278 228.366 97.9041 227.915 98.3023C227.464 98.7004 226.906 98.9686 226.241 99.1068C225.588 99.2383 224.879 99.1922 224.114 98.9686ZM232.808 89.712L234.761 90.2823L231.594 100.966L229.641 100.396L232.808 89.712ZM238.669 103.219C237.664 102.926 236.82 102.42 236.139 101.701C235.458 100.983 235.007 100.135 234.787 99.1562C234.568 98.1779 234.612 97.1677 234.921 96.1256C235.23 95.0835 235.739 94.2089 236.448 93.5018C237.166 92.7974 237.997 92.3284 238.94 92.0947C239.895 91.8543 240.88 91.8823 241.894 92.1786C242.631 92.3938 243.268 92.7199 243.804 93.157C244.343 93.5844 244.759 94.0748 245.053 94.628C245.359 95.1745 245.531 95.7338 245.57 96.306L243.586 96.6304C243.542 96.0048 243.326 95.4534 242.937 94.9762C242.561 94.4923 242.037 94.1525 241.367 93.9568C240.707 93.7639 240.071 93.7498 239.461 93.9143C238.853 94.0693 238.323 94.3869 237.868 94.8671C237.423 95.3501 237.092 95.9597 236.874 96.6959C236.656 97.432 236.605 98.1289 236.722 98.7864C236.852 99.4371 237.128 99.9957 237.552 100.462C237.987 100.922 238.535 101.248 239.196 101.441C239.741 101.6 240.277 101.637 240.801 101.551C241.335 101.468 241.796 101.265 242.183 100.942C242.58 100.622 242.856 100.198 243.012 99.6726L243.024 99.6296L239.952 98.7323L240.441 97.0831L245.466 98.5507L245.147 99.6262C244.833 100.687 244.327 101.532 243.632 102.16C242.948 102.781 242.166 103.176 241.284 103.344C240.412 103.515 239.54 103.474 238.669 103.219ZM248.414 94.2694L249.936 94.7139L253.001 103.057L255.033 96.2024L256.985 96.7726L253.819 107.457L252.282 107.008L249.27 98.5396L247.2 105.524L245.247 104.953L248.414 94.2694Z" fill="#E8EDFF"/>
<path d="M41.2492 47.4126C40.4954 44.9225 42.7366 42.5533 45.2876 43.1435L146.091 66.464C148.648 67.0554 149.597 70.1732 147.8 72.0732L76.7823 147.149C74.9851 149.049 71.7905 148.304 71.0352 145.809L41.2492 47.4126Z" fill="#5268DE"/>
<path d="M80.2537 114.426L82.7432 111.795C83.5422 110.95 84.4131 110.369 85.3559 110.052C86.2986 109.735 87.2428 109.692 88.1886 109.921C89.1271 110.144 89.9926 110.624 90.7851 111.363C91.5703 112.095 92.1079 112.922 92.3981 113.844C92.6882 114.767 92.7038 115.712 92.4449 116.68C92.1856 117.634 91.6599 118.529 90.8676 119.367L88.3782 121.999L80.2537 114.426ZM89.5897 118.115C90.1019 117.573 90.4366 116.995 90.5937 116.381C90.7576 115.759 90.7348 115.147 90.5253 114.544C90.3153 113.927 89.9341 113.362 89.3816 112.847C88.829 112.332 88.2397 111.993 87.6136 111.83C86.9943 111.661 86.3773 111.677 85.7626 111.878C85.1548 112.072 84.5948 112.44 84.0825 112.982L82.9556 114.173L88.4628 119.306L89.5897 118.115ZM87.8371 106.41L92.9082 101.049L94.2168 102.269L90.539 106.156L92.6219 108.098L96.0948 104.427L97.4035 105.646L93.9306 109.318L96.0462 111.289L99.724 107.401L101.033 108.621L95.9616 113.982L87.8371 106.41ZM93.9298 99.9688L99.0214 94.5863L100.33 95.806L96.6317 99.7156L98.8782 101.809L102.116 98.3872L103.424 99.6069L100.187 103.029L103.448 106.068L102.054 107.541L93.9298 99.9688ZM99.9325 93.6231L101.326 92.1503L109.45 99.7227L108.057 101.196L99.9325 93.6231ZM102.794 90.5984L103.88 89.4504L112.729 90.4643L107.517 85.6058L108.91 84.1329L117.034 91.7053L115.938 92.8641L107.001 91.7479L112.312 96.6979L110.918 98.1708L102.794 90.5984ZM110.387 82.5711L115.458 77.2104L116.767 78.4301L113.089 82.318L115.172 84.2594L118.645 80.588L119.954 81.8078L116.481 85.4791L118.596 87.451L122.274 83.563L123.583 84.7827L118.512 90.1435L110.387 82.5711Z" fill="#E8EDFF"/>
<path d="M234.471 175.19C235.791 173.172 238.088 171.998 240.505 172.107L290.884 174.372C293.342 174.483 295.546 175.903 296.647 178.087L319.231 222.851C320.315 224.998 320.169 227.558 318.848 229.577L290.961 272.207C289.641 274.225 287.344 275.399 284.927 275.29L234.543 273.022C232.085 272.911 229.882 271.491 228.78 269.307L206.2 224.546C205.117 222.399 205.263 219.839 206.583 217.82L234.471 175.19Z" fill="#5268DE"/>
<path d="M233.671 199.074L236.696 201.024C237.667 201.65 238.391 202.392 238.867 203.252C239.344 204.111 239.551 205.02 239.49 205.979C239.435 206.93 239.112 207.856 238.523 208.757C237.939 209.649 237.218 210.318 236.36 210.764C235.502 211.21 234.574 211.393 233.576 211.313C232.592 211.231 231.618 210.879 230.655 210.259L227.63 208.309L233.671 199.074ZM231.666 208.795C232.288 209.197 232.915 209.419 233.548 209.462C234.189 209.511 234.787 209.38 235.345 209.07C235.915 208.756 236.406 208.285 236.817 207.657C237.228 207.029 237.459 206.397 237.51 205.76C237.569 205.128 237.446 204.532 237.14 203.971C236.843 203.415 236.383 202.937 235.761 202.535L234.391 201.653L230.296 207.913L231.666 208.795ZM242.887 205.014L244.58 206.106L238.539 215.34L236.846 214.249L242.887 205.014ZM243.537 218.774C242.807 218.303 242.261 217.757 241.9 217.137C241.547 216.522 241.357 215.911 241.328 215.305C241.305 214.691 241.401 214.13 241.615 213.622L243.484 214.228C243.279 214.812 243.271 215.365 243.461 215.887C243.651 216.409 244.028 216.852 244.592 217.215C245.024 217.494 245.443 217.611 245.849 217.567C246.263 217.529 246.568 217.361 246.762 217.064C246.941 216.791 246.995 216.491 246.926 216.164C246.87 215.835 246.698 215.53 246.409 215.25L245.193 214.078C244.546 213.462 244.173 212.769 244.074 212C243.975 211.232 244.158 210.492 244.623 209.781C244.948 209.285 245.386 208.922 245.939 208.691C246.505 208.456 247.103 208.372 247.733 208.437C248.371 208.508 248.96 208.717 249.499 209.065C250.188 209.509 250.698 210.002 251.028 210.543C251.358 211.085 251.539 211.619 251.573 212.146C251.619 212.669 251.561 213.155 251.399 213.602L249.493 213.079C249.611 212.52 249.582 212.05 249.408 211.667C249.239 211.276 248.926 210.933 248.469 210.639C248.212 210.473 247.945 210.377 247.667 210.351C247.397 210.33 247.148 210.369 246.918 210.467C246.702 210.563 246.537 210.698 246.424 210.871C246.245 211.144 246.18 211.442 246.227 211.767C246.28 212.083 246.45 212.374 246.735 212.641L247.869 213.776C248.56 214.469 248.966 215.201 249.087 215.972C249.214 216.734 249.058 217.451 248.62 218.12C248.307 218.599 247.879 218.964 247.338 219.214C246.797 219.465 246.19 219.561 245.519 219.505C244.862 219.445 244.201 219.202 243.537 218.774ZM252.644 224.644C251.773 224.082 251.119 223.367 250.684 222.499C250.249 221.631 250.066 220.702 250.135 219.713C250.212 218.729 250.546 217.787 251.135 216.886C251.724 215.985 252.456 215.3 253.33 214.829C254.212 214.364 255.135 214.154 256.097 214.198C257.072 214.24 258 214.544 258.88 215.111C259.519 215.523 260.031 216.012 260.417 216.578C260.807 217.135 261.064 217.717 261.185 218.324C261.321 218.929 261.326 219.507 261.2 220.061L259.219 219.788C259.35 219.191 259.298 218.612 259.064 218.05C258.835 217.479 258.439 217.012 257.875 216.648C257.302 216.279 256.702 216.087 256.076 216.07C255.454 216.046 254.86 216.197 254.292 216.524C253.732 216.857 253.244 217.341 252.828 217.977C252.412 218.614 252.162 219.257 252.078 219.908C252.008 220.556 252.108 221.161 252.378 221.723C252.653 222.276 253.077 222.737 253.65 223.106C254.214 223.47 254.803 223.644 255.415 223.628C256.033 223.603 256.59 223.41 257.086 223.048L258.143 224.734C257.685 225.073 257.148 225.308 256.531 225.439C255.928 225.568 255.288 225.572 254.611 225.453C253.939 225.325 253.283 225.055 252.644 224.644ZM262.498 230.995C261.593 230.411 260.906 229.675 260.438 228.786C259.975 227.888 259.77 226.939 259.822 225.939C259.874 224.939 260.192 223.993 260.776 223.101C261.36 222.208 262.102 221.535 263.001 221.08C263.9 220.626 264.854 220.43 265.863 220.493C266.872 220.556 267.829 220.879 268.733 221.462C269.638 222.045 270.325 222.782 270.793 223.671C271.261 224.56 271.469 225.505 271.417 226.505C271.373 227.511 271.059 228.459 270.475 229.352C269.891 230.244 269.146 230.915 268.238 231.364C267.339 231.819 266.383 232.018 265.368 231.964C264.359 231.901 263.402 231.578 262.498 230.995ZM262.47 224.192C262.07 224.803 261.844 225.445 261.794 226.118C261.743 226.79 261.863 227.419 262.152 228.005C262.455 228.588 262.905 229.072 263.503 229.458C264.101 229.843 264.725 230.051 265.377 230.084C266.042 230.113 266.674 229.968 267.272 229.649C267.87 229.329 268.369 228.864 268.769 228.253C269.169 227.641 269.392 227.003 269.437 226.339C269.487 225.667 269.361 225.039 269.058 224.456C268.769 223.87 268.325 223.385 267.728 222.999C267.13 222.614 266.499 222.407 265.834 222.378C265.182 222.345 264.557 222.489 263.959 222.808C263.366 223.119 262.87 223.58 262.47 224.192ZM273.995 225.065L275.837 226.253L273.556 234.88L280.556 229.294L282.398 230.482L273.133 237.638L271.19 236.386L273.995 225.065ZM283.435 231.15L289.598 235.122L288.625 236.61L284.155 233.729L282.606 236.096L286.827 238.817L285.854 240.304L281.633 237.584L280.06 239.989L284.53 242.87L283.557 244.357L277.394 240.385L283.435 231.15ZM290.839 235.923L294.288 238.146C294.919 238.552 295.404 239.029 295.742 239.576C296.086 240.115 296.247 240.689 296.226 241.298C296.214 241.912 296.007 242.525 295.607 243.137C295.196 243.765 294.693 244.21 294.097 244.472C293.506 244.726 292.879 244.791 292.215 244.669L291.92 249.748L290.003 248.512L290.315 243.867L288.722 242.84L286.492 246.249L284.798 245.157L290.839 235.923ZM291.475 242.5C291.931 242.794 292.38 242.902 292.822 242.822C293.269 242.734 293.633 242.475 293.914 242.046C294.195 241.616 294.282 241.185 294.176 240.752C294.075 240.311 293.797 239.943 293.34 239.649L291.56 238.502L289.695 241.352L291.475 242.5Z" fill="#E8EDFF"/>
</svg>
