<svg width="124" height="125" viewBox="0 0 124 125" fill="none" xmlns="http://www.w3.org/2000/svg">
<path d="M57.9757 10.792C58.6217 9.13451 60.2211 8.04297 61.9992 8.04297C63.7793 8.04297 65.3787 9.13451 66.0246 10.792L68.8613 18.0548L76.6455 18.5081C78.4217 18.6113 79.9531 19.7941 80.5035 21.4868C81.054 23.1794 80.5094 25.0356 79.1318 26.1639L73.1025 31.1058L75.0773 38.6487C75.5268 40.3704 74.8751 42.1916 73.4353 43.2384C71.9955 44.2851 70.0616 44.3415 68.5637 43.3803L61.9992 39.1721L55.4369 43.3803C53.9387 44.3413 52.0049 44.2851 50.5653 43.2384C49.1235 42.1916 48.4738 40.3706 48.9233 38.6487L50.8981 31.1058L44.8688 26.1639C43.4912 25.0356 42.9466 23.1794 43.4971 21.4868C44.0475 19.7941 45.5789 18.6113 47.3551 18.5081L55.1392 18.0548L57.9757 10.792Z" stroke="white" stroke-width="6" stroke-miterlimit="10" stroke-linecap="round" stroke-linejoin="round"/>
<path d="M11.4141 27.5H26.9787" stroke="white" stroke-width="6" stroke-miterlimit="10" stroke-linecap="round" stroke-linejoin="round"/>
<path d="M97.0195 27.5H112.584" stroke="white" stroke-width="6" stroke-miterlimit="10" stroke-linecap="round" stroke-linejoin="round"/>
<path d="M21.5625 50.8445L31.6716 45.0078" stroke="white" stroke-width="6" stroke-miterlimit="10" stroke-linecap="round" stroke-linejoin="round"/>
<path d="M92.3301 9.98906L102.439 4.15234" stroke="white" stroke-width="6" stroke-miterlimit="10" stroke-linecap="round" stroke-linejoin="round"/>
<path d="M21.5625 4.15234L31.6716 9.98906" stroke="white" stroke-width="6" stroke-miterlimit="10" stroke-linecap="round" stroke-linejoin="round"/>
<path d="M92.3301 45.0078L102.439 50.8445" stroke="white" stroke-width="6" stroke-miterlimit="10" stroke-linecap="round" stroke-linejoin="round"/>
<path d="M120.367 105.32H3.63281V120.885H120.367V105.32Z" stroke="white" stroke-width="6" stroke-miterlimit="10" stroke-linecap="round" stroke-linejoin="round"/>
<path d="M104.803 89.7578H19.1973V105.322H104.803V89.7578Z" stroke="white" stroke-width="6" stroke-miterlimit="10" stroke-linecap="round" stroke-linejoin="round"/>
<path d="M89.2377 74.1914H34.7617V89.7561H89.2377V74.1914Z" stroke="white" stroke-width="6" stroke-miterlimit="10" stroke-linecap="round" stroke-linejoin="round"/>
<path d="M73.673 58.6289H50.3262V74.1936H73.673V58.6289Z" stroke="white" stroke-width="6" stroke-miterlimit="10" stroke-linecap="round" stroke-linejoin="round"/>
</svg>
