<svg width="260" height="186" viewBox="0 0 260 186" fill="none" xmlns="http://www.w3.org/2000/svg">
<g clip-path="url(#clip0_2422_6497)">
<circle cx="50" cy="63.5195" r="21" fill="#82BE80"/>
<path d="M55.9609 61.6699H60.9194V70.4263H55.9609V61.6699Z" fill="white"/>
<path d="M47.5215 61.6699H52.4799V70.4263H47.5215V61.6699Z" fill="white"/>
<path d="M61.8685 72.0078C61.072 72.0078 39.0954 72.0078 38.1313 72.0078C37.2587 72.0078 36.5488 72.7177 36.5488 73.5903V75.4365C36.5488 76.3091 37.2587 77.019 38.1313 77.019H61.8685C62.7411 77.019 63.451 76.3091 63.451 75.4365V73.5903C63.451 72.7177 62.7411 72.0078 61.8685 72.0078Z" fill="white"/>
<path d="M62.4593 54.9874C50.2703 50.0035 50.5965 50.1368 50.5877 50.1333C50.2116 49.9828 49.7935 49.9797 49.4066 50.1355L37.5405 54.9874C36.938 55.2299 36.5488 55.8058 36.5488 56.4555V58.5046C36.5488 59.3771 37.2587 60.087 38.1313 60.087H61.8685C62.7411 60.087 63.451 59.3771 63.451 58.5046V56.4555C63.451 55.8058 63.0619 55.2299 62.4593 54.9874Z" fill="white"/>
<path d="M39.082 61.6699H44.0405V70.4263H39.082V61.6699Z" fill="white"/>
</g>
<g clip-path="url(#clip1_2422_6497)">
<circle cx="130" cy="83" r="40" fill="#B63A30"/>
<path d="M132.735 57.7285C134.043 62.1652 139.397 63.9055 143.063 61.0846C145.125 59.4976 147.987 61.5752 147.112 64.0263C145.561 68.3831 148.871 72.9387 153.494 72.8105C156.096 72.739 157.187 76.1006 155.04 77.5705C151.225 80.1842 151.225 85.8149 155.04 88.4295C157.187 89.8995 156.095 93.2611 153.494 93.1887C148.871 93.0614 145.561 97.6161 147.112 101.974C147.984 104.425 145.125 106.502 143.063 104.915C139.397 102.095 134.043 103.835 132.735 108.272C132 110.766 128.466 110.766 127.731 108.272C126.423 103.835 121.069 102.095 117.403 104.915C115.341 106.502 112.479 104.425 113.355 101.974C114.905 97.6161 111.595 93.0614 106.972 93.1887C104.37 93.2611 103.279 89.8995 105.426 88.4295C109.241 85.8149 109.241 80.1842 105.426 77.5705C103.279 76.1006 104.372 72.739 106.972 72.8105C111.595 72.9387 114.905 68.3831 113.355 64.0263C112.482 61.5752 115.342 59.4976 117.403 61.0846C121.069 63.9055 126.423 62.1652 127.731 57.7285C128.466 55.2337 132 55.2337 132.735 57.7285Z" fill="white"/>
</g>
<g clip-path="url(#clip2_2422_6497)">
<circle cx="65" cy="147.52" r="21" fill="#FFB967"/>
<path d="M78.0421 144.66L72.2024 150.352L73.5814 158.392C73.6414 158.744 73.4971 159.099 73.2083 159.309C73.0452 159.428 72.8511 159.488 72.6571 159.488C72.508 159.488 72.358 159.452 72.2211 159.38L65.0005 155.584L57.7808 159.379C57.4658 159.546 57.0824 159.519 56.7936 159.308C56.5049 159.098 56.3605 158.743 56.4205 158.391L57.7996 150.351L51.959 144.66C51.704 144.41 51.6111 144.037 51.7218 143.699C51.8324 143.36 52.1258 143.112 52.4793 143.06L60.5502 141.888L64.1596 134.574C64.4755 133.934 65.5255 133.934 65.8414 134.574L69.4508 141.888L77.5218 143.06C77.8752 143.112 78.1686 143.359 78.2793 143.699C78.3899 144.038 78.2971 144.409 78.0421 144.66Z" fill="white"/>
</g>
<g clip-path="url(#clip3_2422_6497)">
<circle cx="210" cy="33.5195" r="21" fill="#D4D5D2"/>
<path d="M223.042 30.6596L217.202 36.3521L218.581 44.3921C218.641 44.7437 218.497 45.099 218.208 45.309C218.045 45.428 217.851 45.488 217.657 45.488C217.508 45.488 217.358 45.4524 217.221 45.3802L210.001 41.5843L202.781 45.3793C202.466 45.5462 202.082 45.519 201.794 45.308C201.505 45.098 201.361 44.7427 201.421 44.3912L202.8 36.3512L196.959 30.6596C196.704 30.4102 196.611 30.0371 196.722 29.6987C196.832 29.3602 197.126 29.1118 197.479 29.0602L205.55 27.8884L209.16 20.574C209.476 19.9337 210.526 19.9337 210.841 20.574L214.451 27.8884L222.522 29.0602C222.875 29.1118 223.169 29.3593 223.279 29.6987C223.39 30.038 223.297 30.4093 223.042 30.6596Z" fill="white"/>
</g>
<g clip-path="url(#clip4_2422_6497)">
<circle cx="193" cy="147.52" r="21" fill="#5B91F9"/>
<path d="M202.616 138.373L193.202 135.549C193.07 135.51 192.93 135.51 192.798 135.549L183.384 138.373C183.086 138.463 182.883 138.736 182.883 139.047V149.402C182.883 150.749 183.428 152.128 184.503 153.5C185.325 154.548 186.461 155.601 187.881 156.629C190.266 158.355 192.614 159.414 192.713 159.458C192.804 159.499 192.902 159.52 193 159.52C193.098 159.52 193.196 159.499 193.287 159.458C193.386 159.414 195.734 158.355 198.119 156.629C199.539 155.601 200.675 154.548 201.496 153.5C202.572 152.128 203.117 150.749 203.117 149.402V139.047C203.117 138.736 202.913 138.463 202.616 138.373Z" fill="white"/>
</g>
<defs>
<clipPath id="clip0_2422_6497">
<rect width="42" height="42" fill="white" transform="translate(29 42.5195)"/>
</clipPath>
<clipPath id="clip1_2422_6497">
<rect width="80" height="80" fill="white" transform="translate(90 43)"/>
</clipPath>
<clipPath id="clip2_2422_6497">
<rect width="42" height="42" fill="white" transform="translate(44 126.52)"/>
</clipPath>
<clipPath id="clip3_2422_6497">
<rect width="42" height="42" fill="white" transform="translate(189 12.5195)"/>
</clipPath>
<clipPath id="clip4_2422_6497">
<rect width="42" height="42" fill="white" transform="translate(172 126.52)"/>
</clipPath>
</defs>
</svg>
