<svg width="58" height="72" viewBox="0 0 58 72" fill="none" xmlns="http://www.w3.org/2000/svg">
<path d="M56.1778 44.6649C55.6581 44.2047 55.0326 43.8803 54.357 43.7205L55.0838 43.4694C56.1186 43.1228 56.9815 42.3933 57.4954 41.4307C58.0093 40.468 58.1354 39.3452 57.8476 38.2926C57.5637 37.3126 56.9324 36.4696 56.0719 35.9214C55.2114 35.3731 54.1807 35.1572 53.1725 35.314C53.5848 34.571 53.762 33.7203 53.6806 32.8745C53.5992 32.0286 53.2631 31.2274 52.7167 30.5766C52.1702 29.9258 51.4392 29.4562 50.6202 29.2297C49.8011 29.0032 48.9327 29.0306 48.1295 29.3081L39.8362 32.1755C39.7868 30.689 40.1711 28.5203 39.8637 24.4326C39.504 19.6848 36.089 12.0887 29.7537 13.7537C24.6325 15.0996 29.4105 15.3425 29.2644 26.6906C29.1182 38.0386 15.7441 39.5567 15.7441 39.5567L23.6813 62.5081C30.2493 63.9437 37.0706 63.7315 43.5368 61.8905L43.5258 61.8589C43.6767 61.8293 43.8255 61.7896 43.9712 61.7402L53.1546 58.5653C53.9759 58.2934 54.673 57.737 55.1201 56.9964C55.5672 56.2558 55.735 55.3798 55.5931 54.5264C55.4798 53.9215 55.2111 53.3565 54.8134 52.8868C54.5376 52.5682 54.2085 52.2997 53.8409 52.0935L54.7558 51.7771C55.4486 51.5376 56.0667 51.121 56.5487 50.5688C57.0308 50.0165 57.3601 49.3478 57.5038 48.629C57.6475 47.9102 57.6008 47.1663 57.3682 46.4712C57.1356 45.776 56.7252 45.1538 56.1778 44.6663V44.6649Z" fill="#BD9EFF"/>
<path d="M17.6967 36.0254L0.666016 41.9132L10.9421 71.6364L27.9727 65.7486L17.6967 36.0254Z" fill="#4759BC"/>
<path d="M53.2808 35.6214L44.936 38.5039C44.8943 38.5202 44.8497 38.5278 44.8049 38.5264C44.7602 38.525 44.7162 38.5146 44.6755 38.4958C44.6349 38.477 44.5985 38.4502 44.5684 38.417C44.5384 38.3838 44.5154 38.3449 44.5007 38.3026C44.4861 38.2603 44.4801 38.2154 44.4832 38.1708C44.4863 38.1261 44.4984 38.0825 44.5187 38.0426C44.539 38.0027 44.5672 37.9673 44.6015 37.9386C44.6358 37.9098 44.6756 37.8883 44.7184 37.8753L53.0639 34.9928C53.1473 34.964 53.2386 34.9696 53.3179 35.0082C53.3972 35.0468 53.4579 35.1153 53.4867 35.1987C53.5154 35.282 53.5099 35.3734 53.4713 35.4527C53.4327 35.532 53.3641 35.5927 53.2808 35.6214Z" fill="#5556D9"/>
<path d="M54.4668 44.0317H54.4606L46.9956 46.4613C46.9116 46.4883 46.8203 46.4809 46.7417 46.4408C46.6631 46.4007 46.6037 46.331 46.5763 46.2471C46.5518 46.1632 46.5602 46.073 46.5998 45.9951C46.6395 45.9172 46.7074 45.8573 46.7897 45.8278L54.2547 43.401C54.3375 43.3759 54.4268 43.3841 54.5038 43.4237C54.5807 43.4634 54.6391 43.5315 54.6667 43.6135C54.6943 43.6955 54.6888 43.7851 54.6515 43.8631C54.6142 43.9412 54.5479 44.0017 54.4668 44.0317Z" fill="#5556D9"/>
<path d="M54.549 52.6357L47.3572 55.1222C47.2741 55.1496 47.1835 55.1432 47.105 55.1044C47.0266 55.0655 46.9666 54.9973 46.9381 54.9146C46.9096 54.8318 46.9148 54.7411 46.9526 54.6622C46.9905 54.5833 47.0579 54.5224 47.1403 54.4928L54.3335 52.007C54.3752 51.9908 54.4198 51.9831 54.4645 51.9845C54.5093 51.9859 54.5533 51.9963 54.5939 52.0151C54.6346 52.0339 54.671 52.0607 54.701 52.0939C54.7311 52.1271 54.7541 52.1661 54.7687 52.2084C54.7834 52.2507 54.7893 52.2955 54.7863 52.3402C54.7832 52.3849 54.7711 52.4284 54.7508 52.4683C54.7304 52.5082 54.7023 52.5436 54.668 52.5724C54.6336 52.6011 54.5939 52.6227 54.551 52.6357H54.549Z" fill="#5556D9"/>
<path d="M25.7821 10.8004L21.2491 3.32031L16.8574 6.60428L23.9971 13.0638L25.7821 10.8004Z" fill="#FFD467"/>
<path d="M27.6562 9.54741L23.9961 2.28699L27.5443 0.414062L29.7974 8.66002L27.6562 9.54741Z" fill="#FFD467"/>
<path d="M22.961 16.2545L14.8303 16.2126L14.7754 12.2012L23.1449 13.9437L22.961 16.2545Z" fill="#FFD467"/>
</svg>
